999
"DXF R12 Output" (www.mydxf.blogspot.com)
 0 
SECTION
 2 
HEADER
 9 
$ACADVER
 1 
AC1009
 9 
$EXTMIN
 10 
 0 
 20 
 0 
 9 
$EXTMAX
 10 
 8.5 
 20 
 11 
 0 
ENDSEC
 0 
SECTION
 2 
ENTITIES
0
POLYLINE
8
0
62
7
70
0
10
0.000000
20
0.000000
66
1
0
VERTEX
8
0
10
74.573646
20
101.623028
70
0
0
VERTEX
8
0
10
73.206004
20
101.078644
70
0
0
VERTEX
8
0
10
71.470859
20
100.190175
70
0
0
VERTEX
8
0
10
69.392203
20
98.983058
70
0
0
VERTEX
8
0
10
66.939251
20
97.431751
70
0
0
VERTEX
8
0
10
62.235274
20
94.502420
70
0
0
VERTEX
8
0
10
57.193212
20
91.627242
70
0
0
VERTEX
8
0
10
52.064414
20
88.942971
70
0
0
VERTEX
8
0
10
47.099941
20
86.587571
70
0
0
VERTEX
8
0
10
44.403603
20
85.398491
70
0
0
VERTEX
8
0
10
42.687133
20
84.704350
70
0
0
VERTEX
8
0
10
41.507246
20
84.309046
70
0
0
VERTEX
8
0
10
40.745383
20
84.197205
70
0
0
VERTEX
8
0
10
40.476267
20
84.181770
70
0
0
VERTEX
8
0
10
40.201421
20
84.138092
70
0
0
VERTEX
8
0
10
39.959420
20
84.075109
70
0
0
VERTEX
8
0
10
39.799950
20
84.000268
70
0
0
VERTEX
8
0
10
39.633868
20
83.887580
70
0
0
VERTEX
8
0
10
39.616642
20
83.840649
70
0
0
VERTEX
8
0
10
39.654167
20
83.809721
70
0
0
VERTEX
8
0
10
39.849950
20
83.803331
70
0
0
VERTEX
8
0
10
40.130333
20
83.639782
70
0
0
VERTEX
8
0
10
40.171969
20
83.282622
70
0
0
VERTEX
8
0
10
39.893812
20
82.738740
70
0
0
VERTEX
8
0
10
39.349950
20
82.135913
70
0
0
VERTEX
8
0
10
38.499951
20
81.332999
70
0
0
VERTEX
8
0
10
39.299950
20
81.798467
70
0
0
VERTEX
8
0
10
39.888828
20
82.185692
70
0
0
VERTEX
8
0
10
40.364645
20
82.597247
70
0
0
VERTEX
8
0
10
40.729804
20
83.034878
70
0
0
VERTEX
8
0
10
40.986768
20
83.500269
70
0
0
VERTEX
8
0
10
41.124012
20
83.687859
70
0
0
VERTEX
8
0
10
41.403488
20
83.892119
70
0
0
VERTEX
8
0
10
41.779560
20
84.092534
70
0
0
VERTEX
8
0
10
42.227731
20
84.270574
70
0
0
VERTEX
8
0
10
44.382285
20
85.093700
70
0
0
VERTEX
8
0
10
47.342759
20
86.378747
70
0
0
VERTEX
8
0
10
50.760305
20
87.958549
70
0
0
VERTEX
8
0
10
54.399931
20
89.731703
70
0
0
VERTEX
8
0
10
58.385850
20
91.758112
70
0
0
VERTEX
8
0
10
61.544326
20
93.457004
70
0
0
VERTEX
8
0
10
64.443408
20
95.137986
70
0
0
VERTEX
8
0
10
67.599915
20
97.092972
70
0
0
VERTEX
8
0
10
71.232539
20
99.333516
70
0
0
VERTEX
8
0
10
73.776329
20
100.706658
70
0
0
VERTEX
8
0
10
75.589386
20
101.464116
70
0
0
VERTEX
8
0
10
76.063690
20
101.534889
70
0
0
VERTEX
8
0
10
76.529992
20
101.422928
70
0
0
VERTEX
8
0
10
76.811451
20
101.200867
70
0
0
VERTEX
8
0
10
76.958267
20
100.873795
70
0
0
VERTEX
8
0
10
76.942140
20
99.895922
70
0
0
VERTEX
8
0
10
76.474645
20
98.578599
70
0
0
VERTEX
8
0
10
75.577761
20
97.050961
70
0
0
VERTEX
8
0
10
74.297175
20
95.352260
70
0
0
VERTEX
8
0
10
72.966190
20
93.975777
70
0
0
VERTEX
8
0
10
71.423798
20
92.772524
70
0
0
VERTEX
8
0
10
69.499912
20
91.596961
70
0
0
VERTEX
8
0
10
66.763599
20
90.098212
70
0
0
VERTEX
8
0
10
64.971624
20
89.139593
70
0
0
VERTEX
8
0
10
63.422329
20
88.345422
70
0
0
VERTEX
8
0
10
61.599922
20
87.448133
70
0
0
VERTEX
8
0
10
60.357799
20
86.848835
70
0
0
VERTEX
8
0
10
59.023251
20
86.210095
70
0
0
VERTEX
8
0
10
57.790897
20
85.624537
70
0
0
VERTEX
8
0
10
56.900609
20
85.207058
70
0
0
VERTEX
8
0
10
56.056944
20
84.800684
70
0
0
VERTEX
8
0
10
55.581384
20
84.524866
70
0
0
VERTEX
8
0
10
55.374739
20
84.333681
70
0
0
VERTEX
8
0
10
55.358286
20
84.264186
70
0
0
VERTEX
8
0
10
55.400611
20
84.206662
70
0
0
VERTEX
8
0
10
55.948705
20
84.080766
70
0
0
VERTEX
8
0
10
58.405966
20
84.226469
70
0
0
VERTEX
8
0
10
60.875301
20
84.435814
70
0
0
VERTEX
8
0
10
62.824239
20
84.704487
70
0
0
VERTEX
8
0
10
65.873945
20
85.337654
70
0
0
VERTEX
8
0
10
69.034899
20
86.198595
70
0
0
VERTEX
8
0
10
72.297205
20
87.283939
70
0
0
VERTEX
8
0
10
75.651353
20
88.591172
70
0
0
VERTEX
8
0
10
76.796968
20
89.054104
70
0
0
VERTEX
8
0
10
77.794136
20
89.424452
70
0
0
VERTEX
8
0
10
78.646112
20
89.717278
70
0
0
VERTEX
8
0
10
78.801349
20
89.699366
70
0
0
VERTEX
8
0
10
78.877960
20
89.611914
70
0
0
VERTEX
8
0
10
78.941576
20
89.434004
70
0
0
VERTEX
8
0
10
78.985295
20
89.210198
70
0
0
VERTEX
8
0
10
78.999900
20
88.968326
70
0
0
VERTEX
8
0
10
78.916008
20
88.574826
70
0
0
VERTEX
8
0
10
78.662627
20
88.145716
70
0
0
VERTEX
8
0
10
78.170487
20
87.571110
70
0
0
VERTEX
8
0
10
77.234628
20
86.630132
70
0
0
VERTEX
8
0
10
75.608825
20
85.187376
70
0
0
VERTEX
8
0
10
73.880384
20
83.943537
70
0
0
VERTEX
8
0
10
71.984110
20
82.857452
70
0
0
VERTEX
8
0
10
69.854656
20
81.887354
70
0
0
VERTEX
8
0
10
67.687130
20
81.072124
70
0
0
VERTEX
8
0
10
65.880048
20
80.541670
70
0
0
VERTEX
8
0
10
64.191431
20
80.229151
70
0
0
VERTEX
8
0
10
62.399921
20
80.083497
70
0
0
VERTEX
8
0
10
61.581955
20
80.055954
70
0
0
VERTEX
8
0
10
60.862944
20
80.031728
70
0
0
VERTEX
8
0
10
60.249969
20
80.011065
70
0
0
VERTEX
8
0
10
60.116591
20
80.006538
70
0
0
VERTEX
8
0
10
60.056984
20
79.993744
70
0
0
VERTEX
8
0
10
60.027435
20
79.961790
70
0
0
VERTEX
8
0
10
60.031445
20
79.916011
70
0
0
VERTEX
8
0
10
60.070529
20
79.863003
70
0
0
VERTEX
8
0
10
60.184013
20
79.799348
70
0
0
VERTEX
8
0
10
60.651006
20
79.691981
70
0
0
VERTEX
8
0
10
61.213210
20
79.580148
70
0
0
VERTEX
8
0
10
61.853859
20
79.473563
70
0
0
VERTEX
8
0
10
63.499920
20
79.221394
70
0
0
VERTEX
8
0
10
61.749922
20
79.288702
70
0
0
VERTEX
8
0
10
60.709086
20
79.306170
70
0
0
VERTEX
8
0
10
60.147012
20
79.237845
70
0
0
VERTEX
8
0
10
60.083338
20
79.184067
70
0
0
VERTEX
8
0
10
60.088266
20
79.100867
70
0
0
VERTEX
8
0
10
60.283214
20
78.934361
70
0
0
VERTEX
8
0
10
60.494946
20
78.881020
70
0
0
VERTEX
8
0
10
61.472257
20
78.759097
70
0
0
VERTEX
8
0
10
62.622619
20
78.626730
70
0
0
VERTEX
8
0
10
63.933210
20
78.490373
70
0
0
VERTEX
8
0
10
66.515321
20
78.308889
70
0
0
VERTEX
8
0
10
69.348214
20
78.255396
70
0
0
VERTEX
8
0
10
72.307154
20
78.328482
70
0
0
VERTEX
8
0
10
75.270099
20
78.528001
70
0
0
VERTEX
8
0
10
76.169799
20
78.601162
70
0
0
VERTEX
8
0
10
76.428897
20
78.578078
70
0
0
VERTEX
8
0
10
76.498970
20
78.469564
70
0
0
VERTEX
8
0
10
76.417463
20
78.233086
70
0
0
VERTEX
8
0
10
75.918495
20
77.643971
70
0
0
VERTEX
8
0
10
74.704188
20
76.774417
70
0
0
VERTEX
8
0
10
73.197808
20
75.854424
70
0
0
VERTEX
8
0
10
71.572277
20
75.015763
70
0
0
VERTEX
8
0
10
68.809147
20
73.834540
70
0
0
VERTEX
8
0
10
66.577311
20
73.181703
70
0
0
VERTEX
8
0
10
64.202814
20
72.880724
70
0
0
VERTEX
8
0
10
60.955690
20
72.825748
70
0
0
VERTEX
8
0
10
58.827721
20
72.841999
70
0
0
VERTEX
8
0
10
57.758110
20
72.792036
70
0
0
VERTEX
8
0
10
57.292769
20
72.672523
70
0
0
VERTEX
8
0
10
57.222715
20
72.584996
70
0
0
VERTEX
8
0
10
57.255696
20
72.477848
70
0
0
VERTEX
8
0
10
57.361741
20
72.424507
70
0
0
VERTEX
8
0
10
57.903586
20
72.348916
70
0
0
VERTEX
8
0
10
58.548068
20
72.275125
70
0
0
VERTEX
8
0
10
59.289347
20
72.210862
70
0
0
VERTEX
8
0
10
60.030973
20
72.146236
70
0
0
VERTEX
8
0
10
60.676571
20
72.071344
70
0
0
VERTEX
8
0
10
61.218238
20
71.994314
70
0
0
VERTEX
8
0
10
61.327980
20
71.938893
70
0
0
VERTEX
8
0
10
61.362645
20
71.834156
70
0
0
VERTEX
8
0
10
61.299270
20
71.743850
70
0
0
VERTEX
8
0
10
60.856600
20
71.584205
70
0
0
VERTEX
8
0
10
60.205953
20
71.518060
70
0
0
VERTEX
8
0
10
59.628059
20
71.595805
70
0
0
VERTEX
8
0
10
58.498005
20
71.868928
70
0
0
VERTEX
8
0
10
58.402084
20
71.826341
70
0
0
VERTEX
8
0
10
58.411457
20
71.721810
70
0
0
VERTEX
8
0
10
58.862686
20
71.405582
70
0
0
VERTEX
8
0
10
60.199924
20
70.931315
70
0
0
VERTEX
8
0
10
62.206410
20
70.371006
70
0
0
VERTEX
8
0
10
64.260035
20
70.000207
70
0
0
VERTEX
8
0
10
66.553929
20
69.791845
70
0
0
VERTEX
8
0
10
69.299913
20
69.723879
70
0
0
VERTEX
8
0
10
70.719218
20
69.734019
70
0
0
VERTEX
8
0
10
72.005262
20
69.765443
70
0
0
VERTEX
8
0
10
73.081178
20
69.809877
70
0
0
VERTEX
8
0
10
73.454299
20
69.866569
70
0
0
VERTEX
8
0
10
73.940767
20
69.889430
70
0
0
VERTEX
8
0
10
74.147807
20
69.670099
70
0
0
VERTEX
8
0
10
74.040466
20
69.244233
70
0
0
VERTEX
8
0
10
73.576364
20
68.671678
70
0
0
VERTEX
8
0
10
72.650456
20
67.864598
70
0
0
VERTEX
8
0
10
71.598598
20
67.230345
70
0
0
VERTEX
8
0
10
68.396095
20
65.910139
70
0
0
VERTEX
8
0
10
64.726863
20
64.919445
70
0
0
VERTEX
8
0
10
61.199923
20
64.479621
70
0
0
VERTEX
8
0
10
60.376047
20
64.429078
70
0
0
VERTEX
8
0
10
59.470838
20
64.351265
70
0
0
VERTEX
8
0
10
58.620434
20
64.260044
70
0
0
VERTEX
8
0
10
57.981759
20
64.168926
70
0
0
VERTEX
8
0
10
57.281115
20
64.076844
70
0
0
VERTEX
8
0
10
56.655428
20
64.048761
70
0
0
VERTEX
8
0
10
56.024722
20
64.083907
70
0
0
VERTEX
8
0
10
55.308359
20
64.184149
70
0
0
VERTEX
8
0
10
54.782308
20
64.267940
70
0
0
VERTEX
8
0
10
54.324197
20
64.323798
70
0
0
VERTEX
8
0
10
53.940449
20
64.357519
70
0
0
VERTEX
8
0
10
53.861115
20
64.328143
70
0
0
VERTEX
8
0
10
53.827414
20
64.234215
70
0
0
VERTEX
8
0
10
53.878493
20
64.148487
70
0
0
VERTEX
8
0
10
55.078781
20
63.357287
70
0
0
VERTEX
8
0
10
56.400594
20
62.550577
70
0
0
VERTEX
8
0
10
57.705665
20
61.847289
70
0
0
VERTEX
8
0
10
58.525862
20
61.465368
70
0
0
VERTEX
8
0
10
59.719279
20
60.967448
70
0
0
VERTEX
8
0
10
61.041557
20
60.448353
70
0
0
VERTEX
8
0
10
62.305659
20
59.985245
70
0
0
VERTEX
8
0
10
63.464970
20
59.570916
70
0
0
VERTEX
8
0
10
64.468194
20
59.199609
70
0
0
VERTEX
8
0
10
65.327345
20
58.872493
70
0
0
VERTEX
8
0
10
65.462775
20
58.792367
70
0
0
VERTEX
8
0
10
65.488063
20
58.544270
70
0
0
VERTEX
8
0
10
65.145205
20
58.251944
70
0
0
VERTEX
8
0
10
64.444436
20
57.949732
70
0
0
VERTEX
8
0
10
63.472558
20
57.687780
70
0
0
VERTEX
8
0
10
61.586019
20
57.430471
70
0
0
VERTEX
8
0
10
59.396175
20
57.436698
70
0
0
VERTEX
8
0
10
57.127914
20
57.690193
70
0
0
VERTEX
8
0
10
54.999931
20
58.178772
70
0
0
VERTEX
8
0
10
54.173646
20
58.415538
70
0
0
VERTEX
8
0
10
53.428683
20
58.614471
70
0
0
VERTEX
8
0
10
52.801181
20
58.770486
70
0
0
VERTEX
8
0
10
52.599934
20
58.792700
70
0
0
VERTEX
8
0
10
52.531992
20
58.752279
70
0
0
VERTEX
8
0
10
52.532396
20
58.673223
70
0
0
VERTEX
8
0
10
52.742547
20
58.458816
70
0
0
VERTEX
8
0
10
53.358724
20
58.146132
70
0
0
VERTEX
8
0
10
54.133542
20
57.863402
70
0
0
VERTEX
8
0
10
54.528224
20
57.724738
70
0
0
VERTEX
8
0
10
54.843752
20
57.581155
70
0
0
VERTEX
8
0
10
55.061620
20
57.449690
70
0
0
VERTEX
8
0
10
55.079113
20
57.366619
70
0
0
VERTEX
8
0
10
54.898857
20
57.241565
70
0
0
VERTEX
8
0
10
54.526305
20
57.205235
70
0
0
VERTEX
8
0
10
54.138054
20
57.244622
70
0
0
VERTEX
8
0
10
53.889932
20
57.368295
70
0
0
VERTEX
8
0
10
53.456178
20
57.691953
70
0
0
VERTEX
8
0
10
52.864939
20
58.027066
70
0
0
VERTEX
8
0
10
52.298150
20
58.297472
70
0
0
VERTEX
8
0
10
52.231711
20
58.292154
70
0
0
VERTEX
8
0
10
52.199934
20
58.233565
70
0
0
VERTEX
8
0
10
52.415436
20
57.816188
70
0
0
VERTEX
8
0
10
53.787016
20
56.887117
70
0
0
VERTEX
8
0
10
55.480040
20
55.874416
70
0
0
VERTEX
8
0
10
57.386850
20
54.885433
70
0
0
VERTEX
8
0
10
58.462605
20
54.345758
70
0
0
VERTEX
8
0
10
59.357502
20
53.857742
70
0
0
VERTEX
8
0
10
60.092978
20
53.427266
70
0
0
VERTEX
8
0
10
60.137392
20
53.308624
70
0
0
VERTEX
8
0
10
59.819856
20
52.987574
70
0
0
VERTEX
8
0
10
58.890879
20
52.739774
70
0
0
VERTEX
8
0
10
57.561670
20
52.554731
70
0
0
VERTEX
8
0
10
55.799930
20
52.454251
70
0
0
VERTEX
8
0
10
54.257578
20
52.428825
70
0
0
VERTEX
8
0
10
53.153737
20
52.472084
70
0
0
VERTEX
8
0
10
52.091181
20
52.602472
70
0
0
VERTEX
8
0
10
50.699936
20
52.860658
70
0
0
VERTEX
8
0
10
49.755152
20
53.059783
70
0
0
VERTEX
8
0
10
48.902126
20
53.250934
70
0
0
VERTEX
8
0
10
48.189221
20
53.419935
70
0
0
VERTEX
8
0
10
47.949939
20
53.498007
70
0
0
VERTEX
8
0
10
47.707628
20
53.543471
70
0
0
VERTEX
8
0
10
47.611472
20
53.445021
70
0
0
VERTEX
8
0
10
47.687652
20
53.226196
70
0
0
VERTEX
8
0
10
47.950789
20
52.944789
70
0
0
VERTEX
8
0
10
48.436389
20
52.608635
70
0
0
VERTEX
8
0
10
49.662458
20
51.999037
70
0
0
VERTEX
8
0
10
51.160960
20
51.310979
70
0
0
VERTEX
8
0
10
52.820440
20
50.608269
70
0
0
VERTEX
8
0
10
53.910545
20
50.139338
70
0
0
VERTEX
8
0
10
54.596247
20
49.775669
70
0
0
VERTEX
8
0
10
54.959897
20
49.492163
70
0
0
VERTEX
8
0
10
55.001678
20
49.393685
70
0
0
VERTEX
8
0
10
54.961023
20
49.294738
70
0
0
VERTEX
8
0
10
54.845209
20
49.232549
70
0
0
VERTEX
8
0
10
54.346017
20
49.136777
70
0
0
VERTEX
8
0
10
53.746421
20
49.039869
70
0
0
VERTEX
8
0
10
53.061564
20
48.951178
70
0
0
VERTEX
8
0
10
50.843903
20
48.856030
70
0
0
VERTEX
8
0
10
48.436323
20
49.066159
70
0
0
VERTEX
8
0
10
46.001255
20
49.557964
70
0
0
VERTEX
8
0
10
43.699945
20
50.307072
70
0
0
VERTEX
8
0
10
43.484434
20
50.381575
70
0
0
VERTEX
8
0
10
43.457113
20
50.375175
70
0
0
VERTEX
8
0
10
43.448863
20
50.348354
70
0
0
VERTEX
8
0
10
43.497804
20
50.252602
70
0
0
VERTEX
8
0
10
43.784808
20
49.932337
70
0
0
VERTEX
8
0
10
43.985145
20
49.728631
70
0
0
VERTEX
8
0
10
44.186147
20
49.556594
70
0
0
VERTEX
8
0
10
44.363964
20
49.431297
70
0
0
VERTEX
8
0
10
44.470200
20
49.400312
70
0
0
VERTEX
8
0
10
44.606258
20
49.373173
70
0
0
VERTEX
8
0
10
45.100802
20
49.163633
70
0
0
VERTEX
8
0
10
45.682990
20
48.903302
70
0
0
VERTEX
8
0
10
46.335335
20
48.594597
70
0
0
VERTEX
8
0
10
47.155620
20
48.178891
70
0
0
VERTEX
8
0
10
47.641582
20
47.876104
70
0
0
VERTEX
8
0
10
47.913514
20
47.624035
70
0
0
VERTEX
8
0
10
47.999940
20
47.388322
70
0
0
VERTEX
8
0
10
47.979575
20
47.227351
70
0
0
VERTEX
8
0
10
47.919717
20
47.074642
70
0
0
VERTEX
8
0
10
47.831313
20
46.952742
70
0
0
VERTEX
8
0
10
47.726843
20
46.882964
70
0
0
VERTEX
8
0
10
47.532257
20
46.859015
70
0
0
VERTEX
8
0
10
46.850442
20
46.949711
70
0
0
VERTEX
8
0
10
46.038182
20
47.081379
70
0
0
VERTEX
8
0
10
45.126846
20
47.257349
70
0
0
VERTEX
8
0
10
44.234550
20
47.436256
70
0
0
VERTEX
8
0
10
43.483473
20
47.575952
70
0
0
VERTEX
8
0
10
42.826228
20
47.691173
70
0
0
VERTEX
8
0
10
42.807940
20
47.686235
70
0
0
VERTEX
8
0
10
42.799946
20
47.669062
70
0
0
VERTEX
8
0
10
42.817864
20
47.624189
70
0
0
VERTEX
8
0
10
43.108383
20
47.320035
70
0
0
VERTEX
8
0
10
43.447444
20
46.973784
70
0
0
VERTEX
8
0
10
43.849945
20
46.575628
70
0
0
VERTEX
8
0
10
44.249653
20
46.163113
70
0
0
VERTEX
8
0
10
44.533321
20
45.816273
70
0
0
VERTEX
8
0
10
44.696114
20
45.555986
70
0
0
VERTEX
8
0
10
44.699547
20
45.500640
70
0
0
VERTEX
8
0
10
44.660069
20
45.461699
70
0
0
VERTEX
8
0
10
44.217807
20
45.440435
70
0
0
VERTEX
8
0
10
42.786816
20
45.836964
70
0
0
VERTEX
8
0
10
41.361700
20
46.295548
70
0
0
VERTEX
8
0
10
40.356598
20
46.723635
70
0
0
VERTEX
8
0
10
39.701659
20
47.034512
70
0
0
VERTEX
8
0
10
39.279635
20
47.174563
70
0
0
VERTEX
8
0
10
39.117175
20
47.137619
70
0
0
VERTEX
8
0
10
39.094589
20
47.008990
70
0
0
VERTEX
8
0
10
39.405055
20
46.716940
70
0
0
VERTEX
8
0
10
40.714596
20
46.034293
70
0
0
VERTEX
8
0
10
42.086043
20
45.351873
70
0
0
VERTEX
8
0
10
42.178690
20
45.348544
70
0
0
VERTEX
8
0
10
42.243150
20
45.415175
70
0
0
VERTEX
8
0
10
42.315361
20
45.463511
70
0
0
VERTEX
8
0
10
42.604503
20
45.441302
70
0
0
VERTEX
8
0
10
42.970231
20
45.383676
70
0
0
VERTEX
8
0
10
43.393531
20
45.285564
70
0
0
VERTEX
8
0
10
43.831047
20
45.176338
70
0
0
VERTEX
8
0
10
44.241196
20
45.084109
70
0
0
VERTEX
8
0
10
44.586917
20
45.014968
70
0
0
VERTEX
8
0
10
44.743529
20
45.000317
70
0
0
VERTEX
8
0
10
44.952270
20
45.147255
70
0
0
VERTEX
8
0
10
44.978544
20
45.504937
70
0
0
VERTEX
8
0
10
44.794964
20
45.997852
70
0
0
VERTEX
8
0
10
44.449944
20
46.467901
70
0
0
VERTEX
8
0
10
43.899945
20
47.057373
70
0
0
VERTEX
8
0
10
44.399944
20
46.926925
70
0
0
VERTEX
8
0
10
45.559267
20
46.664098
70
0
0
VERTEX
8
0
10
46.655618
20
46.497335
70
0
0
VERTEX
8
0
10
47.573377
20
46.426524
70
0
0
VERTEX
8
0
10
47.960244
20
46.529275
70
0
0
VERTEX
8
0
10
48.254041
20
46.813736
70
0
0
VERTEX
8
0
10
48.344045
20
47.147242
70
0
0
VERTEX
8
0
10
48.215259
20
47.528061
70
0
0
VERTEX
8
0
10
47.864721
20
47.950917
70
0
0
VERTEX
8
0
10
47.299941
20
48.500313
70
0
0
VERTEX
8
0
10
51.142678
20
48.500313
70
0
0
VERTEX
8
0
10
53.197295
20
48.511729
70
0
0
VERTEX
8
0
10
54.302281
20
48.557956
70
0
0
VERTEX
8
0
10
54.973660
20
48.640781
70
0
0
VERTEX
8
0
10
55.272812
20
48.800313
70
0
0
VERTEX
8
0
10
55.453774
20
49.258007
70
0
0
VERTEX
8
0
10
55.268055
20
49.724505
70
0
0
VERTEX
8
0
10
54.608708
20
50.240959
70
0
0
VERTEX
8
0
10
53.351619
20
50.875695
70
0
0
VERTEX
8
0
10
52.606018
20
51.218226
70
0
0
VERTEX
8
0
10
51.896992
20
51.544796
70
0
0
VERTEX
8
0
10
51.297089
20
51.821827
70
0
0
VERTEX
8
0
10
50.999936
20
51.960353
70
0
0
VERTEX
8
0
10
50.808528
20
52.071547
70
0
0
VERTEX
8
0
10
50.797300
20
52.101690
70
0
0
VERTEX
8
0
10
50.821369
20
52.123029
70
0
0
VERTEX
8
0
10
51.038022
20
52.124699
70
0
0
VERTEX
8
0
10
51.699935
20
52.047832
70
0
0
VERTEX
8
0
10
52.337266
20
51.992238
70
0
0
VERTEX
8
0
10
53.340558
20
51.950166
70
0
0
VERTEX
8
0
10
54.478213
20
51.924845
70
0
0
VERTEX
8
0
10
55.599930
20
51.922511
70
0
0
VERTEX
8
0
10
58.130150
20
52.054596
70
0
0
VERTEX
8
0
10
59.782177
20
52.447914
70
0
0
VERTEX
8
0
10
60.164540
20
52.686552
70
0
0
VERTEX
8
0
10
60.433582
20
53.048168
70
0
0
VERTEX
8
0
10
60.492357
20
53.422313
70
0
0
VERTEX
8
0
10
60.331497
20
53.765187
70
0
0
VERTEX
8
0
10
60.104775
20
53.950300
70
0
0
VERTEX
8
0
10
59.408035
20
54.352410
70
0
0
VERTEX
8
0
10
58.560717
20
54.812140
70
0
0
VERTEX
8
0
10
57.613970
20
55.293651
70
0
0
VERTEX
8
0
10
56.688502
20
55.760383
70
0
0
VERTEX
8
0
10
55.909055
20
56.174120
70
0
0
VERTEX
8
0
10
55.242972
20
56.541982
70
0
0
VERTEX
8
0
10
55.199930
20
56.615233
70
0
0
VERTEX
8
0
10
55.385336
20
56.833774
70
0
0
VERTEX
8
0
10
56.337440
20
56.951017
70
0
0
VERTEX
8
0
10
57.536544
20
56.988359
70
0
0
VERTEX
8
0
10
58.860190
20
56.913673
70
0
0
VERTEX
8
0
10
60.370919
20
56.841750
70
0
0
VERTEX
8
0
10
61.927942
20
56.905031
70
0
0
VERTEX
8
0
10
63.449074
20
57.096893
70
0
0
VERTEX
8
0
10
64.851809
20
57.410582
70
0
0
VERTEX
8
0
10
65.402683
20
57.651226
70
0
0
VERTEX
8
0
10
65.846383
20
58.028996
70
0
0
VERTEX
8
0
10
66.096587
20
58.457578
70
0
0
VERTEX
8
0
10
66.092365
20
58.847860
70
0
0
VERTEX
8
0
10
65.941481
20
59.010818
70
0
0
VERTEX
8
0
10
65.047881
20
59.423575
70
0
0
VERTEX
8
0
10
63.949899
20
59.890543
70
0
0
VERTEX
8
0
10
62.637832
20
60.399297
70
0
0
VERTEX
8
0
10
60.171191
20
61.364308
70
0
0
VERTEX
8
0
10
58.091954
20
62.273767
70
0
0
VERTEX
8
0
10
56.392811
20
63.091497
70
0
0
VERTEX
8
0
10
56.199929
20
63.402527
70
0
0
VERTEX
8
0
10
56.272199
20
63.486130
70
0
0
VERTEX
8
0
10
56.755905
20
63.545353
70
0
0
VERTEX
8
0
10
57.391927
20
63.587103
70
0
0
VERTEX
8
0
10
58.201243
20
63.600294
70
0
0
VERTEX
8
0
10
61.675780
20
63.819226
70
0
0
VERTEX
8
0
10
65.370204
20
64.476863
70
0
0
VERTEX
8
0
10
68.893400
20
65.480836
70
0
0
VERTEX
8
0
10
71.844796
20
66.744096
70
0
0
VERTEX
8
0
10
73.227870
20
67.624513
70
0
0
VERTEX
8
0
10
74.279315
20
68.651268
70
0
0
VERTEX
8
0
10
74.769947
20
69.558232
70
0
0
VERTEX
8
0
10
74.764047
20
69.876540
70
0
0
VERTEX
8
0
10
74.562794
20
70.123222
70
0
0
VERTEX
8
0
10
74.371146
20
70.181063
70
0
0
VERTEX
8
0
10
73.245924
20
70.212958
70
0
0
VERTEX
8
0
10
71.929556
20
70.230270
70
0
0
VERTEX
8
0
10
70.412799
20
70.222922
70
0
0
VERTEX
8
0
10
67.697884
20
70.251304
70
0
0
VERTEX
8
0
10
65.162719
20
70.404266
70
0
0
VERTEX
8
0
10
63.036968
20
70.651984
70
0
0
VERTEX
8
0
10
61.741965
20
70.984851
70
0
0
VERTEX
8
0
10
61.556538
20
71.095963
70
0
0
VERTEX
8
0
10
61.530702
20
71.150304
70
0
0
VERTEX
8
0
10
61.552372
20
71.206437
70
0
0
VERTEX
8
0
10
61.750920
20
71.349661
70
0
0
VERTEX
8
0
10
62.399921
20
71.657255
70
0
0
VERTEX
8
0
10
62.959585
20
71.875731
70
0
0
VERTEX
8
0
10
63.680540
20
72.084552
70
0
0
VERTEX
8
0
10
64.469916
20
72.262337
70
0
0
VERTEX
8
0
10
65.245179
20
72.387120
70
0
0
VERTEX
8
0
10
66.012245
20
72.502770
70
0
0
VERTEX
8
0
10
66.875723
20
72.666600
70
0
0
VERTEX
8
0
10
67.701874
20
72.850067
70
0
0
VERTEX
8
0
10
68.345175
20
73.025042
70
0
0
VERTEX
8
0
10
70.363666
20
73.777777
70
0
0
VERTEX
8
0
10
72.603291
20
74.875210
70
0
0
VERTEX
8
0
10
74.683400
20
76.103480
70
0
0
VERTEX
8
0
10
76.186523
20
77.251820
70
0
0
VERTEX
8
0
10
76.467506
20
77.540336
70
0
0
VERTEX
8
0
10
76.656125
20
77.819667
70
0
0
VERTEX
8
0
10
76.763458
20
78.108493
70
0
0
VERTEX
8
0
10
76.799903
20
78.424463
70
0
0
VERTEX
8
0
10
76.799903
20
79.045564
70
0
0
VERTEX
8
0
10
73.749907
20
78.872920
70
0
0
VERTEX
8
0
10
71.329107
20
78.775864
70
0
0
VERTEX
8
0
10
68.782867
20
78.751913
70
0
0
VERTEX
8
0
10
66.497304
20
78.794642
70
0
0
VERTEX
8
0
10
65.037184
20
78.914614
70
0
0
VERTEX
8
0
10
64.572647
20
78.986357
70
0
0
VERTEX
8
0
10
64.381363
20
79.060673
70
0
0
VERTEX
8
0
10
64.338054
20
79.164488
70
0
0
VERTEX
8
0
10
64.410378
20
79.312877
70
0
0
VERTEX
8
0
10
64.580201
20
79.446368
70
0
0
VERTEX
8
0
10
64.996125
20
79.634944
70
0
0
VERTEX
8
0
10
65.509506
20
79.831159
70
0
0
VERTEX
8
0
10
66.073109
20
80.010084
70
0
0
VERTEX
8
0
10
67.561282
20
80.481727
70
0
0
VERTEX
8
0
10
69.363120
20
81.131031
70
0
0
VERTEX
8
0
10
71.090034
20
81.807168
70
0
0
VERTEX
8
0
10
72.299909
20
82.351235
70
0
0
VERTEX
8
0
10
74.326099
20
83.521769
70
0
0
VERTEX
8
0
10
76.477419
20
85.101850
70
0
0
VERTEX
8
0
10
78.351356
20
86.750138
70
0
0
VERTEX
8
0
10
79.422714
20
88.084174
70
0
0
VERTEX
8
0
10
79.713896
20
88.709648
70
0
0
VERTEX
8
0
10
79.789730
20
89.278264
70
0
0
VERTEX
8
0
10
79.646340
20
89.754482
70
0
0
VERTEX
8
0
10
79.303415
20
90.116349
70
0
0
VERTEX
8
0
10
78.886025
20
90.250109
70
0
0
VERTEX
8
0
10
78.357809
20
90.188715
70
0
0
VERTEX
8
0
10
77.446763
20
89.883795
70
0
0
VERTEX
8
0
10
75.053420
20
88.932627
70
0
0
VERTEX
8
0
10
71.170713
20
87.512160
70
0
0
VERTEX
8
0
10
66.891781
20
86.215530
70
0
0
VERTEX
8
0
10
62.994835
20
85.232677
70
0
0
VERTEX
8
0
10
60.842832
20
85.010757
70
0
0
VERTEX
8
0
10
60.299924
20
85.021248
70
0
0
VERTEX
8
0
10
60.799924
20
85.356348
70
0
0
VERTEX
8
0
10
61.071557
20
85.559498
70
0
0
VERTEX
8
0
10
61.534922
20
85.953025
70
0
0
VERTEX
8
0
10
62.065546
20
86.423243
70
0
0
VERTEX
8
0
10
62.599921
20
86.917022
70
0
0
VERTEX
8
0
10
63.416349
20
87.612716
70
0
0
VERTEX
8
0
10
64.329746
20
88.252178
70
0
0
VERTEX
8
0
10
65.530876
20
88.961479
70
0
0
VERTEX
8
0
10
67.299915
20
89.903557
70
0
0
VERTEX
8
0
10
70.140394
20
91.417069
70
0
0
VERTEX
8
0
10
72.035690
20
92.542968
70
0
0
VERTEX
8
0
10
73.419971
20
93.531866
70
0
0
VERTEX
8
0
10
74.565843
20
94.569125
70
0
0
VERTEX
8
0
10
75.615583
20
95.776411
70
0
0
VERTEX
8
0
10
76.623826
20
97.188176
70
0
0
VERTEX
8
0
10
77.453362
20
98.587204
70
0
0
VERTEX
8
0
10
77.937525
20
99.736155
70
0
0
VERTEX
8
0
10
78.124804
20
100.379059
70
0
0
VERTEX
8
0
10
78.177778
20
100.740934
70
0
0
VERTEX
8
0
10
78.134415
20
101.030675
70
0
0
VERTEX
8
0
10
77.985082
20
101.366805
70
0
0
VERTEX
8
0
10
77.783966
20
101.648865
70
0
0
VERTEX
8
0
10
77.561099
20
101.811720
70
0
0
VERTEX
8
0
10
77.241669
20
101.899703
70
0
0
VERTEX
8
0
10
76.693340
20
101.944039
70
0
0
VERTEX
8
0
10
76.232035
20
101.934913
70
0
0
VERTEX
8
0
10
75.660888
20
101.867807
70
0
0
VERTEX
8
0
10
75.077333
20
101.759611
70
0
0
VERTEX
8
0
10
74.573646
20
101.623028
70
0
0
VERTEX
8
0
10
74.573646
20
101.623028
70
0
0
SEQEND
8
0
0
POLYLINE
8
0
62
7
70
0
10
0.000000
20
0.000000
66
1
0
VERTEX
8
0
10
61.073000
20
86.116842
70
0
0
VERTEX
8
0
10
60.829767
20
85.923500
70
0
0
VERTEX
8
0
10
60.572921
20
85.759081
70
0
0
VERTEX
8
0
10
60.338109
20
85.641956
70
0
0
VERTEX
8
0
10
60.175348
20
85.606586
70
0
0
VERTEX
8
0
10
59.994154
20
85.579783
70
0
0
VERTEX
8
0
10
59.671818
20
85.480788
70
0
0
VERTEX
8
0
10
59.298293
20
85.345805
70
0
0
VERTEX
8
0
10
58.916993
20
85.187212
70
0
0
VERTEX
8
0
10
58.534726
20
85.033867
70
0
0
VERTEX
8
0
10
58.158294
20
84.914599
70
0
0
VERTEX
8
0
10
57.833305
20
84.839113
70
0
0
VERTEX
8
0
10
57.645454
20
84.839203
70
0
0
VERTEX
8
0
10
57.613043
20
84.867459
70
0
0
VERTEX
8
0
10
57.621576
20
84.909602
70
0
0
VERTEX
8
0
10
57.781427
20
85.047055
70
0
0
VERTEX
8
0
10
58.121897
20
85.240192
70
0
0
VERTEX
8
0
10
58.603809
20
85.461824
70
0
0
VERTEX
8
0
10
59.158648
20
85.702176
70
0
0
VERTEX
8
0
10
59.754190
20
85.963397
70
0
0
VERTEX
8
0
10
60.303500
20
86.207024
70
0
0
VERTEX
8
0
10
60.699924
20
86.386328
70
0
0
VERTEX
8
0
10
61.375732
20
86.684695
70
0
0
VERTEX
8
0
10
61.537584
20
86.666485
70
0
0
VERTEX
8
0
10
61.568872
20
86.610138
70
0
0
VERTEX
8
0
10
61.545577
20
86.550045
70
0
0
VERTEX
8
0
10
61.073000
20
86.116842
70
0
0
VERTEX
8
0
10
61.073000
20
86.116842
70
0
0
SEQEND
8
0
0
POLYLINE
8
0
62
7
70
0
10
0.000000
20
0.000000
66
1
0
VERTEX
8
0
10
72.199909
20
94.988812
70
0
0
VERTEX
8
0
10
71.916309
20
94.782573
70
0
0
VERTEX
8
0
10
71.420848
20
94.466258
70
0
0
VERTEX
8
0
10
70.841707
20
94.115238
70
0
0
VERTEX
8
0
10
70.249911
20
93.775184
70
0
0
VERTEX
8
0
10
69.694034
20
93.458697
70
0
0
VERTEX
8
0
10
69.225850
20
93.179747
70
0
0
VERTEX
8
0
10
68.825083
20
92.932420
70
0
0
VERTEX
8
0
10
68.799913
20
92.887130
70
0
0
VERTEX
8
0
10
68.858817
20
92.784471
70
0
0
VERTEX
8
0
10
68.977170
20
92.783519
70
0
0
VERTEX
8
0
10
70.631810
20
93.737359
70
0
0
VERTEX
8
0
10
72.222896
20
94.710530
70
0
0
VERTEX
8
0
10
72.687892
20
95.180811
70
0
0
VERTEX
8
0
10
72.765302
20
95.339859
70
0
0
VERTEX
8
0
10
72.758888
20
95.368251
70
0
0
VERTEX
8
0
10
72.730359
20
95.374024
70
0
0
VERTEX
8
0
10
72.580182
20
95.288763
70
0
0
VERTEX
8
0
10
72.199909
20
94.988812
70
0
0
VERTEX
8
0
10
72.199909
20
94.988812
70
0
0
SEQEND
8
0
0
POLYLINE
8
0
62
7
70
0
10
0.000000
20
0.000000
66
1
0
VERTEX
8
0
10
61.599922
20
89.700261
70
0
0
VERTEX
8
0
10
61.349429
20
89.595809
70
0
0
VERTEX
8
0
10
61.193673
20
89.508059
70
0
0
VERTEX
8
0
10
61.167531
20
89.456761
70
0
0
VERTEX
8
0
10
61.199923
20
89.424498
70
0
0
VERTEX
8
0
10
61.354881
20
89.440016
70
0
0
VERTEX
8
0
10
61.588047
20
89.500826
70
0
0
VERTEX
8
0
10
61.848198
20
89.588331
70
0
0
VERTEX
8
0
10
62.099922
20
89.693038
70
0
0
VERTEX
8
0
10
62.498435
20
89.897204
70
0
0
VERTEX
8
0
10
62.514647
20
89.935453
70
0
0
VERTEX
8
0
10
62.482003
20
89.961148
70
0
0
VERTEX
8
0
10
62.197840
20
89.916469
70
0
0
VERTEX
8
0
10
61.599922
20
89.700261
70
0
0
VERTEX
8
0
10
61.599922
20
89.700261
70
0
0
SEQEND
8
0
0
POLYLINE
8
0
62
7
70
0
10
0.000000
20
0.000000
66
1
0
VERTEX
8
0
10
3.253387
20
87.667371
70
0
0
VERTEX
8
0
10
3.457340
20
87.617821
70
0
0
VERTEX
8
0
10
3.610381
20
87.545999
70
0
0
VERTEX
8
0
10
3.691070
20
87.465057
70
0
0
VERTEX
8
0
10
3.691583
20
87.386652
70
0
0
VERTEX
8
0
10
3.686688
20
87.343751
70
0
0
VERTEX
8
0
10
3.716633
20
87.312642
70
0
0
VERTEX
8
0
10
3.926616
20
87.253466
70
0
0
VERTEX
8
0
10
4.257102
20
87.212974
70
0
0
VERTEX
8
0
10
4.688191
20
87.200264
70
0
0
VERTEX
8
0
10
5.114385
20
87.185836
70
0
0
VERTEX
8
0
10
5.473401
20
87.141514
70
0
0
VERTEX
8
0
10
5.741330
20
87.078498
70
0
0
VERTEX
8
0
10
5.799993
20
87.000265
70
0
0
VERTEX
8
0
10
5.853049
20
86.922594
70
0
0
VERTEX
8
0
10
6.060900
20
86.859015
70
0
0
VERTEX
8
0
10
6.347765
20
86.814724
70
0
0
VERTEX
8
0
10
6.688188
20
86.800265
70
0
0
VERTEX
8
0
10
7.037354
20
86.785642
70
0
0
VERTEX
8
0
10
7.351786
20
86.741515
70
0
0
VERTEX
8
0
10
7.600050
20
86.678043
70
0
0
VERTEX
8
0
10
7.699990
20
86.600265
70
0
0
VERTEX
8
0
10
7.794141
20
86.524291
70
0
0
VERTEX
8
0
10
8.004133
20
86.465830
70
0
0
VERTEX
8
0
10
8.270103
20
86.429246
70
0
0
VERTEX
8
0
10
8.561793
20
86.423466
70
0
0
VERTEX
8
0
10
8.836245
20
86.438129
70
0
0
VERTEX
8
0
10
8.975690
20
86.467469
70
0
0
VERTEX
8
0
10
8.989456
20
86.483996
70
0
0
VERTEX
8
0
10
8.981491
20
86.503976
70
0
0
VERTEX
8
0
10
8.899989
20
86.542878
70
0
0
VERTEX
8
0
10
8.732911
20
86.592970
70
0
0
VERTEX
8
0
10
8.561676
20
86.663876
70
0
0
VERTEX
8
0
10
8.410798
20
86.743575
70
0
0
VERTEX
8
0
10
8.309990
20
86.819678
70
0
0
VERTEX
8
0
10
8.189161
20
86.889633
70
0
0
VERTEX
8
0
10
7.952552
20
86.947217
70
0
0
VERTEX
8
0
10
7.664878
20
86.986998
70
0
0
VERTEX
8
0
10
7.359991
20
87.000265
70
0
0
VERTEX
8
0
10
7.068714
20
87.013212
70
0
0
VERTEX
8
0
10
6.823241
20
87.052844
70
0
0
VERTEX
8
0
10
6.646396
20
87.109841
70
0
0
VERTEX
8
0
10
6.599992
20
87.179257
70
0
0
VERTEX
8
0
10
6.485266
20
87.326320
70
0
0
VERTEX
8
0
10
5.832852
20
87.467498
70
0
0
VERTEX
8
0
10
4.946448
20
87.593696
70
0
0
VERTEX
8
0
10
3.799995
20
87.689965
70
0
0
VERTEX
8
0
10
3.405580
20
87.712225
70
0
0
VERTEX
8
0
10
3.185680
20
87.712920
70
0
0
VERTEX
8
0
10
3.175930
20
87.704931
70
0
0
VERTEX
8
0
10
3.180909
20
87.693351
70
0
0
VERTEX
8
0
10
3.253387
20
87.667371
70
0
0
VERTEX
8
0
10
3.253387
20
87.667371
70
0
0
SEQEND
8
0
0
POLYLINE
8
0
62
7
70
0
10
0.000000
20
0.000000
66
1
0
VERTEX
8
0
10
0.399999
20
87.300264
70
0
0
VERTEX
8
0
10
0.061479
20
87.088667
70
0
0
VERTEX
8
0
10
0.043312
20
87.047676
70
0
0
VERTEX
8
0
10
0.071992
20
87.013214
70
0
0
VERTEX
8
0
10
0.238421
20
87.022291
70
0
0
VERTEX
8
0
10
0.638582
20
87.220913
70
0
0
VERTEX
8
0
10
0.841968
20
87.314319
70
0
0
VERTEX
8
0
10
0.989543
20
87.341206
70
0
0
VERTEX
8
0
10
1.101066
20
87.307433
70
0
0
VERTEX
8
0
10
1.190379
20
87.215829
70
0
0
VERTEX
8
0
10
1.296077
20
87.130167
70
0
0
VERTEX
8
0
10
1.454527
20
87.109581
70
0
0
VERTEX
8
0
10
1.684176
20
87.158522
70
0
0
VERTEX
8
0
10
2.014943
20
87.287352
70
0
0
VERTEX
8
0
10
2.699996
20
87.584607
70
0
0
VERTEX
8
0
10
1.799998
20
87.585348
70
0
0
VERTEX
8
0
10
1.418751
20
87.564648
70
0
0
VERTEX
8
0
10
1.017499
20
87.501911
70
0
0
VERTEX
8
0
10
0.654710
20
87.410092
70
0
0
VERTEX
8
0
10
0.399999
20
87.300264
70
0
0
VERTEX
8
0
10
0.399999
20
87.300264
70
0
0
SEQEND
8
0
0
POLYLINE
8
0
62
7
70
0
10
0.000000
20
0.000000
66
1
0
VERTEX
8
0
10
10.068860
20
85.976966
70
0
0
VERTEX
8
0
10
10.371588
20
85.829651
70
0
0
VERTEX
8
0
10
10.644728
20
85.723348
70
0
0
VERTEX
8
0
10
10.866866
20
85.659831
70
0
0
VERTEX
8
0
10
10.949567
20
85.683181
70
0
0
VERTEX
8
0
10
10.962178
20
85.714350
70
0
0
VERTEX
8
0
10
10.948547
20
85.745086
70
0
0
VERTEX
8
0
10
10.815792
20
85.851060
70
0
0
VERTEX
8
0
10
10.606984
20
85.973558
70
0
0
VERTEX
8
0
10
10.337119
20
86.097640
70
0
0
VERTEX
8
0
10
9.637685
20
86.381784
70
0
0
VERTEX
8
0
10
9.477150
20
86.378032
70
0
0
VERTEX
8
0
10
9.451724
20
86.340568
70
0
0
VERTEX
8
0
10
9.473720
20
86.300994
70
0
0
VERTEX
8
0
10
10.068860
20
85.976966
70
0
0
VERTEX
8
0
10
10.068860
20
85.976966
70
0
0
SEQEND
8
0
0
POLYLINE
8
0
62
7
70
0
10
0.000000
20
0.000000
66
1
0
VERTEX
8
0
10
3.399996
20
86.018990
70
0
0
VERTEX
8
0
10
3.431503
20
85.958225
70
0
0
VERTEX
8
0
10
3.517496
20
85.921690
70
0
0
VERTEX
8
0
10
3.646731
20
85.915393
70
0
0
VERTEX
8
0
10
3.799995
20
85.942316
70
0
0
VERTEX
8
0
10
3.953272
20
85.987957
70
0
0
VERTEX
8
0
10
4.082495
20
86.038714
70
0
0
VERTEX
8
0
10
4.179422
20
86.088178
70
0
0
VERTEX
8
0
10
4.199995
20
86.123592
70
0
0
VERTEX
8
0
10
4.178084
20
86.153522
70
0
0
VERTEX
8
0
10
4.082495
20
86.177743
70
0
0
VERTEX
8
0
10
3.953324
20
86.194731
70
0
0
VERTEX
8
0
10
3.799995
20
86.200266
70
0
0
VERTEX
8
0
10
3.646867
20
86.186957
70
0
0
VERTEX
8
0
10
3.517496
20
86.147016
70
0
0
VERTEX
8
0
10
3.429907
20
86.088286
70
0
0
VERTEX
8
0
10
3.399996
20
86.018990
70
0
0
VERTEX
8
0
10
3.399996
20
86.018990
70
0
0
SEQEND
8
0
0
POLYLINE
8
0
62
7
70
0
10
0.000000
20
0.000000
66
1
0
VERTEX
8
0
10
7.399991
20
86.000266
70
0
0
VERTEX
8
0
10
7.256598
20
85.897042
70
0
0
VERTEX
8
0
10
7.242787
20
85.871794
70
0
0
VERTEX
8
0
10
7.251062
20
85.844231
70
0
0
VERTEX
8
0
10
7.318023
20
85.810439
70
0
0
VERTEX
8
0
10
7.561794
20
85.803329
70
0
0
VERTEX
8
0
10
7.732096
20
85.816161
70
0
0
VERTEX
8
0
10
7.853307
20
85.859335
70
0
0
VERTEX
8
0
10
7.907727
20
85.924342
70
0
0
VERTEX
8
0
10
7.899990
20
86.000266
70
0
0
VERTEX
8
0
10
7.798683
20
86.148326
70
0
0
VERTEX
8
0
10
7.733806
20
86.180641
70
0
0
VERTEX
8
0
10
7.649739
20
86.157040
70
0
0
VERTEX
8
0
10
7.399991
20
86.000266
70
0
0
VERTEX
8
0
10
7.399991
20
86.000266
70
0
0
SEQEND
8
0
0
POLYLINE
8
0
62
7
70
0
10
0.000000
20
0.000000
66
1
0
VERTEX
8
0
10
1.299998
20
85.600266
70
0
0
VERTEX
8
0
10
1.278410
20
85.524337
70
0
0
VERTEX
8
0
10
1.304293
20
85.459017
70
0
0
VERTEX
8
0
10
1.377868
20
85.414920
70
0
0
VERTEX
8
0
10
1.488195
20
85.400267
70
0
0
VERTEX
8
0
10
1.607417
20
85.415175
70
0
0
VERTEX
8
0
10
1.708406
20
85.459017
70
0
0
VERTEX
8
0
10
1.775994
20
85.523991
70
0
0
VERTEX
8
0
10
1.799998
20
85.600266
70
0
0
VERTEX
8
0
10
1.785674
20
85.676613
70
0
0
VERTEX
8
0
10
1.744715
20
85.741516
70
0
0
VERTEX
8
0
10
1.683608
20
85.784955
70
0
0
VERTEX
8
0
10
1.611801
20
85.800266
70
0
0
VERTEX
8
0
10
1.530686
20
85.785606
70
0
0
VERTEX
8
0
10
1.442578
20
85.741516
70
0
0
VERTEX
8
0
10
1.361239
20
85.676769
70
0
0
VERTEX
8
0
10
1.299998
20
85.600266
70
0
0
VERTEX
8
0
10
1.299998
20
85.600266
70
0
0
SEQEND
8
0
0
POLYLINE
8
0
62
7
70
0
10
0.000000
20
0.000000
66
1
0
VERTEX
8
0
10
10.599987
20
85.421122
70
0
0
VERTEX
8
0
10
10.283791
20
85.328776
70
0
0
VERTEX
8
0
10
10.232708
20
85.279099
70
0
0
VERTEX
8
0
10
10.255670
20
85.226690
70
0
0
VERTEX
8
0
10
10.499987
20
85.123916
70
0
0
VERTEX
8
0
10
10.940896
20
84.986619
70
0
0
VERTEX
8
0
10
11.452892
20
84.895775
70
0
0
VERTEX
8
0
10
11.913940
20
84.855823
70
0
0
VERTEX
8
0
10
11.974519
20
84.878326
70
0
0
VERTEX
8
0
10
11.999985
20
84.937720
70
0
0
VERTEX
8
0
10
11.942094
20
85.069662
70
0
0
VERTEX
8
0
10
11.655431
20
85.314996
70
0
0
VERTEX
8
0
10
11.351902
20
85.538269
70
0
0
VERTEX
8
0
10
11.199986
20
85.573970
70
0
0
VERTEX
8
0
10
11.136874
20
85.562006
70
0
0
VERTEX
8
0
10
10.982486
20
85.523471
70
0
0
VERTEX
8
0
10
10.798774
20
85.475450
70
0
0
VERTEX
8
0
10
10.599987
20
85.421122
70
0
0
VERTEX
8
0
10
10.599987
20
85.421122
70
0
0
SEQEND
8
0
0
POLYLINE
8
0
62
7
70
0
10
0.000000
20
0.000000
66
1
0
VERTEX
8
0
10
7.891766
20
84.386962
70
0
0
VERTEX
8
0
10
7.848093
20
84.298590
70
0
0
VERTEX
8
0
10
7.825510
20
84.209465
70
0
0
VERTEX
8
0
10
7.825973
20
84.132850
70
0
0
VERTEX
8
0
10
7.851337
20
84.082254
70
0
0
VERTEX
8
0
10
8.006268
20
84.035629
70
0
0
VERTEX
8
0
10
8.277974
20
84.123623
70
0
0
VERTEX
8
0
10
8.525230
20
84.271020
70
0
0
VERTEX
8
0
10
8.599989
20
84.421666
70
0
0
VERTEX
8
0
10
8.517303
20
84.552622
70
0
0
VERTEX
8
0
10
8.305713
20
84.595014
70
0
0
VERTEX
8
0
10
8.057113
20
84.533713
70
0
0
VERTEX
8
0
10
7.891766
20
84.386962
70
0
0
VERTEX
8
0
10
7.891766
20
84.386962
70
0
0
SEQEND
8
0
0
POLYLINE
8
0
62
7
70
0
10
0.000000
20
0.000000
66
1
0
VERTEX
8
0
10
12.899984
20
83.400269
70
0
0
VERTEX
8
0
10
13.045930
20
83.247052
70
0
0
VERTEX
8
0
10
13.185017
20
83.117769
70
0
0
VERTEX
8
0
10
13.305183
20
83.019607
70
0
0
VERTEX
8
0
10
13.361978
20
83.000270
70
0
0
VERTEX
8
0
10
13.376868
20
83.008457
70
0
0
VERTEX
8
0
10
13.377930
20
83.025415
70
0
0
VERTEX
8
0
10
13.326267
20
83.117769
70
0
0
VERTEX
8
0
10
13.231903
20
83.246693
70
0
0
VERTEX
8
0
10
13.099983
20
83.400269
70
0
0
VERTEX
8
0
10
12.954037
20
83.553486
70
0
0
VERTEX
8
0
10
12.814950
20
83.682769
70
0
0
VERTEX
8
0
10
12.694785
20
83.780931
70
0
0
VERTEX
8
0
10
12.637989
20
83.800268
70
0
0
VERTEX
8
0
10
12.623100
20
83.792081
70
0
0
VERTEX
8
0
10
12.622037
20
83.775123
70
0
0
VERTEX
8
0
10
12.673700
20
83.682769
70
0
0
VERTEX
8
0
10
12.768065
20
83.553845
70
0
0
VERTEX
8
0
10
12.899984
20
83.400269
70
0
0
VERTEX
8
0
10
12.899984
20
83.400269
70
0
0
SEQEND
8
0
0
POLYLINE
8
0
62
7
70
0
10
0.000000
20
0.000000
66
1
0
VERTEX
8
0
10
37.699953
20
83.113471
70
0
0
VERTEX
8
0
10
36.838944
20
82.690314
70
0
0
VERTEX
8
0
10
36.821500
20
82.654737
70
0
0
VERTEX
8
0
10
36.851125
20
82.628425
70
0
0
VERTEX
8
0
10
37.080077
20
82.667386
70
0
0
VERTEX
8
0
10
38.024303
20
83.088748
70
0
0
VERTEX
8
0
10
38.423520
20
83.277034
70
0
0
VERTEX
8
0
10
38.725229
20
83.436364
70
0
0
VERTEX
8
0
10
38.909747
20
83.552002
70
0
0
VERTEX
8
0
10
38.917137
20
83.572611
70
0
0
VERTEX
8
0
10
38.899951
20
83.586174
70
0
0
VERTEX
8
0
10
38.774833
20
83.567365
70
0
0
VERTEX
8
0
10
38.464952
20
83.451009
70
0
0
VERTEX
8
0
10
38.097548
20
83.297291
70
0
0
VERTEX
8
0
10
37.699953
20
83.113471
70
0
0
VERTEX
8
0
10
37.699953
20
83.113471
70
0
0
SEQEND
8
0
0
POLYLINE
8
0
62
7
70
0
10
0.000000
20
0.000000
66
1
0
VERTEX
8
0
10
0.100000
20
82.600270
70
0
0
VERTEX
8
0
10
0.175204
20
82.523559
70
0
0
VERTEX
8
0
10
0.301330
20
82.459020
70
0
0
VERTEX
8
0
10
0.454140
20
82.415086
70
0
0
VERTEX
8
0
10
0.611803
20
82.400270
70
0
0
VERTEX
8
0
10
0.760355
20
82.415027
70
0
0
VERTEX
8
0
10
0.885966
20
82.459020
70
0
0
VERTEX
8
0
10
0.970506
20
82.523913
70
0
0
VERTEX
8
0
10
0.999999
20
82.600270
70
0
0
VERTEX
8
0
10
0.962755
20
82.676886
70
0
0
VERTEX
8
0
10
0.849657
20
82.741520
70
0
0
VERTEX
8
0
10
0.684197
20
82.785657
70
0
0
VERTEX
8
0
10
0.488196
20
82.800270
70
0
0
VERTEX
8
0
10
0.295867
20
82.786536
70
0
0
VERTEX
8
0
10
0.158956
20
82.742807
70
0
0
VERTEX
8
0
10
0.095647
20
82.677230
70
0
0
VERTEX
8
0
10
0.100000
20
82.600270
70
0
0
VERTEX
8
0
10
0.100000
20
82.600270
70
0
0
SEQEND
8
0
0
POLYLINE
8
0
62
7
70
0
10
0.000000
20
0.000000
66
1
0
VERTEX
8
0
10
5.692022
20
82.519174
70
0
0
VERTEX
8
0
10
5.450675
20
82.338454
70
0
0
VERTEX
8
0
10
5.439460
20
82.317902
70
0
0
VERTEX
8
0
10
5.447153
20
82.295789
70
0
0
VERTEX
8
0
10
5.501435
20
82.277685
70
0
0
VERTEX
8
0
10
5.856751
20
82.343054
70
0
0
VERTEX
8
0
10
6.074957
20
82.396187
70
0
0
VERTEX
8
0
10
6.276564
20
82.468929
70
0
0
VERTEX
8
0
10
6.437590
20
82.549344
70
0
0
VERTEX
8
0
10
6.514751
20
82.624150
70
0
0
VERTEX
8
0
10
6.491887
20
82.747881
70
0
0
VERTEX
8
0
10
6.326871
20
82.792208
70
0
0
VERTEX
8
0
10
6.009796
20
82.703386
70
0
0
VERTEX
8
0
10
5.692022
20
82.519174
70
0
0
VERTEX
8
0
10
5.692022
20
82.519174
70
0
0
SEQEND
8
0
0
POLYLINE
8
0
62
7
70
0
10
0.000000
20
0.000000
66
1
0
VERTEX
8
0
10
35.299956
20
82.191079
70
0
0
VERTEX
8
0
10
34.873086
20
82.041571
70
0
0
VERTEX
8
0
10
34.417457
20
81.915211
70
0
0
VERTEX
8
0
10
33.998654
20
81.826802
70
0
0
VERTEX
8
0
10
33.699958
20
81.800291
70
0
0
VERTEX
8
0
10
32.573927
20
81.660411
70
0
0
VERTEX
8
0
10
30.777794
20
81.149708
70
0
0
VERTEX
8
0
10
28.833858
20
80.463666
70
0
0
VERTEX
8
0
10
27.099966
20
79.705227
70
0
0
VERTEX
8
0
10
24.393214
20
78.133823
70
0
0
VERTEX
8
0
10
23.346365
20
77.324412
70
0
0
VERTEX
8
0
10
22.403401
20
76.396047
70
0
0
VERTEX
8
0
10
21.580993
20
75.365355
70
0
0
VERTEX
8
0
10
20.887925
20
74.243599
70
0
0
VERTEX
8
0
10
19.625221
20
71.411195
70
0
0
VERTEX
8
0
10
19.298642
20
70.522988
70
0
0
VERTEX
8
0
10
18.998907
20
69.749756
70
0
0
VERTEX
8
0
10
18.734383
20
69.097265
70
0
0
VERTEX
8
0
10
18.649385
20
68.969696
70
0
0
VERTEX
8
0
10
18.613615
20
68.961458
70
0
0
VERTEX
8
0
10
18.590561
20
68.990022
70
0
0
VERTEX
8
0
10
18.550834
20
69.402996
70
0
0
VERTEX
8
0
10
18.526866
20
69.962860
70
0
0
VERTEX
8
0
10
18.527917
20
70.658784
70
0
0
VERTEX
8
0
10
18.483809
20
72.166937
70
0
0
VERTEX
8
0
10
18.289259
20
73.389968
70
0
0
VERTEX
8
0
10
17.909562
20
74.502162
70
0
0
VERTEX
8
0
10
17.301652
20
75.664894
70
0
0
VERTEX
8
0
10
17.038616
20
76.124000
70
0
0
VERTEX
8
0
10
16.834361
20
76.539470
70
0
0
VERTEX
8
0
10
16.692247
20
76.884991
70
0
0
VERTEX
8
0
10
16.703984
20
77.006757
70
0
0
VERTEX
8
0
10
16.732176
20
77.099996
70
0
0
VERTEX
8
0
10
16.723288
20
77.237141
70
0
0
VERTEX
8
0
10
16.683397
20
77.392010
70
0
0
VERTEX
8
0
10
16.615868
20
77.542141
70
0
0
VERTEX
8
0
10
16.513929
20
77.737494
70
0
0
VERTEX
8
0
10
16.357748
20
78.059449
70
0
0
VERTEX
8
0
10
16.183702
20
78.429444
70
0
0
VERTEX
8
0
10
16.014730
20
78.800275
70
0
0
VERTEX
8
0
10
15.519098
20
79.829146
70
0
0
VERTEX
8
0
10
14.943765
20
80.882055
70
0
0
VERTEX
8
0
10
14.392810
20
81.792635
70
0
0
VERTEX
8
0
10
14.050880
20
82.200271
70
0
0
VERTEX
8
0
10
13.839778
20
82.391961
70
0
0
VERTEX
8
0
10
13.814773
20
82.398842
70
0
0
VERTEX
8
0
10
13.808018
20
82.393153
70
0
0
VERTEX
8
0
10
13.809187
20
82.384400
70
0
0
VERTEX
8
0
10
13.959201
20
82.181869
70
0
0
VERTEX
8
0
10
14.040714
20
82.050690
70
0
0
VERTEX
8
0
10
14.089639
20
81.919835
70
0
0
VERTEX
8
0
10
14.101217
20
81.808571
70
0
0
VERTEX
8
0
10
14.070001
20
81.736956
70
0
0
VERTEX
8
0
10
14.054440
20
81.641826
70
0
0
VERTEX
8
0
10
14.217139
20
81.337677
70
0
0
VERTEX
8
0
10
14.449080
20
80.968931
70
0
0
VERTEX
8
0
10
14.748551
20
80.555360
70
0
0
VERTEX
8
0
10
15.067171
20
80.117151
70
0
0
VERTEX
8
0
10
15.358870
20
79.672976
70
0
0
VERTEX
8
0
10
15.591100
20
79.279114
70
0
0
VERTEX
8
0
10
15.695722
20
79.033109
70
0
0
VERTEX
8
0
10
15.769667
20
78.764563
70
0
0
VERTEX
8
0
10
15.749995
20
78.680354
70
0
0
VERTEX
8
0
10
15.677428
20
78.663341
70
0
0
VERTEX
8
0
10
15.468906
20
78.764417
70
0
0
VERTEX
8
0
10
14.958620
20
79.119942
70
0
0
VERTEX
8
0
10
14.133050
20
79.882662
70
0
0
VERTEX
8
0
10
13.304178
20
80.702803
70
0
0
VERTEX
8
0
10
13.199983
20
80.956712
70
0
0
VERTEX
8
0
10
13.012841
20
81.200520
70
0
0
VERTEX
8
0
10
12.101123
20
81.400158
70
0
0
VERTEX
8
0
10
10.849898
20
81.552899
70
0
0
VERTEX
8
0
10
9.272004
20
81.629554
70
0
0
VERTEX
8
0
10
7.869526
20
81.648664
70
0
0
VERTEX
8
0
10
7.234166
20
81.597498
70
0
0
VERTEX
8
0
10
6.763463
20
81.446502
70
0
0
VERTEX
8
0
10
6.193155
20
81.119487
70
0
0
VERTEX
8
0
10
5.681567
20
80.799258
70
0
0
VERTEX
8
0
10
5.291457
20
80.601382
70
0
0
VERTEX
8
0
10
4.937646
20
80.482804
70
0
0
VERTEX
8
0
10
4.550597
20
80.415575
70
0
0
VERTEX
8
0
10
4.205792
20
80.254895
70
0
0
VERTEX
8
0
10
2.862001
20
78.932476
70
0
0
VERTEX
8
0
10
1.527096
20
77.581848
70
0
0
VERTEX
8
0
10
1.399998
20
77.269528
70
0
0
VERTEX
8
0
10
1.423434
20
77.230197
70
0
0
VERTEX
8
0
10
1.469179
20
77.232086
70
0
0
VERTEX
8
0
10
1.756467
20
77.440603
70
0
0
VERTEX
8
0
10
2.147614
20
77.782792
70
0
0
VERTEX
8
0
10
2.613510
20
78.244953
70
0
0
VERTEX
8
0
10
3.128852
20
78.755741
70
0
0
VERTEX
8
0
10
3.530447
20
79.097836
70
0
0
VERTEX
8
0
10
3.820469
20
79.287734
70
0
0
VERTEX
8
0
10
3.884102
20
79.293220
70
0
0
VERTEX
8
0
10
3.930493
20
79.249320
70
0
0
VERTEX
8
0
10
4.039323
20
79.193528
70
0
0
VERTEX
8
0
10
4.267816
20
79.281307
70
0
0
VERTEX
8
0
10
4.605235
20
79.500833
70
0
0
VERTEX
8
0
10
5.066978
20
79.872081
70
0
0
VERTEX
8
0
10
5.978067
20
80.596412
70
0
0
VERTEX
8
0
10
6.708306
20
81.064186
70
0
0
VERTEX
8
0
10
7.010185
20
81.116212
70
0
0
VERTEX
8
0
10
7.084753
20
81.059681
70
0
0
VERTEX
8
0
10
7.078985
20
80.966284
70
0
0
VERTEX
8
0
10
7.035103
20
80.869291
70
0
0
VERTEX
8
0
10
7.056368
20
80.822387
70
0
0
VERTEX
8
0
10
7.133197
20
80.816724
70
0
0
VERTEX
8
0
10
7.292932
20
80.869889
70
0
0
VERTEX
8
0
10
8.557470
20
81.230794
70
0
0
VERTEX
8
0
10
9.835876
20
81.352294
70
0
0
VERTEX
8
0
10
11.073067
20
81.230299
70
0
0
VERTEX
8
0
10
12.215620
20
80.869354
70
0
0
VERTEX
8
0
10
12.704184
20
80.624841
70
0
0
VERTEX
8
0
10
12.956041
20
80.409206
70
0
0
VERTEX
8
0
10
12.942928
20
80.267596
70
0
0
VERTEX
8
0
10
12.749984
20
80.190961
70
0
0
VERTEX
8
0
10
12.726929
20
80.174739
70
0
0
VERTEX
8
0
10
12.732367
20
80.147079
70
0
0
VERTEX
8
0
10
12.867171
20
80.031822
70
0
0
VERTEX
8
0
10
13.132939
20
79.862584
70
0
0
VERTEX
8
0
10
13.499983
20
79.662287
70
0
0
VERTEX
8
0
10
14.458007
20
79.121138
70
0
0
VERTEX
8
0
10
15.186363
20
78.606895
70
0
0
VERTEX
8
0
10
15.661107
20
78.159705
70
0
0
VERTEX
8
0
10
15.715913
20
77.869677
70
0
0
VERTEX
8
0
10
15.718499
20
77.702245
70
0
0
VERTEX
8
0
10
15.898050
20
77.312661
70
0
0
VERTEX
8
0
10
16.155756
20
76.849207
70
0
0
VERTEX
8
0
10
16.480703
20
76.350667
70
0
0
VERTEX
8
0
10
17.172459
20
75.314029
70
0
0
VERTEX
8
0
10
17.612060
20
74.547329
70
0
0
VERTEX
8
0
10
17.856005
20
73.980964
70
0
0
VERTEX
8
0
10
17.855927
20
73.650453
70
0
0
VERTEX
8
0
10
17.832742
20
73.499085
70
0
0
VERTEX
8
0
10
17.853596
20
73.191236
70
0
0
VERTEX
8
0
10
17.900697
20
72.824864
70
0
0
VERTEX
8
0
10
17.973208
20
72.437985
70
0
0
VERTEX
8
0
10
18.093466
20
71.220102
70
0
0
VERTEX
8
0
10
18.015481
20
68.841297
70
0
0
VERTEX
8
0
10
17.860048
20
66.418861
70
0
0
VERTEX
8
0
10
17.626840
20
65.669666
70
0
0
VERTEX
8
0
10
17.490231
20
65.440274
70
0
0
VERTEX
8
0
10
17.444510
20
65.411908
70
0
0
VERTEX
8
0
10
17.423586
20
65.418678
70
0
0
VERTEX
8
0
10
17.413884
20
65.438413
70
0
0
VERTEX
8
0
10
17.406060
20
65.650291
70
0
0
VERTEX
8
0
10
17.339525
20
65.947700
70
0
0
VERTEX
8
0
10
17.277716
20
65.995452
70
0
0
VERTEX
8
0
10
17.203639
20
65.970687
70
0
0
VERTEX
8
0
10
17.032234
20
65.670351
70
0
0
VERTEX
8
0
10
16.915138
20
65.131666
70
0
0
VERTEX
8
0
10
16.840139
20
64.766017
70
0
0
VERTEX
8
0
10
16.722548
20
64.385669
70
0
0
VERTEX
8
0
10
16.583122
20
64.045634
70
0
0
VERTEX
8
0
10
16.442430
20
63.811873
70
0
0
VERTEX
8
0
10
16.028961
20
63.289950
70
0
0
VERTEX
8
0
10
15.611069
20
62.807896
70
0
0
VERTEX
8
0
10
15.331010
20
62.523658
70
0
0
VERTEX
8
0
10
15.302132
20
62.522112
70
0
0
VERTEX
8
0
10
15.295649
20
62.550295
70
0
0
VERTEX
8
0
10
15.345352
20
62.723918
70
0
0
VERTEX
8
0
10
15.328183
20
62.769891
70
0
0
VERTEX
8
0
10
15.281745
20
62.785761
70
0
0
VERTEX
8
0
10
15.085798
20
62.720720
70
0
0
VERTEX
8
0
10
14.701740
20
62.483056
70
0
0
VERTEX
8
0
10
14.502622
20
62.370145
70
0
0
VERTEX
8
0
10
14.304705
20
62.293055
70
0
0
VERTEX
8
0
10
14.134696
20
62.258264
70
0
0
VERTEX
8
0
10
14.030024
20
62.281729
70
0
0
VERTEX
8
0
10
13.916404
20
62.310114
70
0
0
VERTEX
8
0
10
13.700390
20
62.283635
70
0
0
VERTEX
8
0
10
13.441976
20
62.221164
70
0
0
VERTEX
8
0
10
13.171230
20
62.125448
70
0
0
VERTEX
8
0
10
12.811680
20
62.012325
70
0
0
VERTEX
8
0
10
12.245138
20
61.897087
70
0
0
VERTEX
8
0
10
11.599547
20
61.797348
70
0
0
VERTEX
8
0
10
10.961176
20
61.730273
70
0
0
VERTEX
8
0
10
10.025405
20
61.670755
70
0
0
VERTEX
8
0
10
9.564261
20
61.699939
70
0
0
VERTEX
8
0
10
9.222879
20
61.826371
70
0
0
VERTEX
8
0
10
8.832307
20
62.103793
70
0
0
VERTEX
8
0
10
8.415831
20
62.433931
70
0
0
VERTEX
8
0
10
8.152182
20
62.577539
70
0
0
VERTEX
8
0
10
8.102321
20
62.571797
70
0
0
VERTEX
8
0
10
8.077649
20
62.528088
70
0
0
VERTEX
8
0
10
8.119088
20
62.369394
70
0
0
VERTEX
8
0
10
8.124252
20
62.325840
70
0
0
VERTEX
8
0
10
8.094256
20
62.293842
70
0
0
VERTEX
8
0
10
7.978741
20
62.301713
70
0
0
VERTEX
8
0
10
7.658748
20
62.518554
70
0
0
VERTEX
8
0
10
7.249991
20
62.864911
70
0
0
VERTEX
8
0
10
6.923973
20
63.127378
70
0
0
VERTEX
8
0
10
6.859650
20
63.138357
70
0
0
VERTEX
8
0
10
6.811385
20
63.094443
70
0
0
VERTEX
8
0
10
6.834533
20
62.923750
70
0
0
VERTEX
8
0
10
7.130989
20
62.566044
70
0
0
VERTEX
8
0
10
7.317529
20
62.291215
70
0
0
VERTEX
8
0
10
7.309228
20
62.233047
70
0
0
VERTEX
8
0
10
7.252035
20
62.219573
70
0
0
VERTEX
8
0
10
6.898017
20
62.420670
70
0
0
VERTEX
8
0
10
6.390103
20
62.851251
70
0
0
VERTEX
8
0
10
6.064581
20
63.136114
70
0
0
VERTEX
8
0
10
5.671249
20
63.456512
70
0
0
VERTEX
8
0
10
5.274537
20
63.762135
70
0
0
VERTEX
8
0
10
4.939804
20
64.000294
70
0
0
VERTEX
8
0
10
4.648080
20
64.217424
70
0
0
VERTEX
8
0
10
4.383643
20
64.456230
70
0
0
VERTEX
8
0
10
4.177800
20
64.682746
70
0
0
VERTEX
8
0
10
4.086216
20
64.850292
70
0
0
VERTEX
8
0
10
4.021836
20
64.984090
70
0
0
VERTEX
8
0
10
3.923314
20
65.097480
70
0
0
VERTEX
8
0
10
3.807021
20
65.174158
70
0
0
VERTEX
8
0
10
3.690583
20
65.200292
70
0
0
VERTEX
8
0
10
3.554845
20
65.251881
70
0
0
VERTEX
8
0
10
3.366675
20
65.444179
70
0
0
VERTEX
8
0
10
3.167426
20
65.712641
70
0
0
VERTEX
8
0
10
2.984562
20
66.030544
70
0
0
VERTEX
8
0
10
2.780080
20
66.402357
70
0
0
VERTEX
8
0
10
2.623561
20
66.601853
70
0
0
VERTEX
8
0
10
2.501448
20
66.654755
70
0
0
VERTEX
8
0
10
2.400695
20
66.601419
70
0
0
VERTEX
8
0
10
2.305711
20
66.531854
70
0
0
VERTEX
8
0
10
2.198597
20
66.554999
70
0
0
VERTEX
8
0
10
2.068583
20
66.701855
70
0
0
VERTEX
8
0
10
1.899998
20
67.000290
70
0
0
VERTEX
8
0
10
1.734622
20
67.291884
70
0
0
VERTEX
8
0
10
1.603468
20
67.441228
70
0
0
VERTEX
8
0
10
1.496038
20
67.468834
70
0
0
VERTEX
8
0
10
1.403168
20
67.405418
70
0
0
VERTEX
8
0
10
1.316477
20
67.305224
70
0
0
VERTEX
8
0
10
1.232953
20
67.288862
70
0
0
VERTEX
8
0
10
1.142352
20
67.353321
70
0
0
VERTEX
8
0
10
1.027024
20
67.526294
70
0
0
VERTEX
8
0
10
0.906198
20
67.709286
70
0
0
VERTEX
8
0
10
0.816164
20
67.770825
70
0
0
VERTEX
8
0
10
0.730367
20
67.749817
70
0
0
VERTEX
8
0
10
0.631406
20
67.633382
70
0
0
VERTEX
8
0
10
0.539237
20
67.529971
70
0
0
VERTEX
8
0
10
0.462983
20
67.524820
70
0
0
VERTEX
8
0
10
0.392322
20
67.609889
70
0
0
VERTEX
8
0
10
0.314287
20
67.833382
70
0
0
VERTEX
8
0
10
0.245922
20
68.027381
70
0
0
VERTEX
8
0
10
0.181237
20
68.114093
70
0
0
VERTEX
8
0
10
0.120563
20
68.112528
70
0
0
VERTEX
8
0
10
0.064047
20
68.032809
70
0
0
VERTEX
8
0
10
0.050453
20
67.694895
70
0
0
VERTEX
8
0
10
0.304790
20
67.001085
70
0
0
VERTEX
8
0
10
0.616101
20
66.331195
70
0
0
VERTEX
8
0
10
0.830374
20
66.200291
70
0
0
VERTEX
8
0
10
0.895074
20
66.215662
70
0
0
VERTEX
8
0
10
0.950172
20
66.259041
70
0
0
VERTEX
8
0
10
0.987160
20
66.323910
70
0
0
VERTEX
8
0
10
0.999999
20
66.400291
70
0
0
VERTEX
8
0
10
1.013555
20
66.476654
70
0
0
VERTEX
8
0
10
1.052463
20
66.541540
70
0
0
VERTEX
8
0
10
1.110466
20
66.584946
70
0
0
VERTEX
8
0
10
1.178601
20
66.600290
70
0
0
VERTEX
8
0
10
1.355669
20
66.516304
70
0
0
VERTEX
8
0
10
1.454504
20
66.297608
70
0
0
VERTEX
8
0
10
1.452011
20
65.971983
70
0
0
VERTEX
8
0
10
1.343991
20
65.600292
70
0
0
VERTEX
8
0
10
1.198684
20
65.218626
70
0
0
VERTEX
8
0
10
1.109234
20
64.920040
70
0
0
VERTEX
8
0
10
1.029218
20
64.542793
70
0
0
VERTEX
8
0
10
0.896615
20
63.780267
70
0
0
VERTEX
8
0
10
0.839561
20
63.386927
70
0
0
VERTEX
8
0
10
0.840504
20
63.170904
70
0
0
VERTEX
8
0
10
0.894867
20
63.090081
70
0
0
VERTEX
8
0
10
0.986247
20
63.091795
70
0
0
VERTEX
8
0
10
1.261754
20
63.351537
70
0
0
VERTEX
8
0
10
1.727442
20
64.050019
70
0
0
VERTEX
8
0
10
2.156182
20
64.770575
70
0
0
VERTEX
8
0
10
2.306993
20
65.181639
70
0
0
VERTEX
8
0
10
2.332008
20
65.308009
70
0
0
VERTEX
8
0
10
2.355557
20
65.424125
70
0
0
VERTEX
8
0
10
2.375751
20
65.521372
70
0
0
VERTEX
8
0
10
2.384695
20
65.559655
70
0
0
VERTEX
8
0
10
2.394832
20
65.570512
70
0
0
VERTEX
8
0
10
2.409451
20
65.567883
70
0
0
VERTEX
8
0
10
2.810301
20
65.244573
70
0
0
VERTEX
8
0
10
3.269443
20
64.865506
70
0
0
VERTEX
8
0
10
3.812079
20
64.403676
70
0
0
VERTEX
8
0
10
5.229498
20
63.246547
70
0
0
VERTEX
8
0
10
6.434090
20
62.406760
70
0
0
VERTEX
8
0
10
7.490083
20
61.834014
70
0
0
VERTEX
8
0
10
8.445216
20
61.505322
70
0
0
VERTEX
8
0
10
9.623568
20
61.337161
70
0
0
VERTEX
8
0
10
11.111642
20
61.320960
70
0
0
VERTEX
8
0
10
12.556601
20
61.433927
70
0
0
VERTEX
8
0
10
13.571279
20
61.678588
70
0
0
VERTEX
8
0
10
13.919391
20
61.791809
70
0
0
VERTEX
8
0
10
14.244710
20
61.867981
70
0
0
VERTEX
8
0
10
14.514191
20
61.905055
70
0
0
VERTEX
8
0
10
14.640291
20
61.875384
70
0
0
VERTEX
8
0
10
14.751649
20
61.853812
70
0
0
VERTEX
8
0
10
14.935906
20
61.902782
70
0
0
VERTEX
8
0
10
15.151205
20
62.001034
70
0
0
VERTEX
8
0
10
15.368994
20
62.140248
70
0
0
VERTEX
8
0
10
15.596481
20
62.297416
70
0
0
VERTEX
8
0
10
15.840902
20
62.449591
70
0
0
VERTEX
8
0
10
16.067189
20
62.576702
70
0
0
VERTEX
8
0
10
16.229848
20
62.649799
70
0
0
VERTEX
8
0
10
16.373365
20
62.748284
70
0
0
VERTEX
8
0
10
16.534578
20
62.960734
70
0
0
VERTEX
8
0
10
16.686204
20
63.234877
70
0
0
VERTEX
8
0
10
16.804008
20
63.536292
70
0
0
VERTEX
8
0
10
17.018210
20
64.108415
70
0
0
VERTEX
8
0
10
17.243842
20
64.497393
70
0
0
VERTEX
8
0
10
17.294322
20
64.514394
70
0
0
VERTEX
8
0
10
17.328320
20
64.473389
70
0
0
VERTEX
8
0
10
17.302789
20
64.200293
70
0
0
VERTEX
8
0
10
17.143362
20
63.731600
70
0
0
VERTEX
8
0
10
16.509886
20
62.150455
70
0
0
VERTEX
8
0
10
15.839315
20
60.493280
70
0
0
VERTEX
8
0
10
15.719026
20
60.273358
70
0
0
VERTEX
8
0
10
15.698294
20
60.264528
70
0
0
VERTEX
8
0
10
15.206200
20
60.339295
70
0
0
VERTEX
8
0
10
14.653165
20
60.426695
70
0
0
VERTEX
8
0
10
13.999982
20
60.535658
70
0
0
VERTEX
8
0
10
12.976314
20
60.662295
70
0
0
VERTEX
8
0
10
11.199839
20
60.782865
70
0
0
VERTEX
8
0
10
9.037667
20
60.887125
70
0
0
VERTEX
8
0
10
6.633654
20
60.962598
70
0
0
VERTEX
8
0
10
0.967323
20
61.100297
70
0
0
VERTEX
8
0
10
1.983660
20
62.656481
70
0
0
VERTEX
8
0
10
2.373179
20
63.261929
70
0
0
VERTEX
8
0
10
2.701447
20
63.792199
70
0
0
VERTEX
8
0
10
2.976174
20
64.250697
70
0
0
VERTEX
8
0
10
2.999996
20
64.337476
70
0
0
VERTEX
8
0
10
2.963521
20
64.393304
70
0
0
VERTEX
8
0
10
2.897743
20
64.382325
70
0
0
VERTEX
8
0
10
2.444652
20
63.932870
70
0
0
VERTEX
8
0
10
1.831274
20
63.232077
70
0
0
VERTEX
8
0
10
1.091659
20
62.297947
70
0
0
VERTEX
8
0
10
0.414872
20
61.381355
70
0
0
VERTEX
8
0
10
0.145941
20
60.887870
70
0
0
VERTEX
8
0
10
0.031483
20
60.393596
70
0
0
VERTEX
8
0
10
-0.000000
20
59.560984
70
0
0
VERTEX
8
0
10
0.046974
20
58.534112
70
0
0
VERTEX
8
0
10
0.240405
20
58.063586
70
0
0
VERTEX
8
0
10
0.595500
20
57.930804
70
0
0
VERTEX
8
0
10
1.184087
20
58.122341
70
0
0
VERTEX
8
0
10
1.581833
20
58.303495
70
0
0
VERTEX
8
0
10
1.797594
20
58.339106
70
0
0
VERTEX
8
0
10
1.987890
20
58.272022
70
0
0
VERTEX
8
0
10
2.264051
20
58.052193
70
0
0
VERTEX
8
0
10
2.517671
20
57.869728
70
0
0
VERTEX
8
0
10
2.783948
20
57.764629
70
0
0
VERTEX
8
0
10
3.103168
20
57.726672
70
0
0
VERTEX
8
0
10
3.523672
20
57.749030
70
0
0
VERTEX
8
0
10
3.997156
20
57.784327
70
0
0
VERTEX
8
0
10
4.229963
20
57.744292
70
0
0
VERTEX
8
0
10
4.369020
20
57.620507
70
0
0
VERTEX
8
0
10
4.468307
20
57.368799
70
0
0
VERTEX
8
0
10
4.573312
20
57.144859
70
0
0
VERTEX
8
0
10
4.768535
20
56.932232
70
0
0
VERTEX
8
0
10
5.049712
20
56.734865
70
0
0
VERTEX
8
0
10
5.413553
20
56.557074
70
0
0
VERTEX
8
0
10
5.903335
20
56.288435
70
0
0
VERTEX
8
0
10
6.138694
20
55.984395
70
0
0
VERTEX
8
0
10
6.134423
20
55.870981
70
0
0
VERTEX
8
0
10
6.051137
20
55.793880
70
0
0
VERTEX
8
0
10
5.708031
20
55.763943
70
0
0
VERTEX
8
0
10
5.579188
20
55.776868
70
0
0
VERTEX
8
0
10
5.484533
20
55.760819
70
0
0
VERTEX
8
0
10
5.439259
20
55.720053
70
0
0
VERTEX
8
0
10
5.439327
20
55.663943
70
0
0
VERTEX
8
0
10
5.847767
20
54.788088
70
0
0
VERTEX
8
0
10
6.097079
20
54.101204
70
0
0
VERTEX
8
0
10
6.232631
20
53.475063
70
0
0
VERTEX
8
0
10
6.284511
20
52.800308
70
0
0
VERTEX
8
0
10
6.260116
20
52.168534
70
0
0
VERTEX
8
0
10
6.162470
20
51.680612
70
0
0
VERTEX
8
0
10
5.953777
20
51.180998
70
0
0
VERTEX
8
0
10
5.560987
20
50.492246
70
0
0
VERTEX
8
0
10
4.941296
20
49.433505
70
0
0
VERTEX
8
0
10
4.606685
20
48.724011
70
0
0
VERTEX
8
0
10
4.549737
20
48.366021
70
0
0
VERTEX
8
0
10
4.598898
20
48.281366
70
0
0
VERTEX
8
0
10
4.696265
20
48.271208
70
0
0
VERTEX
8
0
10
4.843023
20
48.278753
70
0
0
VERTEX
8
0
10
4.938383
20
48.194914
70
0
0
VERTEX
8
0
10
4.986770
20
47.979711
70
0
0
VERTEX
8
0
10
4.996931
20
47.544037
70
0
0
VERTEX
8
0
10
4.981758
20
47.199024
70
0
0
VERTEX
8
0
10
4.938852
20
46.860034
70
0
0
VERTEX
8
0
10
4.877271
20
46.570656
70
0
0
VERTEX
8
0
10
4.803515
20
46.400316
70
0
0
VERTEX
8
0
10
4.684007
20
46.259619
70
0
0
VERTEX
8
0
10
4.571226
20
46.229174
70
0
0
VERTEX
8
0
10
4.430878
20
46.298360
70
0
0
VERTEX
8
0
10
4.186731
20
46.525719
70
0
0
VERTEX
8
0
10
3.952540
20
46.809916
70
0
0
VERTEX
8
0
10
3.858952
20
47.062512
70
0
0
VERTEX
8
0
10
3.866525
20
47.408167
70
0
0
VERTEX
8
0
10
3.997385
20
48.125717
70
0
0
VERTEX
8
0
10
4.101563
20
48.600875
70
0
0
VERTEX
8
0
10
4.218513
20
49.057290
70
0
0
VERTEX
8
0
10
4.332178
20
49.443090
70
0
0
VERTEX
8
0
10
4.417233
20
49.647598
70
0
0
VERTEX
8
0
10
4.572113
20
50.004223
70
0
0
VERTEX
8
0
10
4.592014
20
50.253762
70
0
0
VERTEX
8
0
10
4.555759
20
50.301805
70
0
0
VERTEX
8
0
10
4.495579
20
50.300789
70
0
0
VERTEX
8
0
10
4.326674
20
50.157271
70
0
0
VERTEX
8
0
10
4.187550
20
50.000207
70
0
0
VERTEX
8
0
10
4.071988
20
49.937832
70
0
0
VERTEX
8
0
10
3.959296
20
49.953378
70
0
0
VERTEX
8
0
10
3.833036
20
50.047271
70
0
0
VERTEX
8
0
10
3.727701
20
50.072172
70
0
0
VERTEX
8
0
10
3.649996
20
49.989228
70
0
0
VERTEX
8
0
10
3.609525
20
49.712302
70
0
0
VERTEX
8
0
10
3.599995
20
49.156670
70
0
0
VERTEX
8
0
10
3.591122
20
48.703367
70
0
0
VERTEX
8
0
10
3.564464
20
48.270506
70
0
0
VERTEX
8
0
10
3.526111
20
47.905355
70
0
0
VERTEX
8
0
10
3.479039
20
47.717820
70
0
0
VERTEX
8
0
10
3.337068
20
47.527131
70
0
0
VERTEX
8
0
10
3.175673
20
47.529667
70
0
0
VERTEX
8
0
10
3.042204
20
47.744722
70
0
0
VERTEX
8
0
10
2.999996
20
48.112117
70
0
0
VERTEX
8
0
10
2.966027
20
48.475309
70
0
0
VERTEX
8
0
10
2.845081
20
48.563929
70
0
0
VERTEX
8
0
10
2.622947
20
48.469356
70
0
0
VERTEX
8
0
10
2.069441
20
48.000314
70
0
0
VERTEX
8
0
10
1.797250
20
47.770580
70
0
0
VERTEX
8
0
10
1.544799
20
47.577017
70
0
0
VERTEX
8
0
10
1.329342
20
47.427431
70
0
0
VERTEX
8
0
10
1.243039
20
47.401855
70
0
0
VERTEX
8
0
10
1.165423
20
47.438852
70
0
0
VERTEX
8
0
10
0.997556
20
47.652178
70
0
0
VERTEX
8
0
10
0.807031
20
47.926642
70
0
0
VERTEX
8
0
10
0.608218
20
48.251854
70
0
0
VERTEX
8
0
10
0.358195
20
48.663385
70
0
0
VERTEX
8
0
10
0.206483
20
48.838013
70
0
0
VERTEX
8
0
10
0.109589
20
48.842089
70
0
0
VERTEX
8
0
10
0.040868
20
48.736370
70
0
0
VERTEX
8
0
10
0.096375
20
48.274294
70
0
0
VERTEX
8
0
10
0.493110
20
47.577800
70
0
0
VERTEX
8
0
10
0.964272
20
46.972691
70
0
0
VERTEX
8
0
10
1.257556
20
46.925976
70
0
0
VERTEX
8
0
10
1.384729
20
47.003193
70
0
0
VERTEX
8
0
10
1.582287
20
47.130929
70
0
0
VERTEX
8
0
10
1.804721
20
47.278614
70
0
0
VERTEX
8
0
10
2.022573
20
47.427199
70
0
0
VERTEX
8
0
10
2.380557
20
47.637257
70
0
0
VERTEX
8
0
10
2.614080
20
47.663373
70
0
0
VERTEX
8
0
10
2.753186
20
47.535364
70
0
0
VERTEX
8
0
10
2.799996
20
47.242196
70
0
0
VERTEX
8
0
10
2.850010
20
47.084421
70
0
0
VERTEX
8
0
10
3.067385
20
46.800993
70
0
0
VERTEX
8
0
10
3.361673
20
46.477642
70
0
0
VERTEX
8
0
10
3.710256
20
46.149502
70
0
0
VERTEX
8
0
10
4.621195
20
45.106754
70
0
0
VERTEX
8
0
10
5.458886
20
43.627584
70
0
0
VERTEX
8
0
10
6.193817
20
41.792863
70
0
0
VERTEX
8
0
10
6.791922
20
39.663042
70
0
0
VERTEX
8
0
10
6.964967
20
39.064924
70
0
0
VERTEX
8
0
10
7.166072
20
38.681698
70
0
0
VERTEX
8
0
10
7.483475
20
38.351941
70
0
0
VERTEX
8
0
10
8.066887
20
37.923050
70
0
0
VERTEX
8
0
10
9.254264
20
37.238346
70
0
0
VERTEX
8
0
10
10.127248
20
37.060553
70
0
0
VERTEX
8
0
10
10.755994
20
37.347100
70
0
0
VERTEX
8
0
10
11.189972
20
38.069982
70
0
0
VERTEX
8
0
10
11.287878
20
38.758623
70
0
0
VERTEX
8
0
10
11.129499
20
39.400510
70
0
0
VERTEX
8
0
10
10.642207
20
40.162789
70
0
0
VERTEX
8
0
10
9.626771
20
41.326863
70
0
0
VERTEX
8
0
10
8.537073
20
42.635977
70
0
0
VERTEX
8
0
10
7.785460
20
43.841032
70
0
0
VERTEX
8
0
10
7.291522
20
45.084602
70
0
0
VERTEX
8
0
10
6.986732
20
46.504650
70
0
0
VERTEX
8
0
10
6.891166
20
48.590785
70
0
0
VERTEX
8
0
10
7.198767
20
50.533522
70
0
0
VERTEX
8
0
10
7.855520
20
52.115789
70
0
0
VERTEX
8
0
10
8.268836
20
52.675420
70
0
0
VERTEX
8
0
10
8.800369
20
53.124298
70
0
0
VERTEX
8
0
10
9.932932
20
53.580216
70
0
0
VERTEX
8
0
10
11.237465
20
53.598747
70
0
0
VERTEX
8
0
10
12.379171
20
53.203109
70
0
0
VERTEX
8
0
10
12.772233
20
52.890492
70
0
0
VERTEX
8
0
10
13.049415
20
52.471686
70
0
0
VERTEX
8
0
10
13.147190
20
52.155173
70
0
0
VERTEX
8
0
10
13.164221
20
51.818229
70
0
0
VERTEX
8
0
10
13.097698
20
51.383748
70
0
0
VERTEX
8
0
10
12.926168
20
50.731309
70
0
0
VERTEX
8
0
10
12.623174
20
49.560040
70
0
0
VERTEX
8
0
10
12.390354
20
48.388991
70
0
0
VERTEX
8
0
10
12.213404
20
47.135154
70
0
0
VERTEX
8
0
10
12.078790
20
45.712074
70
0
0
VERTEX
8
0
10
12.005777
20
44.854052
70
0
0
VERTEX
8
0
10
11.938411
20
44.499644
70
0
0
VERTEX
8
0
10
11.845988
20
44.437885
70
0
0
VERTEX
8
0
10
11.731939
20
44.512075
70
0
0
VERTEX
8
0
10
11.644455
20
44.744203
70
0
0
VERTEX
8
0
10
11.574330
20
45.182833
70
0
0
VERTEX
8
0
10
11.527161
20
45.705007
70
0
0
VERTEX
8
0
10
11.513812
20
46.250316
70
0
0
VERTEX
8
0
10
11.513237
20
46.767967
70
0
0
VERTEX
8
0
10
11.504036
20
47.203752
70
0
0
VERTEX
8
0
10
11.490229
20
47.579359
70
0
0
VERTEX
8
0
10
11.468421
20
47.600314
70
0
0
VERTEX
8
0
10
11.435632
20
47.584154
70
0
0
VERTEX
8
0
10
11.281280
20
47.381051
70
0
0
VERTEX
8
0
10
11.105521
20
47.140012
70
0
0
VERTEX
8
0
10
10.907197
20
46.853888
70
0
0
VERTEX
8
0
10
10.572823
20
46.369292
70
0
0
VERTEX
8
0
10
10.471313
20
46.285080
70
0
0
VERTEX
8
0
10
10.432482
20
46.287182
70
0
0
VERTEX
8
0
10
10.411898
20
46.320175
70
0
0
VERTEX
8
0
10
10.399987
20
46.624101
70
0
0
VERTEX
8
0
10
10.433987
20
46.887423
70
0
0
VERTEX
8
0
10
10.551840
20
47.274573
70
0
0
VERTEX
8
0
10
10.719062
20
47.702842
70
0
0
VERTEX
8
0
10
10.916934
20
48.112982
70
0
0
VERTEX
8
0
10
11.396621
20
49.090516
70
0
0
VERTEX
8
0
10
11.813852
20
50.101006
70
0
0
VERTEX
8
0
10
12.120365
20
50.998731
70
0
0
VERTEX
8
0
10
12.199884
20
51.526983
70
0
0
VERTEX
8
0
10
12.173737
20
51.699447
70
0
0
VERTEX
8
0
10
12.097142
20
51.865093
70
0
0
VERTEX
8
0
10
11.983777
20
51.999093
70
0
0
VERTEX
8
0
10
11.849985
20
52.078838
70
0
0
VERTEX
8
0
10
10.921336
20
52.393862
70
0
0
VERTEX
8
0
10
10.487667
20
52.469066
70
0
0
VERTEX
8
0
10
10.148489
20
52.398791
70
0
0
VERTEX
8
0
10
9.718425
20
52.148796
70
0
0
VERTEX
8
0
10
9.170864
20
51.723822
70
0
0
VERTEX
8
0
10
8.799383
20
51.333993
70
0
0
VERTEX
8
0
10
8.472129
20
50.830998
70
0
0
VERTEX
8
0
10
8.050607
20
50.000425
70
0
0
VERTEX
8
0
10
7.802263
20
49.414253
70
0
0
VERTEX
8
0
10
7.642632
20
48.878257
70
0
0
VERTEX
8
0
10
7.555832
20
48.328413
70
0
0
VERTEX
8
0
10
7.528498
20
47.700428
70
0
0
VERTEX
8
0
10
7.617301
20
46.730884
70
0
0
VERTEX
8
0
10
7.876038
20
45.875918
70
0
0
VERTEX
8
0
10
8.379570
20
44.944543
70
0
0
VERTEX
8
0
10
9.259697
20
43.695162
70
0
0
VERTEX
8
0
10
10.863189
20
41.378328
70
0
0
VERTEX
8
0
10
11.917319
20
39.403962
70
0
0
VERTEX
8
0
10
12.444003
20
37.788329
70
0
0
VERTEX
8
0
10
12.490540
20
37.194702
70
0
0
VERTEX
8
0
10
12.373678
20
36.610834
70
0
0
VERTEX
8
0
10
12.047311
20
36.040891
70
0
0
VERTEX
8
0
10
11.565757
20
35.700718
70
0
0
VERTEX
8
0
10
11.180456
20
35.746126
70
0
0
VERTEX
8
0
10
10.999986
20
36.087643
70
0
0
VERTEX
8
0
10
10.977362
20
36.207619
70
0
0
VERTEX
8
0
10
10.906518
20
36.351458
70
0
0
VERTEX
8
0
10
10.803542
20
36.494894
70
0
0
VERTEX
8
0
10
10.681796
20
36.615425
70
0
0
VERTEX
8
0
10
10.515026
20
36.719081
70
0
0
VERTEX
8
0
10
10.468222
20
36.718375
70
0
0
VERTEX
8
0
10
10.438553
20
36.682170
70
0
0
VERTEX
8
0
10
10.427059
20
36.498053
70
0
0
VERTEX
8
0
10
10.505763
20
35.931524
70
0
0
VERTEX
8
0
10
10.528567
20
35.104636
70
0
0
VERTEX
8
0
10
10.358861
20
34.235499
70
0
0
VERTEX
8
0
10
10.033622
20
33.454543
70
0
0
VERTEX
8
0
10
9.592800
20
32.893828
70
0
0
VERTEX
8
0
10
9.356344
20
32.719229
70
0
0
VERTEX
8
0
10
9.293967
20
32.711806
70
0
0
VERTEX
8
0
10
9.246646
20
32.753117
70
0
0
VERTEX
8
0
10
9.193570
20
32.970619
70
0
0
VERTEX
8
0
10
9.162677
20
33.819334
70
0
0
VERTEX
8
0
10
9.114277
20
35.352486
70
0
0
VERTEX
8
0
10
9.076862
20
35.978840
70
0
0
VERTEX
8
0
10
9.020825
20
36.349378
70
0
0
VERTEX
8
0
10
8.920877
20
36.646281
70
0
0
VERTEX
8
0
10
8.634887
20
37.015531
70
0
0
VERTEX
8
0
10
8.078643
20
37.403768
70
0
0
VERTEX
8
0
10
7.458520
20
37.705453
70
0
0
VERTEX
8
0
10
6.957382
20
37.800327
70
0
0
VERTEX
8
0
10
6.241840
20
37.540595
70
0
0
VERTEX
8
0
10
5.864951
20
36.884040
70
0
0
VERTEX
8
0
10
5.918158
20
35.852512
70
0
0
VERTEX
8
0
10
6.411421
20
34.577690
70
0
0
VERTEX
8
0
10
6.893688
20
33.440943
70
0
0
VERTEX
8
0
10
7.142812
20
32.397838
70
0
0
VERTEX
8
0
10
7.148684
20
31.570691
70
0
0
VERTEX
8
0
10
6.878676
20
31.108431
70
0
0
VERTEX
8
0
10
6.733745
20
30.967796
70
0
0
VERTEX
8
0
10
6.611230
20
30.775514
70
0
0
VERTEX
8
0
10
6.527869
20
30.563872
70
0
0
VERTEX
8
0
10
6.499992
20
30.365409
70
0
0
VERTEX
8
0
10
6.438238
20
30.106079
70
0
0
VERTEX
8
0
10
6.235216
20
29.772906
70
0
0
VERTEX
8
0
10
5.912237
20
29.382097
70
0
0
VERTEX
8
0
10
5.465306
20
28.937292
70
0
0
VERTEX
8
0
10
4.971171
20
28.491220
70
0
0
VERTEX
8
0
10
4.691543
20
28.288464
70
0
0
VERTEX
8
0
10
4.577739
20
28.289514
70
0
0
VERTEX
8
0
10
4.538633
20
28.387293
70
0
0
VERTEX
8
0
10
4.514210
20
28.519622
70
0
0
VERTEX
8
0
10
4.396884
20
28.585515
70
0
0
VERTEX
8
0
10
4.063997
20
28.454833
70
0
0
VERTEX
8
0
10
3.460362
20
27.659997
70
0
0
VERTEX
8
0
10
3.016124
20
26.750340
70
0
0
VERTEX
8
0
10
2.921672
20
26.539782
70
0
0
VERTEX
8
0
10
2.808428
20
26.361903
70
0
0
VERTEX
8
0
10
2.693857
20
26.237009
70
0
0
VERTEX
8
0
10
2.598670
20
26.200341
70
0
0
VERTEX
8
0
10
2.374090
20
26.311436
70
0
0
VERTEX
8
0
10
2.262991
20
26.594626
70
0
0
VERTEX
8
0
10
2.299659
20
26.998905
70
0
0
VERTEX
8
0
10
2.481352
20
27.422633
70
0
0
VERTEX
8
0
10
2.656732
20
27.735998
70
0
0
VERTEX
8
0
10
2.702802
20
27.890139
70
0
0
VERTEX
8
0
10
2.660228
20
27.969259
70
0
0
VERTEX
8
0
10
2.535793
20
28.000339
70
0
0
VERTEX
8
0
10
2.408450
20
27.979356
70
0
0
VERTEX
8
0
10
2.262480
20
27.915094
70
0
0
VERTEX
8
0
10
2.121472
20
27.821184
70
0
0
VERTEX
8
0
10
2.008133
20
27.710141
70
0
0
VERTEX
8
0
10
1.857377
20
27.589441
70
0
0
VERTEX
8
0
10
1.578467
20
27.466264
70
0
0
VERTEX
8
0
10
1.239582
20
27.359513
70
0
0
VERTEX
8
0
10
0.883645
20
27.287433
70
0
0
VERTEX
8
0
10
0.000000
20
27.154922
70
0
0
VERTEX
8
0
10
0.000000
20
24.054320
70
0
0
VERTEX
8
0
10
0.000000
20
20.953717
70
0
0
VERTEX
8
0
10
0.546196
20
21.058129
70
0
0
VERTEX
8
0
10
0.893553
20
21.121844
70
0
0
VERTEX
8
0
10
0.950257
20
21.104144
70
0
0
VERTEX
8
0
10
0.958672
20
21.082154
70
0
0
VERTEX
8
0
10
0.947652
20
21.061347
70
0
0
VERTEX
8
0
10
0.717834
20
20.888657
70
0
0
VERTEX
8
0
10
0.558172
20
20.777948
70
0
0
VERTEX
8
0
10
0.388196
20
20.671776
70
0
0
VERTEX
8
0
10
0.231935
20
20.583874
70
0
0
VERTEX
8
0
10
0.121638
20
20.534942
70
0
0
VERTEX
8
0
10
0.004713
20
20.425343
70
0
0
VERTEX
8
0
10
0.042576
20
20.310473
70
0
0
VERTEX
8
0
10
0.275499
20
20.245470
70
0
0
VERTEX
8
0
10
0.553502
20
20.285591
70
0
0
VERTEX
8
0
10
0.762856
20
20.377834
70
0
0
VERTEX
8
0
10
1.126595
20
20.597016
70
0
0
VERTEX
8
0
10
1.543795
20
20.872044
70
0
0
VERTEX
8
0
10
1.965721
20
21.174774
70
0
0
VERTEX
8
0
10
2.994294
20
21.942192
70
0
0
VERTEX
8
0
10
6.447141
20
22.057039
70
0
0
VERTEX
8
0
10
9.408442
20
22.249867
70
0
0
VERTEX
8
0
10
12.351519
20
22.630371
70
0
0
VERTEX
8
0
10
14.915723
20
23.167319
70
0
0
VERTEX
8
0
10
17.419646
20
23.937918
70
0
0
VERTEX
8
0
10
19.582922
20
24.844658
70
0
0
VERTEX
8
0
10
21.639751
20
25.972218
70
0
0
VERTEX
8
0
10
23.413623
20
27.235848
70
0
0
VERTEX
8
0
10
25.008033
20
28.719505
70
0
0
VERTEX
8
0
10
27.958728
20
31.775517
70
0
0
VERTEX
8
0
10
30.802426
20
34.571992
70
0
0
VERTEX
8
0
10
33.302119
20
36.890380
70
0
0
VERTEX
8
0
10
35.099956
20
38.366354
70
0
0
VERTEX
8
0
10
37.117846
20
39.756495
70
0
0
VERTEX
8
0
10
39.198820
20
40.956833
70
0
0
VERTEX
8
0
10
41.054079
20
41.859570
70
0
0
VERTEX
8
0
10
41.395420
20
41.926635
70
0
0
VERTEX
8
0
10
41.731104
20
41.835381
70
0
0
VERTEX
8
0
10
42.288486
20
41.316458
70
0
0
VERTEX
8
0
10
42.983843
20
40.097395
70
0
0
VERTEX
8
0
10
43.718820
20
38.472284
70
0
0
VERTEX
8
0
10
44.436347
20
36.511835
70
0
0
VERTEX
8
0
10
45.373478
20
33.706584
70
0
0
VERTEX
8
0
10
44.236712
20
33.390381
70
0
0
VERTEX
8
0
10
42.739742
20
32.829321
70
0
0
VERTEX
8
0
10
41.392831
20
32.025182
70
0
0
VERTEX
8
0
10
39.649464
20
30.617180
70
0
0
VERTEX
8
0
10
36.369086
20
27.647044
70
0
0
VERTEX
8
0
10
32.904417
20
24.595039
70
0
0
VERTEX
8
0
10
29.313091
20
21.693136
70
0
0
VERTEX
8
0
10
26.146822
20
19.417321
70
0
0
VERTEX
8
0
10
22.828567
20
17.369450
70
0
0
VERTEX
8
0
10
19.744484
20
15.774168
70
0
0
VERTEX
8
0
10
16.541607
20
14.433244
70
0
0
VERTEX
8
0
10
13.360535
20
13.411889
70
0
0
VERTEX
8
0
10
10.099987
20
12.683042
70
0
0
VERTEX
8
0
10
7.769850
20
12.442896
70
0
0
VERTEX
8
0
10
4.854125
20
12.462803
70
0
0
VERTEX
8
0
10
2.074562
20
12.687372
70
0
0
VERTEX
8
0
10
0.325092
20
13.118403
70
0
0
VERTEX
8
0
10
0.166026
20
13.147306
70
0
0
VERTEX
8
0
10
0.066695
20
13.094465
70
0
0
VERTEX
8
0
10
0.013358
20
12.945629
70
0
0
VERTEX
8
0
10
0.000000
20
12.643154
70
0
0
VERTEX
8
0
10
0.069140
20
12.222837
70
0
0
VERTEX
8
0
10
0.271112
20
11.968572
70
0
0
VERTEX
8
0
10
0.659833
20
11.835698
70
0
0
VERTEX
8
0
10
1.366356
20
11.797297
70
0
0
VERTEX
8
0
10
2.117127
20
11.743327
70
0
0
VERTEX
8
0
10
2.436871
20
11.544939
70
0
0
VERTEX
8
0
10
2.534824
20
11.152264
70
0
0
VERTEX
8
0
10
2.397516
20
10.288408
70
0
0
VERTEX
8
0
10
2.105673
20
9.007049
70
0
0
VERTEX
8
0
10
1.822125
20
8.039525
70
0
0
VERTEX
8
0
10
1.559032
20
7.351263
70
0
0
VERTEX
8
0
10
1.367948
20
7.252715
70
0
0
VERTEX
8
0
10
1.277068
20
7.249798
70
0
0
VERTEX
8
0
10
1.184368
20
7.204753
70
0
0
VERTEX
8
0
10
1.103988
20
7.125128
70
0
0
VERTEX
8
0
10
1.049052
20
7.022526
70
0
0
VERTEX
8
0
10
1.020169
20
6.914707
70
0
0
VERTEX
8
0
10
1.036471
20
6.857648
70
0
0
VERTEX
8
0
10
1.086571
20
6.844022
70
0
0
VERTEX
8
0
10
1.173448
20
6.883956
70
0
0
VERTEX
8
0
10
1.259797
20
6.907553
70
0
0
VERTEX
8
0
10
1.300727
20
6.867212
70
0
0
VERTEX
8
0
10
1.281956
20
6.734716
70
0
0
VERTEX
8
0
10
1.187826
20
6.468350
70
0
0
VERTEX
8
0
10
0.965137
20
5.967829
70
0
0
VERTEX
8
0
10
0.736096
20
5.642193
70
0
0
VERTEX
8
0
10
0.503048
20
5.485109
70
0
0
VERTEX
8
0
10
0.267957
20
5.484988
70
0
0
VERTEX
8
0
10
0.165423
20
5.510032
70
0
0
VERTEX
8
0
10
0.078712
20
5.500702
70
0
0
VERTEX
8
0
10
0.021703
20
5.459330
70
0
0
VERTEX
8
0
10
0.000000
20
5.394090
70
0
0
VERTEX
8
0
10
0.036933
20
5.319840
70
0
0
VERTEX
8
0
10
0.150108
20
5.257274
70
0
0
VERTEX
8
0
10
0.315296
20
5.214510
70
0
0
VERTEX
8
0
10
0.511005
20
5.200368
70
0
0
VERTEX
8
0
10
0.797445
20
5.254749
70
0
0
VERTEX
8
0
10
1.019565
20
5.409221
70
0
0
VERTEX
8
0
10
1.232586
20
5.720520
70
0
0
VERTEX
8
0
10
1.519836
20
6.326041
70
0
0
VERTEX
8
0
10
1.732266
20
6.852360
70
0
0
VERTEX
8
0
10
1.959696
20
7.510068
70
0
0
VERTEX
8
0
10
2.167018
20
8.187115
70
0
0
VERTEX
8
0
10
2.318156
20
8.776038
70
0
0
VERTEX
8
0
10
2.568833
20
9.856250
70
0
0
VERTEX
8
0
10
2.720537
20
10.424113
70
0
0
VERTEX
8
0
10
2.831065
20
10.743017
70
0
0
VERTEX
8
0
10
2.865292
20
10.771740
70
0
0
VERTEX
8
0
10
2.908098
20
10.758926
70
0
0
VERTEX
8
0
10
2.945012
20
10.694075
70
0
0
VERTEX
8
0
10
3.081695
20
10.152160
70
0
0
VERTEX
8
0
10
3.232826
20
9.524797
70
0
0
VERTEX
8
0
10
3.398550
20
8.793856
70
0
0
VERTEX
8
0
10
3.855187
20
6.773095
70
0
0
VERTEX
8
0
10
4.084696
20
5.957980
70
0
0
VERTEX
8
0
10
4.273246
20
5.589024
70
0
0
VERTEX
8
0
10
4.489909
20
5.524172
70
0
0
VERTEX
8
0
10
4.877484
20
5.887122
70
0
0
VERTEX
8
0
10
5.189875
20
6.757290
70
0
0
VERTEX
8
0
10
5.423374
20
7.988929
70
0
0
VERTEX
8
0
10
5.552217
20
9.560745
70
0
0
VERTEX
8
0
10
5.656703
20
11.821125
70
0
0
VERTEX
8
0
10
6.361952
20
11.760742
70
0
0
VERTEX
8
0
10
7.067202
20
11.700359
70
0
0
VERTEX
8
0
10
7.985421
20
9.100363
70
0
0
VERTEX
8
0
10
8.498592
20
7.689778
70
0
0
VERTEX
8
0
10
8.813901
20
6.973221
70
0
0
VERTEX
8
0
10
9.071487
20
6.586326
70
0
0
VERTEX
8
0
10
9.340268
20
6.437969
70
0
0
VERTEX
8
0
10
9.564420
20
6.446587
70
0
0
VERTEX
8
0
10
9.755131
20
6.535390
70
0
0
VERTEX
8
0
10
9.931393
20
6.721600
70
0
0
VERTEX
8
0
10
10.115784
20
7.030913
70
0
0
VERTEX
8
0
10
10.281945
20
7.451829
70
0
0
VERTEX
8
0
10
10.365222
20
7.908040
70
0
0
VERTEX
8
0
10
10.380544
20
8.520829
70
0
0
VERTEX
8
0
10
10.329049
20
9.493307
70
0
0
VERTEX
8
0
10
10.272276
20
10.216315
70
0
0
VERTEX
8
0
10
10.205544
20
10.894268
70
0
0
VERTEX
8
0
10
10.137972
20
11.463341
70
0
0
VERTEX
8
0
10
10.085018
20
11.724971
70
0
0
VERTEX
8
0
10
10.054186
20
11.953656
70
0
0
VERTEX
8
0
10
10.115548
20
12.096298
70
0
0
VERTEX
8
0
10
10.288416
20
12.193960
70
0
0
VERTEX
8
0
10
10.667520
20
12.281072
70
0
0
VERTEX
8
0
10
11.112202
20
12.308405
70
0
0
VERTEX
8
0
10
11.451822
20
12.203507
70
0
0
VERTEX
8
0
10
11.846323
20
11.901271
70
0
0
VERTEX
8
0
10
12.642808
20
11.106463
70
0
0
VERTEX
8
0
10
13.154671
20
10.606164
70
0
0
VERTEX
8
0
10
13.638457
20
10.184029
70
0
0
VERTEX
8
0
10
14.054517
20
9.861972
70
0
0
VERTEX
8
0
10
14.242694
20
9.800362
70
0
0
VERTEX
8
0
10
14.512105
20
9.955459
70
0
0
VERTEX
8
0
10
14.694802
20
10.421716
70
0
0
VERTEX
8
0
10
14.785421
20
11.155927
70
0
0
VERTEX
8
0
10
14.767871
20
12.140013
70
0
0
VERTEX
8
0
10
14.699981
20
13.261470
70
0
0
VERTEX
8
0
10
15.792019
20
13.633023
70
0
0
VERTEX
8
0
10
16.446078
20
13.835200
70
0
0
VERTEX
8
0
10
16.854863
20
13.899411
70
0
0
VERTEX
8
0
10
17.241047
20
13.863836
70
0
0
VERTEX
8
0
10
17.792017
20
13.713006
70
0
0
VERTEX
8
0
10
18.864138
20
13.428026
70
0
0
VERTEX
8
0
10
19.871274
20
13.283029
70
0
0
VERTEX
8
0
10
20.891983
20
13.271327
70
0
0
VERTEX
8
0
10
22.005085
20
13.387560
70
0
0
VERTEX
8
0
10
23.528699
20
13.644984
70
0
0
VERTEX
8
0
10
23.797538
20
13.856310
70
0
0
VERTEX
8
0
10
23.707351
20
14.112040
70
0
0
VERTEX
8
0
10
22.572580
20
14.660938
70
0
0
VERTEX
8
0
10
21.980219
20
14.942570
70
0
0
VERTEX
8
0
10
21.458419
20
15.215803
70
0
0
VERTEX
8
0
10
21.034532
20
15.458899
70
0
0
VERTEX
8
0
10
20.914391
20
15.577027
70
0
0
VERTEX
8
0
10
20.908196
20
15.714577
70
0
0
VERTEX
8
0
10
21.018988
20
15.773996
70
0
0
VERTEX
8
0
10
21.397259
20
15.694776
70
0
0
VERTEX
8
0
10
22.367791
20
15.397774
70
0
0
VERTEX
8
0
10
23.648804
20
15.105669
70
0
0
VERTEX
8
0
10
25.007217
20
15.006125
70
0
0
VERTEX
8
0
10
26.309355
20
15.100379
70
0
0
VERTEX
8
0
10
27.419330
20
15.389313
70
0
0
VERTEX
8
0
10
28.194710
20
15.728471
70
0
0
VERTEX
8
0
10
28.990575
20
16.164780
70
0
0
VERTEX
8
0
10
29.682353
20
16.604849
70
0
0
VERTEX
8
0
10
29.798596
20
16.820060
70
0
0
VERTEX
8
0
10
29.757402
20
16.879412
70
0
0
VERTEX
8
0
10
29.314874
20
17.034605
70
0
0
VERTEX
8
0
10
28.782430
20
17.204036
70
0
0
VERTEX
8
0
10
28.149965
20
17.382326
70
0
0
VERTEX
8
0
10
27.475502
20
17.569782
70
0
0
VERTEX
8
0
10
26.813362
20
17.767038
70
0
0
VERTEX
8
0
10
26.243980
20
17.948176
70
0
0
VERTEX
8
0
10
25.916848
20
18.070517
70
0
0
VERTEX
8
0
10
25.333730
20
18.316148
70
0
0
VERTEX
8
0
10
26.416848
20
19.002865
70
0
0
VERTEX
8
0
10
26.992043
20
19.386710
70
0
0
VERTEX
8
0
10
27.909267
20
20.038443
70
0
0
VERTEX
8
0
10
28.948878
20
20.795964
70
0
0
VERTEX
8
0
10
29.976449
20
21.563911
70
0
0
VERTEX
8
0
10
31.689394
20
22.830925
70
0
0
VERTEX
8
0
10
32.346092
20
23.153720
70
0
0
VERTEX
8
0
10
32.669507
20
23.003853
70
0
0
VERTEX
8
0
10
32.801288
20
22.400346
70
0
0
VERTEX
8
0
10
32.828922
20
22.153500
70
0
0
VERTEX
8
0
10
32.913679
20
21.812222
70
0
0
VERTEX
8
0
10
33.033272
20
21.443314
70
0
0
VERTEX
8
0
10
33.173426
20
21.100347
70
0
0
VERTEX
8
0
10
33.678312
20
20.208208
70
0
0
VERTEX
8
0
10
34.330464
20
19.417310
70
0
0
VERTEX
8
0
10
35.076158
20
18.801584
70
0
0
VERTEX
8
0
10
35.932709
20
18.352697
70
0
0
VERTEX
8
0
10
36.966957
20
18.043404
70
0
0
VERTEX
8
0
10
38.039476
20
17.920779
70
0
0
VERTEX
8
0
10
40.691544
20
18.106588
70
0
0
VERTEX
8
0
10
42.948492
20
18.607546
70
0
0
VERTEX
8
0
10
45.139685
20
19.344734
70
0
0
VERTEX
8
0
10
47.179595
20
20.293076
70
0
0
VERTEX
8
0
10
49.097040
20
21.469507
70
0
0
VERTEX
8
0
10
50.867473
20
22.859029
70
0
0
VERTEX
8
0
10
52.466632
20
24.442663
70
0
0
VERTEX
8
0
10
53.921825
20
26.242804
70
0
0
VERTEX
8
0
10
55.178759
20
28.186565
70
0
0
VERTEX
8
0
10
55.487686
20
28.740893
70
0
0
VERTEX
8
0
10
55.792280
20
29.320041
70
0
0
VERTEX
8
0
10
56.052467
20
29.843846
70
0
0
VERTEX
8
0
10
56.208313
20
30.200336
70
0
0
VERTEX
8
0
10
57.025104
20
31.861056
70
0
0
VERTEX
8
0
10
58.142265
20
33.460712
70
0
0
VERTEX
8
0
10
59.470379
20
34.885487
70
0
0
VERTEX
8
0
10
60.916914
20
36.024069
70
0
0
VERTEX
8
0
10
61.815796
20
36.623953
70
0
0
VERTEX
8
0
10
61.996613
20
36.798226
70
0
0
VERTEX
8
0
10
62.005424
20
36.859484
70
0
0
VERTEX
8
0
10
61.959671
20
36.901160
70
0
0
VERTEX
8
0
10
61.602936
20
36.964420
70
0
0
VERTEX
8
0
10
60.565708
20
36.848227
70
0
0
VERTEX
8
0
10
59.297685
20
36.287611
70
0
0
VERTEX
8
0
10
57.866008
20
35.336744
70
0
0
VERTEX
8
0
10
56.320313
20
34.010886
70
0
0
VERTEX
8
0
10
55.552892
20
33.295958
70
0
0
VERTEX
8
0
10
55.326085
20
33.140551
70
0
0
VERTEX
8
0
10
55.268746
20
33.143803
70
0
0
VERTEX
8
0
10
55.241847
20
33.194546
70
0
0
VERTEX
8
0
10
55.281186
20
33.500332
70
0
0
VERTEX
8
0
10
55.617111
20
34.484250
70
0
0
VERTEX
8
0
10
56.396463
20
36.099124
70
0
0
VERTEX
8
0
10
57.243668
20
37.677425
70
0
0
VERTEX
8
0
10
57.832024
20
38.506326
70
0
0
VERTEX
8
0
10
58.116059
20
38.802576
70
0
0
VERTEX
8
0
10
58.451124
20
39.101950
70
0
0
VERTEX
8
0
10
58.784558
20
39.361684
70
0
0
VERTEX
8
0
10
59.058739
20
39.530738
70
0
0
VERTEX
8
0
10
59.430920
20
39.799482
70
0
0
VERTEX
8
0
10
59.466406
20
39.901847
70
0
0
VERTEX
8
0
10
59.405819
20
39.991663
70
0
0
VERTEX
8
0
10
59.021580
20
40.075896
70
0
0
VERTEX
8
0
10
58.271185
20
39.975174
70
0
0
VERTEX
8
0
10
57.077879
20
39.476745
70
0
0
VERTEX
8
0
10
55.833955
20
38.402389
70
0
0
VERTEX
8
0
10
54.427428
20
36.662633
70
0
0
VERTEX
8
0
10
52.699934
20
34.026622
70
0
0
VERTEX
8
0
10
50.783942
20
31.320838
70
0
0
VERTEX
8
0
10
48.611105
20
28.988455
70
0
0
VERTEX
8
0
10
46.332908
20
27.171695
70
0
0
VERTEX
8
0
10
44.103176
20
26.018727
70
0
0
VERTEX
8
0
10
42.231733
20
25.585496
70
0
0
VERTEX
8
0
10
41.543180
20
25.635352
70
0
0
VERTEX
8
0
10
40.910247
20
25.911007
70
0
0
VERTEX
8
0
10
40.542844
20
26.316654
70
0
0
VERTEX
8
0
10
40.420062
20
26.850001
70
0
0
VERTEX
8
0
10
40.529879
20
27.537892
70
0
0
VERTEX
8
0
10
40.812502
20
28.174585
70
0
0
VERTEX
8
0
10
41.421261
20
28.977241
70
0
0
VERTEX
8
0
10
42.443059
20
29.997424
70
0
0
VERTEX
8
0
10
43.618683
20
31.013288
70
0
0
VERTEX
8
0
10
44.749592
20
31.832682
70
0
0
VERTEX
8
0
10
45.403672
20
32.280807
70
0
0
VERTEX
8
0
10
45.756894
20
32.592928
70
0
0
VERTEX
8
0
10
45.937110
20
32.871942
70
0
0
VERTEX
8
0
10
45.999942
20
33.182152
70
0
0
VERTEX
8
0
10
45.853416
20
34.120481
70
0
0
VERTEX
8
0
10
45.061067
20
36.492498
70
0
0
VERTEX
8
0
10
44.191250
20
38.853405
70
0
0
VERTEX
8
0
10
43.490115
20
40.392639
70
0
0
VERTEX
8
0
10
42.930993
20
41.349994
70
0
0
VERTEX
8
0
10
42.393140
20
42.037912
70
0
0
VERTEX
8
0
10
41.884942
20
42.462287
70
0
0
VERTEX
8
0
10
41.417712
20
42.600321
70
0
0
VERTEX
8
0
10
40.647688
20
42.417198
70
0
0
VERTEX
8
0
10
38.558710
20
41.325445
70
0
0
VERTEX
8
0
10
36.454951
20
40.121270
70
0
0
VERTEX
8
0
10
34.899956
20
39.071641
70
0
0
VERTEX
8
0
10
33.326505
20
37.760107
70
0
0
VERTEX
8
0
10
30.792637
20
35.365239
70
0
0
VERTEX
8
0
10
27.801752
20
32.406829
70
0
0
VERTEX
8
0
10
24.584708
20
29.096027
70
0
0
VERTEX
8
0
10
23.047766
20
27.651784
70
0
0
VERTEX
8
0
10
21.467096
20
26.491471
70
0
0
VERTEX
8
0
10
19.665825
20
25.500253
70
0
0
VERTEX
8
0
10
17.455112
20
24.565078
70
0
0
VERTEX
8
0
10
15.309292
20
23.756458
70
0
0
VERTEX
8
0
10
14.732269
20
24.428401
70
0
0
VERTEX
8
0
10
14.017371
20
25.431381
70
0
0
VERTEX
8
0
10
13.444691
20
26.606818
70
0
0
VERTEX
8
0
10
13.047455
20
27.875869
70
0
0
VERTEX
8
0
10
12.855391
20
29.158067
70
0
0
VERTEX
8
0
10
12.838831
20
30.653267
70
0
0
VERTEX
8
0
10
13.021216
20
31.864848
70
0
0
VERTEX
8
0
10
13.444203
20
32.995719
70
0
0
VERTEX
8
0
10
14.166791
20
34.240046
70
0
0
VERTEX
8
0
10
15.028337
20
35.567082
70
0
0
VERTEX
8
0
10
15.402021
20
36.283434
70
0
0
VERTEX
8
0
10
15.631737
20
37.012583
70
0
0
VERTEX
8
0
10
15.883806
20
38.313859
70
0
0
VERTEX
8
0
10
16.201664
20
40.775837
70
0
0
VERTEX
8
0
10
16.422046
20
44.062459
70
0
0
VERTEX
8
0
10
16.555913
20
48.143883
70
0
0
VERTEX
8
0
10
16.599270
20
53.124118
70
0
0
VERTEX
8
0
10
16.599979
20
59.747920
70
0
0
VERTEX
8
0
10
17.587478
20
62.724106
70
0
0
VERTEX
8
0
10
18.031959
20
64.107998
70
0
0
VERTEX
8
0
10
18.555581
20
65.824786
70
0
0
VERTEX
8
0
10
19.071919
20
67.582093
70
0
0
VERTEX
8
0
10
19.496447
20
69.100287
70
0
0
VERTEX
8
0
10
20.343687
20
72.012748
70
0
0
VERTEX
8
0
10
21.007904
20
73.654034
70
0
0
VERTEX
8
0
10
21.840420
20
74.929581
70
0
0
VERTEX
8
0
10
23.182945
20
76.401405
70
0
0
VERTEX
8
0
10
24.564107
20
77.656441
70
0
0
VERTEX
8
0
10
25.909969
20
78.646948
70
0
0
VERTEX
8
0
10
27.365430
20
79.469773
70
0
0
VERTEX
8
0
10
29.078257
20
80.217474
70
0
0
VERTEX
8
0
10
30.579763
20
80.745439
70
0
0
VERTEX
8
0
10
32.126158
20
81.186963
70
0
0
VERTEX
8
0
10
33.533145
20
81.521661
70
0
0
VERTEX
8
0
10
33.851220
20
81.429009
70
0
0
VERTEX
8
0
10
33.883313
20
81.325460
70
0
0
VERTEX
8
0
10
33.826488
20
81.116663
70
0
0
VERTEX
8
0
10
33.711909
20
80.860398
70
0
0
VERTEX
8
0
10
33.546374
20
80.586353
70
0
0
VERTEX
8
0
10
33.248815
20
80.232319
70
0
0
VERTEX
8
0
10
32.858731
20
79.914708
70
0
0
VERTEX
8
0
10
32.337900
20
79.605832
70
0
0
VERTEX
8
0
10
31.634374
20
79.276078
70
0
0
VERTEX
8
0
10
30.588475
20
78.812261
70
0
0
VERTEX
8
0
10
30.122118
20
78.551444
70
0
0
VERTEX
8
0
10
30.104579
20
78.501998
70
0
0
VERTEX
8
0
10
30.146801
20
78.470855
70
0
0
VERTEX
8
0
10
30.500372
20
78.513733
70
0
0
VERTEX
8
0
10
31.366508
20
78.787760
70
0
0
VERTEX
8
0
10
32.364298
20
79.225576
70
0
0
VERTEX
8
0
10
33.278281
20
79.714848
70
0
0
VERTEX
8
0
10
33.840240
20
80.139249
70
0
0
VERTEX
8
0
10
34.056311
20
80.379173
70
0
0
VERTEX
8
0
10
34.258711
20
80.672543
70
0
0
VERTEX
8
0
10
34.419436
20
80.972092
70
0
0
VERTEX
8
0
10
34.506130
20
81.228380
70
0
0
VERTEX
8
0
10
34.571413
20
81.447685
70
0
0
VERTEX
8
0
10
34.663610
20
81.633819
70
0
0
VERTEX
8
0
10
34.767114
20
81.763554
70
0
0
VERTEX
8
0
10
34.865847
20
81.805516
70
0
0
VERTEX
8
0
10
35.191001
20
81.875069
70
0
0
VERTEX
8
0
10
35.895419
20
82.189227
70
0
0
VERTEX
8
0
10
36.517141
20
82.500247
70
0
0
VERTEX
8
0
10
36.537147
20
82.544086
70
0
0
VERTEX
8
0
10
36.499954
20
82.574726
70
0
0
VERTEX
8
0
10
36.374288
20
82.559077
70
0
0
VERTEX
8
0
10
36.064954
20
82.464849
70
0
0
VERTEX
8
0
10
35.697542
20
82.340128
70
0
0
VERTEX
8
0
10
35.299956
20
82.191079
70
0
0
VERTEX
8
0
10
35.299956
20
82.191079
70
0
0
SEQEND
8
0
0
POLYLINE
8
0
62
7
70
0
10
0.000000
20
0.000000
66
1
0
VERTEX
8
0
10
8.999989
20
60.328507
70
0
0
VERTEX
8
0
10
9.011796
20
60.314223
70
0
0
VERTEX
8
0
10
8.998529
20
60.301284
70
0
0
VERTEX
8
0
10
8.031240
20
60.278436
70
0
0
VERTEX
8
0
10
6.692537
20
60.261167
70
0
0
VERTEX
8
0
10
4.999994
20
60.253928
70
0
0
VERTEX
8
0
10
3.312515
20
60.260393
70
0
0
VERTEX
8
0
10
1.992304
20
60.286587
70
0
0
VERTEX
8
0
10
1.084155
20
60.324795
70
0
0
VERTEX
8
0
10
1.060681
20
60.347645
70
0
0
VERTEX
8
0
10
1.080191
20
60.373961
70
0
0
VERTEX
8
0
10
1.829281
20
60.454976
70
0
0
VERTEX
8
0
10
4.888374
20
60.447823
70
0
0
VERTEX
8
0
10
7.851401
20
60.415749
70
0
0
VERTEX
8
0
10
8.999989
20
60.328507
70
0
0
VERTEX
8
0
10
8.999989
20
60.328507
70
0
0
SEQEND
8
0
0
POLYLINE
8
0
62
7
70
0
10
0.000000
20
0.000000
66
1
0
VERTEX
8
0
10
14.699981
20
59.729458
70
0
0
VERTEX
8
0
10
15.899980
20
59.485671
70
0
0
VERTEX
8
0
10
15.931074
20
58.392986
70
0
0
VERTEX
8
0
10
15.952262
20
57.624608
70
0
0
VERTEX
8
0
10
15.938627
20
57.560441
70
0
0
VERTEX
8
0
10
15.927604
20
57.554501
70
0
0
VERTEX
8
0
10
15.918597
20
57.563198
70
0
0
VERTEX
8
0
10
15.817100
20
58.154275
70
0
0
VERTEX
8
0
10
15.747791
20
58.494981
70
0
0
VERTEX
8
0
10
15.659509
20
58.812530
70
0
0
VERTEX
8
0
10
15.565844
20
59.072566
70
0
0
VERTEX
8
0
10
15.484331
20
59.195949
70
0
0
VERTEX
8
0
10
15.234878
20
59.331826
70
0
0
VERTEX
8
0
10
14.009924
20
59.585518
70
0
0
VERTEX
8
0
10
12.605519
20
59.840789
70
0
0
VERTEX
8
0
10
11.099986
20
60.067855
70
0
0
VERTEX
8
0
10
11.091141
20
60.074196
70
0
0
VERTEX
8
0
10
11.091389
20
60.085076
70
0
0
VERTEX
8
0
10
11.116861
20
60.099918
70
0
0
VERTEX
8
0
10
11.458225
20
60.090566
70
0
0
VERTEX
8
0
10
11.999985
20
60.061630
70
0
0
VERTEX
8
0
10
12.661812
20
60.010073
70
0
0
VERTEX
8
0
10
13.411858
20
59.927596
70
0
0
VERTEX
8
0
10
14.133338
20
59.829302
70
0
0
VERTEX
8
0
10
14.699981
20
59.729458
70
0
0
VERTEX
8
0
10
14.699981
20
59.729458
70
0
0
SEQEND
8
0
0
POLYLINE
8
0
62
7
70
0
10
0.000000
20
0.000000
66
1
0
VERTEX
8
0
10
12.402185
20
59.325456
70
0
0
VERTEX
8
0
10
14.277130
20
58.981694
70
0
0
VERTEX
8
0
10
14.780789
20
58.628139
70
0
0
VERTEX
8
0
10
14.975725
20
57.962061
70
0
0
VERTEX
8
0
10
14.999981
20
55.111154
70
0
0
VERTEX
8
0
10
14.990636
20
53.411476
70
0
0
VERTEX
8
0
10
14.961264
20
51.292698
70
0
0
VERTEX
8
0
10
14.918691
20
49.118392
70
0
0
VERTEX
8
0
10
14.868177
20
47.232562
70
0
0
VERTEX
8
0
10
14.736372
20
43.000320
70
0
0
VERTEX
8
0
10
13.386902
20
43.000320
70
0
0
VERTEX
8
0
10
12.405347
20
43.014834
70
0
0
VERTEX
8
0
10
12.182389
20
43.121619
70
0
0
VERTEX
8
0
10
12.118717
20
43.355665
70
0
0
VERTEX
8
0
10
12.297918
20
44.274897
70
0
0
VERTEX
8
0
10
12.381811
20
44.636960
70
0
0
VERTEX
8
0
10
12.445743
20
44.714609
70
0
0
VERTEX
8
0
10
12.529907
20
44.698244
70
0
0
VERTEX
8
0
10
12.723546
20
44.474897
70
0
0
VERTEX
8
0
10
12.867287
20
44.401465
70
0
0
VERTEX
8
0
10
12.959073
20
44.478916
70
0
0
VERTEX
8
0
10
12.972541
20
44.894773
70
0
0
VERTEX
8
0
10
12.907453
20
46.079861
70
0
0
VERTEX
8
0
10
12.860759
20
47.244464
70
0
0
VERTEX
8
0
10
12.895062
20
48.027199
70
0
0
VERTEX
8
0
10
13.027471
20
48.783133
70
0
0
VERTEX
8
0
10
13.313227
20
49.845322
70
0
0
VERTEX
8
0
10
13.645688
20
51.174940
70
0
0
VERTEX
8
0
10
13.718149
20
52.099797
70
0
0
VERTEX
8
0
10
13.552491
20
52.786101
70
0
0
VERTEX
8
0
10
13.146921
20
53.343328
70
0
0
VERTEX
8
0
10
12.605817
20
53.766626
70
0
0
VERTEX
8
0
10
12.090686
20
54.023960
70
0
0
VERTEX
8
0
10
11.496993
20
54.158033
70
0
0
VERTEX
8
0
10
10.705167
20
54.200306
70
0
0
VERTEX
8
0
10
9.655939
20
54.093016
70
0
0
VERTEX
8
0
10
8.766329
20
53.773764
70
0
0
VERTEX
8
0
10
8.018529
20
53.228505
70
0
0
VERTEX
8
0
10
7.389669
20
52.451821
70
0
0
VERTEX
8
0
10
6.799991
20
51.521997
70
0
0
VERTEX
8
0
10
6.799991
20
52.536007
70
0
0
VERTEX
8
0
10
6.778604
20
52.985180
70
0
0
VERTEX
8
0
10
6.713352
20
53.497713
70
0
0
VERTEX
8
0
10
6.618212
20
53.992941
70
0
0
VERTEX
8
0
10
6.505049
20
54.385972
70
0
0
VERTEX
8
0
10
6.371642
20
54.813427
70
0
0
VERTEX
8
0
10
6.321593
20
55.120744
70
0
0
VERTEX
8
0
10
6.343883
20
55.364563
70
0
0
VERTEX
8
0
10
6.436613
20
55.584623
70
0
0
VERTEX
8
0
10
6.568796
20
55.963148
70
0
0
VERTEX
8
0
10
6.493413
20
56.301074
70
0
0
VERTEX
8
0
10
6.185589
20
56.612897
70
0
0
VERTEX
8
0
10
5.614233
20
56.918040
70
0
0
VERTEX
8
0
10
5.219242
20
57.115375
70
0
0
VERTEX
8
0
10
4.977129
20
57.299529
70
0
0
VERTEX
8
0
10
4.846000
20
57.499419
70
0
0
VERTEX
8
0
10
4.799994
20
57.738791
70
0
0
VERTEX
8
0
10
4.759063
20
57.993903
70
0
0
VERTEX
8
0
10
4.637943
20
58.127990
70
0
0
VERTEX
8
0
10
4.381979
20
58.187911
70
0
0
VERTEX
8
0
10
3.765743
20
58.200301
70
0
0
VERTEX
8
0
10
3.288955
20
58.220953
70
0
0
VERTEX
8
0
10
2.896732
20
58.284652
70
0
0
VERTEX
8
0
10
2.585945
20
58.389923
70
0
0
VERTEX
8
0
10
2.358497
20
58.537857
70
0
0
VERTEX
8
0
10
2.133359
20
58.704856
70
0
0
VERTEX
8
0
10
1.933812
20
58.770723
70
0
0
VERTEX
8
0
10
1.695921
20
58.751877
70
0
0
VERTEX
8
0
10
1.328551
20
58.637857
70
0
0
VERTEX
8
0
10
0.723508
20
58.434617
70
0
0
VERTEX
8
0
10
0.520887
20
58.453439
70
0
0
VERTEX
8
0
10
0.419894
20
58.607477
70
0
0
VERTEX
8
0
10
0.399999
20
59.128864
70
0
0
VERTEX
8
0
10
0.399999
20
59.857428
70
0
0
VERTEX
8
0
10
5.449993
20
59.741955
70
0
0
VERTEX
8
0
10
7.584013
20
59.674955
70
0
0
VERTEX
8
0
10
9.608230
20
59.573916
70
0
0
VERTEX
8
0
10
11.329594
20
59.453220
70
0
0
VERTEX
8
0
10
12.402185
20
59.325456
70
0
0
VERTEX
8
0
10
12.402185
20
59.325456
70
0
0
SEQEND
8
0
0
POLYLINE
8
0
62
7
70
0
10
0.000000
20
0.000000
66
1
0
VERTEX
8
0
10
11.213134
20
51.593272
70
0
0
VERTEX
8
0
10
11.502346
20
51.266220
70
0
0
VERTEX
8
0
10
11.555649
20
50.779094
70
0
0
VERTEX
8
0
10
11.343785
20
50.039282
70
0
0
VERTEX
8
0
10
10.800852
20
48.879356
70
0
0
VERTEX
8
0
10
10.387897
20
48.012959
70
0
0
VERTEX
8
0
10
10.156294
20
47.385679
70
0
0
VERTEX
8
0
10
10.039754
20
46.816959
70
0
0
VERTEX
8
0
10
10.000853
20
46.162119
70
0
0
VERTEX
8
0
10
10.033905
20
45.338619
70
0
0
VERTEX
8
0
10
10.175618
20
44.965075
70
0
0
VERTEX
8
0
10
10.276019
20
44.909673
70
0
0
VERTEX
8
0
10
10.384109
20
44.947964
70
0
0
VERTEX
8
0
10
10.648770
20
45.299518
70
0
0
VERTEX
8
0
10
10.819889
20
45.556182
70
0
0
VERTEX
8
0
10
10.878594
20
45.582974
70
0
0
VERTEX
8
0
10
10.936118
20
45.553735
70
0
0
VERTEX
8
0
10
11.051984
20
45.328621
70
0
0
VERTEX
8
0
10
11.330343
20
44.405453
70
0
0
VERTEX
8
0
10
11.744139
20
43.000320
70
0
0
VERTEX
8
0
10
11.086531
20
43.000320
70
0
0
VERTEX
8
0
10
10.685778
20
43.062039
70
0
0
VERTEX
8
0
10
10.373085
20
43.241234
70
0
0
VERTEX
8
0
10
10.029136
20
43.627271
70
0
0
VERTEX
8
0
10
9.422587
20
44.504916
70
0
0
VERTEX
8
0
10
8.802715
20
45.506491
70
0
0
VERTEX
8
0
10
8.360163
20
46.398115
70
0
0
VERTEX
8
0
10
8.089933
20
47.179988
70
0
0
VERTEX
8
0
10
8.001105
20
47.843324
70
0
0
VERTEX
8
0
10
8.084376
20
48.423033
70
0
0
VERTEX
8
0
10
8.379741
20
49.284232
70
0
0
VERTEX
8
0
10
8.760262
20
50.146095
70
0
0
VERTEX
8
0
10
9.141577
20
50.764534
70
0
0
VERTEX
8
0
10
9.660525
20
51.335108
70
0
0
VERTEX
8
0
10
10.179598
20
51.660889
70
0
0
VERTEX
8
0
10
10.697492
20
51.741949
70
0
0
VERTEX
8
0
10
11.213134
20
51.593272
70
0
0
VERTEX
8
0
10
11.213134
20
51.593272
70
0
0
SEQEND
8
0
0
POLYLINE
8
0
62
7
70
0
10
0.000000
20
0.000000
66
1
0
VERTEX
8
0
10
6.558089
20
50.489065
70
0
0
VERTEX
8
0
10
6.469908
20
50.062492
70
0
0
VERTEX
8
0
10
6.400189
20
49.373884
70
0
0
VERTEX
8
0
10
6.355113
20
48.585582
70
0
0
VERTEX
8
0
10
6.345026
20
47.800314
70
0
0
VERTEX
8
0
10
6.398247
20
46.586108
70
0
0
VERTEX
8
0
10
6.538268
20
45.626272
70
0
0
VERTEX
8
0
10
6.812976
20
44.646091
70
0
0
VERTEX
8
0
10
7.300850
20
43.350320
70
0
0
VERTEX
8
0
10
7.347728
20
43.173891
70
0
0
VERTEX
8
0
10
7.310863
20
43.070471
70
0
0
VERTEX
8
0
10
7.188642
20
43.014451
70
0
0
VERTEX
8
0
10
6.926525
20
43.000320
70
0
0
VERTEX
8
0
10
6.366670
20
43.221313
70
0
0
VERTEX
8
0
10
5.982580
20
43.814103
70
0
0
VERTEX
8
0
10
5.748460
20
44.909320
70
0
0
VERTEX
8
0
10
5.635902
20
46.756463
70
0
0
VERTEX
8
0
10
5.602338
20
48.295539
70
0
0
VERTEX
8
0
10
5.646475
20
49.022792
70
0
0
VERTEX
8
0
10
5.791559
20
49.587232
70
0
0
VERTEX
8
0
10
6.112173
20
50.306877
70
0
0
VERTEX
8
0
10
6.328929
20
50.722130
70
0
0
VERTEX
8
0
10
6.521302
20
51.061590
70
0
0
VERTEX
8
0
10
6.687890
20
51.334945
70
0
0
VERTEX
8
0
10
6.706593
20
51.346770
70
0
0
VERTEX
8
0
10
6.727486
20
51.339482
70
0
0
VERTEX
8
0
10
6.744079
20
51.287659
70
0
0
VERTEX
8
0
10
6.703162
20
51.064235
70
0
0
VERTEX
8
0
10
6.642182
20
50.795818
70
0
0
VERTEX
8
0
10
6.558089
20
50.489065
70
0
0
VERTEX
8
0
10
6.558089
20
50.489065
70
0
0
SEQEND
8
0
0
POLYLINE
8
0
62
7
70
0
10
0.000000
20
0.000000
66
1
0
VERTEX
8
0
10
15.336604
20
39.562824
70
0
0
VERTEX
8
0
10
15.292294
20
39.479489
70
0
0
VERTEX
8
0
10
15.274880
20
39.469188
70
0
0
VERTEX
8
0
10
15.255844
20
39.476040
70
0
0
VERTEX
8
0
10
15.227580
20
39.534393
70
0
0
VERTEX
8
0
10
15.215770
20
39.683658
70
0
0
VERTEX
8
0
10
15.217970
20
39.822894
70
0
0
VERTEX
8
0
10
15.240114
20
39.918892
70
0
0
VERTEX
8
0
10
15.277043
20
39.955400
70
0
0
VERTEX
8
0
10
15.320814
20
39.946157
70
0
0
VERTEX
8
0
10
15.359462
20
39.880770
70
0
0
VERTEX
8
0
10
15.375296
20
39.783709
70
0
0
VERTEX
8
0
10
15.367810
20
39.672198
70
0
0
VERTEX
8
0
10
15.336604
20
39.562824
70
0
0
VERTEX
8
0
10
15.336604
20
39.562824
70
0
0
SEQEND
8
0
0
POLYLINE
8
0
62
7
70
0
10
0.000000
20
0.000000
66
1
0
VERTEX
8
0
10
56.814747
20
38.121865
70
0
0
VERTEX
8
0
10
56.534957
20
37.676340
70
0
0
VERTEX
8
0
10
56.185170
20
37.039813
70
0
0
VERTEX
8
0
10
55.828725
20
36.337924
70
0
0
VERTEX
8
0
10
55.520233
20
35.671868
70
0
0
VERTEX
8
0
10
54.189992
20
32.553974
70
0
0
VERTEX
8
0
10
54.100404
20
31.682213
70
0
0
VERTEX
8
0
10
54.256733
20
31.498996
70
0
0
VERTEX
8
0
10
54.494006
20
31.540326
70
0
0
VERTEX
8
0
10
56.043585
20
32.919972
70
0
0
VERTEX
8
0
10
56.729059
20
33.563312
70
0
0
VERTEX
8
0
10
57.419001
20
34.184102
70
0
0
VERTEX
8
0
10
58.026955
20
34.708395
70
0
0
VERTEX
8
0
10
58.399926
20
34.994917
70
0
0
VERTEX
8
0
10
59.099926
20
35.482914
70
0
0
VERTEX
8
0
10
58.388559
20
34.683808
70
0
0
VERTEX
8
0
10
57.599301
20
33.726193
70
0
0
VERTEX
8
0
10
56.913506
20
32.742983
70
0
0
VERTEX
8
0
10
56.279389
20
31.653598
70
0
0
VERTEX
8
0
10
55.645009
20
30.373567
70
0
0
VERTEX
8
0
10
53.844453
20
27.127358
70
0
0
VERTEX
8
0
10
52.839323
20
25.739762
70
0
0
VERTEX
8
0
10
51.708781
20
24.452290
70
0
0
VERTEX
8
0
10
50.483290
20
23.298000
70
0
0
VERTEX
8
0
10
49.153067
20
22.266147
70
0
0
VERTEX
8
0
10
46.099942
20
20.479323
70
0
0
VERTEX
8
0
10
44.175678
20
19.649907
70
0
0
VERTEX
8
0
10
42.349189
20
19.055252
70
0
0
VERTEX
8
0
10
40.603016
20
18.689738
70
0
0
VERTEX
8
0
10
38.920179
20
18.548684
70
0
0
VERTEX
8
0
10
37.686097
20
18.587319
70
0
0
VERTEX
8
0
10
36.681627
20
18.755157
70
0
0
VERTEX
8
0
10
35.823326
20
19.068414
70
0
0
VERTEX
8
0
10
35.036277
20
19.545715
70
0
0
VERTEX
8
0
10
34.312219
20
20.190497
70
0
0
VERTEX
8
0
10
34.132048
20
20.694923
70
0
0
VERTEX
8
0
10
34.356769
20
21.278332
70
0
0
VERTEX
8
0
10
35.233909
20
22.314778
70
0
0
VERTEX
8
0
10
36.846288
20
24.055221
70
0
0
VERTEX
8
0
10
38.231845
20
25.498919
70
0
0
VERTEX
8
0
10
39.435370
20
26.717469
70
0
0
VERTEX
8
0
10
39.634633
20
26.800341
70
0
0
VERTEX
8
0
10
39.697866
20
26.771972
70
0
0
VERTEX
8
0
10
39.751388
20
26.688063
70
0
0
VERTEX
8
0
10
39.787832
20
26.564460
70
0
0
VERTEX
8
0
10
39.799950
20
26.418120
70
0
0
VERTEX
8
0
10
39.841776
20
26.235762
70
0
0
VERTEX
8
0
10
39.980707
20
25.996079
70
0
0
VERTEX
8
0
10
40.179813
20
25.744458
70
0
0
VERTEX
8
0
10
40.415294
20
25.518121
70
0
0
VERTEX
8
0
10
41.353409
20
25.025574
70
0
0
VERTEX
8
0
10
42.411566
20
24.971117
70
0
0
VERTEX
8
0
10
43.898663
20
25.336548
70
0
0
VERTEX
8
0
10
45.312871
20
25.923926
70
0
0
VERTEX
8
0
10
46.973395
20
26.899029
70
0
0
VERTEX
8
0
10
48.502992
20
28.068857
70
0
0
VERTEX
8
0
10
50.008817
20
29.506320
70
0
0
VERTEX
8
0
10
51.368952
20
31.082340
70
0
0
VERTEX
8
0
10
51.828836
20
31.698928
70
0
0
VERTEX
8
0
10
52.444275
20
32.580703
70
0
0
VERTEX
8
0
10
53.097509
20
33.551769
70
0
0
VERTEX
8
0
10
53.692038
20
34.472776
70
0
0
VERTEX
8
0
10
54.654906
20
35.891657
70
0
0
VERTEX
8
0
10
55.824262
20
37.419286
70
0
0
VERTEX
8
0
10
56.991154
20
38.841603
70
0
0
VERTEX
8
0
10
57.331078
20
39.000325
70
0
0
VERTEX
8
0
10
57.347078
20
38.991181
70
0
0
VERTEX
8
0
10
57.347319
20
38.972754
70
0
0
VERTEX
8
0
10
57.215733
20
38.742277
70
0
0
VERTEX
8
0
10
57.040317
20
38.458862
70
0
0
VERTEX
8
0
10
56.814747
20
38.121865
70
0
0
VERTEX
8
0
10
56.814747
20
38.121865
70
0
0
SEQEND
8
0
0
POLYLINE
8
0
62
7
70
0
10
0.000000
20
0.000000
66
1
0
VERTEX
8
0
10
15.138579
20
37.854133
70
0
0
VERTEX
8
0
10
15.103313
20
37.776998
70
0
0
VERTEX
8
0
10
15.086252
20
37.769185
70
0
0
VERTEX
8
0
10
15.071288
20
37.780507
70
0
0
VERTEX
8
0
10
15.047092
20
37.886685
70
0
0
VERTEX
8
0
10
15.038971
20
38.100326
70
0
0
VERTEX
8
0
10
15.042522
20
38.316348
70
0
0
VERTEX
8
0
10
15.062997
20
38.451756
70
0
0
VERTEX
8
0
10
15.095407
20
38.477528
70
0
0
VERTEX
8
0
10
15.131168
20
38.454132
70
0
0
VERTEX
8
0
10
15.162862
20
38.334543
70
0
0
VERTEX
8
0
10
15.174434
20
38.176328
70
0
0
VERTEX
8
0
10
15.166560
20
38.007653
70
0
0
VERTEX
8
0
10
15.138579
20
37.854133
70
0
0
VERTEX
8
0
10
15.138579
20
37.854133
70
0
0
SEQEND
8
0
0
POLYLINE
8
0
62
7
70
0
10
0.000000
20
0.000000
66
1
0
VERTEX
8
0
10
14.936604
20
36.962828
70
0
0
VERTEX
8
0
10
14.892294
20
36.879492
70
0
0
VERTEX
8
0
10
14.874881
20
36.869191
70
0
0
VERTEX
8
0
10
14.855844
20
36.876044
70
0
0
VERTEX
8
0
10
14.827580
20
36.934396
70
0
0
VERTEX
8
0
10
14.815771
20
37.083661
70
0
0
VERTEX
8
0
10
14.817970
20
37.222897
70
0
0
VERTEX
8
0
10
14.840114
20
37.318895
70
0
0
VERTEX
8
0
10
14.877043
20
37.355403
70
0
0
VERTEX
8
0
10
14.920815
20
37.346161
70
0
0
VERTEX
8
0
10
14.959462
20
37.280773
70
0
0
VERTEX
8
0
10
14.975296
20
37.183713
70
0
0
VERTEX
8
0
10
14.967811
20
37.072201
70
0
0
VERTEX
8
0
10
14.936604
20
36.962828
70
0
0
VERTEX
8
0
10
14.936604
20
36.962828
70
0
0
SEQEND
8
0
0
POLYLINE
8
0
62
7
70
0
10
0.000000
20
0.000000
66
1
0
VERTEX
8
0
10
14.799981
20
36.438554
70
0
0
VERTEX
8
0
10
14.781586
20
36.352239
70
0
0
VERTEX
8
0
10
14.710902
20
36.210260
70
0
0
VERTEX
8
0
10
14.612821
20
36.049053
70
0
0
VERTEX
8
0
10
14.496731
20
35.888555
70
0
0
VERTEX
8
0
10
14.300256
20
35.639747
70
0
0
VERTEX
8
0
10
14.286894
20
35.634418
70
0
0
VERTEX
8
0
10
14.275493
20
35.643190
70
0
0
VERTEX
8
0
10
14.275519
20
35.689137
70
0
0
VERTEX
8
0
10
14.428835
20
36.050329
70
0
0
VERTEX
8
0
10
14.590154
20
36.403118
70
0
0
VERTEX
8
0
10
14.702713
20
36.564796
70
0
0
VERTEX
8
0
10
14.737110
20
36.577192
70
0
0
VERTEX
8
0
10
14.767731
20
36.557215
70
0
0
VERTEX
8
0
10
14.799981
20
36.438554
70
0
0
VERTEX
8
0
10
14.799981
20
36.438554
70
0
0
SEQEND
8
0
0
POLYLINE
8
0
62
7
70
0
10
0.000000
20
0.000000
66
1
0
VERTEX
8
0
10
12.094063
20
28.377891
70
0
0
VERTEX
8
0
10
11.951132
20
27.807901
70
0
0
VERTEX
8
0
10
11.941686
20
27.606089
70
0
0
VERTEX
8
0
10
12.021062
20
27.530124
70
0
0
VERTEX
8
0
10
12.211321
20
27.545354
70
0
0
VERTEX
8
0
10
12.414556
20
27.529888
70
0
0
VERTEX
8
0
10
12.611389
20
27.390556
70
0
0
VERTEX
8
0
10
12.829607
20
27.094681
70
0
0
VERTEX
8
0
10
13.113476
20
26.570160
70
0
0
VERTEX
8
0
10
13.362306
20
26.099251
70
0
0
VERTEX
8
0
10
13.664487
20
25.567466
70
0
0
VERTEX
8
0
10
13.970849
20
25.057787
70
0
0
VERTEX
8
0
10
14.230518
20
24.659030
70
0
0
VERTEX
8
0
10
14.807244
20
23.817718
70
0
0
VERTEX
8
0
10
14.027271
20
23.607693
70
0
0
VERTEX
8
0
10
11.756635
20
23.164236
70
0
0
VERTEX
8
0
10
8.026018
20
22.771782
70
0
0
VERTEX
8
0
10
4.220313
20
22.472367
70
0
0
VERTEX
8
0
10
4.065463
20
22.565393
70
0
0
VERTEX
8
0
10
4.099995
20
22.742706
70
0
0
VERTEX
8
0
10
4.236443
20
22.862302
70
0
0
VERTEX
8
0
10
4.621117
20
23.166028
70
0
0
VERTEX
8
0
10
5.083296
20
23.524527
70
0
0
VERTEX
8
0
10
5.593177
20
23.912901
70
0
0
VERTEX
8
0
10
6.260382
20
24.453460
70
0
0
VERTEX
8
0
10
7.272238
20
25.348111
70
0
0
VERTEX
8
0
10
8.400284
20
26.383718
70
0
0
VERTEX
8
0
10
9.493172
20
27.426374
70
0
0
VERTEX
8
0
10
11.372708
20
29.220736
70
0
0
VERTEX
8
0
10
12.024536
20
29.621942
70
0
0
VERTEX
8
0
10
12.206201
20
29.593959
70
0
0
VERTEX
8
0
10
12.279612
20
29.425449
70
0
0
VERTEX
8
0
10
12.094063
20
28.377891
70
0
0
VERTEX
8
0
10
12.094063
20
28.377891
70
0
0
SEQEND
8
0
0
POLYLINE
8
0
62
7
70
0
10
0.000000
20
0.000000
66
1
0
VERTEX
8
0
10
4.599994
20
24.124833
70
0
0
VERTEX
8
0
10
4.583764
20
24.082372
70
0
0
VERTEX
8
0
10
4.497182
20
23.990872
70
0
0
VERTEX
8
0
10
4.384075
20
23.885480
70
0
0
VERTEX
8
0
10
4.249995
20
23.774833
70
0
0
VERTEX
8
0
10
4.024094
20
23.598816
70
0
0
VERTEX
8
0
10
3.999995
20
23.600344
70
0
0
VERTEX
8
0
10
3.998467
20
23.624443
70
0
0
VERTEX
8
0
10
4.174484
20
23.850344
70
0
0
VERTEX
8
0
10
4.352659
20
24.061696
70
0
0
VERTEX
8
0
10
4.485217
20
24.174247
70
0
0
VERTEX
8
0
10
4.561315
20
24.181734
70
0
0
VERTEX
8
0
10
4.599994
20
24.124833
70
0
0
VERTEX
8
0
10
4.599994
20
24.124833
70
0
0
SEQEND
8
0
0
POLYLINE
8
0
62
7
70
0
10
0.000000
20
0.000000
66
1
0
VERTEX
8
0
10
2.505752
20
22.209658
70
0
0
VERTEX
8
0
10
2.423041
20
22.110915
70
0
0
VERTEX
8
0
10
2.233359
20
21.949159
70
0
0
VERTEX
8
0
10
1.999131
20
21.768604
70
0
0
VERTEX
8
0
10
1.743950
20
21.590627
70
0
0
VERTEX
8
0
10
1.282898
20
21.284707
70
0
0
VERTEX
8
0
10
1.273187
20
21.284975
70
0
0
VERTEX
8
0
10
1.270144
20
21.294201
70
0
0
VERTEX
8
0
10
1.294724
20
21.332403
70
0
0
VERTEX
8
0
10
1.799998
20
21.775934
70
0
0
VERTEX
8
0
10
2.287029
20
22.196476
70
0
0
VERTEX
8
0
10
2.502229
20
22.352695
70
0
0
VERTEX
8
0
10
2.531587
20
22.352635
70
0
0
VERTEX
8
0
10
2.544689
20
22.326363
70
0
0
VERTEX
8
0
10
2.505752
20
22.209658
70
0
0
VERTEX
8
0
10
2.505752
20
22.209658
70
0
0
SEQEND
8
0
0
POLYLINE
8
0
62
7
70
0
10
0.000000
20
0.000000
66
1
0
VERTEX
8
0
10
27.149966
20
17.296910
70
0
0
VERTEX
8
0
10
27.782479
20
17.134538
70
0
0
VERTEX
8
0
10
28.315277
20
16.971562
70
0
0
VERTEX
8
0
10
28.745806
20
16.819030
70
0
0
VERTEX
8
0
10
28.799964
20
16.741106
70
0
0
VERTEX
8
0
10
28.754128
20
16.655234
70
0
0
VERTEX
8
0
10
28.462152
20
16.469031
70
0
0
VERTEX
8
0
10
28.090677
20
16.260289
70
0
0
VERTEX
8
0
10
27.649965
20
16.043619
70
0
0
VERTEX
8
0
10
26.970965
20
15.763567
70
0
0
VERTEX
8
0
10
26.399468
20
15.608923
70
0
0
VERTEX
8
0
10
25.751896
20
15.536909
70
0
0
VERTEX
8
0
10
24.799969
20
15.521177
70
0
0
VERTEX
8
0
10
24.112462
20
15.541460
70
0
0
VERTEX
8
0
10
23.452470
20
15.592309
70
0
0
VERTEX
8
0
10
22.894661
20
15.662788
70
0
0
VERTEX
8
0
10
22.599972
20
15.746250
70
0
0
VERTEX
8
0
10
22.099972
20
15.959161
70
0
0
VERTEX
8
0
10
22.599972
20
16.161602
70
0
0
VERTEX
8
0
10
22.857342
20
16.286082
70
0
0
VERTEX
8
0
10
23.246846
20
16.516464
70
0
0
VERTEX
8
0
10
23.680437
20
16.794369
70
0
0
VERTEX
8
0
10
24.099970
20
17.085365
70
0
0
VERTEX
8
0
10
24.497609
20
17.357444
70
0
0
VERTEX
8
0
10
24.864969
20
17.577635
70
0
0
VERTEX
8
0
10
25.174944
20
17.737895
70
0
0
VERTEX
8
0
10
25.299968
20
17.748258
70
0
0
VERTEX
8
0
10
25.439479
20
17.710739
70
0
0
VERTEX
8
0
10
25.925905
20
17.591573
70
0
0
VERTEX
8
0
10
26.503317
20
17.451685
70
0
0
VERTEX
8
0
10
27.149966
20
17.296910
70
0
0
VERTEX
8
0
10
27.149966
20
17.296910
70
0
0
SEQEND
8
0
0
POLYLINE
8
0
62
7
70
0
10
0.000000
20
0.000000
66
1
0
VERTEX
8
0
10
21.725087
20
14.658739
70
0
0
VERTEX
8
0
10
22.447907
20
14.319178
70
0
0
VERTEX
8
0
10
22.629475
20
14.189807
70
0
0
VERTEX
8
0
10
22.642758
20
14.141533
70
0
0
VERTEX
8
0
10
22.608536
20
14.104985
70
0
0
VERTEX
8
0
10
22.332285
20
14.043748
70
0
0
VERTEX
8
0
10
22.073744
20
14.037529
70
0
0
VERTEX
8
0
10
21.815083
20
14.084583
70
0
0
VERTEX
8
0
10
21.577724
20
14.179848
70
0
0
VERTEX
8
0
10
21.382286
20
14.316363
70
0
0
VERTEX
8
0
10
21.228933
20
14.440168
70
0
0
VERTEX
8
0
10
21.107616
20
14.499897
70
0
0
VERTEX
8
0
10
21.033570
20
14.490670
70
0
0
VERTEX
8
0
10
20.999974
20
14.431354
70
0
0
VERTEX
8
0
10
20.973255
20
14.341389
70
0
0
VERTEX
8
0
10
20.897161
20
14.261261
70
0
0
VERTEX
8
0
10
20.783785
20
14.202987
70
0
0
VERTEX
8
0
10
20.649974
20
14.176693
70
0
0
VERTEX
8
0
10
20.579501
20
14.152669
70
0
0
VERTEX
8
0
10
20.569392
20
14.134024
70
0
0
VERTEX
8
0
10
20.579036
20
14.115133
70
0
0
VERTEX
8
0
10
20.687820
20
14.061064
70
0
0
VERTEX
8
0
10
20.899974
20
14.000357
70
0
0
VERTEX
8
0
10
21.139438
20
13.923707
70
0
0
VERTEX
8
0
10
21.155263
20
13.899214
70
0
0
VERTEX
8
0
10
21.136930
20
13.876538
70
0
0
VERTEX
8
0
10
20.934957
20
13.847482
70
0
0
VERTEX
8
0
10
20.299974
20
13.838077
70
0
0
VERTEX
8
0
10
19.811227
20
13.846090
70
0
0
VERTEX
8
0
10
19.334976
20
13.878047
70
0
0
VERTEX
8
0
10
18.928490
20
13.926503
70
0
0
VERTEX
8
0
10
18.699976
20
13.987634
70
0
0
VERTEX
8
0
10
18.512753
20
14.087474
70
0
0
VERTEX
8
0
10
18.486946
20
14.128350
70
0
0
VERTEX
8
0
10
18.498904
20
14.175188
70
0
0
VERTEX
8
0
10
18.626481
20
14.276626
70
0
0
VERTEX
8
0
10
19.074401
20
14.473576
70
0
0
VERTEX
8
0
10
19.391098
20
14.598675
70
0
0
VERTEX
8
0
10
19.702288
20
14.704364
70
0
0
VERTEX
8
0
10
19.971246
20
14.780898
70
0
0
VERTEX
8
0
10
20.124399
20
14.800356
70
0
0
VERTEX
8
0
10
20.229715
20
14.815363
70
0
0
VERTEX
8
0
10
20.319024
20
14.859105
70
0
0
VERTEX
8
0
10
20.378732
20
14.924088
70
0
0
VERTEX
8
0
10
20.399974
20
15.000355
70
0
0
VERTEX
8
0
10
20.449900
20
15.128282
70
0
0
VERTEX
8
0
10
20.562633
20
15.161573
70
0
0
VERTEX
8
0
10
20.828347
20
15.068063
70
0
0
VERTEX
8
0
10
21.725087
20
14.658739
70
0
0
VERTEX
8
0
10
21.725087
20
14.658739
70
0
0
SEQEND
8
0
0
POLYLINE
8
0
62
7
70
0
10
0.000000
20
0.000000
66
1
0
VERTEX
8
0
10
14.199982
20
11.500360
70
0
0
VERTEX
8
0
10
14.145108
20
10.657033
70
0
0
VERTEX
8
0
10
13.915697
20
10.417382
70
0
0
VERTEX
8
0
10
13.534813
20
10.524851
70
0
0
VERTEX
8
0
10
12.774452
20
11.250360
70
0
0
VERTEX
8
0
10
11.949365
20
12.100359
70
0
0
VERTEX
8
0
10
12.676883
20
12.219234
70
0
0
VERTEX
8
0
10
12.965052
20
12.274352
70
0
0
VERTEX
8
0
10
13.229210
20
12.341708
70
0
0
VERTEX
8
0
10
13.444452
20
12.411533
70
0
0
VERTEX
8
0
10
13.535525
20
12.469234
70
0
0
VERTEX
8
0
10
13.604839
20
12.519545
70
0
0
VERTEX
8
0
10
13.706465
20
12.561841
70
0
0
VERTEX
8
0
10
13.821596
20
12.590690
70
0
0
VERTEX
8
0
10
13.933316
20
12.600358
70
0
0
VERTEX
8
0
10
14.055144
20
12.534636
70
0
0
VERTEX
8
0
10
14.137861
20
12.344109
70
0
0
VERTEX
8
0
10
14.186222
20
12.014485
70
0
0
VERTEX
8
0
10
14.199982
20
11.500360
70
0
0
VERTEX
8
0
10
14.199982
20
11.500360
70
0
0
SEQEND
8
0
0
POLYLINE
8
0
62
7
70
0
10
0.000000
20
0.000000
66
1
0
VERTEX
8
0
10
9.880977
20
10.097765
70
0
0
VERTEX
8
0
10
9.923588
20
9.471859
70
0
0
VERTEX
8
0
10
9.939101
20
8.833788
70
0
0
VERTEX
8
0
10
9.928798
20
8.269214
70
0
0
VERTEX
8
0
10
9.887642
20
7.904893
70
0
0
VERTEX
8
0
10
9.744827
20
7.407748
70
0
0
VERTEX
8
0
10
9.525211
20
7.037154
70
0
0
VERTEX
8
0
10
9.299424
20
6.899821
70
0
0
VERTEX
8
0
10
9.113635
20
6.978284
70
0
0
VERTEX
8
0
10
8.921308
20
7.374401
70
0
0
VERTEX
8
0
10
8.289917
20
9.117954
70
0
0
VERTEX
8
0
10
7.648067
20
10.918030
70
0
0
VERTEX
8
0
10
7.599990
20
11.197611
70
0
0
VERTEX
8
0
10
7.681724
20
11.312812
70
0
0
VERTEX
8
0
10
8.028901
20
11.410519
70
0
0
VERTEX
8
0
10
8.557563
20
11.496702
70
0
0
VERTEX
8
0
10
9.322402
20
11.568352
70
0
0
VERTEX
8
0
10
9.555545
20
11.519661
70
0
0
VERTEX
8
0
10
9.699370
20
11.356730
70
0
0
VERTEX
8
0
10
9.788762
20
10.990283
70
0
0
VERTEX
8
0
10
9.880977
20
10.097765
70
0
0
VERTEX
8
0
10
9.880977
20
10.097765
70
0
0
SEQEND
8
0
0
POLYLINE
8
0
62
7
70
0
10
0.000000
20
0.000000
66
1
0
VERTEX
8
0
10
5.152057
20
9.335567
70
0
0
VERTEX
8
0
10
5.083949
20
8.367658
70
0
0
VERTEX
8
0
10
4.985997
20
7.605355
70
0
0
VERTEX
8
0
10
4.857212
20
7.013256
70
0
0
VERTEX
8
0
10
4.691095
20
6.585571
70
0
0
VERTEX
8
0
10
4.550229
20
6.336245
70
0
0
VERTEX
8
0
10
4.422172
20
6.160395
70
0
0
VERTEX
8
0
10
4.326878
20
6.080228
70
0
0
VERTEX
8
0
10
4.296001
20
6.077643
70
0
0
VERTEX
8
0
10
4.274937
20
6.100366
70
0
0
VERTEX
8
0
10
4.096142
20
6.785999
70
0
0
VERTEX
8
0
10
3.673348
20
8.737332
70
0
0
VERTEX
8
0
10
3.233469
20
10.806856
70
0
0
VERTEX
8
0
10
3.199996
20
11.127238
70
0
0
VERTEX
8
0
10
3.262476
20
11.251973
70
0
0
VERTEX
8
0
10
3.438322
20
11.337085
70
0
0
VERTEX
8
0
10
3.746076
20
11.386358
70
0
0
VERTEX
8
0
10
4.228717
20
11.400360
70
0
0
VERTEX
8
0
10
5.257439
20
11.400360
70
0
0
VERTEX
8
0
10
5.152057
20
9.335567
70
0
0
VERTEX
8
0
10
5.152057
20
9.335567
70
0
0
SEQEND
8
0
0
POLYLINE
8
0
62
7
70
0
10
0.000000
20
0.000000
66
1
0
VERTEX
8
0
10
2.639997
20
80.560273
70
0
0
VERTEX
8
0
10
2.429153
20
80.310416
70
0
0
VERTEX
8
0
10
2.413232
20
80.150294
70
0
0
VERTEX
8
0
10
2.532937
20
80.093636
70
0
0
VERTEX
8
0
10
2.799996
20
80.200273
70
0
0
VERTEX
8
0
10
2.953080
20
80.296421
70
0
0
VERTEX
8
0
10
3.082496
20
80.408145
70
0
0
VERTEX
8
0
10
3.172754
20
80.518445
70
0
0
VERTEX
8
0
10
3.199996
20
80.607309
70
0
0
VERTEX
8
0
10
3.149111
20
80.742772
70
0
0
VERTEX
8
0
10
3.028433
20
80.791557
70
0
0
VERTEX
8
0
10
2.845942
20
80.728315
70
0
0
VERTEX
8
0
10
2.639997
20
80.560273
70
0
0
VERTEX
8
0
10
2.639997
20
80.560273
70
0
0
SEQEND
8
0
0
POLYLINE
8
0
62
7
70
0
10
0.000000
20
0.000000
66
1
0
VERTEX
8
0
10
52.499934
20
79.689398
70
0
0
VERTEX
8
0
10
51.540648
20
79.589945
70
0
0
VERTEX
8
0
10
50.476186
20
79.499262
70
0
0
VERTEX
8
0
10
49.468127
20
79.429225
70
0
0
VERTEX
8
0
10
48.699939
20
79.395390
70
0
0
VERTEX
8
0
10
48.043378
20
79.366720
70
0
0
VERTEX
8
0
10
47.393690
20
79.315737
70
0
0
VERTEX
8
0
10
46.831941
20
79.251977
70
0
0
VERTEX
8
0
10
46.499941
20
79.183829
70
0
0
VERTEX
8
0
10
46.451456
20
79.109283
70
0
0
VERTEX
8
0
10
46.518971
20
79.051407
70
0
0
VERTEX
8
0
10
49.230332
20
79.106284
70
0
0
VERTEX
8
0
10
52.157318
20
79.226971
70
0
0
VERTEX
8
0
10
53.899932
20
79.404106
70
0
0
VERTEX
8
0
10
54.968255
20
79.528252
70
0
0
VERTEX
8
0
10
55.659026
20
79.501507
70
0
0
VERTEX
8
0
10
56.051175
20
79.334418
70
0
0
VERTEX
8
0
10
56.199929
20
79.035698
70
0
0
VERTEX
8
0
10
56.082123
20
78.689712
70
0
0
VERTEX
8
0
10
55.621610
20
78.157386
70
0
0
VERTEX
8
0
10
55.016937
20
77.604566
70
0
0
VERTEX
8
0
10
54.359937
20
77.138241
70
0
0
VERTEX
8
0
10
53.547497
20
76.738390
70
0
0
VERTEX
8
0
10
52.234501
20
76.285537
70
0
0
VERTEX
8
0
10
50.850461
20
75.896804
70
0
0
VERTEX
8
0
10
49.747294
20
75.693343
70
0
0
VERTEX
8
0
10
49.296653
20
75.624973
70
0
0
VERTEX
8
0
10
48.896351
20
75.534911
70
0
0
VERTEX
8
0
10
48.577466
20
75.437114
70
0
0
VERTEX
8
0
10
48.469071
20
75.350333
70
0
0
VERTEX
8
0
10
48.468139
20
75.254981
70
0
0
VERTEX
8
0
10
48.552142
20
75.209855
70
0
0
VERTEX
8
0
10
49.494357
20
75.286077
70
0
0
VERTEX
8
0
10
50.667442
20
75.460805
70
0
0
VERTEX
8
0
10
51.899935
20
75.731340
70
0
0
VERTEX
8
0
10
54.058258
20
76.541394
70
0
0
VERTEX
8
0
10
54.971190
20
77.091307
70
0
0
VERTEX
8
0
10
55.796992
20
77.765025
70
0
0
VERTEX
8
0
10
56.248610
20
78.311970
70
0
0
VERTEX
8
0
10
56.550659
20
78.953745
70
0
0
VERTEX
8
0
10
56.534389
20
79.434823
70
0
0
VERTEX
8
0
10
56.213077
20
79.793237
70
0
0
VERTEX
8
0
10
55.814268
20
79.925866
70
0
0
VERTEX
8
0
10
55.290551
20
79.958051
70
0
0
VERTEX
8
0
10
54.421892
20
79.900323
70
0
0
VERTEX
8
0
10
52.499934
20
79.689398
70
0
0
VERTEX
8
0
10
52.499934
20
79.689398
70
0
0
SEQEND
8
0
0
POLYLINE
8
0
62
7
70
0
10
0.000000
20
0.000000
66
1
0
VERTEX
8
0
10
0.499999
20
79.000275
70
0
0
VERTEX
8
0
10
0.468697
20
78.923855
70
0
0
VERTEX
8
0
10
0.474919
20
78.859025
70
0
0
VERTEX
8
0
10
0.517207
20
78.815932
70
0
0
VERTEX
8
0
10
0.588196
20
78.800275
70
0
0
VERTEX
8
0
10
0.669047
20
78.815499
70
0
0
VERTEX
8
0
10
0.737782
20
78.859025
70
0
0
VERTEX
8
0
10
0.783787
20
78.923964
70
0
0
VERTEX
8
0
10
0.799999
20
79.000275
70
0
0
VERTEX
8
0
10
0.793530
20
79.076844
70
0
0
VERTEX
8
0
10
0.774091
20
79.141524
70
0
0
VERTEX
8
0
10
0.745529
20
79.185382
70
0
0
VERTEX
8
0
10
0.711803
20
79.200274
70
0
0
VERTEX
8
0
10
0.669657
20
79.187167
70
0
0
VERTEX
8
0
10
0.613204
20
79.141524
70
0
0
VERTEX
8
0
10
0.553798
20
79.076829
70
0
0
VERTEX
8
0
10
0.499999
20
79.000275
70
0
0
VERTEX
8
0
10
0.499999
20
79.000275
70
0
0
SEQEND
8
0
0
POLYLINE
8
0
62
7
70
0
10
0.000000
20
0.000000
66
1
0
VERTEX
8
0
10
34.478551
20
75.937990
70
0
0
VERTEX
8
0
10
33.041408
20
74.921651
70
0
0
VERTEX
8
0
10
31.727577
20
73.909261
70
0
0
VERTEX
8
0
10
30.450059
20
72.831123
70
0
0
VERTEX
8
0
10
29.122031
20
71.616561
70
0
0
VERTEX
8
0
10
28.253485
20
70.799464
70
0
0
VERTEX
8
0
10
28.204567
20
70.783386
70
0
0
VERTEX
8
0
10
28.160665
20
70.810293
70
0
0
VERTEX
8
0
10
28.160281
20
70.931385
70
0
0
VERTEX
8
0
10
28.866612
20
72.000283
70
0
0
VERTEX
8
0
10
29.465187
20
72.900282
70
0
0
VERTEX
8
0
10
28.909582
20
72.400283
70
0
0
VERTEX
8
0
10
27.737548
20
71.149851
70
0
0
VERTEX
8
0
10
26.245410
20
69.143262
70
0
0
VERTEX
8
0
10
24.776631
20
66.909372
70
0
0
VERTEX
8
0
10
23.629106
20
64.857032
70
0
0
VERTEX
8
0
10
22.707742
20
62.726137
70
0
0
VERTEX
8
0
10
21.784216
20
59.935624
70
0
0
VERTEX
8
0
10
21.041185
20
57.153279
70
0
0
VERTEX
8
0
10
20.712712
20
55.088803
70
0
0
VERTEX
8
0
10
20.681076
20
54.656542
70
0
0
VERTEX
8
0
10
20.672889
20
54.366927
70
0
0
VERTEX
8
0
10
20.691242
20
54.297002
70
0
0
VERTEX
8
0
10
20.705386
20
54.289843
70
0
0
VERTEX
8
0
10
20.717296
20
54.300306
70
0
0
VERTEX
8
0
10
21.058095
20
55.523378
70
0
0
VERTEX
8
0
10
21.572784
20
57.220512
70
0
0
VERTEX
8
0
10
22.097966
20
58.889520
70
0
0
VERTEX
8
0
10
22.329777
20
59.500299
70
0
0
VERTEX
8
0
10
22.511405
20
59.903607
70
0
0
VERTEX
8
0
10
22.529022
20
59.915359
70
0
0
VERTEX
8
0
10
22.547432
20
59.904891
70
0
0
VERTEX
8
0
10
22.562930
20
59.827303
70
0
0
VERTEX
8
0
10
22.494106
20
59.200299
70
0
0
VERTEX
8
0
10
22.458477
20
58.778613
70
0
0
VERTEX
8
0
10
22.475597
20
58.754231
70
0
0
VERTEX
8
0
10
22.503273
20
58.765261
70
0
0
VERTEX
8
0
10
22.601958
20
58.989128
70
0
0
VERTEX
8
0
10
22.875812
20
59.862937
70
0
0
VERTEX
8
0
10
23.219102
20
60.933580
70
0
0
VERTEX
8
0
10
23.427823
20
61.428657
70
0
0
VERTEX
8
0
10
23.477688
20
61.465128
70
0
0
VERTEX
8
0
10
23.536833
20
61.447282
70
0
0
VERTEX
8
0
10
23.610102
20
61.283630
70
0
0
VERTEX
8
0
10
23.630195
20
61.258821
70
0
0
VERTEX
8
0
10
23.659364
20
61.271797
70
0
0
VERTEX
8
0
10
23.805218
20
61.573396
70
0
0
VERTEX
8
0
10
24.013452
20
62.101644
70
0
0
VERTEX
8
0
10
24.260101
20
62.808364
70
0
0
VERTEX
8
0
10
24.946723
20
64.501956
70
0
0
VERTEX
8
0
10
25.836293
20
66.098318
70
0
0
VERTEX
8
0
10
27.079688
20
67.890845
70
0
0
VERTEX
8
0
10
28.450349
20
69.588041
70
0
0
VERTEX
8
0
10
30.064778
20
71.321066
70
0
0
VERTEX
8
0
10
31.793780
20
72.939803
70
0
0
VERTEX
8
0
10
33.638794
20
74.446205
70
0
0
VERTEX
8
0
10
35.580794
20
75.825321
70
0
0
VERTEX
8
0
10
37.026483
20
76.789397
70
0
0
VERTEX
8
0
10
37.409380
20
77.105107
70
0
0
VERTEX
8
0
10
37.414072
20
77.155805
70
0
0
VERTEX
8
0
10
37.365133
20
77.169849
70
0
0
VERTEX
8
0
10
36.541986
20
76.788967
70
0
0
VERTEX
8
0
10
35.946651
20
76.499343
70
0
0
VERTEX
8
0
10
35.869736
20
76.481164
70
0
0
VERTEX
8
0
10
35.856581
20
76.490210
70
0
0
VERTEX
8
0
10
35.860721
20
76.505628
70
0
0
VERTEX
8
0
10
36.199954
20
76.784520
70
0
0
VERTEX
8
0
10
36.443392
20
77.055822
70
0
0
VERTEX
8
0
10
36.439130
20
77.111941
70
0
0
VERTEX
8
0
10
36.383902
20
77.122771
70
0
0
VERTEX
8
0
10
35.640928
20
76.704302
70
0
0
VERTEX
8
0
10
34.478551
20
75.937990
70
0
0
VERTEX
8
0
10
34.478551
20
75.937990
70
0
0
SEQEND
8
0
0
POLYLINE
8
0
62
7
70
0
10
0.000000
20
0.000000
66
1
0
VERTEX
8
0
10
8.744516
20
75.996449
70
0
0
VERTEX
8
0
10
7.814353
20
75.739233
70
0
0
VERTEX
8
0
10
6.907634
20
75.294822
70
0
0
VERTEX
8
0
10
6.019073
20
74.658113
70
0
0
VERTEX
8
0
10
5.143113
20
73.825688
70
0
0
VERTEX
8
0
10
4.529582
20
73.137496
70
0
0
VERTEX
8
0
10
4.264572
20
72.723758
70
0
0
VERTEX
8
0
10
4.282128
20
72.505436
70
0
0
VERTEX
8
0
10
4.480429
20
72.400283
70
0
0
VERTEX
8
0
10
4.603540
20
72.356384
70
0
0
VERTEX
8
0
10
4.743224
20
72.214575
70
0
0
VERTEX
8
0
10
4.876253
20
72.010052
70
0
0
VERTEX
8
0
10
4.981249
20
71.768087
70
0
0
VERTEX
8
0
10
5.331522
20
71.011997
70
0
0
VERTEX
8
0
10
5.822883
20
70.338997
70
0
0
VERTEX
8
0
10
6.430486
20
69.784864
70
0
0
VERTEX
8
0
10
7.138037
20
69.365797
70
0
0
VERTEX
8
0
10
7.889443
20
69.112602
70
0
0
VERTEX
8
0
10
8.677545
20
69.025337
70
0
0
VERTEX
8
0
10
9.438840
20
69.113889
70
0
0
VERTEX
8
0
10
10.157955
20
69.379005
70
0
0
VERTEX
8
0
10
10.789487
20
69.758793
70
0
0
VERTEX
8
0
10
11.246344
20
70.167897
70
0
0
VERTEX
8
0
10
11.625069
20
70.705042
70
0
0
VERTEX
8
0
10
12.018486
20
71.495529
70
0
0
VERTEX
8
0
10
12.239681
20
72.071882
70
0
0
VERTEX
8
0
10
12.349982
20
72.558600
70
0
0
VERTEX
8
0
10
12.377213
20
73.106948
70
0
0
VERTEX
8
0
10
12.331595
20
73.903688
70
0
0
VERTEX
8
0
10
12.293706
20
74.524726
70
0
0
VERTEX
8
0
10
12.298515
20
75.014411
70
0
0
VERTEX
8
0
10
12.338867
20
75.377207
70
0
0
VERTEX
8
0
10
12.425587
20
75.545881
70
0
0
VERTEX
8
0
10
12.502726
20
75.650457
70
0
0
VERTEX
8
0
10
12.504037
20
75.734648
70
0
0
VERTEX
8
0
10
12.432311
20
75.804612
70
0
0
VERTEX
8
0
10
12.270117
20
75.864028
70
0
0
VERTEX
8
0
10
11.553080
20
76.000828
70
0
0
VERTEX
8
0
10
10.552818
20
76.071944
70
0
0
VERTEX
8
0
10
9.533838
20
76.075836
70
0
0
VERTEX
8
0
10
8.744516
20
75.996449
70
0
0
VERTEX
8
0
10
8.744516
20
75.996449
70
0
0
SEQEND
8
0
0
POLYLINE
8
0
62
7
70
0
10
0.000000
20
0.000000
66
1
0
VERTEX
8
0
10
11.117745
20
75.100727
70
0
0
VERTEX
8
0
10
11.177854
20
74.668362
70
0
0
VERTEX
8
0
10
11.120464
20
74.314802
70
0
0
VERTEX
8
0
10
10.956732
20
74.086316
70
0
0
VERTEX
8
0
10
10.713300
20
74.000281
70
0
0
VERTEX
8
0
10
10.411471
20
74.112865
70
0
0
VERTEX
8
0
10
10.187063
20
74.420335
70
0
0
VERTEX
8
0
10
10.105025
20
74.824610
70
0
0
VERTEX
8
0
10
10.199987
20
75.200279
70
0
0
VERTEX
8
0
10
10.439835
20
75.498413
70
0
0
VERTEX
8
0
10
10.713165
20
75.582842
70
0
0
VERTEX
8
0
10
10.957922
20
75.441467
70
0
0
VERTEX
8
0
10
11.117745
20
75.100727
70
0
0
VERTEX
8
0
10
11.117745
20
75.100727
70
0
0
SEQEND
8
0
0
POLYLINE
8
0
62
7
70
0
10
0.000000
20
0.000000
66
1
0
VERTEX
8
0
10
11.212718
20
71.120886
70
0
0
VERTEX
8
0
10
10.478607
20
70.285138
70
0
0
VERTEX
8
0
10
9.494180
20
69.712574
70
0
0
VERTEX
8
0
10
8.439326
20
69.493399
70
0
0
VERTEX
8
0
10
7.499991
20
69.677804
70
0
0
VERTEX
8
0
10
7.126432
20
69.856776
70
0
0
VERTEX
8
0
10
7.108546
20
69.885765
70
0
0
VERTEX
8
0
10
7.126332
20
69.914815
70
0
0
VERTEX
8
0
10
7.259741
20
69.947231
70
0
0
VERTEX
8
0
10
8.034050
20
69.949276
70
0
0
VERTEX
8
0
10
8.936811
20
70.035806
70
0
0
VERTEX
8
0
10
9.706550
20
70.296038
70
0
0
VERTEX
8
0
10
10.373591
20
70.747550
70
0
0
VERTEX
8
0
10
10.970546
20
71.403239
70
0
0
VERTEX
8
0
10
11.373075
20
71.908454
70
0
0
VERTEX
8
0
10
11.450928
20
71.944251
70
0
0
VERTEX
8
0
10
11.528783
20
71.908459
70
0
0
VERTEX
8
0
10
11.550743
20
71.709285
70
0
0
VERTEX
8
0
10
11.212718
20
71.120886
70
0
0
VERTEX
8
0
10
11.212718
20
71.120886
70
0
0
SEQEND
8
0
0
POLYLINE
8
0
62
7
70
0
10
0.000000
20
0.000000
66
1
0
VERTEX
8
0
10
41.840607
20
73.914467
70
0
0
VERTEX
8
0
10
41.226070
20
73.471796
70
0
0
VERTEX
8
0
10
41.060436
20
73.302016
70
0
0
VERTEX
8
0
10
41.062313
20
73.268684
70
0
0
VERTEX
8
0
10
41.095125
20
73.262528
70
0
0
VERTEX
8
0
10
41.565324
20
73.519177
70
0
0
VERTEX
8
0
10
41.835392
20
73.683432
70
0
0
VERTEX
8
0
10
42.096673
20
73.861769
70
0
0
VERTEX
8
0
10
42.316441
20
74.029263
70
0
0
VERTEX
8
0
10
42.439812
20
74.150281
70
0
0
VERTEX
8
0
10
42.565771
20
74.328818
70
0
0
VERTEX
8
0
10
42.563201
20
74.358212
70
0
0
VERTEX
8
0
10
42.534572
20
74.365356
70
0
0
VERTEX
8
0
10
42.342889
20
74.263759
70
0
0
VERTEX
8
0
10
41.840607
20
73.914467
70
0
0
VERTEX
8
0
10
41.840607
20
73.914467
70
0
0
SEQEND
8
0
0
POLYLINE
8
0
62
7
70
0
10
0.000000
20
0.000000
66
1
0
VERTEX
8
0
10
40.099949
20
73.789337
70
0
0
VERTEX
8
0
10
39.809537
20
73.643269
70
0
0
VERTEX
8
0
10
39.610275
20
73.520434
70
0
0
VERTEX
8
0
10
39.536279
20
73.443382
70
0
0
VERTEX
8
0
10
39.535207
20
73.418552
70
0
0
VERTEX
8
0
10
39.556374
20
73.405527
70
0
0
VERTEX
8
0
10
39.892981
20
73.458762
70
0
0
VERTEX
8
0
10
40.502108
20
73.691107
70
0
0
VERTEX
8
0
10
41.116500
20
73.959954
70
0
0
VERTEX
8
0
10
41.199948
20
74.090075
70
0
0
VERTEX
8
0
10
41.136175
20
74.165510
70
0
0
VERTEX
8
0
10
40.973388
20
74.157385
70
0
0
VERTEX
8
0
10
40.664404
20
74.047563
70
0
0
VERTEX
8
0
10
40.099949
20
73.789337
70
0
0
VERTEX
8
0
10
40.099949
20
73.789337
70
0
0
SEQEND
8
0
0
POLYLINE
8
0
62
7
70
0
10
0.000000
20
0.000000
66
1
0
VERTEX
8
0
10
42.399947
20
73.472834
70
0
0
VERTEX
8
0
10
41.610185
20
72.848199
70
0
0
VERTEX
8
0
10
41.441089
20
72.678556
70
0
0
VERTEX
8
0
10
41.441476
20
72.650488
70
0
0
VERTEX
8
0
10
41.469038
20
72.645167
70
0
0
VERTEX
8
0
10
41.961904
20
72.919178
70
0
0
VERTEX
8
0
10
42.430180
20
73.233487
70
0
0
VERTEX
8
0
10
42.977737
20
73.689515
70
0
0
VERTEX
8
0
10
43.422918
20
74.112143
70
0
0
VERTEX
8
0
10
43.431540
20
74.164616
70
0
0
VERTEX
8
0
10
43.384808
20
74.189992
70
0
0
VERTEX
8
0
10
43.327707
20
74.167812
70
0
0
VERTEX
8
0
10
43.060499
20
73.975083
70
0
0
VERTEX
8
0
10
42.751002
20
73.744476
70
0
0
VERTEX
8
0
10
42.399947
20
73.472834
70
0
0
VERTEX
8
0
10
42.399947
20
73.472834
70
0
0
SEQEND
8
0
0
POLYLINE
8
0
62
7
70
0
10
0.000000
20
0.000000
66
1
0
VERTEX
8
0
10
45.799942
20
73.589797
70
0
0
VERTEX
8
0
10
46.348639
20
73.516843
70
0
0
VERTEX
8
0
10
47.522440
20
73.433828
70
0
0
VERTEX
8
0
10
48.917322
20
73.356782
70
0
0
VERTEX
8
0
10
50.399937
20
73.297474
70
0
0
VERTEX
8
0
10
51.850107
20
73.243953
70
0
0
VERTEX
8
0
10
53.145245
20
73.184244
70
0
0
VERTEX
8
0
10
54.235515
20
73.124630
70
0
0
VERTEX
8
0
10
54.549931
20
73.083874
70
0
0
VERTEX
8
0
10
54.900393
20
72.879322
70
0
0
VERTEX
8
0
10
54.979976
20
72.540699
70
0
0
VERTEX
8
0
10
54.729053
20
72.089740
70
0
0
VERTEX
8
0
10
54.166958
20
71.599390
70
0
0
VERTEX
8
0
10
53.151234
20
71.017510
70
0
0
VERTEX
8
0
10
51.869978
20
70.556593
70
0
0
VERTEX
8
0
10
50.380886
20
70.230276
70
0
0
VERTEX
8
0
10
48.736399
20
70.054894
70
0
0
VERTEX
8
0
10
47.953748
20
69.997599
70
0
0
VERTEX
8
0
10
47.388748
20
69.926015
70
0
0
VERTEX
8
0
10
47.047212
20
69.848887
70
0
0
VERTEX
8
0
10
47.017435
20
69.814699
70
0
0
VERTEX
8
0
10
47.036401
20
69.773520
70
0
0
VERTEX
8
0
10
47.897798
20
69.549715
70
0
0
VERTEX
8
0
10
49.828403
20
69.736899
70
0
0
VERTEX
8
0
10
51.839211
20
70.114319
70
0
0
VERTEX
8
0
10
53.339416
20
70.639845
70
0
0
VERTEX
8
0
10
54.502207
20
71.347313
70
0
0
VERTEX
8
0
10
55.239212
20
72.180102
70
0
0
VERTEX
8
0
10
55.360347
20
72.895782
70
0
0
VERTEX
8
0
10
55.217809
20
73.189715
70
0
0
VERTEX
8
0
10
54.949931
20
73.376675
70
0
0
VERTEX
8
0
10
54.618156
20
73.446651
70
0
0
VERTEX
8
0
10
53.222120
20
73.526069
70
0
0
VERTEX
8
0
10
51.571743
20
73.597876
70
0
0
VERTEX
8
0
10
49.699937
20
73.651451
70
0
0
VERTEX
8
0
10
47.793000
20
73.685062
70
0
0
VERTEX
8
0
10
46.471935
20
73.683004
70
0
0
VERTEX
8
0
10
45.803032
20
73.649725
70
0
0
VERTEX
8
0
10
45.775321
20
73.621110
70
0
0
VERTEX
8
0
10
45.799942
20
73.589797
70
0
0
VERTEX
8
0
10
45.799942
20
73.589797
70
0
0
SEQEND
8
0
0
POLYLINE
8
0
62
7
70
0
10
0.000000
20
0.000000
66
1
0
VERTEX
8
0
10
40.702377
20
72.357641
70
0
0
VERTEX
8
0
10
40.466300
20
72.240658
70
0
0
VERTEX
8
0
10
40.009629
20
72.056617
70
0
0
VERTEX
8
0
10
39.468452
20
71.853617
70
0
0
VERTEX
8
0
10
38.902379
20
71.656531
70
0
0
VERTEX
8
0
10
38.292469
20
71.446018
70
0
0
VERTEX
8
0
10
38.044467
20
71.333822
70
0
0
VERTEX
8
0
10
38.033647
20
71.308812
70
0
0
VERTEX
8
0
10
38.054977
20
71.291853
70
0
0
VERTEX
8
0
10
38.275637
20
71.306973
70
0
0
VERTEX
8
0
10
39.001783
20
71.485670
70
0
0
VERTEX
8
0
10
40.036941
20
71.870565
70
0
0
VERTEX
8
0
10
41.080851
20
72.307827
70
0
0
VERTEX
8
0
10
41.199948
20
72.489277
70
0
0
VERTEX
8
0
10
41.177757
20
72.560539
70
0
0
VERTEX
8
0
10
41.125813
20
72.579749
70
0
0
VERTEX
8
0
10
41.012070
20
72.533812
70
0
0
VERTEX
8
0
10
40.702377
20
72.357641
70
0
0
VERTEX
8
0
10
40.702377
20
72.357641
70
0
0
SEQEND
8
0
0
POLYLINE
8
0
62
7
70
0
10
0.000000
20
0.000000
66
1
0
VERTEX
8
0
10
2.399997
20
70.212089
70
0
0
VERTEX
8
0
10
2.414499
20
70.131076
70
0
0
VERTEX
8
0
10
2.458074
20
70.043282
70
0
0
VERTEX
8
0
10
2.522079
20
69.962400
70
0
0
VERTEX
8
0
10
2.597706
20
69.901702
70
0
0
VERTEX
8
0
10
2.665182
20
69.878908
70
0
0
VERTEX
8
0
10
2.705134
20
69.902781
70
0
0
VERTEX
8
0
10
2.711369
20
69.973942
70
0
0
VERTEX
8
0
10
2.676308
20
70.089898
70
0
0
VERTEX
8
0
10
2.578942
20
70.304280
70
0
0
VERTEX
8
0
10
2.488293
20
70.388807
70
0
0
VERTEX
8
0
10
2.449503
20
70.388749
70
0
0
VERTEX
8
0
10
2.423532
20
70.359936
70
0
0
VERTEX
8
0
10
2.399997
20
70.212089
70
0
0
VERTEX
8
0
10
2.399997
20
70.212089
70
0
0
SEQEND
8
0
0
POLYLINE
8
0
62
7
70
0
10
0.000000
20
0.000000
66
1
0
VERTEX
8
0
10
38.299952
20
69.401713
70
0
0
VERTEX
8
0
10
38.040830
20
69.257246
70
0
0
VERTEX
8
0
10
37.758702
20
69.150109
70
0
0
VERTEX
8
0
10
37.495526
20
69.092138
70
0
0
VERTEX
8
0
10
37.299953
20
69.101186
70
0
0
VERTEX
8
0
10
37.156176
20
69.132637
70
0
0
VERTEX
8
0
10
37.091257
20
69.134718
70
0
0
VERTEX
8
0
10
37.083368
20
69.127597
70
0
0
VERTEX
8
0
10
37.087181
20
69.117677
70
0
0
VERTEX
8
0
10
37.151199
20
69.081359
70
0
0
VERTEX
8
0
10
37.238664
20
69.023550
70
0
0
VERTEX
8
0
10
37.295433
20
68.946242
70
0
0
VERTEX
8
0
10
37.312871
20
68.861879
70
0
0
VERTEX
8
0
10
37.289396
20
68.783205
70
0
0
VERTEX
8
0
10
37.290301
20
68.697280
70
0
0
VERTEX
8
0
10
37.368334
20
68.661297
70
0
0
VERTEX
8
0
10
37.781000
20
68.782399
70
0
0
VERTEX
8
0
10
38.381970
20
69.120924
70
0
0
VERTEX
8
0
10
38.789007
20
69.487099
70
0
0
VERTEX
8
0
10
38.974752
20
69.731405
70
0
0
VERTEX
8
0
10
38.975409
20
69.764897
70
0
0
VERTEX
8
0
10
38.944753
20
69.778400
70
0
0
VERTEX
8
0
10
38.788364
20
69.717875
70
0
0
VERTEX
8
0
10
38.299952
20
69.401713
70
0
0
VERTEX
8
0
10
38.299952
20
69.401713
70
0
0
SEQEND
8
0
0
POLYLINE
8
0
62
7
70
0
10
0.000000
20
0.000000
66
1
0
VERTEX
8
0
10
39.707831
20
69.413038
70
0
0
VERTEX
8
0
10
39.405176
20
69.100566
70
0
0
VERTEX
8
0
10
38.159681
20
68.292660
70
0
0
VERTEX
8
0
10
36.916090
20
67.533641
70
0
0
VERTEX
8
0
10
36.099955
20
67.123961
70
0
0
VERTEX
8
0
10
35.653838
20
66.932951
70
0
0
VERTEX
8
0
10
35.572446
20
66.874833
70
0
0
VERTEX
8
0
10
35.570150
20
66.855854
70
0
0
VERTEX
8
0
10
35.587345
20
66.847500
70
0
0
VERTEX
8
0
10
35.899955
20
66.904859
70
0
0
VERTEX
8
0
10
36.202001
20
66.992845
70
0
0
VERTEX
8
0
10
36.638013
20
67.176374
70
0
0
VERTEX
8
0
10
37.116270
20
67.409017
70
0
0
VERTEX
8
0
10
37.569941
20
67.662069
70
0
0
VERTEX
8
0
10
38.395334
20
68.200991
70
0
0
VERTEX
8
0
10
39.265080
20
68.860776
70
0
0
VERTEX
8
0
10
40.000506
20
69.478477
70
0
0
VERTEX
8
0
10
40.019186
20
69.548215
70
0
0
VERTEX
8
0
10
39.961753
20
69.591961
70
0
0
VERTEX
8
0
10
39.900417
20
69.581607
70
0
0
VERTEX
8
0
10
39.830157
20
69.542837
70
0
0
VERTEX
8
0
10
39.762349
20
69.484045
70
0
0
VERTEX
8
0
10
39.707831
20
69.413038
70
0
0
VERTEX
8
0
10
39.707831
20
69.413038
70
0
0
SEQEND
8
0
0
POLYLINE
8
0
62
7
70
0
10
0.000000
20
0.000000
66
1
0
VERTEX
8
0
10
43.399945
20
69.214030
70
0
0
VERTEX
8
0
10
43.959879
20
68.993098
70
0
0
VERTEX
8
0
10
46.078561
20
68.520095
70
0
0
VERTEX
8
0
10
48.228007
20
68.081109
70
0
0
VERTEX
8
0
10
49.899937
20
67.804871
70
0
0
VERTEX
8
0
10
51.895628
20
67.509673
70
0
0
VERTEX
8
0
10
52.901199
20
67.294175
70
0
0
VERTEX
8
0
10
53.435236
20
67.075555
70
0
0
VERTEX
8
0
10
53.599932
20
66.794541
70
0
0
VERTEX
8
0
10
53.404089
20
66.383034
70
0
0
VERTEX
8
0
10
52.707091
20
65.912743
70
0
0
VERTEX
8
0
10
51.758686
20
65.486263
70
0
0
VERTEX
8
0
10
50.699936
20
65.192403
70
0
0
VERTEX
8
0
10
50.028375
20
65.093903
70
0
0
VERTEX
8
0
10
49.165904
20
65.039479
70
0
0
VERTEX
8
0
10
48.149779
20
65.027311
70
0
0
VERTEX
8
0
10
46.999941
20
65.059878
70
0
0
VERTEX
8
0
10
45.852522
20
65.103406
70
0
0
VERTEX
8
0
10
45.230948
20
65.099480
70
0
0
VERTEX
8
0
10
45.087651
20
65.046639
70
0
0
VERTEX
8
0
10
45.072819
20
65.008035
70
0
0
VERTEX
8
0
10
45.099943
20
64.976818
70
0
0
VERTEX
8
0
10
46.098546
20
64.772127
70
0
0
VERTEX
8
0
10
47.783901
20
64.666078
70
0
0
VERTEX
8
0
10
49.500817
20
64.654036
70
0
0
VERTEX
8
0
10
50.686867
20
64.777423
70
0
0
VERTEX
8
0
10
52.146339
20
65.173444
70
0
0
VERTEX
8
0
10
53.309030
20
65.760331
70
0
0
VERTEX
8
0
10
54.003173
20
66.424943
70
0
0
VERTEX
8
0
10
54.126686
20
66.730647
70
0
0
VERTEX
8
0
10
54.088434
20
67.058134
70
0
0
VERTEX
8
0
10
53.809662
20
67.369891
70
0
0
VERTEX
8
0
10
53.173974
20
67.625922
70
0
0
VERTEX
8
0
10
52.147776
20
67.864866
70
0
0
VERTEX
8
0
10
50.499936
20
68.120249
70
0
0
VERTEX
8
0
10
49.493975
20
68.272097
70
0
0
VERTEX
8
0
10
48.280552
20
68.478840
70
0
0
VERTEX
8
0
10
47.061026
20
68.703877
70
0
0
VERTEX
8
0
10
46.033942
20
68.912746
70
0
0
VERTEX
8
0
10
44.450355
20
69.241591
70
0
0
VERTEX
8
0
10
43.609204
20
69.373653
70
0
0
VERTEX
8
0
10
43.397992
20
69.325652
70
0
0
VERTEX
8
0
10
43.367476
20
69.269290
70
0
0
VERTEX
8
0
10
43.399945
20
69.214030
70
0
0
VERTEX
8
0
10
43.399945
20
69.214030
70
0
0
SEQEND
8
0
0
POLYLINE
8
0
62
7
70
0
10
0.000000
20
0.000000
66
1
0
VERTEX
8
0
10
36.942881
20
65.102094
70
0
0
VERTEX
8
0
10
36.398528
20
64.600499
70
0
0
VERTEX
8
0
10
35.342355
20
63.944374
70
0
0
VERTEX
8
0
10
34.162817
20
63.328197
70
0
0
VERTEX
8
0
10
33.121333
20
62.913966
70
0
0
VERTEX
8
0
10
32.984330
20
62.858489
70
0
0
VERTEX
8
0
10
32.887906
20
62.793059
70
0
0
VERTEX
8
0
10
32.845886
20
62.729244
70
0
0
VERTEX
8
0
10
32.858377
20
62.675211
70
0
0
VERTEX
8
0
10
33.126190
20
62.609536
70
0
0
VERTEX
8
0
10
34.054023
20
62.927401
70
0
0
VERTEX
8
0
10
35.029297
20
63.337184
70
0
0
VERTEX
8
0
10
35.840404
20
63.782955
70
0
0
VERTEX
8
0
10
36.460381
20
64.250274
70
0
0
VERTEX
8
0
10
37.082140
20
64.868854
70
0
0
VERTEX
8
0
10
37.580150
20
65.471829
70
0
0
VERTEX
8
0
10
37.564384
20
65.702527
70
0
0
VERTEX
8
0
10
37.509837
20
65.704693
70
0
0
VERTEX
8
0
10
37.349145
20
65.558822
70
0
0
VERTEX
8
0
10
37.156515
20
65.357005
70
0
0
VERTEX
8
0
10
36.942881
20
65.102094
70
0
0
VERTEX
8
0
10
36.942881
20
65.102094
70
0
0
SEQEND
8
0
0
POLYLINE
8
0
62
7
70
0
10
0.000000
20
0.000000
66
1
0
VERTEX
8
0
10
35.338803
20
64.893972
70
0
0
VERTEX
8
0
10
34.905428
20
64.552963
70
0
0
VERTEX
8
0
10
34.584019
20
64.410477
70
0
0
VERTEX
8
0
10
34.519665
20
64.429759
70
0
0
VERTEX
8
0
10
34.502910
20
64.494817
70
0
0
VERTEX
8
0
10
34.625467
20
64.732424
70
0
0
VERTEX
8
0
10
34.794870
20
64.941098
70
0
0
VERTEX
8
0
10
34.797793
20
64.957145
70
0
0
VERTEX
8
0
10
34.786028
20
64.968442
70
0
0
VERTEX
8
0
10
34.737554
20
64.961730
70
0
0
VERTEX
8
0
10
34.446324
20
64.782423
70
0
0
VERTEX
8
0
10
34.159964
20
64.596767
70
0
0
VERTEX
8
0
10
34.108972
20
64.515210
70
0
0
VERTEX
8
0
10
34.145816
20
64.442330
70
0
0
VERTEX
8
0
10
34.381695
20
64.326258
70
0
0
VERTEX
8
0
10
34.597560
20
64.271590
70
0
0
VERTEX
8
0
10
34.822269
20
64.292034
70
0
0
VERTEX
8
0
10
35.076477
20
64.394487
70
0
0
VERTEX
8
0
10
35.385327
20
64.589876
70
0
0
VERTEX
8
0
10
35.620704
20
64.771100
70
0
0
VERTEX
8
0
10
35.819408
20
64.953718
70
0
0
VERTEX
8
0
10
35.965367
20
65.116640
70
0
0
VERTEX
8
0
10
35.999955
20
65.213911
70
0
0
VERTEX
8
0
10
35.973878
20
65.336595
70
0
0
VERTEX
8
0
10
35.946649
20
65.362026
70
0
0
VERTEX
8
0
10
35.909438
20
65.360163
70
0
0
VERTEX
8
0
10
35.769842
20
65.268670
70
0
0
VERTEX
8
0
10
35.338803
20
64.893972
70
0
0
VERTEX
8
0
10
35.338803
20
64.893972
70
0
0
SEQEND
8
0
0
POLYLINE
8
0
62
7
70
0
10
0.000000
20
0.000000
66
1
0
VERTEX
8
0
10
57.349928
20
64.467837
70
0
0
VERTEX
8
0
10
57.463929
20
64.436570
70
0
0
VERTEX
8
0
10
57.599927
20
64.426225
70
0
0
VERTEX
8
0
10
57.735926
20
64.436570
70
0
0
VERTEX
8
0
10
57.849927
20
64.467837
70
0
0
VERTEX
8
0
10
57.891803
20
64.505293
70
0
0
VERTEX
8
0
10
57.893264
20
64.524913
70
0
0
VERTEX
8
0
10
57.879615
20
64.539081
70
0
0
VERTEX
8
0
10
57.778215
20
64.562475
70
0
0
VERTEX
8
0
10
57.599927
20
64.568714
70
0
0
VERTEX
8
0
10
57.421640
20
64.562475
70
0
0
VERTEX
8
0
10
57.320240
20
64.539081
70
0
0
VERTEX
8
0
10
57.306591
20
64.524913
70
0
0
VERTEX
8
0
10
57.308052
20
64.505293
70
0
0
VERTEX
8
0
10
57.349928
20
64.467837
70
0
0
VERTEX
8
0
10
57.349928
20
64.467837
70
0
0
SEQEND
8
0
0
POLYLINE
8
0
62
7
70
0
10
0.000000
20
0.000000
66
1
0
VERTEX
8
0
10
40.821711
20
63.120010
70
0
0
VERTEX
8
0
10
41.129087
20
62.954528
70
0
0
VERTEX
8
0
10
42.878941
20
62.666225
70
0
0
VERTEX
8
0
10
44.902715
20
62.378727
70
0
0
VERTEX
8
0
10
47.146522
20
62.121449
70
0
0
VERTEX
8
0
10
48.252085
20
61.999937
70
0
0
VERTEX
8
0
10
49.216672
20
61.877361
70
0
0
VERTEX
8
0
10
50.035804
20
61.761006
70
0
0
VERTEX
8
0
10
50.196518
20
61.702409
70
0
0
VERTEX
8
0
10
50.365767
20
61.488400
70
0
0
VERTEX
8
0
10
50.359840
20
61.213988
70
0
0
VERTEX
8
0
10
50.152292
20
60.887161
70
0
0
VERTEX
8
0
10
49.749937
20
60.531038
70
0
0
VERTEX
8
0
10
48.813642
20
59.970174
70
0
0
VERTEX
8
0
10
47.753133
20
59.598983
70
0
0
VERTEX
8
0
10
46.415589
20
59.377168
70
0
0
VERTEX
8
0
10
44.599944
20
59.273197
70
0
0
VERTEX
8
0
10
42.623200
20
59.220447
70
0
0
VERTEX
8
0
10
42.167836
20
59.184557
70
0
0
VERTEX
8
0
10
42.137150
20
59.154162
70
0
0
VERTEX
8
0
10
42.158336
20
59.116524
70
0
0
VERTEX
8
0
10
42.499946
20
59.000300
70
0
0
VERTEX
8
0
10
44.114817
20
58.796700
70
0
0
VERTEX
8
0
10
46.133667
20
58.925592
70
0
0
VERTEX
8
0
10
48.100003
20
59.313261
70
0
0
VERTEX
8
0
10
49.543553
20
59.915285
70
0
0
VERTEX
8
0
10
50.310500
20
60.477425
70
0
0
VERTEX
8
0
10
50.733139
20
61.072807
70
0
0
VERTEX
8
0
10
50.752008
20
61.596506
70
0
0
VERTEX
8
0
10
50.417954
20
61.990653
70
0
0
VERTEX
8
0
10
49.631874
20
62.240482
70
0
0
VERTEX
8
0
10
45.322579
20
62.762699
70
0
0
VERTEX
8
0
10
40.899099
20
63.274108
70
0
0
VERTEX
8
0
10
40.806643
20
63.224058
70
0
0
VERTEX
8
0
10
40.821711
20
63.120010
70
0
0
VERTEX
8
0
10
40.821711
20
63.120010
70
0
0
SEQEND
8
0
0
POLYLINE
8
0
62
7
70
0
10
0.000000
20
0.000000
66
1
0
VERTEX
8
0
10
33.870441
20
58.287202
70
0
0
VERTEX
8
0
10
33.345349
20
57.803956
70
0
0
VERTEX
8
0
10
32.722534
20
57.325444
70
0
0
VERTEX
8
0
10
32.048908
20
56.884422
70
0
0
VERTEX
8
0
10
31.370445
20
56.513646
70
0
0
VERTEX
8
0
10
30.837078
20
56.242273
70
0
0
VERTEX
8
0
10
30.478791
20
56.036967
70
0
0
VERTEX
8
0
10
30.376939
20
55.944004
70
0
0
VERTEX
8
0
10
30.376043
20
55.918282
70
0
0
VERTEX
8
0
10
30.399962
20
55.908778
70
0
0
VERTEX
8
0
10
31.338162
20
56.230012
70
0
0
VERTEX
8
0
10
32.429358
20
56.790779
70
0
0
VERTEX
8
0
10
33.452206
20
57.454527
70
0
0
VERTEX
8
0
10
34.174473
20
58.095819
70
0
0
VERTEX
8
0
10
34.490681
20
58.453756
70
0
0
VERTEX
8
0
10
34.757470
20
58.788359
70
0
0
VERTEX
8
0
10
34.962498
20
59.074602
70
0
0
VERTEX
8
0
10
34.999956
20
59.195831
70
0
0
VERTEX
8
0
10
34.962081
20
59.293771
70
0
0
VERTEX
8
0
10
34.887835
20
59.299549
70
0
0
VERTEX
8
0
10
34.699517
20
59.129429
70
0
0
VERTEX
8
0
10
33.870441
20
58.287202
70
0
0
VERTEX
8
0
10
33.870441
20
58.287202
70
0
0
SEQEND
8
0
0
POLYLINE
8
0
62
7
70
0
10
0.000000
20
0.000000
66
1
0
VERTEX
8
0
10
38.899951
20
57.922531
70
0
0
VERTEX
8
0
10
39.283531
20
57.776164
70
0
0
VERTEX
8
0
10
40.191239
20
57.505821
70
0
0
VERTEX
8
0
10
41.278471
20
57.201267
70
0
0
VERTEX
8
0
10
42.453273
20
56.892636
70
0
0
VERTEX
8
0
10
44.565218
20
56.331552
70
0
0
VERTEX
8
0
10
45.511468
20
55.986726
70
0
0
VERTEX
8
0
10
45.859402
20
55.680232
70
0
0
VERTEX
8
0
10
45.836345
20
55.344167
70
0
0
VERTEX
8
0
10
45.465756
20
55.030658
70
0
0
VERTEX
8
0
10
45.009826
20
54.864070
70
0
0
VERTEX
8
0
10
43.104465
20
54.636452
70
0
0
VERTEX
8
0
10
40.921547
20
54.631589
70
0
0
VERTEX
8
0
10
38.900026
20
54.903778
70
0
0
VERTEX
8
0
10
37.787083
20
55.125553
70
0
0
VERTEX
8
0
10
37.256927
20
55.174750
70
0
0
VERTEX
8
0
10
37.213414
20
55.141526
70
0
0
VERTEX
8
0
10
37.234044
20
55.090814
70
0
0
VERTEX
8
0
10
37.627958
20
54.904297
70
0
0
VERTEX
8
0
10
39.541463
20
54.420797
70
0
0
VERTEX
8
0
10
41.875971
20
54.235776
70
0
0
VERTEX
8
0
10
44.092086
20
54.340376
70
0
0
VERTEX
8
0
10
45.559593
20
54.779720
70
0
0
VERTEX
8
0
10
46.124872
20
55.149291
70
0
0
VERTEX
8
0
10
46.380490
20
55.538113
70
0
0
VERTEX
8
0
10
46.320362
20
55.903744
70
0
0
VERTEX
8
0
10
45.970529
20
56.216045
70
0
0
VERTEX
8
0
10
45.298732
20
56.485522
70
0
0
VERTEX
8
0
10
42.580878
20
57.231085
70
0
0
VERTEX
8
0
10
39.931131
20
57.931643
70
0
0
VERTEX
8
0
10
38.899951
20
58.126585
70
0
0
VERTEX
8
0
10
38.299952
20
58.199325
70
0
0
VERTEX
8
0
10
38.899951
20
57.922531
70
0
0
VERTEX
8
0
10
38.899951
20
57.922531
70
0
0
SEQEND
8
0
0
POLYLINE
8
0
62
7
70
0
10
0.000000
20
0.000000
66
1
0
VERTEX
8
0
10
0.637858
20
57.054718
70
0
0
VERTEX
8
0
10
0.162292
20
56.937870
70
0
0
VERTEX
8
0
10
0.059135
20
56.737099
70
0
0
VERTEX
8
0
10
0.255517
20
56.567469
70
0
0
VERTEX
8
0
10
0.769823
20
56.563097
70
0
0
VERTEX
8
0
10
1.124955
20
56.582080
70
0
0
VERTEX
8
0
10
1.292459
20
56.531038
70
0
0
VERTEX
8
0
10
1.376114
20
56.401794
70
0
0
VERTEX
8
0
10
1.399998
20
56.132853
70
0
0
VERTEX
8
0
10
1.443724
20
55.879179
70
0
0
VERTEX
8
0
10
1.569994
20
55.652141
70
0
0
VERTEX
8
0
10
1.795754
20
55.433131
70
0
0
VERTEX
8
0
10
2.144175
20
55.200740
70
0
0
VERTEX
8
0
10
2.888351
20
54.761665
70
0
0
VERTEX
8
0
10
2.413897
20
54.507745
70
0
0
VERTEX
8
0
10
2.200185
20
54.382005
70
0
0
VERTEX
8
0
10
2.113919
20
54.289469
70
0
0
VERTEX
8
0
10
2.123912
20
54.215607
70
0
0
VERTEX
8
0
10
2.219720
20
54.154090
70
0
0
VERTEX
8
0
10
2.518417
20
54.128293
70
0
0
VERTEX
8
0
10
2.850407
20
54.242902
70
0
0
VERTEX
8
0
10
3.110059
20
54.447954
70
0
0
VERTEX
8
0
10
3.199996
20
54.683604
70
0
0
VERTEX
8
0
10
3.157406
20
54.820523
70
0
0
VERTEX
8
0
10
2.994371
20
55.030582
70
0
0
VERTEX
8
0
10
2.767999
20
55.262590
70
0
0
VERTEX
8
0
10
2.499997
20
55.486745
70
0
0
VERTEX
8
0
10
2.165722
20
55.772882
70
0
0
VERTEX
8
0
10
1.954598
20
56.033007
70
0
0
VERTEX
8
0
10
1.839300
20
56.301811
70
0
0
VERTEX
8
0
10
1.799998
20
56.610481
70
0
0
VERTEX
8
0
10
1.783396
20
56.849563
70
0
0
VERTEX
8
0
10
1.731518
20
57.029972
70
0
0
VERTEX
8
0
10
1.651088
20
57.137908
70
0
0
VERTEX
8
0
10
1.549998
20
57.168295
70
0
0
VERTEX
8
0
10
1.412368
20
57.150871
70
0
0
VERTEX
8
0
10
1.178932
20
57.121728
70
0
0
VERTEX
8
0
10
0.909693
20
57.088294
70
0
0
VERTEX
8
0
10
0.637858
20
57.054718
70
0
0
VERTEX
8
0
10
0.637858
20
57.054718
70
0
0
SEQEND
8
0
0
POLYLINE
8
0
62
7
70
0
10
0.000000
20
0.000000
66
1
0
VERTEX
8
0
10
0.000000
20
55.600304
70
0
0
VERTEX
8
0
10
0.023113
20
55.524034
70
0
0
VERTEX
8
0
10
0.088125
20
55.459054
70
0
0
VERTEX
8
0
10
0.185308
20
55.415243
70
0
0
VERTEX
8
0
10
0.300000
20
55.400304
70
0
0
VERTEX
8
0
10
0.414691
20
55.415243
70
0
0
VERTEX
8
0
10
0.511874
20
55.459054
70
0
0
VERTEX
8
0
10
0.576886
20
55.524034
70
0
0
VERTEX
8
0
10
0.599999
20
55.600304
70
0
0
VERTEX
8
0
10
0.576886
20
55.676575
70
0
0
VERTEX
8
0
10
0.511874
20
55.741554
70
0
0
VERTEX
8
0
10
0.414691
20
55.785365
70
0
0
VERTEX
8
0
10
0.300000
20
55.800304
70
0
0
VERTEX
8
0
10
0.185308
20
55.785365
70
0
0
VERTEX
8
0
10
0.088125
20
55.741554
70
0
0
VERTEX
8
0
10
0.023113
20
55.676575
70
0
0
VERTEX
8
0
10
0.000000
20
55.600304
70
0
0
VERTEX
8
0
10
0.000000
20
55.600304
70
0
0
SEQEND
8
0
0
POLYLINE
8
0
62
7
70
0
10
0.000000
20
0.000000
66
1
0
VERTEX
8
0
10
35.099956
20
54.640662
70
0
0
VERTEX
8
0
10
35.268477
20
54.531895
70
0
0
VERTEX
8
0
10
36.151829
20
54.199601
70
0
0
VERTEX
8
0
10
37.197541
20
53.824781
70
0
0
VERTEX
8
0
10
38.399952
20
53.417880
70
0
0
VERTEX
8
0
10
40.755803
20
52.627836
70
0
0
VERTEX
8
0
10
41.598178
20
52.283835
70
0
0
VERTEX
8
0
10
41.877398
20
52.028869
70
0
0
VERTEX
8
0
10
41.844606
20
51.764968
70
0
0
VERTEX
8
0
10
41.461941
20
51.505828
70
0
0
VERTEX
8
0
10
41.010425
20
51.407240
70
0
0
VERTEX
8
0
10
38.927712
20
51.447538
70
0
0
VERTEX
8
0
10
36.581469
20
51.722569
70
0
0
VERTEX
8
0
10
34.430629
20
52.236601
70
0
0
VERTEX
8
0
10
33.936962
20
52.379540
70
0
0
VERTEX
8
0
10
33.504971
20
52.484056
70
0
0
VERTEX
8
0
10
33.145340
20
52.555018
70
0
0
VERTEX
8
0
10
33.061912
20
52.528928
70
0
0
VERTEX
8
0
10
33.031500
20
52.417878
70
0
0
VERTEX
8
0
10
33.111560
20
52.335128
70
0
0
VERTEX
8
0
10
34.826246
20
51.855094
70
0
0
VERTEX
8
0
10
36.605539
20
51.426488
70
0
0
VERTEX
8
0
10
38.082301
20
51.182065
70
0
0
VERTEX
8
0
10
40.026792
20
51.071032
70
0
0
VERTEX
8
0
10
41.505447
20
51.271040
70
0
0
VERTEX
8
0
10
42.200434
20
51.721173
70
0
0
VERTEX
8
0
10
42.303878
20
52.011773
70
0
0
VERTEX
8
0
10
42.198739
20
52.301764
70
0
0
VERTEX
8
0
10
41.987940
20
52.456442
70
0
0
VERTEX
8
0
10
41.077272
20
52.818690
70
0
0
VERTEX
8
0
10
39.980410
20
53.222587
70
0
0
VERTEX
8
0
10
38.726368
20
53.645344
70
0
0
VERTEX
8
0
10
36.183097
20
54.467628
70
0
0
VERTEX
8
0
10
35.385713
20
54.705334
70
0
0
VERTEX
8
0
10
35.130786
20
54.727178
70
0
0
VERTEX
8
0
10
35.087901
20
54.693709
70
0
0
VERTEX
8
0
10
35.099956
20
54.640662
70
0
0
VERTEX
8
0
10
35.099956
20
54.640662
70
0
0
SEQEND
8
0
0
POLYLINE
8
0
62
7
70
0
10
0.000000
20
0.000000
66
1
0
VERTEX
8
0
10
32.022163
20
53.127060
70
0
0
VERTEX
8
0
10
31.548193
20
52.756088
70
0
0
VERTEX
8
0
10
30.604706
20
52.355924
70
0
0
VERTEX
8
0
10
29.437283
20
51.989476
70
0
0
VERTEX
8
0
10
28.172153
20
51.712313
70
0
0
VERTEX
8
0
10
26.499967
20
51.416347
70
0
0
VERTEX
8
0
10
27.999965
20
51.495905
70
0
0
VERTEX
8
0
10
28.640210
20
51.549396
70
0
0
VERTEX
8
0
10
29.323713
20
51.644487
70
0
0
VERTEX
8
0
10
29.950628
20
51.763522
70
0
0
VERTEX
8
0
10
30.399962
20
51.889996
70
0
0
VERTEX
8
0
10
31.117818
20
52.203704
70
0
0
VERTEX
8
0
10
31.825740
20
52.639029
70
0
0
VERTEX
8
0
10
32.371541
20
53.071966
70
0
0
VERTEX
8
0
10
32.421290
20
53.178102
70
0
0
VERTEX
8
0
10
32.378459
20
53.287213
70
0
0
VERTEX
8
0
10
32.314107
20
53.312360
70
0
0
VERTEX
8
0
10
32.223679
20
53.290807
70
0
0
VERTEX
8
0
10
32.120965
20
53.226382
70
0
0
VERTEX
8
0
10
32.022163
20
53.127060
70
0
0
VERTEX
8
0
10
32.022163
20
53.127060
70
0
0
SEQEND
8
0
0
POLYLINE
8
0
62
7
70
0
10
0.000000
20
0.000000
66
1
0
VERTEX
8
0
10
2.203060
20
52.672566
70
0
0
VERTEX
8
0
10
2.153507
20
52.575515
70
0
0
VERTEX
8
0
10
1.981666
20
52.470596
70
0
0
VERTEX
8
0
10
1.739753
20
52.375052
70
0
0
VERTEX
8
0
10
1.453680
20
52.304815
70
0
0
VERTEX
8
0
10
0.811785
20
52.153097
70
0
0
VERTEX
8
0
10
0.362834
20
51.967454
70
0
0
VERTEX
8
0
10
0.093458
20
51.749797
70
0
0
VERTEX
8
0
10
-0.000000
20
51.500380
70
0
0
VERTEX
8
0
10
0.053756
20
51.384775
70
0
0
VERTEX
8
0
10
0.179044
20
51.347111
70
0
0
VERTEX
8
0
10
0.429149
20
51.408937
70
0
0
VERTEX
8
0
10
0.916580
20
51.607417
70
0
0
VERTEX
8
0
10
1.287419
20
51.757843
70
0
0
VERTEX
8
0
10
1.643702
20
51.884896
70
0
0
VERTEX
8
0
10
1.947725
20
51.978390
70
0
0
VERTEX
8
0
10
2.104775
20
52.000309
70
0
0
VERTEX
8
0
10
2.335700
20
52.046493
70
0
0
VERTEX
8
0
10
2.470914
20
52.176055
70
0
0
VERTEX
8
0
10
2.490509
20
52.372794
70
0
0
VERTEX
8
0
10
2.389863
20
52.609857
70
0
0
VERTEX
8
0
10
2.318170
20
52.708418
70
0
0
VERTEX
8
0
10
2.258868
20
52.749032
70
0
0
VERTEX
8
0
10
2.219927
20
52.734232
70
0
0
VERTEX
8
0
10
2.203060
20
52.672566
70
0
0
VERTEX
8
0
10
2.203060
20
52.672566
70
0
0
SEQEND
8
0
0
POLYLINE
8
0
62
7
70
0
10
0.000000
20
0.000000
66
1
0
VERTEX
8
0
10
19.334868
20
51.500309
70
0
0
VERTEX
8
0
10
19.124608
20
50.084855
70
0
0
VERTEX
8
0
10
19.047366
20
49.335872
70
0
0
VERTEX
8
0
10
19.048259
20
48.904815
70
0
0
VERTEX
8
0
10
19.160203
20
48.800313
70
0
0
VERTEX
8
0
10
19.247477
20
48.865190
70
0
0
VERTEX
8
0
10
19.346289
20
49.236238
70
0
0
VERTEX
8
0
10
19.436768
20
49.715438
70
0
0
VERTEX
8
0
10
19.504910
20
50.284315
70
0
0
VERTEX
8
0
10
19.580392
20
51.344584
70
0
0
VERTEX
8
0
10
19.551617
20
51.981967
70
0
0
VERTEX
8
0
10
19.508199
20
52.023655
70
0
0
VERTEX
8
0
10
19.457476
20
51.991248
70
0
0
VERTEX
8
0
10
19.334868
20
51.500309
70
0
0
VERTEX
8
0
10
19.334868
20
51.500309
70
0
0
SEQEND
8
0
0
POLYLINE
8
0
62
7
70
0
10
0.000000
20
0.000000
66
1
0
VERTEX
8
0
10
32.685834
20
51.309609
70
0
0
VERTEX
8
0
10
32.930702
20
51.141477
70
0
0
VERTEX
8
0
10
33.476569
20
50.825949
70
0
0
VERTEX
8
0
10
34.132101
20
50.463882
70
0
0
VERTEX
8
0
10
34.835831
20
50.092614
70
0
0
VERTEX
8
0
10
35.512019
20
49.731380
70
0
0
VERTEX
8
0
10
36.081743
20
49.400336
70
0
0
VERTEX
8
0
10
36.549134
20
49.108213
70
0
0
VERTEX
8
0
10
36.599954
20
49.015386
70
0
0
VERTEX
8
0
10
36.580033
20
48.934805
70
0
0
VERTEX
8
0
10
36.511976
20
48.825066
70
0
0
VERTEX
8
0
10
36.415078
20
48.708093
70
0
0
VERTEX
8
0
10
36.300454
20
48.600727
70
0
0
VERTEX
8
0
10
35.915352
20
48.450848
70
0
0
VERTEX
8
0
10
34.989929
20
48.440930
70
0
0
VERTEX
8
0
10
34.021569
20
48.515207
70
0
0
VERTEX
8
0
10
33.299958
20
48.685239
70
0
0
VERTEX
8
0
10
33.160689
20
48.727972
70
0
0
VERTEX
8
0
10
33.146735
20
48.722915
70
0
0
VERTEX
8
0
10
33.146547
20
48.708074
70
0
0
VERTEX
8
0
10
33.202410
20
48.654491
70
0
0
VERTEX
8
0
10
33.399958
20
48.536729
70
0
0
VERTEX
8
0
10
34.328688
20
48.178688
70
0
0
VERTEX
8
0
10
35.368971
20
48.099792
70
0
0
VERTEX
8
0
10
36.245872
20
48.292705
70
0
0
VERTEX
8
0
10
36.685719
20
48.735336
70
0
0
VERTEX
8
0
10
36.669047
20
49.106542
70
0
0
VERTEX
8
0
10
36.375473
20
49.471551
70
0
0
VERTEX
8
0
10
35.695996
20
49.917040
70
0
0
VERTEX
8
0
10
34.310583
20
50.625826
70
0
0
VERTEX
8
0
10
33.563787
20
50.985417
70
0
0
VERTEX
8
0
10
33.003930
20
51.234916
70
0
0
VERTEX
8
0
10
32.704292
20
51.344503
70
0
0
VERTEX
8
0
10
32.680558
20
51.334729
70
0
0
VERTEX
8
0
10
32.685834
20
51.309609
70
0
0
VERTEX
8
0
10
32.685834
20
51.309609
70
0
0
SEQEND
8
0
0
POLYLINE
8
0
62
7
70
0
10
0.000000
20
0.000000
66
1
0
VERTEX
8
0
10
27.209485
20
47.688845
70
0
0
VERTEX
8
0
10
27.510933
20
47.473731
70
0
0
VERTEX
8
0
10
28.285731
20
47.208490
70
0
0
VERTEX
8
0
10
29.087171
20
46.982550
70
0
0
VERTEX
8
0
10
29.309741
20
47.043426
70
0
0
VERTEX
8
0
10
29.319312
20
47.072965
70
0
0
VERTEX
8
0
10
29.300997
20
47.098040
70
0
0
VERTEX
8
0
10
29.027163
20
47.228268
70
0
0
VERTEX
8
0
10
28.662396
20
47.376882
70
0
0
VERTEX
8
0
10
28.209726
20
47.534626
70
0
0
VERTEX
8
0
10
27.734463
20
47.679454
70
0
0
VERTEX
8
0
10
27.398584
20
47.752404
70
0
0
VERTEX
8
0
10
27.231756
20
47.750099
70
0
0
VERTEX
8
0
10
27.203055
20
47.725858
70
0
0
VERTEX
8
0
10
27.209485
20
47.688845
70
0
0
VERTEX
8
0
10
27.209485
20
47.688845
70
0
0
SEQEND
8
0
0
POLYLINE
8
0
62
7
70
0
10
0.000000
20
0.000000
66
1
0
VERTEX
8
0
10
0.059933
20
44.400318
70
0
0
VERTEX
8
0
10
0.064927
20
44.006195
70
0
0
VERTEX
8
0
10
0.084408
20
43.785007
70
0
0
VERTEX
8
0
10
0.096228
20
43.771981
70
0
0
VERTEX
8
0
10
0.112815
20
43.777837
70
0
0
VERTEX
8
0
10
0.143251
20
43.850319
70
0
0
VERTEX
8
0
10
0.169203
20
44.100762
70
0
0
VERTEX
8
0
10
0.177619
20
44.400318
70
0
0
VERTEX
8
0
10
0.169203
20
44.699874
70
0
0
VERTEX
8
0
10
0.143251
20
44.950318
70
0
0
VERTEX
8
0
10
0.112815
20
45.022799
70
0
0
VERTEX
8
0
10
0.096228
20
45.028656
70
0
0
VERTEX
8
0
10
0.084408
20
45.015630
70
0
0
VERTEX
8
0
10
0.064927
20
44.794442
70
0
0
VERTEX
8
0
10
0.059933
20
44.400318
70
0
0
VERTEX
8
0
10
0.059933
20
44.400318
70
0
0
SEQEND
8
0
0
POLYLINE
8
0
62
7
70
0
10
0.000000
20
0.000000
66
1
0
VERTEX
8
0
10
33.272590
20
44.408886
70
0
0
VERTEX
8
0
10
34.161833
20
43.330336
70
0
0
VERTEX
8
0
10
34.206471
20
43.097973
70
0
0
VERTEX
8
0
10
34.056857
20
42.914667
70
0
0
VERTEX
8
0
10
33.359287
20
42.856356
70
0
0
VERTEX
8
0
10
31.359979
20
43.487140
70
0
0
VERTEX
8
0
10
30.512273
20
43.766402
70
0
0
VERTEX
8
0
10
29.781419
20
43.984856
70
0
0
VERTEX
8
0
10
29.156419
20
44.155781
70
0
0
VERTEX
8
0
10
29.063908
20
44.130929
70
0
0
VERTEX
8
0
10
29.049091
20
44.055779
70
0
0
VERTEX
8
0
10
29.143026
20
43.856899
70
0
0
VERTEX
8
0
10
29.287931
20
43.613518
70
0
0
VERTEX
8
0
10
29.479765
20
43.344577
70
0
0
VERTEX
8
0
10
29.678886
20
43.059825
70
0
0
VERTEX
8
0
10
29.847154
20
42.768245
70
0
0
VERTEX
8
0
10
29.967158
20
42.508036
70
0
0
VERTEX
8
0
10
29.999962
20
42.340315
70
0
0
VERTEX
8
0
10
29.965412
20
42.180611
70
0
0
VERTEX
8
0
10
29.872219
20
42.116306
70
0
0
VERTEX
8
0
10
29.680256
20
42.139597
70
0
0
VERTEX
8
0
10
29.225744
20
42.291225
70
0
0
VERTEX
8
0
10
28.824396
20
42.445918
70
0
0
VERTEX
8
0
10
28.216067
20
42.706686
70
0
0
VERTEX
8
0
10
27.535829
20
43.011899
70
0
0
VERTEX
8
0
10
26.875747
20
43.321975
70
0
0
VERTEX
8
0
10
26.257536
20
43.618566
70
0
0
VERTEX
8
0
10
25.704103
20
43.882738
70
0
0
VERTEX
8
0
10
25.237366
20
44.104475
70
0
0
VERTEX
8
0
10
25.099968
20
44.167107
70
0
0
VERTEX
8
0
10
25.081837
20
44.162147
70
0
0
VERTEX
8
0
10
25.082880
20
44.143378
70
0
0
VERTEX
8
0
10
25.333039
20
43.875166
70
0
0
VERTEX
8
0
10
25.699042
20
43.506606
70
0
0
VERTEX
8
0
10
26.174250
20
43.050334
70
0
0
VERTEX
8
0
10
26.944014
20
42.271339
70
0
0
VERTEX
8
0
10
27.276587
20
41.757921
70
0
0
VERTEX
8
0
10
27.246435
20
41.435756
70
0
0
VERTEX
8
0
10
26.949463
20
41.238752
70
0
0
VERTEX
8
0
10
26.733947
20
41.245270
70
0
0
VERTEX
8
0
10
26.041302
20
41.431766
70
0
0
VERTEX
8
0
10
25.218669
20
41.678324
70
0
0
VERTEX
8
0
10
24.303497
20
41.982280
70
0
0
VERTEX
8
0
10
21.974887
20
42.787377
70
0
0
VERTEX
8
0
10
22.587429
20
41.954449
70
0
0
VERTEX
8
0
10
22.929214
20
41.420741
70
0
0
VERTEX
8
0
10
23.154842
20
40.905865
70
0
0
VERTEX
8
0
10
23.225430
20
40.527680
70
0
0
VERTEX
8
0
10
23.192023
20
40.438005
70
0
0
VERTEX
8
0
10
23.104059
20
40.400323
70
0
0
VERTEX
8
0
10
23.032620
20
40.414730
70
0
0
VERTEX
8
0
10
22.436993
20
40.666051
70
0
0
VERTEX
8
0
10
21.756868
20
40.958181
70
0
0
VERTEX
8
0
10
20.967881
20
41.304928
70
0
0
VERTEX
8
0
10
20.174850
20
41.647683
70
0
0
VERTEX
8
0
10
19.481985
20
41.927766
70
0
0
VERTEX
8
0
10
18.887619
20
42.154070
70
0
0
VERTEX
8
0
10
18.774564
20
42.154928
70
0
0
VERTEX
8
0
10
18.744598
20
42.127355
70
0
0
VERTEX
8
0
10
18.743591
20
42.086646
70
0
0
VERTEX
8
0
10
18.868934
20
41.795960
70
0
0
VERTEX
8
0
10
19.057403
20
41.431803
70
0
0
VERTEX
8
0
10
19.310744
20
41.009590
70
0
0
VERTEX
8
0
10
19.574573
20
40.556722
70
0
0
VERTEX
8
0
10
19.797513
20
40.097983
70
0
0
VERTEX
8
0
10
19.956897
20
39.692322
70
0
0
VERTEX
8
0
10
19.999975
20
39.437910
70
0
0
VERTEX
8
0
10
19.980817
20
39.175142
70
0
0
VERTEX
8
0
10
19.908174
20
39.062250
70
0
0
VERTEX
8
0
10
19.766077
20
39.031491
70
0
0
VERTEX
8
0
10
19.463160
20
39.091694
70
0
0
VERTEX
8
0
10
19.182435
20
39.194969
70
0
0
VERTEX
8
0
10
18.741598
20
39.427054
70
0
0
VERTEX
8
0
10
18.246289
20
39.721227
70
0
0
VERTEX
8
0
10
17.760603
20
40.044148
70
0
0
VERTEX
8
0
10
16.924521
20
40.607032
70
0
0
VERTEX
8
0
10
16.550198
20
40.748502
70
0
0
VERTEX
8
0
10
16.486502
20
40.716013
70
0
0
VERTEX
8
0
10
16.496677
20
40.645238
70
0
0
VERTEX
8
0
10
17.005946
20
40.157670
70
0
0
VERTEX
8
0
10
17.233889
20
39.963625
70
0
0
VERTEX
8
0
10
17.425481
20
39.814174
70
0
0
VERTEX
8
0
10
17.576376
20
39.707752
70
0
0
VERTEX
8
0
10
17.591946
20
39.706931
70
0
0
VERTEX
8
0
10
17.599978
20
39.720295
70
0
0
VERTEX
8
0
10
17.609056
20
39.737280
70
0
0
VERTEX
8
0
10
17.628222
20
39.739169
70
0
0
VERTEX
8
0
10
17.893869
20
39.625863
70
0
0
VERTEX
8
0
10
18.216703
20
39.475694
70
0
0
VERTEX
8
0
10
18.600458
20
39.281037
70
0
0
VERTEX
8
0
10
19.005469
20
39.089158
70
0
0
VERTEX
8
0
10
19.395031
20
38.945333
70
0
0
VERTEX
8
0
10
19.725213
20
38.858906
70
0
0
VERTEX
8
0
10
19.900457
20
38.872836
70
0
0
VERTEX
8
0
10
20.129630
20
39.133433
70
0
0
VERTEX
8
0
10
20.195456
20
39.711628
70
0
0
VERTEX
8
0
10
20.111010
20
40.371214
70
0
0
VERTEX
8
0
10
19.876973
20
40.907359
70
0
0
VERTEX
8
0
10
19.718853
20
41.248229
70
0
0
VERTEX
8
0
10
19.735417
20
41.331903
70
0
0
VERTEX
8
0
10
19.813739
20
41.365689
70
0
0
VERTEX
8
0
10
20.200700
20
41.270708
70
0
0
VERTEX
8
0
10
21.267919
20
40.800323
70
0
0
VERTEX
8
0
10
22.301759
20
40.378113
70
0
0
VERTEX
8
0
10
23.015650
20
40.215937
70
0
0
VERTEX
8
0
10
23.430682
20
40.295569
70
0
0
VERTEX
8
0
10
23.599970
20
40.573351
70
0
0
VERTEX
8
0
10
23.572360
20
40.751917
70
0
0
VERTEX
8
0
10
23.482470
20
40.986179
70
0
0
VERTEX
8
0
10
23.353062
20
41.232800
70
0
0
VERTEX
8
0
10
23.199971
20
41.454896
70
0
0
VERTEX
8
0
10
23.046748
20
41.657297
70
0
0
VERTEX
8
0
10
22.917471
20
41.844728
70
0
0
VERTEX
8
0
10
22.817609
20
42.004236
70
0
0
VERTEX
8
0
10
22.799971
20
42.067896
70
0
0
VERTEX
8
0
10
22.811717
20
42.091469
70
0
0
VERTEX
8
0
10
22.837609
20
42.096286
70
0
0
VERTEX
8
0
10
23.279778
20
41.966580
70
0
0
VERTEX
8
0
10
23.806922
20
41.797398
70
0
0
VERTEX
8
0
10
24.433355
20
41.576268
70
0
0
VERTEX
8
0
10
25.747280
20
41.162597
70
0
0
VERTEX
8
0
10
26.696662
20
41.036130
70
0
0
VERTEX
8
0
10
27.292900
20
41.178703
70
0
0
VERTEX
8
0
10
27.565318
20
41.561330
70
0
0
VERTEX
8
0
10
27.572655
20
41.759058
70
0
0
VERTEX
8
0
10
27.541020
20
41.971808
70
0
0
VERTEX
8
0
10
27.478012
20
42.167200
70
0
0
VERTEX
8
0
10
27.390829
20
42.311329
70
0
0
VERTEX
8
0
10
27.311325
20
42.501033
70
0
0
VERTEX
8
0
10
27.333349
20
42.562790
70
0
0
VERTEX
8
0
10
27.395138
20
42.584726
70
0
0
VERTEX
8
0
10
27.746748
20
42.497270
70
0
0
VERTEX
8
0
10
28.428123
20
42.204713
70
0
0
VERTEX
8
0
10
29.532001
20
41.807027
70
0
0
VERTEX
8
0
10
30.194893
20
41.874532
70
0
0
VERTEX
8
0
10
30.359358
20
42.050576
70
0
0
VERTEX
8
0
10
30.371339
20
42.291193
70
0
0
VERTEX
8
0
10
29.999962
20
43.000320
70
0
0
VERTEX
8
0
10
29.638162
20
43.497803
70
0
0
VERTEX
8
0
10
29.623266
20
43.579134
70
0
0
VERTEX
8
0
10
29.672917
20
43.645251
70
0
0
VERTEX
8
0
10
29.887383
20
43.662616
70
0
0
VERTEX
8
0
10
30.649961
20
43.367368
70
0
0
VERTEX
8
0
10
32.412724
20
42.720228
70
0
0
VERTEX
8
0
10
33.527729
20
42.523111
70
0
0
VERTEX
8
0
10
34.144218
20
42.723015
70
0
0
VERTEX
8
0
10
34.399957
20
43.245044
70
0
0
VERTEX
8
0
10
34.413042
20
43.557855
70
0
0
VERTEX
8
0
10
34.467817
20
43.700717
70
0
0
VERTEX
8
0
10
34.571884
20
43.747456
70
0
0
VERTEX
8
0
10
34.749956
20
43.706752
70
0
0
VERTEX
8
0
10
34.973168
20
43.628505
70
0
0
VERTEX
8
0
10
35.512305
20
43.462104
70
0
0
VERTEX
8
0
10
36.156526
20
43.268749
70
0
0
VERTEX
8
0
10
36.853699
20
43.065394
70
0
0
VERTEX
8
0
10
38.435321
20
42.658297
70
0
0
VERTEX
8
0
10
39.054297
20
42.727883
70
0
0
VERTEX
8
0
10
39.188546
20
42.884560
70
0
0
VERTEX
8
0
10
39.163550
20
43.089366
70
0
0
VERTEX
8
0
10
38.579233
20
43.893360
70
0
0
VERTEX
8
0
10
38.137318
20
44.420893
70
0
0
VERTEX
8
0
10
38.122869
20
44.489453
70
0
0
VERTEX
8
0
10
38.169334
20
44.541896
70
0
0
VERTEX
8
0
10
38.387834
20
44.560794
70
0
0
VERTEX
8
0
10
39.599950
20
44.300318
70
0
0
VERTEX
8
0
10
40.751829
20
44.079056
70
0
0
VERTEX
8
0
10
41.534143
20
44.017543
70
0
0
VERTEX
8
0
10
42.037740
20
44.093157
70
0
0
VERTEX
8
0
10
42.278549
20
44.316676
70
0
0
VERTEX
8
0
10
42.384396
20
44.651159
70
0
0
VERTEX
8
0
10
42.387825
20
44.867360
70
0
0
VERTEX
8
0
10
42.356878
20
44.902681
70
0
0
VERTEX
8
0
10
42.310502
20
44.895290
70
0
0
VERTEX
8
0
10
42.183927
20
44.750318
70
0
0
VERTEX
8
0
10
41.869880
20
44.499575
70
0
0
VERTEX
8
0
10
41.342441
20
44.429085
70
0
0
VERTEX
8
0
10
40.459172
20
44.532957
70
0
0
VERTEX
8
0
10
38.831718
20
44.879294
70
0
0
VERTEX
8
0
10
36.763487
20
45.349821
70
0
0
VERTEX
8
0
10
37.820000
20
44.280018
70
0
0
VERTEX
8
0
10
38.214333
20
43.859168
70
0
0
VERTEX
8
0
10
38.522486
20
43.480793
70
0
0
VERTEX
8
0
10
38.739247
20
43.167995
70
0
0
VERTEX
8
0
10
38.727826
20
43.061528
70
0
0
VERTEX
8
0
10
38.476133
20
42.920258
70
0
0
VERTEX
8
0
10
38.187696
20
42.930764
70
0
0
VERTEX
8
0
10
35.934137
20
43.697036
70
0
0
VERTEX
8
0
10
33.774649
20
44.537723
70
0
0
VERTEX
8
0
10
32.975335
20
45.129987
70
0
0
VERTEX
8
0
10
32.874500
20
45.233424
70
0
0
VERTEX
8
0
10
32.757289
20
45.320908
70
0
0
VERTEX
8
0
10
32.641784
20
45.381334
70
0
0
VERTEX
8
0
10
32.548102
20
45.400317
70
0
0
VERTEX
8
0
10
32.517731
20
45.382562
70
0
0
VERTEX
8
0
10
32.518303
20
45.347386
70
0
0
VERTEX
8
0
10
32.677232
20
45.109084
70
0
0
VERTEX
8
0
10
32.930990
20
44.789452
70
0
0
VERTEX
8
0
10
33.272590
20
44.408886
70
0
0
VERTEX
8
0
10
33.272590
20
44.408886
70
0
0
SEQEND
8
0
0
POLYLINE
8
0
62
7
70
0
10
0.000000
20
0.000000
66
1
0
VERTEX
8
0
10
0.006361
20
40.722371
70
0
0
VERTEX
8
0
10
0.022008
20
40.274870
70
0
0
VERTEX
8
0
10
0.078422
20
39.929758
70
0
0
VERTEX
8
0
10
0.174025
20
39.677181
70
0
0
VERTEX
8
0
10
0.311167
20
39.516890
70
0
0
VERTEX
8
0
10
0.520958
20
39.201465
70
0
0
VERTEX
8
0
10
0.628345
20
38.535504
70
0
0
VERTEX
8
0
10
0.662867
20
37.525050
70
0
0
VERTEX
8
0
10
0.612972
20
35.988646
70
0
0
VERTEX
8
0
10
0.603017
20
35.357758
70
0
0
VERTEX
8
0
10
0.641385
20
34.842445
70
0
0
VERTEX
8
0
10
0.729020
20
34.416135
70
0
0
VERTEX
8
0
10
0.869781
20
34.058766
70
0
0
VERTEX
8
0
10
1.031247
20
33.717905
70
0
0
VERTEX
8
0
10
1.079580
20
33.513591
70
0
0
VERTEX
8
0
10
1.042262
20
33.360729
70
0
0
VERTEX
8
0
10
0.917966
20
33.215244
70
0
0
VERTEX
8
0
10
0.777377
20
33.143437
70
0
0
VERTEX
8
0
10
0.674045
20
33.176764
70
0
0
VERTEX
8
0
10
0.593369
20
33.335211
70
0
0
VERTEX
8
0
10
0.513129
20
33.700684
70
0
0
VERTEX
8
0
10
0.337795
20
34.207801
70
0
0
VERTEX
8
0
10
0.248697
20
34.257908
70
0
0
VERTEX
8
0
10
0.166955
20
34.196528
70
0
0
VERTEX
8
0
10
0.033275
20
33.539933
70
0
0
VERTEX
8
0
10
0.000000
20
32.288530
70
0
0
VERTEX
8
0
10
0.008921
20
31.067941
70
0
0
VERTEX
8
0
10
0.062317
20
30.653307
70
0
0
VERTEX
8
0
10
0.201196
20
30.469959
70
0
0
VERTEX
8
0
10
0.465137
20
30.400336
70
0
0
VERTEX
8
0
10
0.856005
20
30.297993
70
0
0
VERTEX
8
0
10
1.312684
20
29.975803
70
0
0
VERTEX
8
0
10
1.685489
20
29.577285
70
0
0
VERTEX
8
0
10
1.799998
20
29.237447
70
0
0
VERTEX
8
0
10
1.875386
20
29.090497
70
0
0
VERTEX
8
0
10
2.023120
20
29.087553
70
0
0
VERTEX
8
0
10
2.342134
20
29.346103
70
0
0
VERTEX
8
0
10
3.060182
20
30.068357
70
0
0
VERTEX
8
0
10
3.729711
20
30.773344
70
0
0
VERTEX
8
0
10
3.936420
20
31.087157
70
0
0
VERTEX
8
0
10
3.968538
20
31.375198
70
0
0
VERTEX
8
0
10
3.839869
20
31.818355
70
0
0
VERTEX
8
0
10
3.688634
20
32.120828
70
0
0
VERTEX
8
0
10
3.479224
20
32.397695
70
0
0
VERTEX
8
0
10
3.227474
20
32.630051
70
0
0
VERTEX
8
0
10
2.950530
20
32.800333
70
0
0
VERTEX
8
0
10
2.669515
20
32.966468
70
0
0
VERTEX
8
0
10
2.339480
20
33.224277
70
0
0
VERTEX
8
0
10
2.015580
20
33.523875
70
0
0
VERTEX
8
0
10
1.749850
20
33.822270
70
0
0
VERTEX
8
0
10
1.387425
20
34.380023
70
0
0
VERTEX
8
0
10
1.221525
20
34.899250
70
0
0
VERTEX
8
0
10
1.172249
20
35.683875
70
0
0
VERTEX
8
0
10
1.210806
20
37.700327
70
0
0
VERTEX
8
0
10
1.192530
20
38.928514
70
0
0
VERTEX
8
0
10
1.056240
20
39.843047
70
0
0
VERTEX
8
0
10
0.778449
20
40.593585
70
0
0
VERTEX
8
0
10
0.327708
20
41.300322
70
0
0
VERTEX
8
0
10
0.138692
20
41.512353
70
0
0
VERTEX
8
0
10
0.095184
20
41.526793
70
0
0
VERTEX
8
0
10
0.057403
20
41.500830
70
0
0
VERTEX
8
0
10
0.015680
20
41.347320
70
0
0
VERTEX
8
0
10
0.006361
20
40.722371
70
0
0
VERTEX
8
0
10
0.006361
20
40.722371
70
0
0
SEQEND
8
0
0
POLYLINE
8
0
62
7
70
0
10
0.000000
20
0.000000
66
1
0
VERTEX
8
0
10
41.470820
20
39.107455
70
0
0
VERTEX
8
0
10
41.288744
20
38.946806
70
0
0
VERTEX
8
0
10
41.175511
20
38.768902
70
0
0
VERTEX
8
0
10
41.129027
20
38.566148
70
0
0
VERTEX
8
0
10
41.144968
20
38.331868
70
0
0
VERTEX
8
0
10
41.147714
20
38.061713
70
0
0
VERTEX
8
0
10
41.054448
20
37.816989
70
0
0
VERTEX
8
0
10
40.837725
20
37.553680
70
0
0
VERTEX
8
0
10
40.442342
20
37.210346
70
0
0
VERTEX
8
0
10
40.111308
20
36.916308
70
0
0
VERTEX
8
0
10
39.773930
20
36.560486
70
0
0
VERTEX
8
0
10
39.479036
20
36.199867
70
0
0
VERTEX
8
0
10
39.283147
20
35.895099
70
0
0
VERTEX
8
0
10
39.088340
20
35.564230
70
0
0
VERTEX
8
0
10
38.939934
20
35.406797
70
0
0
VERTEX
8
0
10
38.802109
20
35.372497
70
0
0
VERTEX
8
0
10
38.654889
20
35.437728
70
0
0
VERTEX
8
0
10
38.562747
20
35.549200
70
0
0
VERTEX
8
0
10
38.503122
20
35.701655
70
0
0
VERTEX
8
0
10
38.483517
20
35.870076
70
0
0
VERTEX
8
0
10
38.508913
20
36.028565
70
0
0
VERTEX
8
0
10
38.540301
20
36.170999
70
0
0
VERTEX
8
0
10
38.536373
20
36.291123
70
0
0
VERTEX
8
0
10
38.499457
20
36.370371
70
0
0
VERTEX
8
0
10
38.436702
20
36.400328
70
0
0
VERTEX
8
0
10
38.124616
20
36.265972
70
0
0
VERTEX
8
0
10
37.492172
20
35.555413
70
0
0
VERTEX
8
0
10
36.912190
20
34.802865
70
0
0
VERTEX
8
0
10
36.683348
20
34.305373
70
0
0
VERTEX
8
0
10
36.507701
20
33.836930
70
0
0
VERTEX
8
0
10
36.421686
20
33.770988
70
0
0
VERTEX
8
0
10
36.316314
20
33.796357
70
0
0
VERTEX
8
0
10
36.175243
20
34.078515
70
0
0
VERTEX
8
0
10
36.196362
20
34.700330
70
0
0
VERTEX
8
0
10
36.204550
20
34.918662
70
0
0
VERTEX
8
0
10
36.187214
20
34.953170
70
0
0
VERTEX
8
0
10
36.149664
20
34.962192
70
0
0
VERTEX
8
0
10
36.036823
20
34.905915
70
0
0
VERTEX
8
0
10
35.700361
20
34.600331
70
0
0
VERTEX
8
0
10
34.741694
20
33.407569
70
0
0
VERTEX
8
0
10
34.164533
20
31.989251
70
0
0
VERTEX
8
0
10
34.181380
20
30.968343
70
0
0
VERTEX
8
0
10
34.387353
20
30.695057
70
0
0
VERTEX
8
0
10
34.723922
20
30.633154
70
0
0
VERTEX
8
0
10
35.077941
20
30.857061
70
0
0
VERTEX
8
0
10
35.606007
20
31.648980
70
0
0
VERTEX
8
0
10
36.062877
20
32.503441
70
0
0
VERTEX
8
0
10
36.215219
20
33.100332
70
0
0
VERTEX
8
0
10
36.232403
20
33.310768
70
0
0
VERTEX
8
0
10
36.243127
20
33.326226
70
0
0
VERTEX
8
0
10
36.261921
20
33.325368
70
0
0
VERTEX
8
0
10
36.298907
20
33.277101
70
0
0
VERTEX
8
0
10
36.378089
20
33.000332
70
0
0
VERTEX
8
0
10
36.626129
20
32.560671
70
0
0
VERTEX
8
0
10
36.996891
20
32.425305
70
0
0
VERTEX
8
0
10
37.440990
20
32.633028
70
0
0
VERTEX
8
0
10
37.881544
20
33.171171
70
0
0
VERTEX
8
0
10
38.084855
20
33.517428
70
0
0
VERTEX
8
0
10
38.280230
20
33.899737
70
0
0
VERTEX
8
0
10
38.441337
20
34.261108
70
0
0
VERTEX
8
0
10
38.533212
20
34.533713
70
0
0
VERTEX
8
0
10
38.682435
20
35.100330
70
0
0
VERTEX
8
0
10
38.792734
20
34.502773
70
0
0
VERTEX
8
0
10
38.973417
20
34.022783
70
0
0
VERTEX
8
0
10
39.268099
20
33.855871
70
0
0
VERTEX
8
0
10
39.643729
20
34.007428
70
0
0
VERTEX
8
0
10
40.065064
20
34.506030
70
0
0
VERTEX
8
0
10
40.365149
20
34.930816
70
0
0
VERTEX
8
0
10
40.513166
20
35.058033
70
0
0
VERTEX
8
0
10
40.632496
20
35.041270
70
0
0
VERTEX
8
0
10
40.763853
20
34.871932
70
0
0
VERTEX
8
0
10
40.899062
20
34.660081
70
0
0
VERTEX
8
0
10
40.996762
20
34.611492
70
0
0
VERTEX
8
0
10
41.116461
20
34.655683
70
0
0
VERTEX
8
0
10
41.383550
20
34.885490
70
0
0
VERTEX
8
0
10
41.650437
20
35.168089
70
0
0
VERTEX
8
0
10
41.788158
20
35.422931
70
0
0
VERTEX
8
0
10
41.781958
20
35.480520
70
0
0
VERTEX
8
0
10
41.734953
20
35.514363
70
0
0
VERTEX
8
0
10
41.577780
20
35.486630
70
0
0
VERTEX
8
0
10
41.459181
20
35.484892
70
0
0
VERTEX
8
0
10
41.401525
20
35.588548
70
0
0
VERTEX
8
0
10
41.477497
20
36.449541
70
0
0
VERTEX
8
0
10
41.710215
20
37.637354
70
0
0
VERTEX
8
0
10
42.082547
20
38.950325
70
0
0
VERTEX
8
0
10
42.145042
20
39.259961
70
0
0
VERTEX
8
0
10
42.060565
20
39.379364
70
0
0
VERTEX
8
0
10
41.858066
20
39.352341
70
0
0
VERTEX
8
0
10
41.470820
20
39.107455
70
0
0
VERTEX
8
0
10
41.470820
20
39.107455
70
0
0
SEQEND
8
0
0
POLYLINE
8
0
62
7
70
0
10
0.000000
20
0.000000
66
1
0
VERTEX
8
0
10
40.121040
20
35.319957
70
0
0
VERTEX
8
0
10
39.869468
20
34.818957
70
0
0
VERTEX
8
0
10
39.632091
20
34.625941
70
0
0
VERTEX
8
0
10
39.461993
20
34.708566
70
0
0
VERTEX
8
0
10
39.399950
20
35.073358
70
0
0
VERTEX
8
0
10
39.508630
20
35.561818
70
0
0
VERTEX
8
0
10
39.845025
20
36.124672
70
0
0
VERTEX
8
0
10
40.178903
20
36.439507
70
0
0
VERTEX
8
0
10
40.289506
20
36.449544
70
0
0
VERTEX
8
0
10
40.359390
20
36.363231
70
0
0
VERTEX
8
0
10
40.364032
20
36.191659
70
0
0
VERTEX
8
0
10
40.315085
20
35.923265
70
0
0
VERTEX
8
0
10
40.231543
20
35.619211
70
0
0
VERTEX
8
0
10
40.121040
20
35.319957
70
0
0
VERTEX
8
0
10
40.121040
20
35.319957
70
0
0
SEQEND
8
0
0
POLYLINE
8
0
62
7
70
0
10
0.000000
20
0.000000
66
1
0
VERTEX
8
0
10
37.706953
20
33.613869
70
0
0
VERTEX
8
0
10
37.417205
20
33.131187
70
0
0
VERTEX
8
0
10
37.197445
20
33.027833
70
0
0
VERTEX
8
0
10
37.041057
20
33.172842
70
0
0
VERTEX
8
0
10
36.999953
20
33.675937
70
0
0
VERTEX
8
0
10
37.026043
20
34.002509
70
0
0
VERTEX
8
0
10
37.105568
20
34.263735
70
0
0
VERTEX
8
0
10
37.244997
20
34.475444
70
0
0
VERTEX
8
0
10
37.449953
20
34.653021
70
0
0
VERTEX
8
0
10
37.721899
20
34.825029
70
0
0
VERTEX
8
0
10
37.838878
20
34.849783
70
0
0
VERTEX
8
0
10
37.911656
20
34.790582
70
0
0
VERTEX
8
0
10
37.962088
20
34.590953
70
0
0
VERTEX
8
0
10
37.964407
20
34.409221
70
0
0
VERTEX
8
0
10
37.912774
20
34.153971
70
0
0
VERTEX
8
0
10
37.823806
20
33.875460
70
0
0
VERTEX
8
0
10
37.706953
20
33.613869
70
0
0
VERTEX
8
0
10
37.706953
20
33.613869
70
0
0
SEQEND
8
0
0
POLYLINE
8
0
62
7
70
0
10
0.000000
20
0.000000
66
1
0
VERTEX
8
0
10
35.514907
20
32.309697
70
0
0
VERTEX
8
0
10
35.366776
20
31.805225
70
0
0
VERTEX
8
0
10
35.135797
20
31.436600
70
0
0
VERTEX
8
0
10
34.896413
20
31.309997
70
0
0
VERTEX
8
0
10
34.697938
20
31.403600
70
0
0
VERTEX
8
0
10
34.614931
20
31.736822
70
0
0
VERTEX
8
0
10
34.694985
20
32.320177
70
0
0
VERTEX
8
0
10
34.844445
20
32.835950
70
0
0
VERTEX
8
0
10
34.914412
20
32.904096
70
0
0
VERTEX
8
0
10
35.011474
20
32.893214
70
0
0
VERTEX
8
0
10
35.094975
20
32.876133
70
0
0
VERTEX
8
0
10
35.186326
20
32.913277
70
0
0
VERTEX
8
0
10
35.272169
20
33.001381
70
0
0
VERTEX
8
0
10
35.338072
20
33.127544
70
0
0
VERTEX
8
0
10
35.459316
20
33.261909
70
0
0
VERTEX
8
0
10
35.520617
20
33.262661
70
0
0
VERTEX
8
0
10
35.558670
20
33.214595
70
0
0
VERTEX
8
0
10
35.584428
20
32.837028
70
0
0
VERTEX
8
0
10
35.514907
20
32.309697
70
0
0
VERTEX
8
0
10
35.514907
20
32.309697
70
0
0
SEQEND
8
0
0
POLYLINE
8
0
62
7
70
0
10
0.000000
20
0.000000
66
1
0
VERTEX
8
0
10
33.285769
20
32.750333
70
0
0
VERTEX
8
0
10
32.572260
20
31.699044
70
0
0
VERTEX
8
0
10
31.977864
20
30.368352
70
0
0
VERTEX
8
0
10
31.608182
20
29.091772
70
0
0
VERTEX
8
0
10
31.667639
20
28.312448
70
0
0
VERTEX
8
0
10
31.850271
20
28.129071
70
0
0
VERTEX
8
0
10
32.097113
20
28.151975
70
0
0
VERTEX
8
0
10
32.398429
20
28.438002
70
0
0
VERTEX
8
0
10
32.709450
20
28.959130
70
0
0
VERTEX
8
0
10
33.084639
20
29.700337
70
0
0
VERTEX
8
0
10
33.160059
20
29.103953
70
0
0
VERTEX
8
0
10
33.155678
20
28.421935
70
0
0
VERTEX
8
0
10
32.978075
20
27.701075
70
0
0
VERTEX
8
0
10
32.666874
20
27.057497
70
0
0
VERTEX
8
0
10
32.264613
20
26.608269
70
0
0
VERTEX
8
0
10
31.949219
20
26.305548
70
0
0
VERTEX
8
0
10
31.886993
20
26.068443
70
0
0
VERTEX
8
0
10
31.938667
20
25.993810
70
0
0
VERTEX
8
0
10
32.028523
20
25.980923
70
0
0
VERTEX
8
0
10
32.359552
20
26.125591
70
0
0
VERTEX
8
0
10
32.773761
20
26.471473
70
0
0
VERTEX
8
0
10
33.075677
20
26.918741
70
0
0
VERTEX
8
0
10
33.569027
20
28.312362
70
0
0
VERTEX
8
0
10
33.753721
20
29.873327
70
0
0
VERTEX
8
0
10
33.534234
20
31.202934
70
0
0
VERTEX
8
0
10
33.346357
20
31.782141
70
0
0
VERTEX
8
0
10
33.326299
20
32.036285
70
0
0
VERTEX
8
0
10
33.420488
20
32.234296
70
0
0
VERTEX
8
0
10
33.710697
20
32.507846
70
0
0
VERTEX
8
0
10
34.010948
20
32.809544
70
0
0
VERTEX
8
0
10
34.177067
20
33.106167
70
0
0
VERTEX
8
0
10
34.164907
20
33.308146
70
0
0
VERTEX
8
0
10
34.017736
20
33.400332
70
0
0
VERTEX
8
0
10
33.917714
20
33.366396
70
0
0
VERTEX
8
0
10
33.727554
20
33.209395
70
0
0
VERTEX
8
0
10
33.509619
20
32.999281
70
0
0
VERTEX
8
0
10
33.285769
20
32.750333
70
0
0
VERTEX
8
0
10
33.285769
20
32.750333
70
0
0
SEQEND
8
0
0
POLYLINE
8
0
62
7
70
0
10
0.000000
20
0.000000
66
1
0
VERTEX
8
0
10
32.750906
20
30.100336
70
0
0
VERTEX
8
0
10
32.640698
20
29.724044
70
0
0
VERTEX
8
0
10
32.516495
20
29.423462
70
0
0
VERTEX
8
0
10
32.396080
20
29.222397
70
0
0
VERTEX
8
0
10
32.305303
20
29.200337
70
0
0
VERTEX
8
0
10
32.175084
20
29.394970
70
0
0
VERTEX
8
0
10
32.186086
20
29.818984
70
0
0
VERTEX
8
0
10
32.311583
20
30.374361
70
0
0
VERTEX
8
0
10
32.549701
20
31.000335
70
0
0
VERTEX
8
0
10
32.789515
20
31.410237
70
0
0
VERTEX
8
0
10
32.866725
20
31.439250
70
0
0
VERTEX
8
0
10
32.925318
20
31.381199
70
0
0
VERTEX
8
0
10
32.933738
20
30.942810
70
0
0
VERTEX
8
0
10
32.750906
20
30.100336
70
0
0
VERTEX
8
0
10
32.750906
20
30.100336
70
0
0
SEQEND
8
0
0
POLYLINE
8
0
62
7
70
0
10
0.000000
20
0.000000
66
1
0
VERTEX
8
0
10
29.032925
20
28.614100
70
0
0
VERTEX
8
0
10
28.222388
20
27.095229
70
0
0
VERTEX
8
0
10
27.900243
20
25.482416
70
0
0
VERTEX
8
0
10
27.987057
20
25.127187
70
0
0
VERTEX
8
0
10
28.249558
20
24.872594
70
0
0
VERTEX
8
0
10
28.586182
20
24.818824
70
0
0
VERTEX
8
0
10
28.884683
20
24.983458
70
0
0
VERTEX
8
0
10
29.251330
20
25.571625
70
0
0
VERTEX
8
0
10
29.622710
20
26.641138
70
0
0
VERTEX
8
0
10
29.898378
20
27.727267
70
0
0
VERTEX
8
0
10
29.865506
20
28.280601
70
0
0
VERTEX
8
0
10
29.814757
20
28.466900
70
0
0
VERTEX
8
0
10
29.780029
20
28.679852
70
0
0
VERTEX
8
0
10
29.764769
20
28.886202
70
0
0
VERTEX
8
0
10
29.774205
20
29.050338
70
0
0
VERTEX
8
0
10
29.768175
20
29.310092
70
0
0
VERTEX
8
0
10
29.729093
20
29.359544
70
0
0
VERTEX
8
0
10
29.666153
20
29.356145
70
0
0
VERTEX
8
0
10
29.448794
20
29.165901
70
0
0
VERTEX
8
0
10
29.032925
20
28.614100
70
0
0
VERTEX
8
0
10
29.032925
20
28.614100
70
0
0
SEQEND
8
0
0
POLYLINE
8
0
62
7
70
0
10
0.000000
20
0.000000
66
1
0
VERTEX
8
0
10
29.158424
20
26.307230
70
0
0
VERTEX
8
0
10
28.915310
20
25.717552
70
0
0
VERTEX
8
0
10
28.659570
20
25.460682
70
0
0
VERTEX
8
0
10
28.550914
20
25.456382
70
0
0
VERTEX
8
0
10
28.476058
20
25.535255
70
0
0
VERTEX
8
0
10
28.414021
20
25.933675
70
0
0
VERTEX
8
0
10
28.463834
20
26.381255
70
0
0
VERTEX
8
0
10
28.592829
20
26.870803
70
0
0
VERTEX
8
0
10
28.717918
20
27.120039
70
0
0
VERTEX
8
0
10
28.764978
20
27.137735
70
0
0
VERTEX
8
0
10
28.798584
20
27.100340
70
0
0
VERTEX
8
0
10
28.809670
20
27.081525
70
0
0
VERTEX
8
0
10
28.830886
20
27.076350
70
0
0
VERTEX
8
0
10
28.882680
20
27.105965
70
0
0
VERTEX
8
0
10
28.960003
20
27.221236
70
0
0
VERTEX
8
0
10
29.047328
20
27.400340
70
0
0
VERTEX
8
0
10
29.190372
20
27.713311
70
0
0
VERTEX
8
0
10
29.246830
20
27.762407
70
0
0
VERTEX
8
0
10
29.275434
20
27.759241
70
0
0
VERTEX
8
0
10
29.292611
20
27.736151
70
0
0
VERTEX
8
0
10
29.343111
20
27.491923
70
0
0
VERTEX
8
0
10
29.354273
20
27.282600
70
0
0
VERTEX
8
0
10
29.319291
20
26.975448
70
0
0
VERTEX
8
0
10
29.251930
20
26.634401
70
0
0
VERTEX
8
0
10
29.158424
20
26.307230
70
0
0
VERTEX
8
0
10
29.158424
20
26.307230
70
0
0
SEQEND
8
0
0
POLYLINE
8
0
62
7
70
0
10
0.000000
20
0.000000
66
1
0
VERTEX
8
0
10
0.350000
20
28.984318
70
0
0
VERTEX
8
0
10
0.216128
20
28.884471
70
0
0
VERTEX
8
0
10
0.102812
20
28.753785
70
0
0
VERTEX
8
0
10
0.025553
20
28.613528
70
0
0
VERTEX
8
0
10
-0.000000
20
28.485790
70
0
0
VERTEX
8
0
10
0.023422
20
28.347965
70
0
0
VERTEX
8
0
10
0.090429
20
28.303663
70
0
0
VERTEX
8
0
10
0.219000
20
28.343499
70
0
0
VERTEX
8
0
10
0.499999
20
28.518730
70
0
0
VERTEX
8
0
10
0.941621
20
28.862564
70
0
0
VERTEX
8
0
10
1.007379
20
29.111714
70
0
0
VERTEX
8
0
10
0.934458
20
29.196341
70
0
0
VERTEX
8
0
10
0.822952
20
29.203090
70
0
0
VERTEX
8
0
10
0.350000
20
28.984318
70
0
0
VERTEX
8
0
10
0.350000
20
28.984318
70
0
0
SEQEND
8
0
0
POLYLINE
8
0
62
7
70
0
10
0.000000
20
0.000000
66
1
0
VERTEX
8
0
10
26.896666
20
26.393024
70
0
0
VERTEX
8
0
10
26.722644
20
26.038780
70
0
0
VERTEX
8
0
10
26.582758
20
25.844368
70
0
0
VERTEX
8
0
10
26.469860
20
25.791827
70
0
0
VERTEX
8
0
10
26.374621
20
25.841353
70
0
0
VERTEX
8
0
10
26.143070
20
25.924200
70
0
0
VERTEX
8
0
10
25.929429
20
25.714448
70
0
0
VERTEX
8
0
10
25.763819
20
25.015770
70
0
0
VERTEX
8
0
10
25.669503
20
23.899964
70
0
0
VERTEX
8
0
10
25.635090
20
23.028918
70
0
0
VERTEX
8
0
10
25.651872
20
22.546498
70
0
0
VERTEX
8
0
10
25.714070
20
22.297111
70
0
0
VERTEX
8
0
10
25.830572
20
22.243881
70
0
0
VERTEX
8
0
10
25.941405
20
22.344564
70
0
0
VERTEX
8
0
10
26.079809
20
22.693415
70
0
0
VERTEX
8
0
10
26.214528
20
23.141476
70
0
0
VERTEX
8
0
10
26.326768
20
23.656786
70
0
0
VERTEX
8
0
10
26.566391
20
24.782403
70
0
0
VERTEX
8
0
10
26.800295
20
25.368666
70
0
0
VERTEX
8
0
10
26.876656
20
25.401422
70
0
0
VERTEX
8
0
10
26.929509
20
25.337308
70
0
0
VERTEX
8
0
10
26.907158
20
24.665187
70
0
0
VERTEX
8
0
10
26.869728
20
24.203402
70
0
0
VERTEX
8
0
10
26.877997
20
23.855136
70
0
0
VERTEX
8
0
10
26.926611
20
23.610184
70
0
0
VERTEX
8
0
10
27.021382
20
23.487109
70
0
0
VERTEX
8
0
10
27.278519
20
23.513773
70
0
0
VERTEX
8
0
10
27.483568
20
23.842204
70
0
0
VERTEX
8
0
10
27.624378
20
24.535121
70
0
0
VERTEX
8
0
10
27.694290
20
25.619602
70
0
0
VERTEX
8
0
10
27.701890
20
26.801656
70
0
0
VERTEX
8
0
10
27.538795
20
27.176193
70
0
0
VERTEX
8
0
10
27.407343
20
27.219864
70
0
0
VERTEX
8
0
10
27.291308
20
27.144216
70
0
0
VERTEX
8
0
10
26.896666
20
26.393024
70
0
0
VERTEX
8
0
10
26.896666
20
26.393024
70
0
0
SEQEND
8
0
0
POLYLINE
8
0
62
7
70
0
10
0.000000
20
0.000000
66
1
0
VERTEX
8
0
10
23.149153
20
23.450345
70
0
0
VERTEX
8
0
10
22.480750
20
22.465960
70
0
0
VERTEX
8
0
10
21.977984
20
21.191940
70
0
0
VERTEX
8
0
10
21.736857
20
20.018939
70
0
0
VERTEX
8
0
10
21.785428
20
19.729501
70
0
0
VERTEX
8
0
10
21.981924
20
19.511504
70
0
0
VERTEX
8
0
10
22.271965
20
19.444445
70
0
0
VERTEX
8
0
10
22.543111
20
19.567328
70
0
0
VERTEX
8
0
10
23.157603
20
20.360919
70
0
0
VERTEX
8
0
10
23.623091
20
21.547905
70
0
0
VERTEX
8
0
10
23.746410
20
22.750272
70
0
0
VERTEX
8
0
10
23.699357
20
23.502260
70
0
0
VERTEX
8
0
10
23.606084
20
23.726905
70
0
0
VERTEX
8
0
10
23.451745
20
23.740584
70
0
0
VERTEX
8
0
10
23.149153
20
23.450345
70
0
0
VERTEX
8
0
10
23.149153
20
23.450345
70
0
0
SEQEND
8
0
0
POLYLINE
8
0
62
7
70
0
10
0.000000
20
0.000000
66
1
0
VERTEX
8
0
10
22.996019
20
20.888373
70
0
0
VERTEX
8
0
10
22.775238
20
20.390921
70
0
0
VERTEX
8
0
10
22.539708
20
20.280605
70
0
0
VERTEX
8
0
10
22.364827
20
20.466011
70
0
0
VERTEX
8
0
10
22.355025
20
21.003756
70
0
0
VERTEX
8
0
10
22.475239
20
21.499440
70
0
0
VERTEX
8
0
10
22.738080
20
21.911457
70
0
0
VERTEX
8
0
10
22.992342
20
22.023236
70
0
0
VERTEX
8
0
10
23.164947
20
21.885306
70
0
0
VERTEX
8
0
10
23.175251
20
21.728870
70
0
0
VERTEX
8
0
10
23.142127
20
21.473576
70
0
0
VERTEX
8
0
10
23.080775
20
21.180851
70
0
0
VERTEX
8
0
10
22.996019
20
20.888373
70
0
0
VERTEX
8
0
10
22.996019
20
20.888373
70
0
0
SEQEND
8
0
0
POLYLINE
8
0
62
7
70
0
10
0.000000
20
0.000000
66
1
0
VERTEX
8
0
10
20.975051
20
22.450346
70
0
0
VERTEX
8
0
10
20.783696
20
21.674512
70
0
0
VERTEX
8
0
10
20.662548
20
20.249588
70
0
0
VERTEX
8
0
10
20.593060
20
18.761667
70
0
0
VERTEX
8
0
10
20.636739
20
18.647944
70
0
0
VERTEX
8
0
10
20.748880
20
18.600351
70
0
0
VERTEX
8
0
10
20.946826
20
18.671517
70
0
0
VERTEX
8
0
10
21.255013
20
18.956034
70
0
0
VERTEX
8
0
10
21.530084
20
19.273325
70
0
0
VERTEX
8
0
10
21.599973
20
19.477901
70
0
0
VERTEX
8
0
10
21.580155
20
19.520852
70
0
0
VERTEX
8
0
10
21.531888
20
19.538974
70
0
0
VERTEX
8
0
10
21.457121
20
19.525252
70
0
0
VERTEX
8
0
10
21.368195
20
19.480710
70
0
0
VERTEX
8
0
10
21.261998
20
19.478859
70
0
0
VERTEX
8
0
10
21.209598
20
19.571246
70
0
0
VERTEX
8
0
10
21.261718
20
20.597868
70
0
0
VERTEX
8
0
10
21.382471
20
21.668008
70
0
0
VERTEX
8
0
10
21.578083
20
22.058456
70
0
0
VERTEX
8
0
10
21.675771
20
22.274516
70
0
0
VERTEX
8
0
10
21.650366
20
22.608476
70
0
0
VERTEX
8
0
10
21.537980
20
22.903162
70
0
0
VERTEX
8
0
10
21.371697
20
23.000345
70
0
0
VERTEX
8
0
10
21.287797
20
22.965468
70
0
0
VERTEX
8
0
10
21.180262
20
22.838783
70
0
0
VERTEX
8
0
10
21.070676
20
22.660953
70
0
0
VERTEX
8
0
10
20.975051
20
22.450346
70
0
0
VERTEX
8
0
10
20.975051
20
22.450346
70
0
0
SEQEND
8
0
0
POLYLINE
8
0
62
7
70
0
10
0.000000
20
0.000000
66
1
0
VERTEX
8
0
10
16.999979
20
20.944796
70
0
0
VERTEX
8
0
10
16.922990
20
20.707175
70
0
0
VERTEX
8
0
10
16.665832
20
20.412598
70
0
0
VERTEX
8
0
10
16.321729
20
20.137818
70
0
0
VERTEX
8
0
10
15.957947
20
19.950268
70
0
0
VERTEX
8
0
10
15.809483
20
19.831914
70
0
0
VERTEX
8
0
10
15.660443
20
19.564654
70
0
0
VERTEX
8
0
10
15.522499
20
19.194751
70
0
0
VERTEX
8
0
10
15.408084
20
18.739384
70
0
0
VERTEX
8
0
10
15.299679
20
18.295857
70
0
0
VERTEX
8
0
10
15.160614
20
17.861555
70
0
0
VERTEX
8
0
10
15.012908
20
17.492205
70
0
0
VERTEX
8
0
10
14.882352
20
17.276654
70
0
0
VERTEX
8
0
10
14.726954
20
17.129920
70
0
0
VERTEX
8
0
10
14.680545
20
17.124427
70
0
0
VERTEX
8
0
10
14.650719
20
17.160404
70
0
0
VERTEX
8
0
10
14.638368
20
17.393475
70
0
0
VERTEX
8
0
10
14.710709
20
18.150351
70
0
0
VERTEX
8
0
10
14.754300
20
18.693641
70
0
0
VERTEX
8
0
10
14.753198
20
19.080555
70
0
0
VERTEX
8
0
10
14.715898
20
19.333344
70
0
0
VERTEX
8
0
10
14.631422
20
19.400350
70
0
0
VERTEX
8
0
10
14.412145
20
19.307407
70
0
0
VERTEX
8
0
10
14.261223
20
19.055724
70
0
0
VERTEX
8
0
10
14.159764
20
18.575954
70
0
0
VERTEX
8
0
10
14.085670
20
17.704381
70
0
0
VERTEX
8
0
10
14.063659
20
16.733879
70
0
0
VERTEX
8
0
10
14.214460
20
16.321348
70
0
0
VERTEX
8
0
10
14.487767
20
16.286281
70
0
0
VERTEX
8
0
10
14.908805
20
16.690927
70
0
0
VERTEX
8
0
10
15.118721
20
16.934704
70
0
0
VERTEX
8
0
10
15.267982
20
17.049129
70
0
0
VERTEX
8
0
10
15.371117
20
17.052514
70
0
0
VERTEX
8
0
10
15.443178
20
16.973188
70
0
0
VERTEX
8
0
10
15.504317
20
16.845298
70
0
0
VERTEX
8
0
10
15.577043
20
16.803120
70
0
0
VERTEX
8
0
10
15.676668
20
16.830772
70
0
0
VERTEX
8
0
10
15.842466
20
16.954102
70
0
0
VERTEX
8
0
10
15.979285
20
17.122601
70
0
0
VERTEX
8
0
10
16.057599
20
17.348784
70
0
0
VERTEX
8
0
10
16.081509
20
17.656531
70
0
0
VERTEX
8
0
10
16.051614
20
18.080725
70
0
0
VERTEX
8
0
10
16.020028
20
18.555517
70
0
0
VERTEX
8
0
10
16.058665
20
18.873856
70
0
0
VERTEX
8
0
10
16.179037
20
19.133881
70
0
0
VERTEX
8
0
10
16.407854
20
19.408224
70
0
0
VERTEX
8
0
10
16.862479
20
19.862849
70
0
0
VERTEX
8
0
10
16.718819
20
19.181600
70
0
0
VERTEX
8
0
10
16.553384
20
18.239655
70
0
0
VERTEX
8
0
10
16.450480
20
17.280027
70
0
0
VERTEX
8
0
10
16.415819
20
16.436178
70
0
0
VERTEX
8
0
10
16.477645
20
15.918138
70
0
0
VERTEX
8
0
10
16.648307
20
15.466141
70
0
0
VERTEX
8
0
10
16.729813
20
15.409041
70
0
0
VERTEX
8
0
10
16.823089
20
15.443726
70
0
0
VERTEX
8
0
10
16.965646
20
15.769439
70
0
0
VERTEX
8
0
10
16.999979
20
16.500353
70
0
0
VERTEX
8
0
10
17.013367
20
17.044857
70
0
0
VERTEX
8
0
10
17.063382
20
17.363826
70
0
0
VERTEX
8
0
10
17.155034
20
17.536505
70
0
0
VERTEX
8
0
10
17.294842
20
17.600352
70
0
0
VERTEX
8
0
10
17.607671
20
17.753962
70
0
0
VERTEX
8
0
10
17.919850
20
18.265079
70
0
0
VERTEX
8
0
10
18.161093
20
18.947688
70
0
0
VERTEX
8
0
10
18.263774
20
19.665365
70
0
0
VERTEX
8
0
10
18.264532
20
20.112694
70
0
0
VERTEX
8
0
10
18.207906
20
20.377135
70
0
0
VERTEX
8
0
10
18.078770
20
20.554282
70
0
0
VERTEX
8
0
10
17.849978
20
20.696042
70
0
0
VERTEX
8
0
10
17.677671
20
20.783470
70
0
0
VERTEX
8
0
10
17.532165
20
20.881515
70
0
0
VERTEX
8
0
10
17.428393
20
20.976155
70
0
0
VERTEX
8
0
10
17.399978
20
21.047773
70
0
0
VERTEX
8
0
10
17.384569
20
21.105958
70
0
0
VERTEX
8
0
10
17.341228
20
21.155529
70
0
0
VERTEX
8
0
10
17.276395
20
21.188867
70
0
0
VERTEX
8
0
10
17.199978
20
21.200347
70
0
0
VERTEX
8
0
10
17.123705
20
21.180666
70
0
0
VERTEX
8
0
10
17.058729
20
21.125279
70
0
0
VERTEX
8
0
10
17.015048
20
21.042427
70
0
0
VERTEX
8
0
10
16.999979
20
20.944796
70
0
0
VERTEX
8
0
10
16.999979
20
20.944796
70
0
0
SEQEND
8
0
0
POLYLINE
8
0
62
7
70
0
10
0.000000
20
0.000000
66
1
0
VERTEX
8
0
10
17.799978
20
19.375398
70
0
0
VERTEX
8
0
10
17.750819
20
18.884553
70
0
0
VERTEX
8
0
10
17.605328
20
18.432543
70
0
0
VERTEX
8
0
10
17.402118
20
18.105040
70
0
0
VERTEX
8
0
10
17.180687
20
18.000351
70
0
0
VERTEX
8
0
10
17.098008
20
18.035248
70
0
0
VERTEX
8
0
10
17.065337
20
18.118832
70
0
0
VERTEX
8
0
10
17.105050
20
18.882926
70
0
0
VERTEX
8
0
10
17.193701
20
19.641125
70
0
0
VERTEX
8
0
10
17.339281
20
20.053611
70
0
0
VERTEX
8
0
10
17.483787
20
20.134392
70
0
0
VERTEX
8
0
10
17.637542
20
20.050138
70
0
0
VERTEX
8
0
10
17.759799
20
19.762409
70
0
0
VERTEX
8
0
10
17.799978
20
19.375398
70
0
0
VERTEX
8
0
10
17.799978
20
19.375398
70
0
0
SEQEND
8
0
0
POLYLINE
8
0
62
7
70
0
10
0.000000
20
0.000000
66
1
0
VERTEX
8
0
10
0.799999
20
18.786873
70
0
0
VERTEX
8
0
10
0.818953
20
18.583820
70
0
0
VERTEX
8
0
10
0.884190
20
18.484159
70
0
0
VERTEX
8
0
10
1.003861
20
18.456547
70
0
0
VERTEX
8
0
10
1.214210
20
18.504861
70
0
0
VERTEX
8
0
10
1.447745
20
18.547350
70
0
0
VERTEX
8
0
10
1.855071
20
18.557282
70
0
0
VERTEX
8
0
10
2.329857
20
18.541727
70
0
0
VERTEX
8
0
10
2.814208
20
18.498702
70
0
0
VERTEX
8
0
10
3.486680
20
18.407012
70
0
0
VERTEX
8
0
10
3.796239
20
18.310822
70
0
0
VERTEX
8
0
10
3.944920
20
18.163718
70
0
0
VERTEX
8
0
10
3.998880
20
17.930714
70
0
0
VERTEX
8
0
10
3.928154
20
17.278671
70
0
0
VERTEX
8
0
10
3.718219
20
16.565246
70
0
0
VERTEX
8
0
10
3.416792
20
15.912654
70
0
0
VERTEX
8
0
10
3.068621
20
15.450797
70
0
0
VERTEX
8
0
10
2.763240
20
15.189520
70
0
0
VERTEX
8
0
10
2.492616
20
15.058578
70
0
0
VERTEX
8
0
10
2.161272
20
15.017555
70
0
0
VERTEX
8
0
10
1.635077
20
15.052127
70
0
0
VERTEX
8
0
10
1.251415
20
15.101026
70
0
0
VERTEX
8
0
10
0.871866
20
15.165381
70
0
0
VERTEX
8
0
10
0.544287
20
15.234896
70
0
0
VERTEX
8
0
10
0.350000
20
15.297536
70
0
0
VERTEX
8
0
10
0.191039
20
15.347067
70
0
0
VERTEX
8
0
10
0.084285
20
15.336305
70
0
0
VERTEX
8
0
10
0.021630
20
15.269360
70
0
0
VERTEX
8
0
10
0.000000
20
15.145079
70
0
0
VERTEX
8
0
10
0.270636
20
14.777633
70
0
0
VERTEX
8
0
10
1.162172
20
14.611474
70
0
0
VERTEX
8
0
10
2.207211
20
14.654248
70
0
0
VERTEX
8
0
10
3.015906
20
14.941568
70
0
0
VERTEX
8
0
10
3.259583
20
15.119289
70
0
0
VERTEX
8
0
10
3.514437
20
15.373438
70
0
0
VERTEX
8
0
10
3.741737
20
15.658845
70
0
0
VERTEX
8
0
10
3.901899
20
15.932614
70
0
0
VERTEX
8
0
10
4.169170
20
16.654108
70
0
0
VERTEX
8
0
10
4.404347
20
17.661947
70
0
0
VERTEX
8
0
10
4.571494
20
18.653871
70
0
0
VERTEX
8
0
10
4.498711
20
19.002427
70
0
0
VERTEX
8
0
10
4.379194
20
19.080892
70
0
0
VERTEX
8
0
10
3.887038
20
19.142210
70
0
0
VERTEX
8
0
10
3.282283
20
19.186001
70
0
0
VERTEX
8
0
10
2.588193
20
19.200350
70
0
0
VERTEX
8
0
10
1.487988
20
19.190675
70
0
0
VERTEX
8
0
10
1.066237
20
19.138789
70
0
0
VERTEX
8
0
10
0.874608
20
19.013112
70
0
0
VERTEX
8
0
10
0.799999
20
18.786873
70
0
0
VERTEX
8
0
10
0.799999
20
18.786873
70
0
0
SEQEND
8
0
0
POLYLINE
8
0
62
7
70
0
10
0.000000
20
0.000000
66
1
0
VERTEX
8
0
10
0.000000
20
18.119192
70
0
0
VERTEX
8
0
10
0.015699
20
17.996556
70
0
0
VERTEX
8
0
10
0.062189
20
17.872248
70
0
0
VERTEX
8
0
10
0.130670
20
17.764900
70
0
0
VERTEX
8
0
10
0.211709
20
17.693115
70
0
0
VERTEX
8
0
10
0.284714
20
17.605143
70
0
0
VERTEX
8
0
10
0.326721
20
17.443595
70
0
0
VERTEX
8
0
10
0.335281
20
17.241749
70
0
0
VERTEX
8
0
10
0.305945
20
17.027421
70
0
0
VERTEX
8
0
10
0.277273
20
16.775217
70
0
0
VERTEX
8
0
10
0.302154
20
16.528844
70
0
0
VERTEX
8
0
10
0.379534
20
16.299235
70
0
0
VERTEX
8
0
10
0.505827
20
16.096462
70
0
0
VERTEX
8
0
10
0.710937
20
15.849740
70
0
0
VERTEX
8
0
10
0.739021
20
15.836647
70
0
0
VERTEX
8
0
10
0.767444
20
15.848984
70
0
0
VERTEX
8
0
10
0.792856
20
15.926157
70
0
0
VERTEX
8
0
10
0.744936
20
16.359159
70
0
0
VERTEX
8
0
10
0.726795
20
16.618747
70
0
0
VERTEX
8
0
10
0.737164
20
16.853790
70
0
0
VERTEX
8
0
10
0.770461
20
17.038796
70
0
0
VERTEX
8
0
10
0.828355
20
17.117877
70
0
0
VERTEX
8
0
10
0.933761
20
17.118801
70
0
0
VERTEX
8
0
10
1.210591
20
16.941351
70
0
0
VERTEX
8
0
10
1.541140
20
16.691767
70
0
0
VERTEX
8
0
10
1.902567
20
16.376632
70
0
0
VERTEX
8
0
10
2.613714
20
15.787135
70
0
0
VERTEX
8
0
10
3.004149
20
15.714026
70
0
0
VERTEX
8
0
10
3.171893
20
15.969156
70
0
0
VERTEX
8
0
10
3.006278
20
16.681320
70
0
0
VERTEX
8
0
10
2.740456
20
17.242128
70
0
0
VERTEX
8
0
10
2.365300
20
17.658396
70
0
0
VERTEX
8
0
10
1.892773
20
17.912506
70
0
0
VERTEX
8
0
10
1.342349
20
18.000351
70
0
0
VERTEX
8
0
10
1.096311
20
18.015482
70
0
0
VERTEX
8
0
10
0.827105
20
18.061169
70
0
0
VERTEX
8
0
10
0.575636
20
18.127915
70
0
0
VERTEX
8
0
10
0.386851
20
18.207388
70
0
0
VERTEX
8
0
10
0.189730
20
18.300720
70
0
0
VERTEX
8
0
10
0.080453
20
18.309968
70
0
0
VERTEX
8
0
10
0.019900
20
18.253512
70
0
0
VERTEX
8
0
10
0.000000
20
18.119192
70
0
0
VERTEX
8
0
10
0.000000
20
18.119192
70
0
0
SEQEND
8
0
0
POLYLINE
8
0
62
7
70
0
10
0.000000
20
0.000000
66
1
0
VERTEX
8
0
10
2.621335
20
16.745770
70
0
0
VERTEX
8
0
10
2.722836
20
16.526869
70
0
0
VERTEX
8
0
10
2.717814
20
16.500147
70
0
0
VERTEX
8
0
10
2.691351
20
16.493900
70
0
0
VERTEX
8
0
10
2.579256
20
16.561312
70
0
0
VERTEX
8
0
10
2.225919
20
16.887771
70
0
0
VERTEX
8
0
10
1.746941
20
17.345927
70
0
0
VERTEX
8
0
10
1.631384
20
17.511454
70
0
0
VERTEX
8
0
10
1.638144
20
17.549012
70
0
0
VERTEX
8
0
10
1.675583
20
17.556402
70
0
0
VERTEX
8
0
10
1.995414
20
17.402805
70
0
0
VERTEX
8
0
10
2.163613
20
17.289585
70
0
0
VERTEX
8
0
10
2.342387
20
17.122508
70
0
0
VERTEX
8
0
10
2.504215
20
16.931804
70
0
0
VERTEX
8
0
10
2.621335
20
16.745770
70
0
0
VERTEX
8
0
10
2.621335
20
16.745770
70
0
0
SEQEND
8
0
0
POLYLINE
8
0
62
7
70
0
10
0.000000
20
0.000000
66
1
0
VERTEX
8
0
10
11.173512
20
17.950884
70
0
0
VERTEX
8
0
10
11.067673
20
17.777237
70
0
0
VERTEX
8
0
10
10.975285
20
17.689350
70
0
0
VERTEX
8
0
10
10.903117
20
17.687311
70
0
0
VERTEX
8
0
10
10.849809
20
17.750884
70
0
0
VERTEX
8
0
10
10.696565
20
17.942465
70
0
0
VERTEX
8
0
10
10.460065
20
17.982856
70
0
0
VERTEX
8
0
10
10.176817
20
17.845515
70
0
0
VERTEX
8
0
10
9.911328
20
17.555851
70
0
0
VERTEX
8
0
10
9.746378
20
17.330967
70
0
0
VERTEX
8
0
10
9.663844
20
17.270597
70
0
0
VERTEX
8
0
10
9.633011
20
17.273126
70
0
0
VERTEX
8
0
10
9.614749
20
17.298098
70
0
0
VERTEX
8
0
10
9.599988
20
17.443277
70
0
0
VERTEX
8
0
10
9.560074
20
17.602260
70
0
0
VERTEX
8
0
10
9.453603
20
17.688920
70
0
0
VERTEX
8
0
10
9.245693
20
17.710351
70
0
0
VERTEX
8
0
10
8.849989
20
17.665062
70
0
0
VERTEX
8
0
10
8.084975
20
17.454418
70
0
0
VERTEX
8
0
10
7.348554
20
17.055629
70
0
0
VERTEX
8
0
10
6.734003
20
16.528543
70
0
0
VERTEX
8
0
10
6.331249
20
15.937976
70
0
0
VERTEX
8
0
10
6.084376
20
15.375359
70
0
0
VERTEX
8
0
10
6.020304
20
15.065695
70
0
0
VERTEX
8
0
10
6.087498
20
14.835241
70
0
0
VERTEX
8
0
10
6.298991
20
14.601187
70
0
0
VERTEX
8
0
10
6.474036
20
14.493034
70
0
0
VERTEX
8
0
10
6.637946
20
14.467057
70
0
0
VERTEX
8
0
10
6.828265
20
14.523413
70
0
0
VERTEX
8
0
10
7.098990
20
14.681308
70
0
0
VERTEX
8
0
10
7.291343
20
14.792887
70
0
0
VERTEX
8
0
10
7.452821
20
14.853044
70
0
0
VERTEX
8
0
10
7.558610
20
14.855422
70
0
0
VERTEX
8
0
10
7.599990
20
14.804966
70
0
0
VERTEX
8
0
10
7.621224
20
14.726939
70
0
0
VERTEX
8
0
10
7.680922
20
14.660460
70
0
0
VERTEX
8
0
10
7.770221
20
14.615728
70
0
0
VERTEX
8
0
10
7.875501
20
14.600356
70
0
0
VERTEX
8
0
10
8.135061
20
14.672053
70
0
0
VERTEX
8
0
10
8.381831
20
14.880005
70
0
0
VERTEX
8
0
10
8.490857
20
15.098323
70
0
0
VERTEX
8
0
10
8.416739
20
15.230906
70
0
0
VERTEX
8
0
10
8.335534
20
15.309007
70
0
0
VERTEX
8
0
10
8.258372
20
15.544329
70
0
0
VERTEX
8
0
10
8.195331
20
15.850553
70
0
0
VERTEX
8
0
10
8.158392
20
16.200354
70
0
0
VERTEX
8
0
10
8.137893
20
16.710552
70
0
0
VERTEX
8
0
10
8.179038
20
16.945153
70
0
0
VERTEX
8
0
10
8.291141
20
17.059710
70
0
0
VERTEX
8
0
10
8.499989
20
17.100353
70
0
0
VERTEX
8
0
10
8.712325
20
17.049198
70
0
0
VERTEX
8
0
10
8.825435
20
16.911871
70
0
0
VERTEX
8
0
10
8.863164
20
16.620606
70
0
0
VERTEX
8
0
10
8.836768
20
15.929280
70
0
0
VERTEX
8
0
10
8.826798
20
15.016106
70
0
0
VERTEX
8
0
10
9.014334
20
14.823770
70
0
0
VERTEX
8
0
10
9.257136
20
14.987004
70
0
0
VERTEX
8
0
10
9.526231
20
15.889688
70
0
0
VERTEX
8
0
10
9.793983
20
16.824530
70
0
0
VERTEX
8
0
10
10.018132
20
17.101729
70
0
0
VERTEX
8
0
10
10.123192
20
17.102405
70
0
0
VERTEX
8
0
10
10.178301
20
17.012956
70
0
0
VERTEX
8
0
10
10.168504
20
16.256547
70
0
0
VERTEX
8
0
10
10.144755
20
15.404306
70
0
0
VERTEX
8
0
10
10.305085
20
15.223344
70
0
0
VERTEX
8
0
10
10.521669
20
15.352746
70
0
0
VERTEX
8
0
10
10.799986
20
16.173609
70
0
0
VERTEX
8
0
10
11.086546
20
17.098797
70
0
0
VERTEX
8
0
10
11.219023
20
17.250369
70
0
0
VERTEX
8
0
10
11.281025
20
17.245670
70
0
0
VERTEX
8
0
10
11.308370
20
17.189826
70
0
0
VERTEX
8
0
10
11.243689
20
16.384817
70
0
0
VERTEX
8
0
10
11.196810
20
15.792791
70
0
0
VERTEX
8
0
10
11.222273
20
15.544626
70
0
0
VERTEX
8
0
10
11.320347
20
15.441717
70
0
0
VERTEX
8
0
10
11.504473
20
15.430421
70
0
0
VERTEX
8
0
10
11.690158
20
15.538789
70
0
0
VERTEX
8
0
10
11.809771
20
15.761815
70
0
0
VERTEX
8
0
10
11.884897
20
16.170648
70
0
0
VERTEX
8
0
10
11.938330
20
16.950353
70
0
0
VERTEX
8
0
10
11.966954
20
17.723041
70
0
0
VERTEX
8
0
10
11.940829
20
18.120712
70
0
0
VERTEX
8
0
10
11.859231
20
18.324289
70
0
0
VERTEX
8
0
10
11.713519
20
18.400351
70
0
0
VERTEX
8
0
10
11.581410
20
18.368072
70
0
0
VERTEX
8
0
10
11.431365
20
18.268320
70
0
0
VERTEX
8
0
10
11.287725
20
18.122822
70
0
0
VERTEX
8
0
10
11.173512
20
17.950884
70
0
0
VERTEX
8
0
10
11.173512
20
17.950884
70
0
0
SEQEND
8
0
0
POLYLINE
8
0
62
7
70
0
10
0.000000
20
0.000000
66
1
0
VERTEX
8
0
10
7.363580
20
15.670707
70
0
0
VERTEX
8
0
10
7.244283
20
15.457727
70
0
0
VERTEX
8
0
10
7.103983
20
15.264835
70
0
0
VERTEX
8
0
10
6.963900
20
15.115748
70
0
0
VERTEX
8
0
10
6.849991
20
15.048457
70
0
0
VERTEX
8
0
10
6.662307
20
15.123013
70
0
0
VERTEX
8
0
10
6.613906
20
15.401351
70
0
0
VERTEX
8
0
10
6.758339
20
15.856634
70
0
0
VERTEX
8
0
10
7.048547
20
16.316657
70
0
0
VERTEX
8
0
10
7.290223
20
16.609476
70
0
0
VERTEX
8
0
10
7.421221
20
16.707263
70
0
0
VERTEX
8
0
10
7.505551
20
16.683905
70
0
0
VERTEX
8
0
10
7.562136
20
16.549212
70
0
0
VERTEX
8
0
10
7.569011
20
16.382088
70
0
0
VERTEX
8
0
10
7.530636
20
16.151854
70
0
0
VERTEX
8
0
10
7.459677
20
15.902559
70
0
0
VERTEX
8
0
10
7.363580
20
15.670707
70
0
0
VERTEX
8
0
10
7.363580
20
15.670707
70
0
0
SEQEND
8
0
0
POLYLINE
8
0
62
7
70
0
10
0.000000
20
0.000000
66
1
0
VERTEX
8
0
10
0.015789
20
6.483699
70
0
0
VERTEX
8
0
10
0.027599
20
6.334435
70
0
0
VERTEX
8
0
10
0.055863
20
6.276082
70
0
0
VERTEX
8
0
10
0.074899
20
6.269230
70
0
0
VERTEX
8
0
10
0.092313
20
6.279531
70
0
0
VERTEX
8
0
10
0.136623
20
6.362866
70
0
0
VERTEX
8
0
10
0.167829
20
6.472240
70
0
0
VERTEX
8
0
10
0.175315
20
6.583751
70
0
0
VERTEX
8
0
10
0.159481
20
6.680812
70
0
0
VERTEX
8
0
10
0.120833
20
6.746199
70
0
0
VERTEX
8
0
10
0.077062
20
6.755442
70
0
0
VERTEX
8
0
10
0.040133
20
6.718933
70
0
0
VERTEX
8
0
10
0.017989
20
6.622935
70
0
0
VERTEX
8
0
10
0.015789
20
6.483699
70
0
0
VERTEX
8
0
10
0.015789
20
6.483699
70
0
0
SEQEND
8
0
0
POLYLINE
8
0
62
7
70
0
10
0.000000
20
0.000000
66
1
0
VERTEX
8
0
10
11.253794
20
26.850340
70
0
0
VERTEX
8
0
10
11.121555
20
26.565011
70
0
0
VERTEX
8
0
10
10.946324
20
26.288353
70
0
0
VERTEX
8
0
10
10.691574
20
25.967306
70
0
0
VERTEX
8
0
10
10.299987
20
25.531030
70
0
0
VERTEX
8
0
10
10.117976
20
25.330709
70
0
0
VERTEX
8
0
10
9.899988
20
25.083285
70
0
0
VERTEX
8
0
10
9.682154
20
24.830517
70
0
0
VERTEX
8
0
10
9.499988
20
24.612917
70
0
0
VERTEX
8
0
10
9.229432
20
24.280606
70
0
0
VERTEX
8
0
10
9.228077
20
24.264604
70
0
0
VERTEX
8
0
10
9.242415
20
24.257373
70
0
0
VERTEX
8
0
10
9.308250
20
24.283922
70
0
0
VERTEX
8
0
10
9.799988
20
24.651198
70
0
0
VERTEX
8
0
10
10.089985
20
24.884122
70
0
0
VERTEX
8
0
10
10.382487
20
25.150089
70
0
0
VERTEX
8
0
10
10.636684
20
25.408717
70
0
0
VERTEX
8
0
10
10.799986
20
25.612655
70
0
0
VERTEX
8
0
10
10.930324
20
25.796380
70
0
0
VERTEX
8
0
10
11.073898
20
25.987312
70
0
0
VERTEX
8
0
10
11.209540
20
26.158453
70
0
0
VERTEX
8
0
10
11.311176
20
26.274847
70
0
0
VERTEX
8
0
10
11.519355
20
26.554394
70
0
0
VERTEX
8
0
10
11.655429
20
26.868496
70
0
0
VERTEX
8
0
10
11.682818
20
27.110971
70
0
0
VERTEX
8
0
10
11.587431
20
27.200340
70
0
0
VERTEX
8
0
10
11.501127
20
27.175117
70
0
0
VERTEX
8
0
10
11.406926
20
27.097528
70
0
0
VERTEX
8
0
10
11.319731
20
26.984236
70
0
0
VERTEX
8
0
10
11.253794
20
26.850340
70
0
0
VERTEX
8
0
10
11.253794
20
26.850340
70
0
0
SEQEND
8
0
0
POLYLINE
8
0
62
7
70
0
10
0.000000
20
0.000000
66
1
0
VERTEX
8
0
10
8.112961
20
23.985078
70
0
0
VERTEX
8
0
10
7.831012
20
23.760667
70
0
0
VERTEX
8
0
10
7.643005
20
23.574223
70
0
0
VERTEX
8
0
10
7.577212
20
23.457261
70
0
0
VERTEX
8
0
10
7.582934
20
23.422795
70
0
0
VERTEX
8
0
10
7.614363
20
23.407537
70
0
0
VERTEX
8
0
10
7.934393
20
23.506369
70
0
0
VERTEX
8
0
10
8.478820
20
23.892617
70
0
0
VERTEX
8
0
10
8.986118
20
24.314726
70
0
0
VERTEX
8
0
10
9.023264
20
24.394473
70
0
0
VERTEX
8
0
10
8.990772
20
24.476227
70
0
0
VERTEX
8
0
10
8.920209
20
24.488173
70
0
0
VERTEX
8
0
10
8.694311
20
24.370556
70
0
0
VERTEX
8
0
10
8.420326
20
24.202464
70
0
0
VERTEX
8
0
10
8.112961
20
23.985078
70
0
0
VERTEX
8
0
10
8.112961
20
23.985078
70
0
0
SEQEND
8
0
0
POLYLINE
8
0
62
7
70
0
10
0.000000
20
0.000000
66
1
0
VERTEX
8
0
10
26.899966
20
16.600353
70
0
0
VERTEX
8
0
10
26.878378
20
16.524424
70
0
0
VERTEX
8
0
10
26.904261
20
16.459103
70
0
0
VERTEX
8
0
10
26.977835
20
16.415007
70
0
0
VERTEX
8
0
10
27.088163
20
16.400354
70
0
0
VERTEX
8
0
10
27.207385
20
16.415263
70
0
0
VERTEX
8
0
10
27.308373
20
16.459103
70
0
0
VERTEX
8
0
10
27.375962
20
16.524078
70
0
0
VERTEX
8
0
10
27.399965
20
16.600353
70
0
0
VERTEX
8
0
10
27.385642
20
16.676700
70
0
0
VERTEX
8
0
10
27.344683
20
16.741603
70
0
0
VERTEX
8
0
10
27.283576
20
16.785042
70
0
0
VERTEX
8
0
10
27.211769
20
16.800353
70
0
0
VERTEX
8
0
10
27.130654
20
16.785693
70
0
0
VERTEX
8
0
10
27.042546
20
16.741603
70
0
0
VERTEX
8
0
10
26.961207
20
16.676856
70
0
0
VERTEX
8
0
10
26.899966
20
16.600353
70
0
0
VERTEX
8
0
10
26.899966
20
16.600353
70
0
0
SEQEND
8
0
0
POLYLINE
8
0
62
7
70
0
10
0.000000
20
0.000000
66
1
0
VERTEX
8
0
10
13.291377
20
11.450669
70
0
0
VERTEX
8
0
10
13.332958
20
11.336177
70
0
0
VERTEX
8
0
10
13.368080
20
11.226213
70
0
0
VERTEX
8
0
10
13.393906
20
11.132450
70
0
0
VERTEX
8
0
10
13.399983
20
11.084003
70
0
0
VERTEX
8
0
10
13.414738
20
11.051995
70
0
0
VERTEX
8
0
10
13.458733
20
11.024930
70
0
0
VERTEX
8
0
10
13.523403
20
11.006485
70
0
0
VERTEX
8
0
10
13.599983
20
11.000360
70
0
0
VERTEX
8
0
10
13.676309
20
11.028357
70
0
0
VERTEX
8
0
10
13.741233
20
11.108069
70
0
0
VERTEX
8
0
10
13.785189
20
11.226740
70
0
0
VERTEX
8
0
10
13.799983
20
11.367027
70
0
0
VERTEX
8
0
10
13.776635
20
11.507062
70
0
0
VERTEX
8
0
10
13.709330
20
11.625985
70
0
0
VERTEX
8
0
10
13.609086
20
11.705505
70
0
0
VERTEX
8
0
10
13.491376
20
11.733693
70
0
0
VERTEX
8
0
10
13.374725
20
11.713532
70
0
0
VERTEX
8
0
10
13.298134
20
11.655434
70
0
0
VERTEX
8
0
10
13.269738
20
11.564674
70
0
0
VERTEX
8
0
10
13.291377
20
11.450669
70
0
0
VERTEX
8
0
10
13.291377
20
11.450669
70
0
0
SEQEND
8
0
0
POLYLINE
8
0
62
7
70
0
10
0.000000
20
0.000000
66
1
0
VERTEX
8
0
10
9.035324
20
8.089800
70
0
0
VERTEX
8
0
10
9.137493
20
7.845405
70
0
0
VERTEX
8
0
10
9.302094
20
7.749086
70
0
0
VERTEX
8
0
10
9.463624
20
7.823888
70
0
0
VERTEX
8
0
10
9.561914
20
8.050364
70
0
0
VERTEX
8
0
10
9.567825
20
8.196435
70
0
0
VERTEX
8
0
10
9.524008
20
8.307459
70
0
0
VERTEX
8
0
10
9.432429
20
8.376251
70
0
0
VERTEX
8
0
10
9.299988
20
8.400363
70
0
0
VERTEX
8
0
10
9.173949
20
8.377717
70
0
0
VERTEX
8
0
10
9.081453
20
8.313030
70
0
0
VERTEX
8
0
10
9.033887
20
8.212999
70
0
0
VERTEX
8
0
10
9.035324
20
8.089800
70
0
0
VERTEX
8
0
10
9.035324
20
8.089800
70
0
0
SEQEND
8
0
0
POLYLINE
8
0
62
7
70
0
10
0.000000
20
0.000000
66
1
0
VERTEX
8
0
10
4.524345
20
8.172118
70
0
0
VERTEX
8
0
10
4.425375
20
7.605940
70
0
0
VERTEX
8
0
10
4.408027
20
7.257226
70
0
0
VERTEX
8
0
10
4.466669
20
7.105233
70
0
0
VERTEX
8
0
10
4.577897
20
7.086708
70
0
0
VERTEX
8
0
10
4.729695
20
7.300680
70
0
0
VERTEX
8
0
10
4.834806
20
7.905467
70
0
0
VERTEX
8
0
10
4.887497
20
8.516487
70
0
0
VERTEX
8
0
10
4.785602
20
8.709258
70
0
0
VERTEX
8
0
10
4.724376
20
8.698990
70
0
0
VERTEX
8
0
10
4.652384
20
8.586376
70
0
0
VERTEX
8
0
10
4.581837
20
8.404558
70
0
0
VERTEX
8
0
10
4.524345
20
8.172118
70
0
0
VERTEX
8
0
10
4.524345
20
8.172118
70
0
0
SEQEND
8
0
 0 
ENDSEC
 0 
EOF