<?xml version="1.0" standalone="no"?>
 <!DOCTYPE svg PUBLIC "-//W3C//DTD SVG 1.1//EN" 
 "http://www.w3.org/Graphics/SVG/1.1/DTD/svg11.dtd"> 
<svg
  xmlns:svg="http://www.w3.org/2000/svg"
  xmlns="http://www.w3.org/2000/svg"
  xmlns:xlink="http://www.w3.org/1999/xlink"
  version="1.1"
  width="297.0022mm" height="210.0072mm" viewBox="0.0000 0.0000 297.0022 210.0072">
<title>SVG Image created as left half-Edge_Cuts.svg date 2025/11/09 19:12:52 </title>
  <desc>Image generated by PCBNEW </desc>
<g style="fill:#000000; fill-opacity:1.0000;stroke:#000000; stroke-opacity:1.0000;
stroke-linecap:round; stroke-linejoin:round;"
 transform="translate(0 0) scale(1 1)">
</g>
<g style="fill:none; 
stroke:#000000; stroke-width:0.0500; stroke-opacity:1; 
stroke-linecap:round; stroke-linejoin:round;">
<path d="M216.4419 128.4128
L216.4419 131.3893
" />
<path d="M216.4419 109.3632
L216.4419 112.3397
" />
<path d="M216.4406 91.5042
L216.4406 94.4807
" />
<path d="M216.4419 65.9063
L216.4419 68.8828
" />
<path d="M216.4419 131.3893
L216.4406 137.3438
" />
<path d="M216.4419 112.3397
L216.4419 128.4128
" />
<path d="M175.9594 150.4406 A1.1906 1.1906 0.0 0 0 177.1500 149.2500" />
<path d="M216.4406 94.4807
L216.4419 109.3632
" />
<path d="M136.6688 54.0000 A1.1905 1.1905 0.0 0 0 137.8594 52.8094" />
<path d="M197.3906 58.7625 A1.1907 1.1907 0.0 0 0 198.5813 59.9531" />
<circle cx="195.0094" cy="96.8625" r="1.1906" /> 
<circle cx="137.8594" cy="112.3406" r="1.1906" /> 
<path d="M139.0500 50.4281 A1.1907 1.1907 0.0 0 0 137.8594 51.6187" />
<path d="M120.0000 54.0000
L79.5187 54.0000
" />
<path d="M196.2000 138.5344
L215.2500 138.5344
" />
<path d="M178.3406 136.1532 A1.1907 1.1907 0.0 0 0 177.1500 137.3438" />
<path d="M177.1500 149.2500
L177.1500 137.3438
" />
<path d="M195.0094 137.3438 A1.1907 1.1907 0.0 0 0 193.8187 136.1531" />
<circle cx="142.6219" cy="130.2000" r="1.1906" /> 
<circle cx="156.9094" cy="70.6688" r="1.1906" /> 
<path d="M158.1000 50.4281
L139.0500 50.4282
" />
<circle cx="118.8094" cy="94.4812" r="1.1906" /> 
<circle cx="137.8594" cy="93.2906" r="1.1906" /> 
<path d="M197.3906 58.7625 A1.1906 1.1906 0.0 0 0 196.2000 57.5718" />
<circle cx="121.1906" cy="74.2406" r="1.1906" /> 
<circle cx="175.9594" cy="130.2000" r="1.1906" /> 
<path d="M159.2906 51.6187 A1.1907 1.1907 0.0 0 0 160.4813 52.8094" />
<path d="M79.5187 54.0000 A1.1905 1.1905 0.0 0 0 78.3281 55.1906" />
<path d="M216.4419 68.8828
L216.4406 91.5042
" />
<path d="M139.0500 151.6312
L156.9094 151.6312
" />
<circle cx="175.9594" cy="92.1000" r="1.1906" /> 
<path d="M74.7562 138.5344
L78.3281 137.3438
" />
<circle cx="89.0477" cy="94.4807" r="1.1906" /> 
<path d="M216.4406 61.1437 A1.1906 1.1906 0.0 0 0 215.2500 59.9531" />
<path d="M137.8594 152.8219 A1.1907 1.1907 0.0 0 0 139.0500 151.6312" />
<path d="M215.2500 138.5344 A1.1907 1.1907 0.0 0 0 216.4406 137.3437" />
<path d="M159.2906 51.6187 A1.1906 1.1906 0.0 0 0 158.1000 50.4281" />
<path d="M178.3406 54.0000 A1.1906 1.1906 0.0 0 0 177.1500 52.8094" />
<path d="M74.7562 138.5344
L79.5187 156.3937
" />
<path d="M79.5187,156.3937 C79.9949,158.0853 81.9000,157.5844 81.9000,157.5844" />
<path d="M196.2000 57.5718
L179.5312 57.5718
" />
<path d="M178.3407 56.3812 A1.1905 1.1905 0.0 0 0 179.5312 57.5718" />
<path d="M78.3281 55.1906
L78.3281 137.3438
" />
<path d="M137.8594 51.6187
L137.8594 52.8094
" />
<path d="M215.2500 59.9531
L198.5812 59.9531
" />
<circle cx="195.0094" cy="115.9125" r="1.1906" /> 
<path d="M178.3483 136.1531
L193.8187 136.1531
" />
<circle cx="175.9594" cy="111.1500" r="1.1906" /> 
<path d="M178.3407 56.3812
L178.3406 54.0000
" />
<path d="M216.4406 61.1515
L216.4419 65.9063
" />
<path d="M177.1500 52.8094
L160.4812 52.8094
" />
<path d="M195.0094 137.3438 A1.1906 1.1906 0.0 0 0 196.2000 138.5344" />
<path d="M99.7594 152.8219
L137.8594 152.8219
" />
<circle cx="195.0094" cy="77.8125" r="1.1906" /> 
<circle cx="87.8531" cy="134.9625" r="1.1906" /> 
<path d="M156.9094 151.6313 A1.1907 1.1907 0.0 0 0 158.1000 150.4406" />
<circle cx="120.0000" cy="131.3906" r="1.1906" /> 
<path d="M158.1000 150.4406
L175.9594 150.4406
" />
<path d="M81.9000 157.5844
L99.7594 152.8219
" />
<path d="M136.6687 54.0000
L120.0000 54.0000
" />
</g>
<g style="fill:none; 
stroke:#000000; stroke-width:0.1000; stroke-opacity:1; 
stroke-linecap:round; stroke-linejoin:round;">
<path d="M198.4750 101.7687
L198.4750 115.7687
" />
<path d="M198.4750 115.7687
L212.4750 115.7687
" />
<path d="M212.4750 101.7687
L198.4750 101.7687
" />
<path d="M212.4750 115.7687
L212.4750 101.7687
" />
<path d="M141.3250 111.2937
L141.3250 125.2937
" />
<path d="M141.3250 125.2937
L155.3250 125.2937
" />
<path d="M155.3250 111.2937
L141.3250 111.2937
" />
<path d="M155.3250 125.2937
L155.3250 111.2937
" />
<path d="M179.4250 118.4375
L179.4250 132.4375
" />
<path d="M179.4250 132.4375
L193.4250 132.4375
" />
<path d="M193.4250 118.4375
L179.4250 118.4375
" />
<path d="M193.4250 132.4375
L193.4250 118.4375
" />
<path d="M198.4750 63.6687
L198.4750 77.6688
" />
<path d="M198.4750 77.6688
L212.4750 77.6688
" />
<path d="M212.4750 63.6687
L198.4750 63.6687
" />
<path d="M212.4750 77.6688
L212.4750 63.6687
" />
<path d="M121.0844 135.1062
L121.0844 149.1062
" />
<path d="M121.0844 149.1062
L135.0844 149.1062
" />
<path d="M135.0844 135.1062
L121.0844 135.1062
" />
<path d="M135.0844 149.1062
L135.0844 135.1062
" />
<path d="M103.2250 77.9562
L103.2250 91.9562
" />
<path d="M103.2250 91.9562
L117.2250 91.9562
" />
<path d="M117.2250 77.9562
L103.2250 77.9562
" />
<path d="M117.2250 91.9562
L117.2250 77.9562
" />
<path d="M198.4750 120.8187
L198.4750 134.8187
" />
<path d="M198.4750 134.8187
L212.4750 134.8187
" />
<path d="M212.4750 120.8187
L198.4750 120.8187
" />
<path d="M212.4750 134.8187
L212.4750 120.8187
" />
<path d="M122.2750 114.8656
L122.2750 128.8656
" />
<path d="M122.2750 128.8656
L136.2750 128.8656
" />
<path d="M136.2750 114.8656
L122.2750 114.8656
" />
<path d="M136.2750 128.8656
L136.2750 114.8656
" />
<path d="M103.2250 97.0062
L103.2250 111.0062
" />
<path d="M103.2250 111.0062
L117.2250 111.0062
" />
<path d="M117.2250 97.0062
L103.2250 97.0062
" />
<path d="M117.2250 111.0062
L117.2250 97.0062
" />
<path d="M79.0384 140.7931
L82.6619 154.3160
" />
<path d="M82.6619 154.3160
L96.1849 150.6926
" />
<path d="M92.5614 137.1696
L79.0384 140.7931
" />
<path d="M96.1849 150.6926
L92.5614 137.1696
" />
<path d="M198.4750 82.7188
L198.4750 96.7188
" />
<path d="M198.4750 96.7188
L212.4750 96.7188
" />
<path d="M212.4750 82.7188
L198.4750 82.7188
" />
<path d="M212.4750 96.7188
L212.4750 82.7188
" />
<path d="M103.2250 58.9062
L103.2250 72.9062
" />
<path d="M103.2250 72.9062
L117.2250 72.9062
" />
<path d="M117.2250 58.9062
L103.2250 58.9062
" />
<path d="M117.2250 72.9062
L117.2250 58.9062
" />
<path d="M160.3750 56.5250
L160.3750 70.5250
" />
<path d="M160.3750 70.5250
L174.3750 70.5250
" />
<path d="M174.3750 56.5250
L160.3750 56.5250
" />
<path d="M174.3750 70.5250
L174.3750 56.5250
" />
<path d="M179.4250 80.3375
L179.4250 94.3375
" />
<path d="M179.4250 94.3375
L193.4250 94.3375
" />
<path d="M193.4250 80.3375
L179.4250 80.3375
" />
<path d="M193.4250 94.3375
L193.4250 80.3375
" />
<path d="M84.1750 102.9594
L84.1750 116.9594
" />
<path d="M84.1750 116.9594
L98.1750 116.9594
" />
<path d="M98.1750 102.9594
L84.1750 102.9594
" />
<path d="M98.1750 116.9594
L98.1750 102.9594
" />
<path d="M141.3250 73.1937
L141.3250 87.1937
" />
<path d="M141.3250 87.1937
L155.3250 87.1937
" />
<path d="M155.3250 73.1937
L141.3250 73.1937
" />
<path d="M155.3250 87.1937
L155.3250 73.1937
" />
<path d="M141.3250 54.1437
L141.3250 68.1437
" />
<path d="M141.3250 68.1437
L155.3250 68.1437
" />
<path d="M155.3250 54.1437
L141.3250 54.1437
" />
<path d="M155.3250 68.1437
L155.3250 54.1437
" />
<path d="M122.2750 76.7656
L122.2750 90.7656
" />
<path d="M122.2750 90.7656
L136.2750 90.7656
" />
<path d="M136.2750 76.7656
L122.2750 76.7656
" />
<path d="M136.2750 90.7656
L136.2750 76.7656
" />
<path d="M141.3250 92.2437
L141.3250 106.2437
" />
<path d="M141.3250 106.2437
L155.3250 106.2437
" />
<path d="M155.3250 92.2437
L141.3250 92.2437
" />
<path d="M155.3250 106.2437
L155.3250 92.2437
" />
<path d="M159.1844 132.7250
L159.1844 146.7250
" />
<path d="M159.1844 146.7250
L173.1844 146.7250
" />
<path d="M173.1844 132.7250
L159.1844 132.7250
" />
<path d="M173.1844 146.7250
L173.1844 132.7250
" />
<path d="M122.2750 95.8156
L122.2750 109.8156
" />
<path d="M122.2750 109.8156
L136.2750 109.8156
" />
<path d="M136.2750 95.8156
L122.2750 95.8156
" />
<path d="M136.2750 109.8156
L136.2750 95.8156
" />
<path d="M160.3750 113.6750
L160.3750 127.6750
" />
<path d="M160.3750 127.6750
L174.3750 127.6750
" />
<path d="M174.3750 113.6750
L160.3750 113.6750
" />
<path d="M174.3750 127.6750
L174.3750 113.6750
" />
<path d="M179.4250 61.2875
L179.4250 75.2875
" />
<path d="M179.4250 75.2875
L193.4250 75.2875
" />
<path d="M193.4250 61.2875
L179.4250 61.2875
" />
<path d="M193.4250 75.2875
L193.4250 61.2875
" />
<path d="M140.1344 133.9156
L140.1344 147.9156
" />
<path d="M140.1344 147.9156
L154.1344 147.9156
" />
<path d="M154.1344 133.9156
L140.1344 133.9156
" />
<path d="M154.1344 147.9156
L154.1344 133.9156
" />
<path d="M122.2750 57.7156
L122.2750 71.7156
" />
<path d="M122.2750 71.7156
L136.2750 71.7156
" />
<path d="M136.2750 57.7156
L122.2750 57.7156
" />
<path d="M136.2750 71.7156
L136.2750 57.7156
" />
<path d="M160.3750 94.6250
L160.3750 108.6250
" />
<path d="M160.3750 108.6250
L174.3750 108.6250
" />
<path d="M174.3750 94.6250
L160.3750 94.6250
" />
<path d="M174.3750 108.6250
L174.3750 94.6250
" />
<path d="M103.2250 116.0562
L103.2250 130.0563
" />
<path d="M103.2250 130.0563
L117.2250 130.0563
" />
<path d="M117.2250 116.0562
L103.2250 116.0562
" />
<path d="M117.2250 130.0563
L117.2250 116.0562
" />
<path d="M102.0344 135.1062
L102.0344 149.1062
" />
<path d="M102.0344 149.1062
L116.0344 149.1062
" />
<path d="M116.0344 135.1062
L102.0344 135.1062
" />
<path d="M116.0344 149.1062
L116.0344 135.1062
" />
<path d="M160.3750 75.5750
L160.3750 89.5750
" />
<path d="M160.3750 89.5750
L174.3750 89.5750
" />
<path d="M174.3750 75.5750
L160.3750 75.5750
" />
<path d="M174.3750 89.5750
L174.3750 75.5750
" />
<path d="M179.4250 99.3875
L179.4250 113.3875
" />
<path d="M179.4250 113.3875
L193.4250 113.3875
" />
<path d="M193.4250 99.3875
L179.4250 99.3875
" />
<path d="M193.4250 113.3875
L193.4250 99.3875
" />
</g> 
</svg>
