  0
SECTION
  2
HEADER
  9
$ANGBASE
  50
0.0
  9
$ANGDIR
  70
1
  9
$MEASUREMENT
  70
0
  0
ENDSEC
  0
SECTION
  2
TABLES
  0
TABLE
  2
LTYPE
  70
4
  0
LTYPE
  5
40F
  2
CONTINUOUS
  70
0
  3
Solid line
  72
65
  73
0
  40
0.0
  0
LTYPE
  5
410
  2
DASHDOT
 70
0
  3
Dash Dot ____ _ ____ _
 72
65
 73
4
 40
2.0
 49
1.25
 49
-0.25
 49
0.25
 49
-0.25
  0
LTYPE
  5
411
  2
DASHED
 70
0
  3
Dashed __ __ __ __ __
 72
65
 73
2
 40
0.75
 49
0.5
 49
-0.25
  0
LTYPE
  5
43B
  2
DOTTED
 70
0
  3
Dotted .  .  .  .
 72
65
 73
2
 40
0.2
 49
0.0
 49
-0.2
  0
ENDTAB
  0
TABLE
  2
STYLE
  70
4
  0
STYLE
  2
KICAD
  70
0
  40
0
  41
1
  42
1
  50
0
  71
0
  3
isocp.shx
  0
STYLE
  2
KICADB
  70
0
  40
0
  41
1
  42
1
  50
0
  71
0
  3
isocp.shx
  0
STYLE
  2
KICADI
  70
0
  40
0
  41
1
  42
1
  50
15
  71
0
  3
isocp.shx
  0
STYLE
  2
KICADBI
  70
0
  40
0
  41
1
  42
1
  50
15
  71
0
  3
isocp.shx
  0
ENDTAB
  0
TABLE
  2
LAYER
  70
1
  0
LAYER
  2
BLACK
  70
0
  62
7
  6
CONTINUOUS
  0
ENDTAB
  0
ENDSEC
  0
SECTION
  2
ENTITIES
0
LINE
8
BLACK
6
CONTINUOUS
10
2.7082581496062992
20
-7.0036522834645671
11
2.7095992519685037
21
-7.0045483858267712
0
LINE
8
BLACK
6
CONTINUOUS
10
2.7095992519685037
20
-7.0045483858267712
11
2.7104953543307087
21
-7.0058894881889762
0
LINE
8
BLACK
6
CONTINUOUS
10
2.7104953543307087
20
-7.0058894881889762
11
2.7108100393700787
21
-7.0074714566929135
0
LINE
8
BLACK
6
CONTINUOUS
10
2.7108100393700787
20
-7.0074714566929135
11
2.7108100393700787
21
-7.042510826771653
0
LINE
8
BLACK
6
CONTINUOUS
10
2.7108100393700787
20
-7.042510826771653
11
2.7104953543307087
21
-7.0440927952755903
0
LINE
8
BLACK
6
CONTINUOUS
10
2.7104953543307087
20
-7.0440927952755903
11
2.7095992519685037
21
-7.0454338976377953
0
LINE
8
BLACK
6
CONTINUOUS
10
2.7095992519685037
20
-7.0454338976377953
11
2.7082581496062992
21
-7.0463300000000002
0
LINE
8
BLACK
6
CONTINUOUS
10
2.7082581496062992
20
-7.0463300000000002
11
2.7066761811023623
21
-7.0466446850393698
0
LINE
8
BLACK
6
CONTINUOUS
10
2.7066761811023623
20
-7.0466446850393698
11
2.6873848425196849
21
-7.0466446850393698
0
LINE
8
BLACK
6
CONTINUOUS
10
2.6873848425196849
20
-7.0466446850393698
11
2.685802874015748
21
-7.0463300000000002
0
LINE
8
BLACK
6
CONTINUOUS
10
2.685802874015748
20
-7.0463300000000002
11
2.684461771653543
21
-7.0454338976377953
0
LINE
8
BLACK
6
CONTINUOUS
10
2.684461771653543
20
-7.0454338976377953
11
2.6835656692913386
21
-7.0440927952755903
0
LINE
8
BLACK
6
CONTINUOUS
10
2.6835656692913386
20
-7.0440927952755903
11
2.6832509842519685
21
-7.042510826771653
0
LINE
8
BLACK
6
CONTINUOUS
10
2.6832509842519685
20
-7.042510826771653
11
2.6832509842519685
21
-7.0074714566929135
0
LINE
8
BLACK
6
CONTINUOUS
10
2.6832509842519685
20
-7.0074714566929135
11
2.6835656692913386
21
-7.0058894881889762
0
LINE
8
BLACK
6
CONTINUOUS
10
2.6835656692913386
20
-7.0058894881889762
11
2.684461771653543
21
-7.0045483858267712
0
LINE
8
BLACK
6
CONTINUOUS
10
2.684461771653543
20
-7.0045483858267712
11
2.685802874015748
21
-7.0036522834645671
0
LINE
8
BLACK
6
CONTINUOUS
10
2.685802874015748
20
-7.0036522834645671
11
2.6873848425196849
21
-7.0033375984251967
0
LINE
8
BLACK
6
CONTINUOUS
10
2.6873848425196849
20
-7.0033375984251967
11
2.7066761811023623
21
-7.0033375984251967
0
LINE
8
BLACK
6
CONTINUOUS
10
2.7066761811023623
20
-7.0033375984251967
11
2.7082581496062992
21
-7.0036522834645671
0
LINE
8
BLACK
6
CONTINUOUS
10
2.7988093307086612
20
-7.0036522834645671
11
2.8001504330708662
21
-7.0045483858267712
0
LINE
8
BLACK
6
CONTINUOUS
10
2.8001504330708662
20
-7.0045483858267712
11
2.8010465354330707
21
-7.0058894881889762
0
LINE
8
BLACK
6
CONTINUOUS
10
2.8010465354330707
20
-7.0058894881889762
11
2.8013612204724407
21
-7.0074714566929135
0
LINE
8
BLACK
6
CONTINUOUS
10
2.8013612204724407
20
-7.0074714566929135
11
2.8013612204724407
21
-7.042510826771653
0
LINE
8
BLACK
6
CONTINUOUS
10
2.8013612204724407
20
-7.042510826771653
11
2.8010465354330707
21
-7.0440927952755903
0
LINE
8
BLACK
6
CONTINUOUS
10
2.8010465354330707
20
-7.0440927952755903
11
2.8001504330708662
21
-7.0454338976377953
0
LINE
8
BLACK
6
CONTINUOUS
10
2.8001504330708662
20
-7.0454338976377953
11
2.7988093307086612
21
-7.0463300000000002
0
LINE
8
BLACK
6
CONTINUOUS
10
2.7988093307086612
20
-7.0463300000000002
11
2.7972273622047243
21
-7.0466446850393698
0
LINE
8
BLACK
6
CONTINUOUS
10
2.7972273622047243
20
-7.0466446850393698
11
2.7779360236220474
21
-7.0466446850393698
0
LINE
8
BLACK
6
CONTINUOUS
10
2.7779360236220474
20
-7.0466446850393698
11
2.7763540551181101
21
-7.0463300000000002
0
LINE
8
BLACK
6
CONTINUOUS
10
2.7763540551181101
20
-7.0463300000000002
11
2.7750129527559055
21
-7.0454338976377953
0
LINE
8
BLACK
6
CONTINUOUS
10
2.7750129527559055
20
-7.0454338976377953
11
2.7741168503937006
21
-7.0440927952755903
0
LINE
8
BLACK
6
CONTINUOUS
10
2.7741168503937006
20
-7.0440927952755903
11
2.7738021653543306
21
-7.042510826771653
0
LINE
8
BLACK
6
CONTINUOUS
10
2.7738021653543306
20
-7.042510826771653
11
2.7738021653543306
21
-7.0074714566929135
0
LINE
8
BLACK
6
CONTINUOUS
10
2.7738021653543306
20
-7.0074714566929135
11
2.7741168503937006
21
-7.0058894881889762
0
LINE
8
BLACK
6
CONTINUOUS
10
2.7741168503937006
20
-7.0058894881889762
11
2.7750129527559055
21
-7.0045483858267712
0
LINE
8
BLACK
6
CONTINUOUS
10
2.7750129527559055
20
-7.0045483858267712
11
2.7763540551181101
21
-7.0036522834645671
0
LINE
8
BLACK
6
CONTINUOUS
10
2.7763540551181101
20
-7.0036522834645671
11
2.7779360236220474
21
-7.0033375984251967
0
LINE
8
BLACK
6
CONTINUOUS
10
2.7779360236220474
20
-7.0033375984251967
11
2.7972273622047243
21
-7.0033375984251967
0
LINE
8
BLACK
6
CONTINUOUS
10
2.7972273622047243
20
-7.0033375984251967
11
2.7988093307086612
21
-7.0036522834645671
0
LINE
8
BLACK
6
CONTINUOUS
10
13.2551331496062996
20
-6.9914721653543301
11
13.2564742519685037
21
-6.9923682677165351
0
LINE
8
BLACK
6
CONTINUOUS
10
13.2564742519685037
20
-6.9923682677165351
11
13.2573703543307087
21
-6.9937093700787401
0
LINE
8
BLACK
6
CONTINUOUS
10
13.2573703543307087
20
-6.9937093700787401
11
13.2576850393700791
21
-6.9952913385826774
0
LINE
8
BLACK
6
CONTINUOUS
10
13.2576850393700791
20
-6.9952913385826774
11
13.2576850393700791
21
-7.0303307086614168
0
LINE
8
BLACK
6
CONTINUOUS
10
13.2576850393700791
20
-7.0303307086614168
11
13.2573703543307087
21
-7.0319126771653542
0
LINE
8
BLACK
6
CONTINUOUS
10
13.2573703543307087
20
-7.0319126771653542
11
13.2564742519685037
21
-7.0332537795275591
0
LINE
8
BLACK
6
CONTINUOUS
10
13.2564742519685037
20
-7.0332537795275591
11
13.2551331496062996
21
-7.0341498818897632
0
LINE
8
BLACK
6
CONTINUOUS
10
13.2551331496062996
20
-7.0341498818897632
11
13.2535511811023614
21
-7.0344645669291337
0
LINE
8
BLACK
6
CONTINUOUS
10
13.2535511811023614
20
-7.0344645669291337
11
13.234259842519684
21
-7.0344645669291337
0
LINE
8
BLACK
6
CONTINUOUS
10
13.234259842519684
20
-7.0344645669291337
11
13.2326778740157476
21
-7.0341498818897632
0
LINE
8
BLACK
6
CONTINUOUS
10
13.2326778740157476
20
-7.0341498818897632
11
13.2313367716535435
21
-7.0332537795275591
0
LINE
8
BLACK
6
CONTINUOUS
10
13.2313367716535435
20
-7.0332537795275591
11
13.2304406692913386
21
-7.0319126771653542
0
LINE
8
BLACK
6
CONTINUOUS
10
13.2304406692913386
20
-7.0319126771653542
11
13.2301259842519681
21
-7.0303307086614168
0
LINE
8
BLACK
6
CONTINUOUS
10
13.2301259842519681
20
-7.0303307086614168
11
13.2301259842519681
21
-6.9952913385826774
0
LINE
8
BLACK
6
CONTINUOUS
10
13.2301259842519681
20
-6.9952913385826774
11
13.2304406692913386
21
-6.9937093700787401
0
LINE
8
BLACK
6
CONTINUOUS
10
13.2304406692913386
20
-6.9937093700787401
11
13.2313367716535435
21
-6.9923682677165351
0
LINE
8
BLACK
6
CONTINUOUS
10
13.2313367716535435
20
-6.9923682677165351
11
13.2326778740157476
21
-6.9914721653543301
0
LINE
8
BLACK
6
CONTINUOUS
10
13.2326778740157476
20
-6.9914721653543301
11
13.234259842519684
21
-6.9911574803149605
0
LINE
8
BLACK
6
CONTINUOUS
10
13.234259842519684
20
-6.9911574803149605
11
13.2535511811023614
21
-6.9911574803149605
0
LINE
8
BLACK
6
CONTINUOUS
10
13.2535511811023614
20
-6.9911574803149605
11
13.2551331496062996
21
-6.9914721653543301
0
LINE
8
BLACK
6
CONTINUOUS
10
13.3456843307086608
20
-6.9914721653543301
11
13.3470254330708666
21
-6.9923682677165351
0
LINE
8
BLACK
6
CONTINUOUS
10
13.3470254330708666
20
-6.9923682677165351
11
13.3479215354330698
21
-6.9937093700787401
0
LINE
8
BLACK
6
CONTINUOUS
10
13.3479215354330698
20
-6.9937093700787401
11
13.3482362204724403
21
-6.9952913385826774
0
LINE
8
BLACK
6
CONTINUOUS
10
13.3482362204724403
20
-6.9952913385826774
11
13.3482362204724403
21
-7.0303307086614168
0
LINE
8
BLACK
6
CONTINUOUS
10
13.3482362204724403
20
-7.0303307086614168
11
13.3479215354330698
21
-7.0319126771653542
0
LINE
8
BLACK
6
CONTINUOUS
10
13.3479215354330698
20
-7.0319126771653542
11
13.3470254330708666
21
-7.0332537795275591
0
LINE
8
BLACK
6
CONTINUOUS
10
13.3470254330708666
20
-7.0332537795275591
11
13.3456843307086608
21
-7.0341498818897632
0
LINE
8
BLACK
6
CONTINUOUS
10
13.3456843307086608
20
-7.0341498818897632
11
13.3441023622047243
21
-7.0344645669291337
0
LINE
8
BLACK
6
CONTINUOUS
10
13.3441023622047243
20
-7.0344645669291337
11
13.3248110236220469
21
-7.0344645669291337
0
LINE
8
BLACK
6
CONTINUOUS
10
13.3248110236220469
20
-7.0344645669291337
11
13.3232290551181105
21
-7.0341498818897632
0
LINE
8
BLACK
6
CONTINUOUS
10
13.3232290551181105
20
-7.0341498818897632
11
13.3218879527559046
21
-7.0332537795275591
0
LINE
8
BLACK
6
CONTINUOUS
10
13.3218879527559046
20
-7.0332537795275591
11
13.3209918503936997
21
-7.0319126771653542
0
LINE
8
BLACK
6
CONTINUOUS
10
13.3209918503936997
20
-7.0319126771653542
11
13.320677165354331
21
-7.0303307086614168
0
LINE
8
BLACK
6
CONTINUOUS
10
13.320677165354331
20
-7.0303307086614168
11
13.320677165354331
21
-6.9952913385826774
0
LINE
8
BLACK
6
CONTINUOUS
10
13.320677165354331
20
-6.9952913385826774
11
13.3209918503936997
21
-6.9937093700787401
0
LINE
8
BLACK
6
CONTINUOUS
10
13.3209918503936997
20
-6.9937093700787401
11
13.3218879527559046
21
-6.9923682677165351
0
LINE
8
BLACK
6
CONTINUOUS
10
13.3218879527559046
20
-6.9923682677165351
11
13.3232290551181105
21
-6.9914721653543301
0
LINE
8
BLACK
6
CONTINUOUS
10
13.3232290551181105
20
-6.9914721653543301
11
13.3248110236220469
21
-6.9911574803149605
0
LINE
8
BLACK
6
CONTINUOUS
10
13.3248110236220469
20
-6.9911574803149605
11
13.3441023622047243
21
-6.9911574803149605
0
LINE
8
BLACK
6
CONTINUOUS
10
13.3441023622047243
20
-6.9911574803149605
11
13.3456843307086608
21
-6.9914721653543301
0
LINE
8
BLACK
6
CONTINUOUS
10
2.8434652362204722
20
-6.9563632283464569
11
2.8446147637795276
21
-6.9571312992125982
0
LINE
8
BLACK
6
CONTINUOUS
10
2.8446147637795276
20
-6.9571312992125982
11
2.8453828346456693
21
-6.9582808267716532
0
LINE
8
BLACK
6
CONTINUOUS
10
2.8453828346456693
20
-6.9582808267716532
11
2.845652559055118
21
-6.9596368110236222
0
LINE
8
BLACK
6
CONTINUOUS
10
2.845652559055118
20
-6.9596368110236222
11
2.845652559055118
21
-6.9761722440944878
0
LINE
8
BLACK
6
CONTINUOUS
10
2.845652559055118
20
-6.9761722440944878
11
2.8453828346456693
21
-6.9775282283464568
0
LINE
8
BLACK
6
CONTINUOUS
10
2.8453828346456693
20
-6.9775282283464568
11
2.8446147637795276
21
-6.9786777559055118
0
LINE
8
BLACK
6
CONTINUOUS
10
2.8446147637795276
20
-6.9786777559055118
11
2.8434652362204722
21
-6.979445826771653
0
LINE
8
BLACK
6
CONTINUOUS
10
2.8434652362204722
20
-6.979445826771653
11
2.8421092519685041
21
-6.9797155511811022
0
LINE
8
BLACK
6
CONTINUOUS
10
2.8421092519685041
20
-6.9797155511811022
11
2.7999832677165353
21
-6.9797155511811022
0
LINE
8
BLACK
6
CONTINUOUS
10
2.7999832677165353
20
-6.9797155511811022
11
2.7986272834645667
21
-6.979445826771653
0
LINE
8
BLACK
6
CONTINUOUS
10
2.7986272834645667
20
-6.979445826771653
11
2.7974777559055117
21
-6.9786777559055118
0
LINE
8
BLACK
6
CONTINUOUS
10
2.7974777559055117
20
-6.9786777559055118
11
2.79670968503937
21
-6.9775282283464568
0
LINE
8
BLACK
6
CONTINUOUS
10
2.79670968503937
20
-6.9775282283464568
11
2.7964399606299213
21
-6.9761722440944878
0
LINE
8
BLACK
6
CONTINUOUS
10
2.7964399606299213
20
-6.9761722440944878
11
2.7964399606299213
21
-6.9596368110236222
0
LINE
8
BLACK
6
CONTINUOUS
10
2.7964399606299213
20
-6.9596368110236222
11
2.79670968503937
21
-6.9582808267716532
0
LINE
8
BLACK
6
CONTINUOUS
10
2.79670968503937
20
-6.9582808267716532
11
2.7974777559055117
21
-6.9571312992125982
0
LINE
8
BLACK
6
CONTINUOUS
10
2.7974777559055117
20
-6.9571312992125982
11
2.7986272834645667
21
-6.9563632283464569
0
LINE
8
BLACK
6
CONTINUOUS
10
2.7986272834645667
20
-6.9563632283464569
11
2.7999832677165353
21
-6.9560935039370078
0
LINE
8
BLACK
6
CONTINUOUS
10
2.7999832677165353
20
-6.9560935039370078
11
2.8421092519685041
21
-6.9560935039370078
0
LINE
8
BLACK
6
CONTINUOUS
10
2.8421092519685041
20
-6.9560935039370078
11
2.8434652362204722
21
-6.9563632283464569
0
LINE
8
BLACK
6
CONTINUOUS
10
13.232859921259843
20
-6.9441831102362199
11
13.2340094488188971
21
-6.9449511811023621
0
LINE
8
BLACK
6
CONTINUOUS
10
13.2340094488188971
20
-6.9449511811023621
11
13.2347775196850392
21
-6.946100708661417
0
LINE
8
BLACK
6
CONTINUOUS
10
13.2347775196850392
20
-6.946100708661417
11
13.2350472440944884
21
-6.9474566929133861
0
LINE
8
BLACK
6
CONTINUOUS
10
13.2350472440944884
20
-6.9474566929133861
11
13.2350472440944884
21
-6.9639921259842517
0
LINE
8
BLACK
6
CONTINUOUS
10
13.2350472440944884
20
-6.9639921259842517
11
13.2347775196850392
21
-6.9653481102362207
0
LINE
8
BLACK
6
CONTINUOUS
10
13.2347775196850392
20
-6.9653481102362207
11
13.2340094488188971
21
-6.9664976377952756
0
LINE
8
BLACK
6
CONTINUOUS
10
13.2340094488188971
20
-6.9664976377952756
11
13.232859921259843
21
-6.9672657086614169
0
LINE
8
BLACK
6
CONTINUOUS
10
13.232859921259843
20
-6.9672657086614169
11
13.231503937007874
21
-6.9675354330708661
0
LINE
8
BLACK
6
CONTINUOUS
10
13.231503937007874
20
-6.9675354330708661
11
13.1893779527559047
21
-6.9675354330708661
0
LINE
8
BLACK
6
CONTINUOUS
10
13.1893779527559047
20
-6.9675354330708661
11
13.1880219685039375
21
-6.9672657086614169
0
LINE
8
BLACK
6
CONTINUOUS
10
13.1880219685039375
20
-6.9672657086614169
11
13.1868724409448816
21
-6.9664976377952756
0
LINE
8
BLACK
6
CONTINUOUS
10
13.1868724409448816
20
-6.9664976377952756
11
13.1861043700787395
21
-6.9653481102362207
0
LINE
8
BLACK
6
CONTINUOUS
10
13.1861043700787395
20
-6.9653481102362207
11
13.1858346456692903
21
-6.9639921259842517
0
LINE
8
BLACK
6
CONTINUOUS
10
13.1858346456692903
20
-6.9639921259842517
11
13.1858346456692903
21
-6.9474566929133861
0
LINE
8
BLACK
6
CONTINUOUS
10
13.1858346456692903
20
-6.9474566929133861
11
13.1861043700787395
21
-6.946100708661417
0
LINE
8
BLACK
6
CONTINUOUS
10
13.1861043700787395
20
-6.946100708661417
11
13.1868724409448816
21
-6.9449511811023621
0
LINE
8
BLACK
6
CONTINUOUS
10
13.1868724409448816
20
-6.9449511811023621
11
13.1880219685039375
21
-6.9441831102362199
0
LINE
8
BLACK
6
CONTINUOUS
10
13.1880219685039375
20
-6.9441831102362199
11
13.1893779527559047
21
-6.9439133858267716
0
LINE
8
BLACK
6
CONTINUOUS
10
13.1893779527559047
20
-6.9439133858267716
11
13.231503937007874
21
-6.9439133858267716
0
LINE
8
BLACK
6
CONTINUOUS
10
13.231503937007874
20
-6.9439133858267716
11
13.232859921259843
21
-6.9441831102362199
0
LINE
8
BLACK
6
CONTINUOUS
10
2.8434652362204722
20
-6.8973081102362199
11
2.8446147637795276
21
-6.8980761811023621
0
LINE
8
BLACK
6
CONTINUOUS
10
2.8446147637795276
20
-6.8980761811023621
11
2.8453828346456693
21
-6.899225708661417
0
LINE
8
BLACK
6
CONTINUOUS
10
2.8453828346456693
20
-6.899225708661417
11
2.845652559055118
21
-6.9005816929133861
0
LINE
8
BLACK
6
CONTINUOUS
10
2.845652559055118
20
-6.9005816929133861
11
2.845652559055118
21
-6.9171171259842517
0
LINE
8
BLACK
6
CONTINUOUS
10
2.845652559055118
20
-6.9171171259842517
11
2.8453828346456693
21
-6.9184731102362207
0
LINE
8
BLACK
6
CONTINUOUS
10
2.8453828346456693
20
-6.9184731102362207
11
2.8446147637795276
21
-6.9196226377952756
0
LINE
8
BLACK
6
CONTINUOUS
10
2.8446147637795276
20
-6.9196226377952756
11
2.8434652362204722
21
-6.9203907086614169
0
LINE
8
BLACK
6
CONTINUOUS
10
2.8434652362204722
20
-6.9203907086614169
11
2.8421092519685041
21
-6.9206604330708661
0
LINE
8
BLACK
6
CONTINUOUS
10
2.8421092519685041
20
-6.9206604330708661
11
2.7999832677165353
21
-6.9206604330708661
0
LINE
8
BLACK
6
CONTINUOUS
10
2.7999832677165353
20
-6.9206604330708661
11
2.7986272834645667
21
-6.9203907086614169
0
LINE
8
BLACK
6
CONTINUOUS
10
2.7986272834645667
20
-6.9203907086614169
11
2.7974777559055117
21
-6.9196226377952756
0
LINE
8
BLACK
6
CONTINUOUS
10
2.7974777559055117
20
-6.9196226377952756
11
2.79670968503937
21
-6.9184731102362207
0
LINE
8
BLACK
6
CONTINUOUS
10
2.79670968503937
20
-6.9184731102362207
11
2.7964399606299213
21
-6.9171171259842517
0
LINE
8
BLACK
6
CONTINUOUS
10
2.7964399606299213
20
-6.9171171259842517
11
2.7964399606299213
21
-6.9005816929133861
0
LINE
8
BLACK
6
CONTINUOUS
10
2.7964399606299213
20
-6.9005816929133861
11
2.79670968503937
21
-6.899225708661417
0
LINE
8
BLACK
6
CONTINUOUS
10
2.79670968503937
20
-6.899225708661417
11
2.7974777559055117
21
-6.8980761811023621
0
LINE
8
BLACK
6
CONTINUOUS
10
2.7974777559055117
20
-6.8980761811023621
11
2.7986272834645667
21
-6.8973081102362199
0
LINE
8
BLACK
6
CONTINUOUS
10
2.7986272834645667
20
-6.8973081102362199
11
2.7999832677165353
21
-6.8970383858267716
0
LINE
8
BLACK
6
CONTINUOUS
10
2.7999832677165353
20
-6.8970383858267716
11
2.8421092519685041
21
-6.8970383858267716
0
LINE
8
BLACK
6
CONTINUOUS
10
2.8421092519685041
20
-6.8970383858267716
11
2.8434652362204722
21
-6.8973081102362199
0
LINE
8
BLACK
6
CONTINUOUS
10
13.232859921259843
20
-6.8260728740157477
11
13.2340094488188971
21
-6.8268409448818899
0
LINE
8
BLACK
6
CONTINUOUS
10
13.2340094488188971
20
-6.8268409448818899
11
13.2347775196850392
21
-6.8279904724409448
0
LINE
8
BLACK
6
CONTINUOUS
10
13.2347775196850392
20
-6.8279904724409448
11
13.2350472440944884
21
-6.829346456692913
0
LINE
8
BLACK
6
CONTINUOUS
10
13.2350472440944884
20
-6.829346456692913
11
13.2350472440944884
21
-6.8458818897637794
0
LINE
8
BLACK
6
CONTINUOUS
10
13.2350472440944884
20
-6.8458818897637794
11
13.2347775196850392
21
-6.8472378740157476
0
LINE
8
BLACK
6
CONTINUOUS
10
13.2347775196850392
20
-6.8472378740157476
11
13.2340094488188971
21
-6.8483874015748034
0
LINE
8
BLACK
6
CONTINUOUS
10
13.2340094488188971
20
-6.8483874015748034
11
13.232859921259843
21
-6.8491554724409447
0
LINE
8
BLACK
6
CONTINUOUS
10
13.232859921259843
20
-6.8491554724409447
11
13.231503937007874
21
-6.8494251968503939
0
LINE
8
BLACK
6
CONTINUOUS
10
13.231503937007874
20
-6.8494251968503939
11
13.1893779527559047
21
-6.8494251968503939
0
LINE
8
BLACK
6
CONTINUOUS
10
13.1893779527559047
20
-6.8494251968503939
11
13.1880219685039375
21
-6.8491554724409447
0
LINE
8
BLACK
6
CONTINUOUS
10
13.1880219685039375
20
-6.8491554724409447
11
13.1868724409448816
21
-6.8483874015748034
0
LINE
8
BLACK
6
CONTINUOUS
10
13.1868724409448816
20
-6.8483874015748034
11
13.1861043700787395
21
-6.8472378740157476
0
LINE
8
BLACK
6
CONTINUOUS
10
13.1861043700787395
20
-6.8472378740157476
11
13.1858346456692903
21
-6.8458818897637794
0
LINE
8
BLACK
6
CONTINUOUS
10
13.1858346456692903
20
-6.8458818897637794
11
13.1858346456692903
21
-6.829346456692913
0
LINE
8
BLACK
6
CONTINUOUS
10
13.1858346456692903
20
-6.829346456692913
11
13.1861043700787395
21
-6.8279904724409448
0
LINE
8
BLACK
6
CONTINUOUS
10
13.1861043700787395
20
-6.8279904724409448
11
13.1868724409448816
21
-6.8268409448818899
0
LINE
8
BLACK
6
CONTINUOUS
10
13.1868724409448816
20
-6.8268409448818899
11
13.1880219685039375
21
-6.8260728740157477
0
LINE
8
BLACK
6
CONTINUOUS
10
13.1880219685039375
20
-6.8260728740157477
11
13.1893779527559047
21
-6.8258031496062994
0
LINE
8
BLACK
6
CONTINUOUS
10
13.1893779527559047
20
-6.8258031496062994
11
13.231503937007874
21
-6.8258031496062994
0
LINE
8
BLACK
6
CONTINUOUS
10
13.231503937007874
20
-6.8258031496062994
11
13.232859921259843
21
-6.8260728740157477
0
LINE
8
BLACK
6
CONTINUOUS
10
2.8434652362204722
20
-6.7791978740157477
11
2.8446147637795276
21
-6.7799659448818899
0
LINE
8
BLACK
6
CONTINUOUS
10
2.8446147637795276
20
-6.7799659448818899
11
2.8453828346456693
21
-6.7811154724409448
0
LINE
8
BLACK
6
CONTINUOUS
10
2.8453828346456693
20
-6.7811154724409448
11
2.845652559055118
21
-6.782471456692913
0
LINE
8
BLACK
6
CONTINUOUS
10
2.845652559055118
20
-6.782471456692913
11
2.845652559055118
21
-6.7990068897637794
0
LINE
8
BLACK
6
CONTINUOUS
10
2.845652559055118
20
-6.7990068897637794
11
2.8453828346456693
21
-6.8003628740157476
0
LINE
8
BLACK
6
CONTINUOUS
10
2.8453828346456693
20
-6.8003628740157476
11
2.8446147637795276
21
-6.8015124015748034
0
LINE
8
BLACK
6
CONTINUOUS
10
2.8446147637795276
20
-6.8015124015748034
11
2.8434652362204722
21
-6.8022804724409447
0
LINE
8
BLACK
6
CONTINUOUS
10
2.8434652362204722
20
-6.8022804724409447
11
2.8421092519685041
21
-6.8025501968503939
0
LINE
8
BLACK
6
CONTINUOUS
10
2.8421092519685041
20
-6.8025501968503939
11
2.7999832677165353
21
-6.8025501968503939
0
LINE
8
BLACK
6
CONTINUOUS
10
2.7999832677165353
20
-6.8025501968503939
11
2.7986272834645667
21
-6.8022804724409447
0
LINE
8
BLACK
6
CONTINUOUS
10
2.7986272834645667
20
-6.8022804724409447
11
2.7974777559055117
21
-6.8015124015748034
0
LINE
8
BLACK
6
CONTINUOUS
10
2.7974777559055117
20
-6.8015124015748034
11
2.79670968503937
21
-6.8003628740157476
0
LINE
8
BLACK
6
CONTINUOUS
10
2.79670968503937
20
-6.8003628740157476
11
2.7964399606299213
21
-6.7990068897637794
0
LINE
8
BLACK
6
CONTINUOUS
10
2.7964399606299213
20
-6.7990068897637794
11
2.7964399606299213
21
-6.782471456692913
0
LINE
8
BLACK
6
CONTINUOUS
10
2.7964399606299213
20
-6.782471456692913
11
2.79670968503937
21
-6.7811154724409448
0
LINE
8
BLACK
6
CONTINUOUS
10
2.79670968503937
20
-6.7811154724409448
11
2.7974777559055117
21
-6.7799659448818899
0
LINE
8
BLACK
6
CONTINUOUS
10
2.7974777559055117
20
-6.7799659448818899
11
2.7986272834645667
21
-6.7791978740157477
0
LINE
8
BLACK
6
CONTINUOUS
10
2.7986272834645667
20
-6.7791978740157477
11
2.7999832677165353
21
-6.7789281496062994
0
LINE
8
BLACK
6
CONTINUOUS
10
2.7999832677165353
20
-6.7789281496062994
11
2.8421092519685041
21
-6.7789281496062994
0
LINE
8
BLACK
6
CONTINUOUS
10
2.8421092519685041
20
-6.7789281496062994
11
2.8434652362204722
21
-6.7791978740157477
0
LINE
8
BLACK
6
CONTINUOUS
10
13.232859921259843
20
-6.7670177559055116
11
13.2340094488188971
21
-6.7677858267716537
0
LINE
8
BLACK
6
CONTINUOUS
10
13.2340094488188971
20
-6.7677858267716537
11
13.2347775196850392
21
-6.7689353543307087
0
LINE
8
BLACK
6
CONTINUOUS
10
13.2347775196850392
20
-6.7689353543307087
11
13.2350472440944884
21
-6.7702913385826768
0
LINE
8
BLACK
6
CONTINUOUS
10
13.2350472440944884
20
-6.7702913385826768
11
13.2350472440944884
21
-6.7868267716535433
0
LINE
8
BLACK
6
CONTINUOUS
10
13.2350472440944884
20
-6.7868267716535433
11
13.2347775196850392
21
-6.7881827559055115
0
LINE
8
BLACK
6
CONTINUOUS
10
13.2347775196850392
20
-6.7881827559055115
11
13.2340094488188971
21
-6.7893322834645664
0
LINE
8
BLACK
6
CONTINUOUS
10
13.2340094488188971
20
-6.7893322834645664
11
13.232859921259843
21
-6.7901003543307086
0
LINE
8
BLACK
6
CONTINUOUS
10
13.232859921259843
20
-6.7901003543307086
11
13.231503937007874
21
-6.7903700787401577
0
LINE
8
BLACK
6
CONTINUOUS
10
13.231503937007874
20
-6.7903700787401577
11
13.1893779527559047
21
-6.7903700787401577
0
LINE
8
BLACK
6
CONTINUOUS
10
13.1893779527559047
20
-6.7903700787401577
11
13.1880219685039375
21
-6.7901003543307086
0
LINE
8
BLACK
6
CONTINUOUS
10
13.1880219685039375
20
-6.7901003543307086
11
13.1868724409448816
21
-6.7893322834645664
0
LINE
8
BLACK
6
CONTINUOUS
10
13.1868724409448816
20
-6.7893322834645664
11
13.1861043700787395
21
-6.7881827559055115
0
LINE
8
BLACK
6
CONTINUOUS
10
13.1861043700787395
20
-6.7881827559055115
11
13.1858346456692903
21
-6.7868267716535433
0
LINE
8
BLACK
6
CONTINUOUS
10
13.1858346456692903
20
-6.7868267716535433
11
13.1858346456692903
21
-6.7702913385826768
0
LINE
8
BLACK
6
CONTINUOUS
10
13.1858346456692903
20
-6.7702913385826768
11
13.1861043700787395
21
-6.7689353543307087
0
LINE
8
BLACK
6
CONTINUOUS
10
13.1861043700787395
20
-6.7689353543307087
11
13.1868724409448816
21
-6.7677858267716537
0
LINE
8
BLACK
6
CONTINUOUS
10
13.1868724409448816
20
-6.7677858267716537
11
13.1880219685039375
21
-6.7670177559055116
0
LINE
8
BLACK
6
CONTINUOUS
10
13.1880219685039375
20
-6.7670177559055116
11
13.1893779527559047
21
-6.7667480314960624
0
LINE
8
BLACK
6
CONTINUOUS
10
13.1893779527559047
20
-6.7667480314960624
11
13.231503937007874
21
-6.7667480314960624
0
LINE
8
BLACK
6
CONTINUOUS
10
13.231503937007874
20
-6.7667480314960624
11
13.232859921259843
21
-6.7670177559055116
0
LINE
8
BLACK
6
CONTINUOUS
10
2.7082581496062992
20
-6.7123137007874014
11
2.7095992519685037
21
-6.7132098031496064
0
LINE
8
BLACK
6
CONTINUOUS
10
2.7095992519685037
20
-6.7132098031496064
11
2.7104953543307087
21
-6.7145509055118104
0
LINE
8
BLACK
6
CONTINUOUS
10
2.7104953543307087
20
-6.7145509055118104
11
2.7108100393700787
21
-6.7161328740157478
0
LINE
8
BLACK
6
CONTINUOUS
10
2.7108100393700787
20
-6.7161328740157478
11
2.7108100393700787
21
-6.7511722440944881
0
LINE
8
BLACK
6
CONTINUOUS
10
2.7108100393700787
20
-6.7511722440944881
11
2.7104953543307087
21
-6.7527542125984255
0
LINE
8
BLACK
6
CONTINUOUS
10
2.7104953543307087
20
-6.7527542125984255
11
2.7095992519685037
21
-6.7540953149606295
0
LINE
8
BLACK
6
CONTINUOUS
10
2.7095992519685037
20
-6.7540953149606295
11
2.7082581496062992
21
-6.7549914173228345
0
LINE
8
BLACK
6
CONTINUOUS
10
2.7082581496062992
20
-6.7549914173228345
11
2.7066761811023623
21
-6.755306102362205
0
LINE
8
BLACK
6
CONTINUOUS
10
2.7066761811023623
20
-6.755306102362205
11
2.6873848425196849
21
-6.755306102362205
0
LINE
8
BLACK
6
CONTINUOUS
10
2.6873848425196849
20
-6.755306102362205
11
2.685802874015748
21
-6.7549914173228345
0
LINE
8
BLACK
6
CONTINUOUS
10
2.685802874015748
20
-6.7549914173228345
11
2.684461771653543
21
-6.7540953149606295
0
LINE
8
BLACK
6
CONTINUOUS
10
2.684461771653543
20
-6.7540953149606295
11
2.6835656692913386
21
-6.7527542125984255
0
LINE
8
BLACK
6
CONTINUOUS
10
2.6835656692913386
20
-6.7527542125984255
11
2.6832509842519685
21
-6.7511722440944881
0
LINE
8
BLACK
6
CONTINUOUS
10
2.6832509842519685
20
-6.7511722440944881
11
2.6832509842519685
21
-6.7161328740157478
0
LINE
8
BLACK
6
CONTINUOUS
10
2.6832509842519685
20
-6.7161328740157478
11
2.6835656692913386
21
-6.7145509055118104
0
LINE
8
BLACK
6
CONTINUOUS
10
2.6835656692913386
20
-6.7145509055118104
11
2.684461771653543
21
-6.7132098031496064
0
LINE
8
BLACK
6
CONTINUOUS
10
2.684461771653543
20
-6.7132098031496064
11
2.685802874015748
21
-6.7123137007874014
0
LINE
8
BLACK
6
CONTINUOUS
10
2.685802874015748
20
-6.7123137007874014
11
2.6873848425196849
21
-6.7119990157480309
0
LINE
8
BLACK
6
CONTINUOUS
10
2.6873848425196849
20
-6.7119990157480309
11
2.7066761811023623
21
-6.7119990157480309
0
LINE
8
BLACK
6
CONTINUOUS
10
2.7066761811023623
20
-6.7119990157480309
11
2.7082581496062992
21
-6.7123137007874014
0
LINE
8
BLACK
6
CONTINUOUS
10
2.7988093307086612
20
-6.7123137007874014
11
2.8001504330708662
21
-6.7132098031496064
0
LINE
8
BLACK
6
CONTINUOUS
10
2.8001504330708662
20
-6.7132098031496064
11
2.8010465354330707
21
-6.7145509055118104
0
LINE
8
BLACK
6
CONTINUOUS
10
2.8010465354330707
20
-6.7145509055118104
11
2.8013612204724407
21
-6.7161328740157478
0
LINE
8
BLACK
6
CONTINUOUS
10
2.8013612204724407
20
-6.7161328740157478
11
2.8013612204724407
21
-6.7511722440944881
0
LINE
8
BLACK
6
CONTINUOUS
10
2.8013612204724407
20
-6.7511722440944881
11
2.8010465354330707
21
-6.7527542125984255
0
LINE
8
BLACK
6
CONTINUOUS
10
2.8010465354330707
20
-6.7527542125984255
11
2.8001504330708662
21
-6.7540953149606295
0
LINE
8
BLACK
6
CONTINUOUS
10
2.8001504330708662
20
-6.7540953149606295
11
2.7988093307086612
21
-6.7549914173228345
0
LINE
8
BLACK
6
CONTINUOUS
10
2.7988093307086612
20
-6.7549914173228345
11
2.7972273622047243
21
-6.755306102362205
0
LINE
8
BLACK
6
CONTINUOUS
10
2.7972273622047243
20
-6.755306102362205
11
2.7779360236220474
21
-6.755306102362205
0
LINE
8
BLACK
6
CONTINUOUS
10
2.7779360236220474
20
-6.755306102362205
11
2.7763540551181101
21
-6.7549914173228345
0
LINE
8
BLACK
6
CONTINUOUS
10
2.7763540551181101
20
-6.7549914173228345
11
2.7750129527559055
21
-6.7540953149606295
0
LINE
8
BLACK
6
CONTINUOUS
10
2.7750129527559055
20
-6.7540953149606295
11
2.7741168503937006
21
-6.7527542125984255
0
LINE
8
BLACK
6
CONTINUOUS
10
2.7741168503937006
20
-6.7527542125984255
11
2.7738021653543306
21
-6.7511722440944881
0
LINE
8
BLACK
6
CONTINUOUS
10
2.7738021653543306
20
-6.7511722440944881
11
2.7738021653543306
21
-6.7161328740157478
0
LINE
8
BLACK
6
CONTINUOUS
10
2.7738021653543306
20
-6.7161328740157478
11
2.7741168503937006
21
-6.7145509055118104
0
LINE
8
BLACK
6
CONTINUOUS
10
2.7741168503937006
20
-6.7145509055118104
11
2.7750129527559055
21
-6.7132098031496064
0
LINE
8
BLACK
6
CONTINUOUS
10
2.7750129527559055
20
-6.7132098031496064
11
2.7763540551181101
21
-6.7123137007874014
0
LINE
8
BLACK
6
CONTINUOUS
10
2.7763540551181101
20
-6.7123137007874014
11
2.7779360236220474
21
-6.7119990157480309
0
LINE
8
BLACK
6
CONTINUOUS
10
2.7779360236220474
20
-6.7119990157480309
11
2.7972273622047243
21
-6.7119990157480309
0
LINE
8
BLACK
6
CONTINUOUS
10
2.7972273622047243
20
-6.7119990157480309
11
2.7988093307086612
21
-6.7123137007874014
0
LINE
8
BLACK
6
CONTINUOUS
10
13.2551331496062996
20
-6.7001335826771653
11
13.2564742519685037
21
-6.7010296850393702
0
LINE
8
BLACK
6
CONTINUOUS
10
13.2564742519685037
20
-6.7010296850393702
11
13.2573703543307087
21
-6.7023707874015743
0
LINE
8
BLACK
6
CONTINUOUS
10
13.2573703543307087
20
-6.7023707874015743
11
13.2576850393700791
21
-6.7039527559055117
0
LINE
8
BLACK
6
CONTINUOUS
10
13.2576850393700791
20
-6.7039527559055117
11
13.2576850393700791
21
-6.738992125984252
0
LINE
8
BLACK
6
CONTINUOUS
10
13.2576850393700791
20
-6.738992125984252
11
13.2573703543307087
21
-6.7405740944881885
0
LINE
8
BLACK
6
CONTINUOUS
10
13.2573703543307087
20
-6.7405740944881885
11
13.2564742519685037
21
-6.7419151968503934
0
LINE
8
BLACK
6
CONTINUOUS
10
13.2564742519685037
20
-6.7419151968503934
11
13.2551331496062996
21
-6.7428112992125984
0
LINE
8
BLACK
6
CONTINUOUS
10
13.2551331496062996
20
-6.7428112992125984
11
13.2535511811023614
21
-6.743125984251968
0
LINE
8
BLACK
6
CONTINUOUS
10
13.2535511811023614
20
-6.743125984251968
11
13.234259842519684
21
-6.743125984251968
0
LINE
8
BLACK
6
CONTINUOUS
10
13.234259842519684
20
-6.743125984251968
11
13.2326778740157476
21
-6.7428112992125984
0
LINE
8
BLACK
6
CONTINUOUS
10
13.2326778740157476
20
-6.7428112992125984
11
13.2313367716535435
21
-6.7419151968503934
0
LINE
8
BLACK
6
CONTINUOUS
10
13.2313367716535435
20
-6.7419151968503934
11
13.2304406692913386
21
-6.7405740944881885
0
LINE
8
BLACK
6
CONTINUOUS
10
13.2304406692913386
20
-6.7405740944881885
11
13.2301259842519681
21
-6.738992125984252
0
LINE
8
BLACK
6
CONTINUOUS
10
13.2301259842519681
20
-6.738992125984252
11
13.2301259842519681
21
-6.7039527559055117
0
LINE
8
BLACK
6
CONTINUOUS
10
13.2301259842519681
20
-6.7039527559055117
11
13.2304406692913386
21
-6.7023707874015743
0
LINE
8
BLACK
6
CONTINUOUS
10
13.2304406692913386
20
-6.7023707874015743
11
13.2313367716535435
21
-6.7010296850393702
0
LINE
8
BLACK
6
CONTINUOUS
10
13.2313367716535435
20
-6.7010296850393702
11
13.2326778740157476
21
-6.7001335826771653
0
LINE
8
BLACK
6
CONTINUOUS
10
13.2326778740157476
20
-6.7001335826771653
11
13.234259842519684
21
-6.6998188976377948
0
LINE
8
BLACK
6
CONTINUOUS
10
13.234259842519684
20
-6.6998188976377948
11
13.2535511811023614
21
-6.6998188976377948
0
LINE
8
BLACK
6
CONTINUOUS
10
13.2535511811023614
20
-6.6998188976377948
11
13.2551331496062996
21
-6.7001335826771653
0
LINE
8
BLACK
6
CONTINUOUS
10
13.3456843307086608
20
-6.7001335826771653
11
13.3470254330708666
21
-6.7010296850393702
0
LINE
8
BLACK
6
CONTINUOUS
10
13.3470254330708666
20
-6.7010296850393702
11
13.3479215354330698
21
-6.7023707874015743
0
LINE
8
BLACK
6
CONTINUOUS
10
13.3479215354330698
20
-6.7023707874015743
11
13.3482362204724403
21
-6.7039527559055117
0
LINE
8
BLACK
6
CONTINUOUS
10
13.3482362204724403
20
-6.7039527559055117
11
13.3482362204724403
21
-6.738992125984252
0
LINE
8
BLACK
6
CONTINUOUS
10
13.3482362204724403
20
-6.738992125984252
11
13.3479215354330698
21
-6.7405740944881885
0
LINE
8
BLACK
6
CONTINUOUS
10
13.3479215354330698
20
-6.7405740944881885
11
13.3470254330708666
21
-6.7419151968503934
0
LINE
8
BLACK
6
CONTINUOUS
10
13.3470254330708666
20
-6.7419151968503934
11
13.3456843307086608
21
-6.7428112992125984
0
LINE
8
BLACK
6
CONTINUOUS
10
13.3456843307086608
20
-6.7428112992125984
11
13.3441023622047243
21
-6.743125984251968
0
LINE
8
BLACK
6
CONTINUOUS
10
13.3441023622047243
20
-6.743125984251968
11
13.3248110236220469
21
-6.743125984251968
0
LINE
8
BLACK
6
CONTINUOUS
10
13.3248110236220469
20
-6.743125984251968
11
13.3232290551181105
21
-6.7428112992125984
0
LINE
8
BLACK
6
CONTINUOUS
10
13.3232290551181105
20
-6.7428112992125984
11
13.3218879527559046
21
-6.7419151968503934
0
LINE
8
BLACK
6
CONTINUOUS
10
13.3218879527559046
20
-6.7419151968503934
11
13.3209918503936997
21
-6.7405740944881885
0
LINE
8
BLACK
6
CONTINUOUS
10
13.3209918503936997
20
-6.7405740944881885
11
13.320677165354331
21
-6.738992125984252
0
LINE
8
BLACK
6
CONTINUOUS
10
13.320677165354331
20
-6.738992125984252
11
13.320677165354331
21
-6.7039527559055117
0
LINE
8
BLACK
6
CONTINUOUS
10
13.320677165354331
20
-6.7039527559055117
11
13.3209918503936997
21
-6.7023707874015743
0
LINE
8
BLACK
6
CONTINUOUS
10
13.3209918503936997
20
-6.7023707874015743
11
13.3218879527559046
21
-6.7010296850393702
0
LINE
8
BLACK
6
CONTINUOUS
10
13.3218879527559046
20
-6.7010296850393702
11
13.3232290551181105
21
-6.7001335826771653
0
LINE
8
BLACK
6
CONTINUOUS
10
13.3232290551181105
20
-6.7001335826771653
11
13.3248110236220469
21
-6.6998188976377948
0
LINE
8
BLACK
6
CONTINUOUS
10
13.3248110236220469
20
-6.6998188976377948
11
13.3441023622047243
21
-6.6998188976377948
0
LINE
8
BLACK
6
CONTINUOUS
10
13.3441023622047243
20
-6.6998188976377948
11
13.3456843307086608
21
-6.7001335826771653
  0
ENDSEC
  0
EOF
