  0
SECTION
  2
HEADER
  9
$ANGBASE
  50
0.0
  9
$ANGDIR
  70
1
  9
$MEASUREMENT
  70
0
  0
ENDSEC
  0
SECTION
  2
TABLES
  0
TABLE
  2
LTYPE
  70
4
  0
LTYPE
  5
40F
  2
CONTINUOUS
  70
0
  3
Solid line
  72
65
  73
0
  40
0.0
  0
LTYPE
  5
410
  2
DASHDOT
 70
0
  3
Dash Dot ____ _ ____ _
 72
65
 73
4
 40
2.0
 49
1.25
 49
-0.25
 49
0.25
 49
-0.25
  0
LTYPE
  5
411
  2
DASHED
 70
0
  3
Dashed __ __ __ __ __
 72
65
 73
2
 40
0.75
 49
0.5
 49
-0.25
  0
LTYPE
  5
43B
  2
DOTTED
 70
0
  3
Dotted .  .  .  .
 72
65
 73
2
 40
0.2
 49
0.0
 49
-0.2
  0
ENDTAB
  0
TABLE
  2
STYLE
  70
4
  0
STYLE
  2
KICAD
  70
0
  40
0
  41
1
  42
1
  50
0
  71
0
  3
isocp.shx
  0
STYLE
  2
KICADB
  70
0
  40
0
  41
1
  42
1
  50
0
  71
0
  3
isocp.shx
  0
STYLE
  2
KICADI
  70
0
  40
0
  41
1
  42
1
  50
15
  71
0
  3
isocp.shx
  0
STYLE
  2
KICADBI
  70
0
  40
0
  41
1
  42
1
  50
15
  71
0
  3
isocp.shx
  0
ENDTAB
  0
TABLE
  2
LAYER
  70
1
  0
LAYER
  2
BLACK
  70
0
  62
7
  6
CONTINUOUS
  0
ENDTAB
  0
ENDSEC
  0
SECTION
  2
ENTITIES
0
LINE
8
BLACK
6
CONTINUOUS
10
2.7977643307086613
20
-4.0535785433070863
11
2.803112125984252
21
-4.0557936614173231
0
LINE
8
BLACK
6
CONTINUOUS
10
2.803112125984252
20
-4.0557936614173231
11
2.807925
21
-4.0590095275590548
0
LINE
8
BLACK
6
CONTINUOUS
10
2.807925
20
-4.0590095275590548
11
2.8120180314960628
21
-4.0631025590551184
0
LINE
8
BLACK
6
CONTINUOUS
10
2.8120180314960628
20
-4.0631025590551184
11
2.8152338976377953
21
-4.0679154330708664
0
LINE
8
BLACK
6
CONTINUOUS
10
2.8152338976377953
20
-4.0679154330708664
11
2.8174490157480316
21
-4.0732632283464563
0
LINE
8
BLACK
6
CONTINUOUS
10
2.8174490157480316
20
-4.0732632283464563
11
2.8185783070866139
21
-4.0789404330708656
0
LINE
8
BLACK
6
CONTINUOUS
10
2.8185783070866139
20
-4.0789404330708656
11
2.8187204724409449
21
-4.0818346456692911
0
LINE
8
BLACK
6
CONTINUOUS
10
2.8187204724409449
20
-4.0818346456692911
11
2.8187204724409449
21
-4.1212047244094485
0
LINE
8
BLACK
6
CONTINUOUS
10
2.8187204724409449
20
-4.1212047244094485
11
2.8185783070866139
21
-4.124098937007874
0
LINE
8
BLACK
6
CONTINUOUS
10
2.8185783070866139
20
-4.124098937007874
11
2.8174490157480316
21
-4.1297761417322834
0
LINE
8
BLACK
6
CONTINUOUS
10
2.8174490157480316
20
-4.1297761417322834
11
2.8152338976377953
21
-4.1351239370078741
0
LINE
8
BLACK
6
CONTINUOUS
10
2.8152338976377953
20
-4.1351239370078741
11
2.8120180314960628
21
-4.1399368110236221
0
LINE
8
BLACK
6
CONTINUOUS
10
2.8120180314960628
20
-4.1399368110236221
11
2.807925
21
-4.1440298425196849
0
LINE
8
BLACK
6
CONTINUOUS
10
2.807925
20
-4.1440298425196849
11
2.803112125984252
21
-4.1472457086614174
0
LINE
8
BLACK
6
CONTINUOUS
10
2.803112125984252
20
-4.1472457086614174
11
2.7977643307086613
21
-4.1494608267716533
0
LINE
8
BLACK
6
CONTINUOUS
10
2.7977643307086613
20
-4.1494608267716533
11
2.7920871259842519
21
-4.1505901181102365
0
LINE
8
BLACK
6
CONTINUOUS
10
2.7920871259842519
20
-4.1505901181102365
11
2.7862987007874014
21
-4.1505901181102365
0
LINE
8
BLACK
6
CONTINUOUS
10
2.7862987007874014
20
-4.1505901181102365
11
2.780621496062992
21
-4.1494608267716533
0
LINE
8
BLACK
6
CONTINUOUS
10
2.780621496062992
20
-4.1494608267716533
11
2.7752737007874013
21
-4.1472457086614174
0
LINE
8
BLACK
6
CONTINUOUS
10
2.7752737007874013
20
-4.1472457086614174
11
2.7704608267716533
21
-4.1440298425196849
0
LINE
8
BLACK
6
CONTINUOUS
10
2.7704608267716533
20
-4.1440298425196849
11
2.7663677952755905
21
-4.1399368110236221
0
LINE
8
BLACK
6
CONTINUOUS
10
2.7663677952755905
20
-4.1399368110236221
11
2.763151929133858
21
-4.1351239370078741
0
LINE
8
BLACK
6
CONTINUOUS
10
2.763151929133858
20
-4.1351239370078741
11
2.7609368110236221
21
-4.1297761417322834
0
LINE
8
BLACK
6
CONTINUOUS
10
2.7609368110236221
20
-4.1297761417322834
11
2.7598075196850393
21
-4.124098937007874
0
LINE
8
BLACK
6
CONTINUOUS
10
2.7598075196850393
20
-4.124098937007874
11
2.7596653543307088
21
-4.1212047244094485
0
LINE
8
BLACK
6
CONTINUOUS
10
2.7596653543307088
20
-4.1212047244094485
11
2.7596653543307088
21
-4.0818346456692911
0
LINE
8
BLACK
6
CONTINUOUS
10
2.7596653543307088
20
-4.0818346456692911
11
2.7598075196850393
21
-4.0789404330708656
0
LINE
8
BLACK
6
CONTINUOUS
10
2.7598075196850393
20
-4.0789404330708656
11
2.7609368110236221
21
-4.0732632283464563
0
LINE
8
BLACK
6
CONTINUOUS
10
2.7609368110236221
20
-4.0732632283464563
11
2.763151929133858
21
-4.0679154330708664
0
LINE
8
BLACK
6
CONTINUOUS
10
2.763151929133858
20
-4.0679154330708664
11
2.7663677952755905
21
-4.0631025590551184
0
LINE
8
BLACK
6
CONTINUOUS
10
2.7663677952755905
20
-4.0631025590551184
11
2.7704608267716533
21
-4.0590095275590548
0
LINE
8
BLACK
6
CONTINUOUS
10
2.7704608267716533
20
-4.0590095275590548
11
2.7752737007874013
21
-4.0557936614173231
0
LINE
8
BLACK
6
CONTINUOUS
10
2.7752737007874013
20
-4.0557936614173231
11
2.780621496062992
21
-4.0535785433070863
0
LINE
8
BLACK
6
CONTINUOUS
10
2.780621496062992
20
-4.0535785433070863
11
2.7862987007874014
21
-4.052449251968504
0
LINE
8
BLACK
6
CONTINUOUS
10
2.7862987007874014
20
-4.052449251968504
11
2.7920871259842519
21
-4.052449251968504
0
LINE
8
BLACK
6
CONTINUOUS
10
2.7920871259842519
20
-4.052449251968504
11
2.7977643307086613
21
-4.0535785433070863
0
LINE
8
BLACK
6
CONTINUOUS
10
3.1727564566929134
20
-4.0535785433070863
11
3.1781042519685037
21
-4.0557936614173231
0
LINE
8
BLACK
6
CONTINUOUS
10
3.1781042519685037
20
-4.0557936614173231
11
3.1829171259842517
21
-4.0590095275590548
0
LINE
8
BLACK
6
CONTINUOUS
10
3.1829171259842517
20
-4.0590095275590548
11
3.1870101574803149
21
-4.0631025590551184
0
LINE
8
BLACK
6
CONTINUOUS
10
3.1870101574803149
20
-4.0631025590551184
11
3.190226023622047
21
-4.0679154330708664
0
LINE
8
BLACK
6
CONTINUOUS
10
3.190226023622047
20
-4.0679154330708664
11
3.1924411417322833
21
-4.0732632283464563
0
LINE
8
BLACK
6
CONTINUOUS
10
3.1924411417322833
20
-4.0732632283464563
11
3.1935704330708661
21
-4.0789404330708656
0
LINE
8
BLACK
6
CONTINUOUS
10
3.1935704330708661
20
-4.0789404330708656
11
3.1937125984251966
21
-4.0818346456692911
0
LINE
8
BLACK
6
CONTINUOUS
10
3.1937125984251966
20
-4.0818346456692911
11
3.1937125984251966
21
-4.1212047244094485
0
LINE
8
BLACK
6
CONTINUOUS
10
3.1937125984251966
20
-4.1212047244094485
11
3.1935704330708661
21
-4.124098937007874
0
LINE
8
BLACK
6
CONTINUOUS
10
3.1935704330708661
20
-4.124098937007874
11
3.1924411417322833
21
-4.1297761417322834
0
LINE
8
BLACK
6
CONTINUOUS
10
3.1924411417322833
20
-4.1297761417322834
11
3.190226023622047
21
-4.1351239370078741
0
LINE
8
BLACK
6
CONTINUOUS
10
3.190226023622047
20
-4.1351239370078741
11
3.1870101574803149
21
-4.1399368110236221
0
LINE
8
BLACK
6
CONTINUOUS
10
3.1870101574803149
20
-4.1399368110236221
11
3.1829171259842517
21
-4.1440298425196849
0
LINE
8
BLACK
6
CONTINUOUS
10
3.1829171259842517
20
-4.1440298425196849
11
3.1781042519685037
21
-4.1472457086614174
0
LINE
8
BLACK
6
CONTINUOUS
10
3.1781042519685037
20
-4.1472457086614174
11
3.1727564566929134
21
-4.1494608267716533
0
LINE
8
BLACK
6
CONTINUOUS
10
3.1727564566929134
20
-4.1494608267716533
11
3.167079251968504
21
-4.1505901181102365
0
LINE
8
BLACK
6
CONTINUOUS
10
3.167079251968504
20
-4.1505901181102365
11
3.1612908267716535
21
-4.1505901181102365
0
LINE
8
BLACK
6
CONTINUOUS
10
3.1612908267716535
20
-4.1505901181102365
11
3.1556136220472442
21
-4.1494608267716533
0
LINE
8
BLACK
6
CONTINUOUS
10
3.1556136220472442
20
-4.1494608267716533
11
3.1502658267716535
21
-4.1472457086614174
0
LINE
8
BLACK
6
CONTINUOUS
10
3.1502658267716535
20
-4.1472457086614174
11
3.1454529527559054
21
-4.1440298425196849
0
LINE
8
BLACK
6
CONTINUOUS
10
3.1454529527559054
20
-4.1440298425196849
11
3.1413599212598426
21
-4.1399368110236221
0
LINE
8
BLACK
6
CONTINUOUS
10
3.1413599212598426
20
-4.1399368110236221
11
3.1381440551181101
21
-4.1351239370078741
0
LINE
8
BLACK
6
CONTINUOUS
10
3.1381440551181101
20
-4.1351239370078741
11
3.1359289370078738
21
-4.1297761417322834
0
LINE
8
BLACK
6
CONTINUOUS
10
3.1359289370078738
20
-4.1297761417322834
11
3.1347996456692915
21
-4.124098937007874
0
LINE
8
BLACK
6
CONTINUOUS
10
3.1347996456692915
20
-4.124098937007874
11
3.1346574803149605
21
-4.1212047244094485
0
LINE
8
BLACK
6
CONTINUOUS
10
3.1346574803149605
20
-4.1212047244094485
11
3.1346574803149605
21
-4.0818346456692911
0
LINE
8
BLACK
6
CONTINUOUS
10
3.1346574803149605
20
-4.0818346456692911
11
3.1347996456692915
21
-4.0789404330708656
0
LINE
8
BLACK
6
CONTINUOUS
10
3.1347996456692915
20
-4.0789404330708656
11
3.1359289370078738
21
-4.0732632283464563
0
LINE
8
BLACK
6
CONTINUOUS
10
3.1359289370078738
20
-4.0732632283464563
11
3.1381440551181101
21
-4.0679154330708664
0
LINE
8
BLACK
6
CONTINUOUS
10
3.1381440551181101
20
-4.0679154330708664
11
3.1413599212598426
21
-4.0631025590551184
0
LINE
8
BLACK
6
CONTINUOUS
10
3.1413599212598426
20
-4.0631025590551184
11
3.1454529527559054
21
-4.0590095275590548
0
LINE
8
BLACK
6
CONTINUOUS
10
3.1454529527559054
20
-4.0590095275590548
11
3.1502658267716535
21
-4.0557936614173231
0
LINE
8
BLACK
6
CONTINUOUS
10
3.1502658267716535
20
-4.0557936614173231
11
3.1556136220472442
21
-4.0535785433070863
0
LINE
8
BLACK
6
CONTINUOUS
10
3.1556136220472442
20
-4.0535785433070863
11
3.1612908267716535
21
-4.052449251968504
0
LINE
8
BLACK
6
CONTINUOUS
10
3.1612908267716535
20
-4.052449251968504
11
3.167079251968504
21
-4.052449251968504
0
LINE
8
BLACK
6
CONTINUOUS
10
3.167079251968504
20
-4.052449251968504
11
3.1727564566929134
21
-4.0535785433070863
0
LINE
8
BLACK
6
CONTINUOUS
10
12.8756777165354332
20
-4.0535785433070863
11
12.8810255118110231
21
-4.0557936614173231
0
LINE
8
BLACK
6
CONTINUOUS
10
12.8810255118110231
20
-4.0557936614173231
11
12.8858383858267711
21
-4.0590095275590548
0
LINE
8
BLACK
6
CONTINUOUS
10
12.8858383858267711
20
-4.0590095275590548
11
12.8899314173228348
21
-4.0631025590551184
0
LINE
8
BLACK
6
CONTINUOUS
10
12.8899314173228348
20
-4.0631025590551184
11
12.8931472834645664
21
-4.0679154330708664
0
LINE
8
BLACK
6
CONTINUOUS
10
12.8931472834645664
20
-4.0679154330708664
11
12.8953624015748023
21
-4.0732632283464563
0
LINE
8
BLACK
6
CONTINUOUS
10
12.8953624015748023
20
-4.0732632283464563
11
12.8964916929133864
21
-4.0789404330708656
0
LINE
8
BLACK
6
CONTINUOUS
10
12.8964916929133864
20
-4.0789404330708656
11
12.896633858267716
21
-4.0818346456692911
0
LINE
8
BLACK
6
CONTINUOUS
10
12.896633858267716
20
-4.0818346456692911
11
12.896633858267716
21
-4.1212047244094485
0
LINE
8
BLACK
6
CONTINUOUS
10
12.896633858267716
20
-4.1212047244094485
11
12.8964916929133864
21
-4.124098937007874
0
LINE
8
BLACK
6
CONTINUOUS
10
12.8964916929133864
20
-4.124098937007874
11
12.8953624015748023
21
-4.1297761417322834
0
LINE
8
BLACK
6
CONTINUOUS
10
12.8953624015748023
20
-4.1297761417322834
11
12.8931472834645664
21
-4.1351239370078741
0
LINE
8
BLACK
6
CONTINUOUS
10
12.8931472834645664
20
-4.1351239370078741
11
12.8899314173228348
21
-4.1399368110236221
0
LINE
8
BLACK
6
CONTINUOUS
10
12.8899314173228348
20
-4.1399368110236221
11
12.8858383858267711
21
-4.1440298425196849
0
LINE
8
BLACK
6
CONTINUOUS
10
12.8858383858267711
20
-4.1440298425196849
11
12.8810255118110231
21
-4.1472457086614174
0
LINE
8
BLACK
6
CONTINUOUS
10
12.8810255118110231
20
-4.1472457086614174
11
12.8756777165354332
21
-4.1494608267716533
0
LINE
8
BLACK
6
CONTINUOUS
10
12.8756777165354332
20
-4.1494608267716533
11
12.870000511811023
21
-4.1505901181102365
0
LINE
8
BLACK
6
CONTINUOUS
10
12.870000511811023
20
-4.1505901181102365
11
12.8642120866141738
21
-4.1505901181102365
0
LINE
8
BLACK
6
CONTINUOUS
10
12.8642120866141738
20
-4.1505901181102365
11
12.8585348818897636
21
-4.1494608267716533
0
LINE
8
BLACK
6
CONTINUOUS
10
12.8585348818897636
20
-4.1494608267716533
11
12.8531870866141738
21
-4.1472457086614174
0
LINE
8
BLACK
6
CONTINUOUS
10
12.8531870866141738
20
-4.1472457086614174
11
12.8483742125984257
21
-4.1440298425196849
0
LINE
8
BLACK
6
CONTINUOUS
10
12.8483742125984257
20
-4.1440298425196849
11
12.8442811811023621
21
-4.1399368110236221
0
LINE
8
BLACK
6
CONTINUOUS
10
12.8442811811023621
20
-4.1399368110236221
11
12.8410653149606304
21
-4.1351239370078741
0
LINE
8
BLACK
6
CONTINUOUS
10
12.8410653149606304
20
-4.1351239370078741
11
12.8388501968503927
21
-4.1297761417322834
0
LINE
8
BLACK
6
CONTINUOUS
10
12.8388501968503927
20
-4.1297761417322834
11
12.8377209055118104
21
-4.124098937007874
0
LINE
8
BLACK
6
CONTINUOUS
10
12.8377209055118104
20
-4.124098937007874
11
12.8375787401574808
21
-4.1212047244094485
0
LINE
8
BLACK
6
CONTINUOUS
10
12.8375787401574808
20
-4.1212047244094485
11
12.8375787401574808
21
-4.0818346456692911
0
LINE
8
BLACK
6
CONTINUOUS
10
12.8375787401574808
20
-4.0818346456692911
11
12.8377209055118104
21
-4.0789404330708656
0
LINE
8
BLACK
6
CONTINUOUS
10
12.8377209055118104
20
-4.0789404330708656
11
12.8388501968503927
21
-4.0732632283464563
0
LINE
8
BLACK
6
CONTINUOUS
10
12.8388501968503927
20
-4.0732632283464563
11
12.8410653149606304
21
-4.0679154330708664
0
LINE
8
BLACK
6
CONTINUOUS
10
12.8410653149606304
20
-4.0679154330708664
11
12.8442811811023621
21
-4.0631025590551184
0
LINE
8
BLACK
6
CONTINUOUS
10
12.8442811811023621
20
-4.0631025590551184
11
12.8483742125984257
21
-4.0590095275590548
0
LINE
8
BLACK
6
CONTINUOUS
10
12.8483742125984257
20
-4.0590095275590548
11
12.8531870866141738
21
-4.0557936614173231
0
LINE
8
BLACK
6
CONTINUOUS
10
12.8531870866141738
20
-4.0557936614173231
11
12.8585348818897636
21
-4.0535785433070863
0
LINE
8
BLACK
6
CONTINUOUS
10
12.8585348818897636
20
-4.0535785433070863
11
12.8642120866141738
21
-4.052449251968504
0
LINE
8
BLACK
6
CONTINUOUS
10
12.8642120866141738
20
-4.052449251968504
11
12.870000511811023
21
-4.052449251968504
0
LINE
8
BLACK
6
CONTINUOUS
10
12.870000511811023
20
-4.052449251968504
11
12.8756777165354332
21
-4.0535785433070863
0
LINE
8
BLACK
6
CONTINUOUS
10
13.2506698425196845
20
-4.0535785433070863
11
13.2560176377952761
21
-4.0557936614173231
0
LINE
8
BLACK
6
CONTINUOUS
10
13.2560176377952761
20
-4.0557936614173231
11
13.2608305118110241
21
-4.0590095275590548
0
LINE
8
BLACK
6
CONTINUOUS
10
13.2608305118110241
20
-4.0590095275590548
11
13.264923543307086
21
-4.0631025590551184
0
LINE
8
BLACK
6
CONTINUOUS
10
13.264923543307086
20
-4.0631025590551184
11
13.2681394094488194
21
-4.0679154330708664
0
LINE
8
BLACK
6
CONTINUOUS
10
13.2681394094488194
20
-4.0679154330708664
11
13.2703545275590553
21
-4.0732632283464563
0
LINE
8
BLACK
6
CONTINUOUS
10
13.2703545275590553
20
-4.0732632283464563
11
13.2714838188976376
21
-4.0789404330708656
0
LINE
8
BLACK
6
CONTINUOUS
10
13.2714838188976376
20
-4.0789404330708656
11
13.271625984251969
21
-4.0818346456692911
0
LINE
8
BLACK
6
CONTINUOUS
10
13.271625984251969
20
-4.0818346456692911
11
13.271625984251969
21
-4.1212047244094485
0
LINE
8
BLACK
6
CONTINUOUS
10
13.271625984251969
20
-4.1212047244094485
11
13.2714838188976376
21
-4.124098937007874
0
LINE
8
BLACK
6
CONTINUOUS
10
13.2714838188976376
20
-4.124098937007874
11
13.2703545275590553
21
-4.1297761417322834
0
LINE
8
BLACK
6
CONTINUOUS
10
13.2703545275590553
20
-4.1297761417322834
11
13.2681394094488194
21
-4.1351239370078741
0
LINE
8
BLACK
6
CONTINUOUS
10
13.2681394094488194
20
-4.1351239370078741
11
13.264923543307086
21
-4.1399368110236221
0
LINE
8
BLACK
6
CONTINUOUS
10
13.264923543307086
20
-4.1399368110236221
11
13.2608305118110241
21
-4.1440298425196849
0
LINE
8
BLACK
6
CONTINUOUS
10
13.2608305118110241
20
-4.1440298425196849
11
13.2560176377952761
21
-4.1472457086614174
0
LINE
8
BLACK
6
CONTINUOUS
10
13.2560176377952761
20
-4.1472457086614174
11
13.2506698425196845
21
-4.1494608267716533
0
LINE
8
BLACK
6
CONTINUOUS
10
13.2506698425196845
20
-4.1494608267716533
11
13.244992637795276
21
-4.1505901181102365
0
LINE
8
BLACK
6
CONTINUOUS
10
13.244992637795276
20
-4.1505901181102365
11
13.2392042125984251
21
-4.1505901181102365
0
LINE
8
BLACK
6
CONTINUOUS
10
13.2392042125984251
20
-4.1505901181102365
11
13.2335270078740148
21
-4.1494608267716533
0
LINE
8
BLACK
6
CONTINUOUS
10
13.2335270078740148
20
-4.1494608267716533
11
13.228179212598425
21
-4.1472457086614174
0
LINE
8
BLACK
6
CONTINUOUS
10
13.228179212598425
20
-4.1472457086614174
11
13.223366338582677
21
-4.1440298425196849
0
LINE
8
BLACK
6
CONTINUOUS
10
13.223366338582677
20
-4.1440298425196849
11
13.2192733070866133
21
-4.1399368110236221
0
LINE
8
BLACK
6
CONTINUOUS
10
13.2192733070866133
20
-4.1399368110236221
11
13.2160574409448817
21
-4.1351239370078741
0
LINE
8
BLACK
6
CONTINUOUS
10
13.2160574409448817
20
-4.1351239370078741
11
13.2138423228346458
21
-4.1297761417322834
0
LINE
8
BLACK
6
CONTINUOUS
10
13.2138423228346458
20
-4.1297761417322834
11
13.2127130314960635
21
-4.124098937007874
0
LINE
8
BLACK
6
CONTINUOUS
10
13.2127130314960635
20
-4.124098937007874
11
13.212570866141732
21
-4.1212047244094485
0
LINE
8
BLACK
6
CONTINUOUS
10
13.212570866141732
20
-4.1212047244094485
11
13.212570866141732
21
-4.0818346456692911
0
LINE
8
BLACK
6
CONTINUOUS
10
13.212570866141732
20
-4.0818346456692911
11
13.2127130314960635
21
-4.0789404330708656
0
LINE
8
BLACK
6
CONTINUOUS
10
13.2127130314960635
20
-4.0789404330708656
11
13.2138423228346458
21
-4.0732632283464563
0
LINE
8
BLACK
6
CONTINUOUS
10
13.2138423228346458
20
-4.0732632283464563
11
13.2160574409448817
21
-4.0679154330708664
0
LINE
8
BLACK
6
CONTINUOUS
10
13.2160574409448817
20
-4.0679154330708664
11
13.2192733070866133
21
-4.0631025590551184
0
LINE
8
BLACK
6
CONTINUOUS
10
13.2192733070866133
20
-4.0631025590551184
11
13.223366338582677
21
-4.0590095275590548
0
LINE
8
BLACK
6
CONTINUOUS
10
13.223366338582677
20
-4.0590095275590548
11
13.228179212598425
21
-4.0557936614173231
0
LINE
8
BLACK
6
CONTINUOUS
10
13.228179212598425
20
-4.0557936614173231
11
13.2335270078740148
21
-4.0535785433070863
0
LINE
8
BLACK
6
CONTINUOUS
10
13.2335270078740148
20
-4.0535785433070863
11
13.2392042125984251
21
-4.052449251968504
0
LINE
8
BLACK
6
CONTINUOUS
10
13.2392042125984251
20
-4.052449251968504
11
13.244992637795276
21
-4.052449251968504
0
LINE
8
BLACK
6
CONTINUOUS
10
13.244992637795276
20
-4.052449251968504
11
13.2506698425196845
21
-4.0535785433070863
  0
ENDSEC
  0
EOF
